<svg xmlns="http://www.w3.org/2000/svg" width="1024" height="1024" viewBox="0 0 1024 1024" fill="none">
  <style>
    path,
    circle {
      fill: black;
    }
    @media (prefers-color-scheme: dark) {
      path,
      circle {
        fill: white;
      }
    }
  </style>
  <path
    d="M644.658 470.731H528.518V366.772C528.518 364.264 527.784 361.819 526.418 359.778C525.052 357.736 523.122 356.201 520.898 355.386C518.673 354.571 516.266 354.517 514.012 355.232C511.757 355.947 509.769 357.395 508.324 359.374L370.384 539.301C369.082 541.083 368.276 543.22 368.059 545.467C367.842 547.714 368.223 549.981 369.157 552.008C370.092 554.035 371.543 555.741 373.344 556.931C375.145 558.121 377.224 558.746 379.342 558.735H495.482V662.694C495.482 665.202 496.216 667.647 497.582 669.688C498.948 671.73 500.878 673.265 503.102 674.08C505.327 674.895 507.734 674.948 509.988 674.233C512.243 673.518 514.231 672.071 515.676 670.092L653.616 490.165C654.918 488.383 655.724 486.246 655.941 483.999C656.158 481.752 655.777 479.485 654.843 477.458C653.908 475.43 652.457 473.724 650.656 472.535C648.855 471.345 646.777 470.72 644.658 470.731V470.731Z" />
  <circle cx="800" cy="800" r="32" />
  <circle cx="512" cy="800" r="32" />
  <circle cx="224" cy="800" r="32" />
  <circle cx="800" cy="512" r="32" />
  <circle cx="224" cy="512" r="32" />
  <circle cx="800" cy="224" r="32" />
  <circle cx="512" cy="224" r="32" />
  <circle cx="224" cy="224" r="32" />
</svg>