<svg width="16" height="16" viewBox="0 0 16 16" fill="none" xmlns="http://www.w3.org/2000/svg">
  <style>
    path {
      fill: black;
    }
    @media (prefers-color-scheme: dark) {
      path {
        fill: white;
      }
    }
  </style>
<g clip-path="url(#clip0_843_19975)">
<path fill-rule="evenodd" clip-rule="evenodd" d="M1.15613 10.8684C1.55812 11.2668 2.11347 11.5132 2.72689 11.5132H6.78298V14.8023C6.78298 15.1331 6.91826 15.4325 7.13696 15.6492C7.35566 15.8659 7.6578 16 7.99153 16C8.7611 16 9.48396 15.6341 9.93506 15.0162L15.073 7.97861C15.347 7.60317 15.4946 7.15159 15.4946 6.6882C15.4946 6.08029 15.246 5.52994 14.844 5.13156C14.442 4.73318 13.8866 4.48677 13.2732 4.48677H9.21711V1.19767C9.21711 0.866944 9.08184 0.567526 8.86314 0.350789C8.64443 0.134053 8.3423 0 8.00857 0C7.23899 0 6.51614 0.3659 6.06504 0.983794L0.927141 8.02139C0.653048 8.39683 0.505493 8.84841 0.505493 9.3118C0.505493 9.91971 0.754132 10.4701 1.15613 10.8684Z"/>
</g>
<defs>
<clipPath id="clip0_843_19975">
<rect width="16" height="16" fill="white"/>
</clipPath>
</defs>
</svg>
