<svg xmlns="http://www.w3.org/2000/svg" width="1024" height="1024" viewBox="0 0 1024 1024" fill="none">
  <style>
    path,
    circle {
      fill: black;
    }
    @media (prefers-color-scheme: dark) {
      path,
      circle {
        fill: white;
      }
    }
  </style>
  <path
    d="M724.253 445.97H538.428V279.635C538.429 275.623 537.255 271.71 535.069 268.444C532.883 265.178 529.795 262.721 526.236 261.418C522.677 260.114 518.826 260.028 515.219 261.172C511.612 262.316 508.43 264.632 506.118 267.798L285.415 555.682C283.331 558.533 282.042 561.951 281.695 565.547C281.348 569.142 281.957 572.769 283.452 576.013C284.947 579.257 287.268 581.986 290.15 583.89C293.032 585.793 296.358 586.793 299.748 586.776H485.572V753.11C485.571 757.123 486.745 761.035 488.931 764.301C491.117 767.567 494.205 770.024 497.764 771.328C501.323 772.631 505.175 772.717 508.782 771.573C512.388 770.43 515.57 768.113 517.882 764.947L738.585 477.064C740.669 474.213 741.958 470.794 742.305 467.199C742.652 463.603 742.043 459.976 740.548 456.733C739.053 453.489 736.732 450.759 733.85 448.856C730.968 446.952 727.643 445.952 724.253 445.97V445.97Z" />
  <circle cx="973" cy="973" r="51" />
  <circle cx="512" cy="973" r="51" />
  <circle cx="51" cy="973" r="51" />
  <circle cx="973" cy="512" r="51" />
  <circle cx="51" cy="512" r="51" />
  <circle cx="973" cy="51" r="51" />
  <circle cx="512" cy="51" r="51" />
  <circle cx="51" cy="51" r="51" />
</svg>