<?xml version="1.0" encoding="UTF-8" standalone="no"?>
<svg width="540px" height="32px" viewBox="0 0 540 32" version="1.1" xmlns="http://www.w3.org/2000/svg" xmlns:xlink="http://www.w3.org/1999/xlink">
    <!-- Generator: Sketch 39.1 (31720) - http://www.bohemiancoding.com/sketch -->
    <title>logo</title>
    <desc>Created with Sketch.</desc>
    <defs></defs>
    <g id="Page-1" stroke="none" stroke-width="1" fill="none" fill-rule="evenodd">
        <g id="logo">
            <g id="Logo-and-tagline">
                <path d="M16.7695312,3.39648438 L14.4140625,3.4140625 L14.0800781,3.4140625 L14.0800781,20.7636719 C14.0800781,22.0527408 14.4374964,22.925779 15.1523438,23.3828125 C15.6445337,23.6875015 16.6113209,23.9218742 18.0527344,24.0859375 L18.0527344,24.71875 C18.0527344,24.8125005 18.0410157,24.9062495 18.0175781,25 L6.38085938,25 L6.34570312,24.0859375 C6.81445547,23.9218742 7.28613044,23.7753913 7.76074219,23.6464844 C8.23535394,23.5175775 8.66015437,23.3476573 9.03515625,23.1367188 C9.87891047,22.6679664 10.3007812,21.8769587 10.3007812,20.7636719 L10.3007812,3.4140625 L7.734375,3.4140625 C6.67968223,3.4140625 5.87109656,3.45507771 5.30859375,3.53710938 C4.74609094,3.61914104 4.29199392,3.82128745 3.94628906,4.14355469 C3.60058421,4.46582192 3.28418112,4.83788852 2.99707031,5.25976562 C2.7099595,5.68164273 2.44043095,6.11816181 2.18847656,6.56933594 C1.93652218,7.02051007 1.6757826,7.41015461 1.40625,7.73828125 L0.59765625,7.73828125 L1.03710938,2.0078125 C4.02540557,2.12500059 7.99802209,2.18359375 12.9550781,2.18359375 C17.9121342,2.18359375 21.4042867,2.11328195 23.4316406,1.97265625 L23.9941406,7.75585938 L23.1503906,7.75585938 C22.880858,7.42773273 22.6259778,7.03808819 22.3857422,6.58691406 C22.1455066,6.13573993 21.884767,5.69922086 21.6035156,5.27734375 C20.9238247,4.24608859 20.2207068,3.67187559 19.4941406,3.5546875 C18.8261685,3.44921822 17.9179745,3.39648438 16.7695312,3.39648438 L16.7695312,3.39648438 Z M27.0043527,13.2226562 C26.7699765,13.9843788 26.6527902,14.8749949 26.6527902,15.8945312 C26.6527902,16.9140676 26.7699765,17.9042921 27.0043527,18.8652344 C27.2387288,19.8261767 27.5785692,20.6874962 28.0238839,21.4492188 C29.0082638,23.1367272 30.2562982,23.9804688 31.7680245,23.9804688 C33.2445944,23.9804688 34.3871611,23.429693 35.1957589,22.328125 C35.9457627,21.3085887 36.3207589,19.92579 36.3207589,18.1796875 C36.3207589,15.8710822 35.8637322,13.9375078 34.9496652,12.3789062 C34.0004417,10.7265542 32.7641259,9.90039062 31.2406808,9.90039062 C29.0961388,9.90039062 27.6840436,11.0078014 27.0043527,13.2226562 L27.0043527,13.2226562 Z M23.1371652,16.984375 C23.1371652,14.5468628 23.9574695,12.5429766 25.5981027,10.9726562 C27.1801418,9.47264875 29.0961383,8.72265625 31.3461495,8.72265625 C33.7485053,8.72265625 35.7348136,9.46093012 37.3051339,10.9375 C38.9574859,12.4843827 39.7836495,14.4941283 39.7836495,16.9667969 C39.7836495,19.4394655 38.9633453,21.4726483 37.322712,23.0664062 C35.7641105,24.5898514 33.8363954,25.3515625 31.5395089,25.3515625 C29.2426224,25.3515625 27.2856108,24.5781327 25.6684152,23.03125 C23.9809067,21.4257732 23.1371652,19.4101684 23.1371652,16.984375 L23.1371652,16.984375 Z M61.1805803,24.1210938 L61.1454241,25 L52.3563616,25 C52.332924,24.8710931 52.3212053,24.7187509 52.3212053,24.5429688 L52.3212053,24.1210938 C52.4618311,24.0273433 52.6581182,23.9541018 52.9100725,23.9013672 C53.1620269,23.8486325 53.4169072,23.7871097 53.674721,23.7167969 C54.3075366,23.5410147 54.6825329,23.2832048 54.799721,22.9433594 C55.0575348,22.4394506 55.1864397,21.7832072 55.1864397,20.9746094 L55.1864397,14.8574219 C55.1864397,13.4863213 55.0311678,12.5400417 54.7206194,12.0185547 C54.410071,11.4970677 54.067301,11.1337901 53.6922991,10.9287109 C53.3172972,10.7236318 52.8719892,10.6210938 52.3563616,10.6210938 C51.840734,10.6210938 51.3837073,10.6884759 50.9852678,10.8232422 C50.5868284,10.9580085 50.2118321,11.1367176 49.8602678,11.359375 C49.2860462,11.7226581 48.6473807,12.2968711 47.9442522,13.0820312 L47.9442522,20.8691406 C47.9442522,22.1699284 48.0731572,22.9257802 48.330971,23.1367188 C48.5887848,23.3476573 48.8465947,23.5029292 49.1044085,23.6025391 C49.3622223,23.7021489 49.6288212,23.787109 49.9042132,23.8574219 C50.1796052,23.9277347 50.4169075,24.0156245 50.6161272,24.1210938 L50.580971,25 L41.9149553,25 C41.9032365,24.941406 41.8973772,24.8828128 41.8973772,24.8242188 L41.8973772,24.1210938 C42.0497217,24.0273433 42.2606571,23.9482425 42.5301897,23.8837891 C42.7997223,23.8193356 43.0692509,23.7402348 43.3387835,23.6464844 C43.9950368,23.4121082 44.370033,23.0664085 44.4637835,22.609375 C44.5926904,22.1289038 44.6571428,21.6250026 44.6571428,21.0976562 L44.6571428,12.2734375 C44.3055786,11.6406218 43.3387914,11.1191427 41.7567522,10.7089844 L41.8094866,10.1113281 L46.7137835,8.91601562 L47.7860491,8.91601562 L47.9442522,11.4472656 C49.1981647,10.076165 50.5047923,9.22656414 51.8641741,8.8984375 C52.3798017,8.78124941 52.9481554,8.72265625 53.5692522,8.72265625 C55.8192635,8.72265625 57.3426857,9.66600619 58.1395647,11.5527344 C58.9950378,10.6152297 59.704015,9.98242352 60.2665178,9.65429688 C61.2860542,9.05663764 62.2704194,8.7578125 63.2196428,8.7578125 C64.1688663,8.7578125 64.9510851,8.84277259 65.5663225,9.01269531 C66.18156,9.18261804 66.7176874,9.44335762 67.174721,9.79492188 C68.1356633,10.521488 68.686439,11.6288988 68.8270647,13.1171875 C68.9208152,14.1718803 68.9676897,15.2792911 68.9676897,16.4394531 L68.9676897,21.0449219 C68.9676897,21.6542999 68.999916,22.1259749 69.0643694,22.4599609 C69.1288229,22.793947 69.2547982,23.0400383 69.4422991,23.1982422 C69.6298,23.3564461 69.8436651,23.4853511 70.0839007,23.5849609 C70.3241362,23.6845708 70.5702275,23.7724606 70.8221819,23.8486328 C71.0741363,23.9248051 71.2938607,24.0156245 71.4813616,24.1210938 L71.4462053,25 L62.9911272,25 C62.9676896,24.8710931 62.955971,24.7187509 62.955971,24.5429688 L62.955971,24.1210938 C63.1434719,24.0156245 63.3719853,23.9277347 63.6415178,23.8574219 C63.9110504,23.787109 64.1747197,23.6992193 64.4325335,23.59375 C65.0770679,23.3593738 65.4462049,23.0195335 65.5399553,22.5742188 C65.6337058,22.07031 65.6805803,21.5605495 65.6805803,21.0449219 L65.6805803,14.0664062 C65.6805803,12.9648382 65.4051925,12.1123077 64.8544085,11.5087891 C64.3036245,10.9052704 63.4950388,10.6035156 62.4286272,10.6035156 C61.0575266,10.6035156 59.7040245,11.3359302 58.3680803,12.8007812 C58.4383932,13.5273474 58.4735491,14.8281156 58.4735491,16.703125 L58.4735491,20.9570312 C58.4735491,21.6367221 58.5028457,22.134764 58.5614397,22.4511719 C58.6200338,22.7675797 58.7518684,23.0078117 58.9569475,23.171875 C59.1620267,23.3359383 59.3963993,23.4707026 59.6600725,23.5761719 C59.9237457,23.6816412 60.1932743,23.7724606 60.4686663,23.8486328 C60.7440583,23.9248051 60.9813606,24.0156245 61.1805803,24.1210938 L61.1805803,24.1210938 Z M77.075558,13.2226562 C76.8411818,13.9843788 76.7239955,14.8749949 76.7239955,15.8945312 C76.7239955,16.9140676 76.8411818,17.9042921 77.075558,18.8652344 C77.3099342,19.8261767 77.6497745,20.6874962 78.0950893,21.4492188 C79.0794692,23.1367272 80.3275036,23.9804688 81.8392299,23.9804688 C83.3157998,23.9804688 84.4583665,23.429693 85.2669643,22.328125 C86.016968,21.3085887 86.3919643,19.92579 86.3919643,18.1796875 C86.3919643,15.8710822 85.9349376,13.9375078 85.0208705,12.3789062 C84.071647,10.7265542 82.8353313,9.90039062 81.3118861,9.90039062 C79.1673442,9.90039062 77.7552489,11.0078014 77.075558,13.2226562 L77.075558,13.2226562 Z M73.2083705,16.984375 C73.2083705,14.5468628 74.0286748,12.5429766 75.669308,10.9726562 C77.2513472,9.47264875 79.1673436,8.72265625 81.4173549,8.72265625 C83.8197107,8.72265625 85.8060189,9.46093012 87.3763393,10.9375 C89.0286913,12.4843827 89.8548549,14.4941283 89.8548549,16.9667969 C89.8548549,19.4394655 89.0345506,21.4726483 87.3939174,23.0664062 C85.8353159,24.5898514 83.9076008,25.3515625 81.6107143,25.3515625 C79.3138278,25.3515625 77.3568161,24.5781327 75.7396205,23.03125 C74.0521121,21.4257732 73.2083705,19.4101684 73.2083705,16.984375 L73.2083705,16.984375 Z M94.5877232,12.2910156 C94.2595966,11.7402316 93.3396839,11.2597677 91.8279576,10.8496094 L91.8631138,10.234375 L96.5388951,8.8984375 L97.5408482,8.8984375 L97.8220982,12.1328125 C98.7947593,10.3632724 99.8670142,9.30859545 101.038895,8.96875 C101.437335,8.86328072 101.838698,8.81054688 102.242997,8.81054688 C102.647296,8.81054688 103.001784,8.86914004 103.306473,8.98632812 C103.611162,9.10351621 103.874831,9.25585844 104.097489,9.44335938 C104.566241,9.84179887 104.800614,10.2753883 104.800614,10.7441406 C104.800614,11.1074237 104.706865,11.4589827 104.519364,11.7988281 C104.1678,12.4902378 103.778155,12.8359375 103.350419,12.8359375 C102.922682,12.8359375 102.603349,12.7421884 102.392411,12.5546875 C102.181472,12.3671866 101.999833,12.1621105 101.847489,11.9394531 C101.695144,11.7167958 101.539872,11.5117197 101.381669,11.3242188 C101.223465,11.1367178 100.992022,11.0429688 100.687333,11.0429688 C100.382644,11.0429688 100.098467,11.1279288 99.8347935,11.2978516 C99.5711203,11.4677743 99.3279587,11.6874987 99.1053013,11.9570312 C98.882644,12.2265638 98.6717086,12.5312483 98.4724888,12.8710938 C98.2732691,13.2109392 98.0740523,13.5449202 97.8748326,13.8730469 L97.8748326,20.4121094 C97.8748326,21.5019586 97.9246368,22.2343731 98.0242466,22.609375 C98.1238565,22.9843769 98.2937767,23.2451165 98.5340123,23.3916016 C98.7742478,23.5380867 99.055495,23.6494137 99.3777623,23.7255859 C99.7000295,23.8017582 100.03694,23.863281 100.388504,23.9101562 C100.740069,23.9570315 101.050612,24.0273433 101.320145,24.1210938 L101.302567,24.6660156 L101.302567,25 L91.8806919,25 C91.8689731,24.9531248 91.8631138,24.882813 91.8631138,24.7890625 L91.8631138,24.1738281 C91.8631138,24.1152341 91.8689731,24.0742189 91.8806919,24.0507812 C92.2791314,23.9335932 92.6453387,23.8398441 92.9793248,23.7695312 C93.3133108,23.6992184 93.5974876,23.5820321 93.8318638,23.4179688 C94.3357726,23.0781233 94.5877232,22.3457088 94.5877232,21.2207031 L94.5877232,12.2910156 Z M108.461216,12.2910156 C108.13309,11.7402316 107.213177,11.2597677 105.701451,10.8496094 L105.736607,10.234375 L110.412388,8.8984375 L111.414341,8.8984375 L111.695591,12.1328125 C112.668253,10.3632724 113.740508,9.30859545 114.912388,8.96875 C115.310828,8.86328072 115.712191,8.81054688 116.11649,8.81054688 C116.520789,8.81054688 116.875277,8.86914004 117.179966,8.98632812 C117.484656,9.10351621 117.748325,9.25585844 117.970982,9.44335938 C118.439734,9.84179887 118.674107,10.2753883 118.674107,10.7441406 C118.674107,11.1074237 118.580358,11.4589827 118.392857,11.7988281 C118.041293,12.4902378 117.651648,12.8359375 117.223912,12.8359375 C116.796175,12.8359375 116.476843,12.7421884 116.265904,12.5546875 C116.054965,12.3671866 115.873327,12.1621105 115.720982,11.9394531 C115.568638,11.7167958 115.413366,11.5117197 115.255162,11.3242188 C115.096958,11.1367178 114.865515,11.0429688 114.560826,11.0429688 C114.256137,11.0429688 113.97196,11.1279288 113.708287,11.2978516 C113.444614,11.4677743 113.201452,11.6874987 112.978795,11.9570312 C112.756137,12.2265638 112.545202,12.5312483 112.345982,12.8710938 C112.146762,13.2109392 111.947546,13.5449202 111.748326,13.8730469 L111.748326,20.4121094 C111.748326,21.5019586 111.79813,22.2343731 111.89774,22.609375 C111.99735,22.9843769 112.16727,23.2451165 112.407506,23.3916016 C112.647741,23.5380867 112.928988,23.6494137 113.251256,23.7255859 C113.573523,23.8017582 113.910433,23.863281 114.261998,23.9101562 C114.613562,23.9570315 114.924106,24.0273433 115.193638,24.1210938 L115.17606,24.6660156 L115.17606,25 L105.754185,25 C105.742466,24.9531248 105.736607,24.882813 105.736607,24.7890625 L105.736607,24.1738281 C105.736607,24.1152341 105.742466,24.0742189 105.754185,24.0507812 C106.152625,23.9335932 106.518832,23.8398441 106.852818,23.7695312 C107.186804,23.6992184 107.470981,23.5820321 107.705357,23.4179688 C108.209266,23.0781233 108.461216,22.3457088 108.461216,21.2207031 L108.461216,12.2910156 Z M123.881585,13.2226562 C123.647209,13.9843788 123.530022,14.8749949 123.530022,15.8945312 C123.530022,16.9140676 123.647209,17.9042921 123.881585,18.8652344 C124.115961,19.8261767 124.455801,20.6874962 124.901116,21.4492188 C125.885496,23.1367272 127.13353,23.9804688 128.645257,23.9804688 C130.121827,23.9804688 131.264393,23.429693 132.072991,22.328125 C132.822995,21.3085887 133.197991,19.92579 133.197991,18.1796875 C133.197991,15.8710822 132.740964,13.9375078 131.826897,12.3789062 C130.877674,10.7265542 129.641358,9.90039062 128.117913,9.90039062 C125.973371,9.90039062 124.561276,11.0078014 123.881585,13.2226562 L123.881585,13.2226562 Z M120.014397,16.984375 C120.014397,14.5468628 120.834702,12.5429766 122.475335,10.9726562 C124.057374,9.47264875 125.97337,8.72265625 128.223382,8.72265625 C130.625737,8.72265625 132.612046,9.46093012 134.182366,10.9375 C135.834718,12.4843827 136.660882,14.4941283 136.660882,16.9667969 C136.660882,19.4394655 135.840577,21.4726483 134.199944,23.0664062 C132.641343,24.5898514 130.713628,25.3515625 128.416741,25.3515625 C126.119855,25.3515625 124.162843,24.5781327 122.545647,23.03125 C120.858139,21.4257732 120.014397,19.4101684 120.014397,16.984375 L120.014397,16.984375 Z M143.063672,11.640625 C143.063672,11.9804704 143.098828,12.2207024 143.169141,12.3613281 L146.421094,20.7285156 L149.637891,12.90625 C149.087107,11.0781159 148.102741,10.1230473 146.684766,10.0410156 L146.719922,9.19726562 L154.489453,9.19726562 C154.512891,9.50195465 154.524609,9.78320184 154.524609,10.0410156 C154.301952,10.1464849 154.073439,10.2343746 153.839062,10.3046875 C153.604686,10.3750004 153.387892,10.4570308 153.188672,10.5507812 C152.731638,10.7617198 152.503125,11.0781229 152.503125,11.5 C152.503125,11.7929702 152.608593,12.2031224 152.819531,12.7304688 L155.684766,20.5878906 L158.426953,13.1875 C158.64961,12.6015596 158.760937,12.1298846 158.760937,11.7724609 C158.760937,11.4150373 158.714063,11.1484384 158.620312,10.9726562 C158.526562,10.7968741 158.388868,10.6621098 158.207227,10.5683594 C158.025585,10.4746089 157.802931,10.3984378 157.539258,10.3398438 C157.275585,10.2812497 156.97383,10.1992193 156.633984,10.09375 C156.610547,9.97656191 156.598828,9.83593832 156.598828,9.671875 C156.598828,9.51953049 156.610547,9.36132895 156.633984,9.19726562 L162.803906,9.19726562 L162.803906,10.1289062 C161.995308,10.2343755 161.216019,10.761714 160.466016,11.7109375 C160.255077,11.9687513 160.108594,12.2148426 160.026562,12.4492188 L155.280469,25.2460938 C155.151562,25.3164066 154.975782,25.3515625 154.753125,25.3515625 C154.530468,25.3515625 154.348829,25.3164066 154.208203,25.2460938 L150.217969,14.5234375 L145.981641,25.2460938 C145.841015,25.3164066 145.650587,25.3515625 145.410352,25.3515625 C145.170116,25.3515625 144.991407,25.3164066 144.874219,25.2460938 L139.969922,12.7128906 C139.641795,11.892574 139.366407,11.3417983 139.14375,11.0605469 C138.733592,10.5449193 138.200394,10.2109383 137.544141,10.0585938 L137.579297,9.19726562 L144.821484,9.19726562 C144.833203,9.34961014 144.839062,9.49609305 144.839062,9.63671875 L144.839062,10.0410156 C143.655463,10.4160175 143.063672,10.9492153 143.063672,11.640625 L143.063672,11.640625 Z" id="Tomorrow" fill="#FFFFFF"></path>
                <path d="M184,0 L184,32" id="Path-4" stroke="#FFFFFF"></path>
                <path d="M217.7925,14.914 C217.7925,15.4863362 217.734417,16.0303308 217.61825,16.546 C217.502083,17.0616692 217.333501,17.5419144 217.1125,17.98675 C216.891499,18.4315856 216.622335,18.8353315 216.305,19.198 C215.987665,19.5606685 215.630669,19.8751653 215.234,20.1415 L218.362,23.516 L217.002,23.516 C216.797999,23.516 216.616667,23.4876669 216.458,23.431 C216.299333,23.374333 216.154834,23.2751674 216.0245,23.1335 L213.8825,20.8045 C213.559498,20.9065005 213.223752,20.985833 212.87525,21.0425 C212.526748,21.0991669 212.162669,21.1275 211.783,21.1275 C210.887662,21.1275 210.07167,20.9759182 209.335,20.67275 C208.59833,20.3695818 207.966503,19.9431694 207.4395,19.3935 C206.912497,18.8438306 206.504501,18.1879205 206.2155,17.42575 C205.926499,16.6635795 205.782,15.8263379 205.782,14.914 C205.782,14.0016621 205.926499,13.1644205 206.2155,12.40225 C206.504501,11.6400795 206.912497,10.9827528 207.4395,10.43025 C207.966503,9.87774724 208.59833,9.44850153 209.335,9.1425 C210.07167,8.83649847 210.887662,8.6835 211.783,8.6835 C212.678338,8.6835 213.495746,8.83649847 214.23525,9.1425 C214.974754,9.44850153 215.607997,9.87774724 216.135,10.43025 C216.662003,10.9827528 217.069999,11.6400795 217.359,12.40225 C217.648001,13.1644205 217.7925,14.0016621 217.7925,14.914 L217.7925,14.914 Z M216.101,14.914 C216.101,14.1659963 215.999001,13.494503 215.795,12.8995 C215.590999,12.304497 215.302002,11.8015854 214.928,11.39075 C214.553998,10.9799146 214.100669,10.6640011 213.568,10.443 C213.035331,10.2219989 212.440337,10.1115 211.783,10.1115 C211.13133,10.1115 210.539169,10.2219989 210.0065,10.443 C209.473831,10.6640011 209.019085,10.9799146 208.64225,11.39075 C208.265415,11.8015854 207.975001,12.304497 207.771,12.8995 C207.566999,13.494503 207.465,14.1659963 207.465,14.914 C207.465,15.6620037 207.566999,16.3320804 207.771,16.92425 C207.975001,17.5164196 208.265415,18.0179146 208.64225,18.42875 C209.019085,18.8395854 209.473831,19.1540822 210.0065,19.37225 C210.539169,19.5904178 211.13133,19.6995 211.783,19.6995 C212.440337,19.6995 213.035331,19.5904178 213.568,19.37225 C214.100669,19.1540822 214.553998,18.8395854 214.928,18.42875 C215.302002,18.0179146 215.590999,17.5164196 215.795,16.92425 C215.999001,16.3320804 216.101,15.6620037 216.101,14.914 L216.101,14.914 Z M221.116,12.3895 L221.116,17.8805 C221.116,18.5321699 221.266165,19.0364982 221.5665,19.3935 C221.866835,19.7505018 222.320164,19.929 222.9265,19.929 C223.368502,19.929 223.784998,19.8241677 224.176,19.6145 C224.567002,19.4048323 224.926832,19.1130019 225.2555,18.739 L225.2555,12.3895 L226.7685,12.3895 L226.7685,21 L225.8675,21 C225.652166,21 225.516167,20.8951677 225.4595,20.6855 L225.3405,19.759 C224.966498,20.1726687 224.547169,20.5055821 224.0825,20.75775 C223.617831,21.0099179 223.08517,21.136 222.4845,21.136 C222.014164,21.136 221.599085,21.0580841 221.23925,20.90225 C220.879415,20.7464159 220.577668,20.5268347 220.334,20.2435 C220.090332,19.9601652 219.907584,19.6173353 219.78575,19.215 C219.663916,18.8126647 219.603,18.3678358 219.603,17.8805 L219.603,12.3895 L221.116,12.3895 Z M235.583,21 L234.9115,21 C234.764166,21 234.645167,20.9773336 234.5545,20.932 C234.463833,20.8866664 234.404333,20.7903341 234.376,20.643 L234.206,19.844 C233.979332,20.048001 233.758334,20.2307492 233.543,20.39225 C233.327666,20.5537508 233.101001,20.6897494 232.863,20.80025 C232.624999,20.9107506 232.371418,20.994333 232.10225,21.051 C231.833082,21.1076669 231.534168,21.136 231.2055,21.136 C230.871165,21.136 230.558085,21.0892505 230.26625,20.99575 C229.974415,20.9022495 229.720834,20.7620009 229.5055,20.575 C229.290166,20.3879991 229.118751,20.1514181 228.99125,19.86525 C228.863749,19.5790819 228.8,19.240502 228.8,18.8495 C228.8,18.5094983 228.893499,18.1822516 229.0805,17.86775 C229.267501,17.5532484 229.569248,17.2741679 229.98575,17.0305 C230.402252,16.7868321 230.947663,16.5870841 231.622,16.43125 C232.296337,16.2754159 233.120828,16.1861668 234.0955,16.1635 L234.0955,15.492 C234.0955,14.82333 233.952418,14.317585 233.66625,13.97475 C233.380082,13.631915 232.956503,13.4605 232.3955,13.4605 C232.027165,13.4605 231.716918,13.5072495 231.46475,13.60075 C231.212582,13.6942505 230.994418,13.7990828 230.81025,13.91525 C230.626082,14.0314172 230.467417,14.1362495 230.33425,14.22975 C230.201083,14.3232505 230.069334,14.37 229.939,14.37 C229.836999,14.37 229.74775,14.3430836 229.67125,14.28925 C229.59475,14.2354164 229.533834,14.1688337 229.4885,14.0895 L229.2165,13.605 C229.692502,13.1459977 230.205331,12.8031678 230.755,12.5765 C231.304669,12.3498322 231.91383,12.2365 232.5825,12.2365 C233.064169,12.2365 233.491998,12.3158325 233.866,12.4745 C234.240002,12.6331675 234.554499,12.8541652 234.8095,13.1375 C235.064501,13.4208347 235.257166,13.7636647 235.3875,14.166 C235.517834,14.5683353 235.583,15.0103309 235.583,15.492 L235.583,21 Z M231.656,20.0735 C231.922335,20.0735 232.165999,20.0465836 232.387,19.99275 C232.608001,19.9389164 232.816249,19.8624172 233.01175,19.76325 C233.207251,19.6640828 233.394249,19.5436674 233.57275,19.402 C233.751251,19.2603326 233.925499,19.0988342 234.0955,18.9175 L234.0955,17.124 C233.398497,17.1466668 232.806336,17.2019162 232.319,17.28975 C231.831664,17.3775838 231.435002,17.4923326 231.129,17.634 C230.822998,17.7756674 230.600584,17.9428324 230.46175,18.1355 C230.322916,18.3281676 230.2535,18.5434988 230.2535,18.7815 C230.2535,19.0081678 230.290333,19.2036658 230.364,19.368 C230.437667,19.5323342 230.536833,19.6669161 230.6615,19.77175 C230.786167,19.8765839 230.933499,19.9530831 231.1035,20.00125 C231.273501,20.0494169 231.457666,20.0735 231.656,20.0735 L231.656,20.0735 Z M237.878,21 L237.878,12.3895 L238.779,12.3895 C238.994334,12.3895 239.130333,12.4943323 239.187,12.704 L239.306,13.639 C239.680002,13.2253313 240.097914,12.8910013 240.55975,12.636 C241.021586,12.3809987 241.555664,12.2535 242.162,12.2535 C242.632336,12.2535 243.047415,12.3314159 243.40725,12.48725 C243.767085,12.6430841 244.067415,12.8640819 244.30825,13.15025 C244.549085,13.4364181 244.731833,13.7806647 244.8565,14.183 C244.981167,14.5853353 245.0435,15.0301642 245.0435,15.5175 L245.0435,21 L243.5305,21 L243.5305,15.5175 C243.5305,14.8658301 243.381751,14.3600851 243.08425,14.00025 C242.786749,13.6404149 242.332003,13.4605 241.72,13.4605 C241.272331,13.4605 240.854419,13.5681656 240.46625,13.7835 C240.078081,13.9988344 239.719668,14.2906648 239.391,14.659 L239.391,21 L237.878,21 Z M249.9395,21.136 C249.259497,21.136 248.736752,20.9461686 248.37125,20.5665 C248.005748,20.1868314 247.823,19.6400036 247.823,18.926 L247.823,13.656 L246.786,13.656 C246.695333,13.656 246.618834,13.6290836 246.5565,13.57525 C246.494166,13.5214164 246.463,13.4378339 246.463,13.3245 L246.463,12.721 L247.874,12.5425 L248.2225,9.882 C248.233833,9.79699957 248.270666,9.7275836 248.333,9.67375 C248.395334,9.6199164 248.474666,9.593 248.571,9.593 L249.336,9.593 L249.336,12.5595 L251.801,12.5595 L251.801,13.656 L249.336,13.656 L249.336,18.824 C249.336,19.1866685 249.423832,19.4558325 249.5995,19.6315 C249.775168,19.8071675 250.001832,19.895 250.2795,19.895 C250.438167,19.895 250.575583,19.8737502 250.69175,19.83125 C250.807917,19.7887498 250.9085,19.7420003 250.9935,19.691 C251.0785,19.6399997 251.15075,19.5932502 251.21025,19.55075 C251.26975,19.5082498 251.322166,19.487 251.3675,19.487 C251.446834,19.487 251.517666,19.5351662 251.58,19.6315 L252.022,20.354 C251.761332,20.5976679 251.446835,20.788916 251.0785,20.92775 C250.710165,21.066584 250.330502,21.136 249.9395,21.136 L249.9395,21.136 Z M255.354,12.3895 L255.354,21 L253.841,21 L253.841,12.3895 L255.354,12.3895 Z M255.694,9.6865 C255.694,9.83383407 255.66425,9.97124936 255.60475,10.09875 C255.54525,10.2262506 255.465917,10.3395828 255.36675,10.43875 C255.267583,10.5379172 255.152834,10.615833 255.0225,10.6725 C254.892166,10.7291669 254.753334,10.7575 254.606,10.7575 C254.458666,10.7575 254.321251,10.7291669 254.19375,10.6725 C254.066249,10.615833 253.952917,10.5379172 253.85375,10.43875 C253.754583,10.3395828 253.676667,10.2262506 253.62,10.09875 C253.563333,9.97124936 253.535,9.83383407 253.535,9.6865 C253.535,9.53916593 253.563333,9.39891733 253.62,9.26575 C253.676667,9.13258267 253.754583,9.01641716 253.85375,8.91725 C253.952917,8.81808284 254.066249,8.74016695 254.19375,8.6835 C254.321251,8.62683305 254.458666,8.5985 254.606,8.5985 C254.753334,8.5985 254.892166,8.62683305 255.0225,8.6835 C255.152834,8.74016695 255.267583,8.81808284 255.36675,8.91725 C255.465917,9.01641716 255.54525,9.13258267 255.60475,9.26575 C255.66425,9.39891733 255.694,9.53916593 255.694,9.6865 L255.694,9.6865 Z M258.363,21 L258.363,13.6815 L257.411,13.571 C257.291999,13.5426665 257.19425,13.4987503 257.11775,13.43925 C257.04125,13.3797497 257.003,13.2933339 257.003,13.18 L257.003,12.5595 L258.363,12.5595 L258.363,11.7265 C258.363,11.2334975 258.432416,10.7957519 258.57125,10.41325 C258.710084,10.0307481 258.908415,9.70775132 259.16625,9.44425 C259.424085,9.18074868 259.734332,8.98100068 260.097,8.845 C260.459668,8.70899932 260.867664,8.641 261.321,8.641 C261.706335,8.641 262.063332,8.6976661 262.392,8.811 L262.358,9.5675 C262.352333,9.6808339 262.304167,9.74883322 262.2135,9.7715 C262.122833,9.79416678 261.995334,9.8055 261.831,9.8055 L261.5675,9.8055 C261.306832,9.8055 261.070251,9.83949966 260.85775,9.9075 C260.645249,9.97550034 260.462501,10.0859992 260.3095,10.239 C260.156499,10.3920008 260.038917,10.5931654 259.95675,10.8425 C259.874583,11.0918346 259.8335,11.4006648 259.8335,11.769 L259.8335,12.5595 L262.324,12.5595 L262.324,13.656 L259.8845,13.656 L259.8845,21 L258.363,21 Z M266.2765,23.5415 C266.2255,23.6548339 266.16175,23.7454997 266.08525,23.8135 C266.00875,23.8815003 265.891167,23.9155 265.7325,23.9155 L264.6105,23.9155 L266.183,20.4985 L262.63,12.3895 L263.939,12.3895 C264.069334,12.3895 264.171333,12.422083 264.245,12.48725 C264.318667,12.552417 264.3725,12.6246663 264.4065,12.704 L266.71,18.127 C266.761,18.2516673 266.804916,18.3763327 266.84175,18.501 C266.878584,18.6256673 266.911167,18.753166 266.9395,18.8835 C266.979167,18.753166 267.018833,18.6256673 267.0585,18.501 C267.098167,18.3763327 267.1435,18.248834 267.1945,18.1185 L269.43,12.704 C269.464,12.6133329 269.522083,12.5382503 269.60425,12.47875 C269.686417,12.4192497 269.775666,12.3895 269.872,12.3895 L271.079,12.3895 L266.2765,23.5415 Z M278.3465,21.136 C277.666497,21.136 277.143752,20.9461686 276.77825,20.5665 C276.412748,20.1868314 276.23,19.6400036 276.23,18.926 L276.23,13.656 L275.193,13.656 C275.102333,13.656 275.025834,13.6290836 274.9635,13.57525 C274.901166,13.5214164 274.87,13.4378339 274.87,13.3245 L274.87,12.721 L276.281,12.5425 L276.6295,9.882 C276.640833,9.79699957 276.677666,9.7275836 276.74,9.67375 C276.802334,9.6199164 276.881666,9.593 276.978,9.593 L277.743,9.593 L277.743,12.5595 L280.208,12.5595 L280.208,13.656 L277.743,13.656 L277.743,18.824 C277.743,19.1866685 277.830832,19.4558325 278.0065,19.6315 C278.182168,19.8071675 278.408832,19.895 278.6865,19.895 C278.845167,19.895 278.982583,19.8737502 279.09875,19.83125 C279.214917,19.7887498 279.3155,19.7420003 279.4005,19.691 C279.4855,19.6399997 279.55775,19.5932502 279.61725,19.55075 C279.67675,19.5082498 279.729166,19.487 279.7745,19.487 C279.853834,19.487 279.924666,19.5351662 279.987,19.6315 L280.429,20.354 C280.168332,20.5976679 279.853835,20.788916 279.4855,20.92775 C279.117165,21.066584 278.737502,21.136 278.3465,21.136 L278.3465,21.136 Z M282.078,21 L282.078,8.4795 L283.591,8.4795 L283.591,13.5455 C283.959335,13.154498 284.367331,12.8414178 284.815,12.60625 C285.262669,12.3710822 285.77833,12.2535 286.362,12.2535 C286.832336,12.2535 287.247415,12.3314159 287.60725,12.48725 C287.967085,12.6430841 288.267415,12.8640819 288.50825,13.15025 C288.749085,13.4364181 288.931833,13.7806647 289.0565,14.183 C289.181167,14.5853353 289.2435,15.0301642 289.2435,15.5175 L289.2435,21 L287.7305,21 L287.7305,15.5175 C287.7305,14.8658301 287.581751,14.3600851 287.28425,14.00025 C286.986749,13.6404149 286.532003,13.4605 285.92,13.4605 C285.472331,13.4605 285.054419,13.5681656 284.66625,13.7835 C284.278081,13.9988344 283.919668,14.2906648 283.591,14.659 L283.591,21 L282.078,21 Z M294.9385,12.2535 C295.454169,12.2535 295.930164,12.3399158 296.3665,12.51275 C296.802836,12.6855842 297.179665,12.934915 297.497,13.26075 C297.814335,13.586585 298.062249,13.9889143 298.24075,14.46775 C298.419251,14.9465857 298.5085,15.4919969 298.5085,16.104 C298.5085,16.3420012 298.483,16.5006663 298.432,16.58 C298.381,16.6593337 298.284667,16.699 298.143,16.699 L292.414,16.699 C292.425333,17.2430027 292.498999,17.7161647 292.635,18.1185 C292.771001,18.5208353 292.957999,18.856582 293.196,19.12575 C293.434001,19.394918 293.717332,19.5960827 294.046,19.72925 C294.374668,19.8624173 294.742998,19.929 295.151,19.929 C295.530669,19.929 295.857915,19.8850838 296.13275,19.79725 C296.407585,19.7094162 296.644166,19.6145005 296.8425,19.5125 C297.040834,19.4104995 297.206583,19.3155838 297.33975,19.22775 C297.472917,19.1399162 297.587666,19.096 297.684,19.096 C297.808667,19.096 297.905,19.1441662 297.973,19.2405 L298.398,19.793 C298.210999,20.0196678 297.987168,20.2165825 297.7265,20.38375 C297.465832,20.5509175 297.186751,20.6883328 296.88925,20.796 C296.591749,20.9036672 296.284335,20.9844164 295.967,21.03825 C295.649665,21.0920836 295.335168,21.119 295.0235,21.119 C294.428497,21.119 293.880253,21.0184177 293.37875,20.81725 C292.877247,20.6160823 292.443752,20.3214186 292.07825,19.93325 C291.712748,19.5450814 291.428001,19.0648362 291.224,18.4925 C291.019999,17.9201638 290.918,17.262837 290.918,16.5205 C290.918,15.9198303 291.010082,15.3588359 291.19425,14.8375 C291.378418,14.3161641 291.643332,13.8642519 291.989,13.48175 C292.334668,13.0992481 292.756831,12.7989178 293.2555,12.58075 C293.754169,12.3625822 294.315164,12.2535 294.9385,12.2535 L294.9385,12.2535 Z M294.9725,13.367 C294.241496,13.367 293.666335,13.5780812 293.247,14.00025 C292.827665,14.4224188 292.567001,15.0074963 292.465,15.7555 L297.1485,15.7555 C297.1485,15.4041649 297.100334,15.0825848 297.004,14.79075 C296.907666,14.4989152 296.766001,14.2467511 296.579,14.03425 C296.391999,13.8217489 296.163918,13.6574172 295.89475,13.54125 C295.625582,13.4250828 295.318168,13.367 294.9725,13.367 L294.9725,13.367 Z M305.402,12.3895 L305.402,21 L303.889,21 L303.889,12.3895 L305.402,12.3895 Z M305.742,9.6865 C305.742,9.83383407 305.71225,9.97124936 305.65275,10.09875 C305.59325,10.2262506 305.513917,10.3395828 305.41475,10.43875 C305.315583,10.5379172 305.200834,10.615833 305.0705,10.6725 C304.940166,10.7291669 304.801334,10.7575 304.654,10.7575 C304.506666,10.7575 304.369251,10.7291669 304.24175,10.6725 C304.114249,10.615833 304.000917,10.5379172 303.90175,10.43875 C303.802583,10.3395828 303.724667,10.2262506 303.668,10.09875 C303.611333,9.97124936 303.583,9.83383407 303.583,9.6865 C303.583,9.53916593 303.611333,9.39891733 303.668,9.26575 C303.724667,9.13258267 303.802583,9.01641716 303.90175,8.91725 C304.000917,8.81808284 304.114249,8.74016695 304.24175,8.6835 C304.369251,8.62683305 304.506666,8.5985 304.654,8.5985 C304.801334,8.5985 304.940166,8.62683305 305.0705,8.6835 C305.200834,8.74016695 305.315583,8.81808284 305.41475,8.91725 C305.513917,9.01641716 305.59325,9.13258267 305.65275,9.26575 C305.71225,9.39891733 305.742,9.53916593 305.742,9.6865 L305.742,9.6865 Z M308.071,21 L308.071,12.3895 L308.972,12.3895 C309.187334,12.3895 309.323333,12.4943323 309.38,12.704 L309.4905,13.588 C309.807835,13.196998 310.163415,12.8768346 310.55725,12.6275 C310.951085,12.3781654 311.408664,12.2535 311.93,12.2535 C312.51367,12.2535 312.985415,12.4149984 313.34525,12.738 C313.705085,13.0610016 313.964333,13.4973306 314.123,14.047 C314.242001,13.7353318 314.399249,13.4661678 314.59475,13.2395 C314.790251,13.0128322 315.009832,12.8258341 315.2535,12.6785 C315.497168,12.5311659 315.756415,12.4235003 316.03125,12.3555 C316.306085,12.2874997 316.585165,12.2535 316.8685,12.2535 C317.321836,12.2535 317.725582,12.3257493 318.07975,12.47025 C318.433918,12.6147507 318.734249,12.8258319 318.98075,13.1035 C319.227251,13.3811681 319.415666,13.7225813 319.546,14.12775 C319.676334,14.5329187 319.7415,14.9961641 319.7415,15.5175 L319.7415,21 L318.2285,21 L318.2285,15.5175 C318.2285,14.8431633 318.081168,14.3317517 317.7865,13.98325 C317.491832,13.6347483 317.064003,13.4605 316.503,13.4605 C316.253665,13.4605 316.017084,13.5044162 315.79325,13.59225 C315.569416,13.6800838 315.372501,13.8089991 315.2025,13.979 C315.032499,14.1490008 314.897917,14.3629154 314.79875,14.62075 C314.699583,14.8785846 314.65,15.1774983 314.65,15.5175 L314.65,21 L313.137,21 L313.137,15.5175 C313.137,14.8261632 312.998168,14.3105017 312.7205,13.9705 C312.442832,13.6304983 312.037669,13.4605 311.505,13.4605 C311.130998,13.4605 310.783918,13.5610823 310.46375,13.76225 C310.143582,13.9634177 309.850335,14.2368316 309.584,14.5825 L309.584,21 L308.071,21 Z M322.028,23.9155 L322.028,12.3895 L322.929,12.3895 C323.144334,12.3895 323.280333,12.4943323 323.337,12.704 L323.4645,13.724 C323.832835,13.2763311 324.253581,12.9165014 324.72675,12.6445 C325.199919,12.3724986 325.74533,12.2365 326.363,12.2365 C326.856002,12.2365 327.303665,12.3314157 327.706,12.52125 C328.108335,12.7110843 328.451165,12.9915815 328.7345,13.36275 C329.017835,13.7339185 329.235999,14.1943306 329.389,14.744 C329.542001,15.2936694 329.6185,15.9254964 329.6185,16.6395 C329.6185,17.2741698 329.533501,17.8649139 329.3635,18.41175 C329.193499,18.9585861 328.949835,19.431748 328.6325,19.83125 C328.315165,20.230752 327.925586,20.5452489 327.46375,20.77475 C327.001914,21.0042511 326.482003,21.119 325.904,21.119 C325.371331,21.119 324.916585,21.0311675 324.53975,20.8555 C324.162915,20.6798325 323.830001,20.4305016 323.541,20.1075 L323.541,23.9155 L322.028,23.9155 Z M325.8615,13.4605 C325.368498,13.4605 324.936419,13.5738322 324.56525,13.8005 C324.194081,14.0271678 323.852668,14.3473313 323.541,14.761 L323.541,18.926 C323.818668,19.3000019 324.123248,19.5634992 324.45475,19.7165 C324.786252,19.8695008 325.155998,19.946 325.564,19.946 C326.363004,19.946 326.977831,19.6598362 327.4085,19.0875 C327.839169,18.5151638 328.0545,17.699172 328.0545,16.6395 C328.0545,16.0784972 328.004917,15.5968353 327.90575,15.1945 C327.806583,14.7921647 327.663501,14.4620846 327.4765,14.20425 C327.289499,13.9464154 327.060001,13.7580006 326.788,13.639 C326.515999,13.5199994 326.207168,13.4605 325.8615,13.4605 L325.8615,13.4605 Z M337.736,21 L337.0645,21 C336.917166,21 336.798167,20.9773336 336.7075,20.932 C336.616833,20.8866664 336.557333,20.7903341 336.529,20.643 L336.359,19.844 C336.132332,20.048001 335.911334,20.2307492 335.696,20.39225 C335.480666,20.5537508 335.254001,20.6897494 335.016,20.80025 C334.777999,20.9107506 334.524418,20.994333 334.25525,21.051 C333.986082,21.1076669 333.687168,21.136 333.3585,21.136 C333.024165,21.136 332.711085,21.0892505 332.41925,20.99575 C332.127415,20.9022495 331.873834,20.7620009 331.6585,20.575 C331.443166,20.3879991 331.271751,20.1514181 331.14425,19.86525 C331.016749,19.5790819 330.953,19.240502 330.953,18.8495 C330.953,18.5094983 331.046499,18.1822516 331.2335,17.86775 C331.420501,17.5532484 331.722248,17.2741679 332.13875,17.0305 C332.555252,16.7868321 333.100663,16.5870841 333.775,16.43125 C334.449337,16.2754159 335.273828,16.1861668 336.2485,16.1635 L336.2485,15.492 C336.2485,14.82333 336.105418,14.317585 335.81925,13.97475 C335.533082,13.631915 335.109503,13.4605 334.5485,13.4605 C334.180165,13.4605 333.869918,13.5072495 333.61775,13.60075 C333.365582,13.6942505 333.147418,13.7990828 332.96325,13.91525 C332.779082,14.0314172 332.620417,14.1362495 332.48725,14.22975 C332.354083,14.3232505 332.222334,14.37 332.092,14.37 C331.989999,14.37 331.90075,14.3430836 331.82425,14.28925 C331.74775,14.2354164 331.686834,14.1688337 331.6415,14.0895 L331.3695,13.605 C331.845502,13.1459977 332.358331,12.8031678 332.908,12.5765 C333.457669,12.3498322 334.06683,12.2365 334.7355,12.2365 C335.217169,12.2365 335.644998,12.3158325 336.019,12.4745 C336.393002,12.6331675 336.707499,12.8541652 336.9625,13.1375 C337.217501,13.4208347 337.410166,13.7636647 337.5405,14.166 C337.670834,14.5683353 337.736,15.0103309 337.736,15.492 L337.736,21 Z M333.809,20.0735 C334.075335,20.0735 334.318999,20.0465836 334.54,19.99275 C334.761001,19.9389164 334.969249,19.8624172 335.16475,19.76325 C335.360251,19.6640828 335.547249,19.5436674 335.72575,19.402 C335.904251,19.2603326 336.078499,19.0988342 336.2485,18.9175 L336.2485,17.124 C335.551497,17.1466668 334.959336,17.2019162 334.472,17.28975 C333.984664,17.3775838 333.588002,17.4923326 333.282,17.634 C332.975998,17.7756674 332.753584,17.9428324 332.61475,18.1355 C332.475916,18.3281676 332.4065,18.5434988 332.4065,18.7815 C332.4065,19.0081678 332.443333,19.2036658 332.517,19.368 C332.590667,19.5323342 332.689833,19.6669161 332.8145,19.77175 C332.939167,19.8765839 333.086499,19.9530831 333.2565,20.00125 C333.426501,20.0494169 333.610666,20.0735 333.809,20.0735 L333.809,20.0735 Z M345.9045,13.9195 C345.859166,13.9818336 345.813834,14.0299998 345.7685,14.064 C345.723166,14.0980002 345.658,14.115 345.573,14.115 C345.488,14.115 345.395917,14.0795837 345.29675,14.00875 C345.197583,13.9379163 345.071501,13.8600004 344.9185,13.775 C344.765499,13.6899996 344.579918,13.6120837 344.36175,13.54125 C344.143582,13.4704163 343.875835,13.435 343.5585,13.435 C343.139165,13.435 342.768002,13.5100826 342.445,13.66025 C342.121998,13.8104174 341.851418,14.0271652 341.63325,14.3105 C341.415082,14.5938347 341.250751,14.9366647 341.14025,15.339 C341.029749,15.7413353 340.9745,16.1918308 340.9745,16.6905 C340.9745,17.2118359 341.033999,17.6750813 341.153,18.08025 C341.272001,18.4854187 341.439166,18.8254153 341.6545,19.10025 C341.869834,19.3750847 342.131915,19.5847493 342.44075,19.72925 C342.749585,19.8737507 343.096665,19.946 343.482,19.946 C343.850335,19.946 344.153499,19.9020838 344.3915,19.81425 C344.629501,19.7264162 344.827833,19.6286672 344.9865,19.521 C345.145167,19.4133328 345.275499,19.3155838 345.3775,19.22775 C345.479501,19.1399162 345.581499,19.096 345.6835,19.096 C345.813834,19.096 345.910166,19.1441662 345.9725,19.2405 L346.3975,19.793 C346.023498,20.2520023 345.556003,20.5877489 344.995,20.80025 C344.433997,21.0127511 343.841836,21.119 343.2185,21.119 C342.680164,21.119 342.180086,21.0198343 341.71825,20.8215 C341.256414,20.6231657 340.855502,20.3355852 340.5155,19.95875 C340.175498,19.5819148 339.907751,19.1186694 339.71225,18.569 C339.516749,18.0193306 339.419,17.3931702 339.419,16.6905 C339.419,16.0501635 339.508249,15.4580027 339.68675,14.914 C339.865251,14.3699973 340.125915,13.9010853 340.46875,13.50725 C340.811585,13.1134147 341.235164,12.8060011 341.7395,12.585 C342.243836,12.3639989 342.82183,12.2535 343.4735,12.2535 C344.07417,12.2535 344.606831,12.351249 345.0715,12.54675 C345.536169,12.742251 345.946998,13.0184982 346.304,13.3755 L345.9045,13.9195 Z M350.5795,21.136 C349.899497,21.136 349.376752,20.9461686 349.01125,20.5665 C348.645748,20.1868314 348.463,19.6400036 348.463,18.926 L348.463,13.656 L347.426,13.656 C347.335333,13.656 347.258834,13.6290836 347.1965,13.57525 C347.134166,13.5214164 347.103,13.4378339 347.103,13.3245 L347.103,12.721 L348.514,12.5425 L348.8625,9.882 C348.873833,9.79699957 348.910666,9.7275836 348.973,9.67375 C349.035334,9.6199164 349.114666,9.593 349.211,9.593 L349.976,9.593 L349.976,12.5595 L352.441,12.5595 L352.441,13.656 L349.976,13.656 L349.976,18.824 C349.976,19.1866685 350.063832,19.4558325 350.2395,19.6315 C350.415168,19.8071675 350.641832,19.895 350.9195,19.895 C351.078167,19.895 351.215583,19.8737502 351.33175,19.83125 C351.447917,19.7887498 351.5485,19.7420003 351.6335,19.691 C351.7185,19.6399997 351.79075,19.5932502 351.85025,19.55075 C351.90975,19.5082498 351.962166,19.487 352.0075,19.487 C352.086834,19.487 352.157666,19.5351662 352.22,19.6315 L352.662,20.354 C352.401332,20.5976679 352.086835,20.788916 351.7185,20.92775 C351.350165,21.066584 350.970502,21.136 350.5795,21.136 L350.5795,21.136 Z M361.077,12.2535 C361.706003,12.2535 362.274081,12.3583323 362.78125,12.568 C363.288419,12.7776677 363.719082,13.0751647 364.07325,13.4605 C364.427418,13.8458353 364.699416,14.3119139 364.88925,14.85875 C365.079084,15.4055861 365.174,16.0161633 365.174,16.6905 C365.174,17.3705034 365.079084,17.9824973 364.88925,18.5265 C364.699416,19.0705027 364.427418,19.5351647 364.07325,19.9205 C363.719082,20.3058353 363.288419,20.6019156 362.78125,20.80875 C362.274081,21.0155844 361.706003,21.119 361.077,21.119 C360.447997,21.119 359.879919,21.0155844 359.37275,20.80875 C358.865581,20.6019156 358.433502,20.3058353 358.0765,19.9205 C357.719498,19.5351647 357.444668,19.0705027 357.252,18.5265 C357.059332,17.9824973 356.963,17.3705034 356.963,16.6905 C356.963,16.0161633 357.059332,15.4055861 357.252,14.85875 C357.444668,14.3119139 357.719498,13.8458353 358.0765,13.4605 C358.433502,13.0751647 358.865581,12.7776677 359.37275,12.568 C359.879919,12.3583323 360.447997,12.2535 361.077,12.2535 L361.077,12.2535 Z M361.077,19.9375 C361.927004,19.9375 362.561665,19.6527528 362.981,19.08325 C363.400335,18.5137472 363.61,17.7190051 363.61,16.699 C363.61,15.6733282 363.400335,14.8743362 362.981,14.302 C362.561665,13.7296638 361.927004,13.4435 361.077,13.4435 C360.646331,13.4435 360.272335,13.5171659 359.955,13.6645 C359.637665,13.8118341 359.372751,14.0243319 359.16025,14.302 C358.947749,14.5796681 358.789084,14.9210813 358.68425,15.32625 C358.579416,15.7314187 358.527,16.1889974 358.527,16.699 C358.527,17.2090025 358.579416,17.6651647 358.68425,18.0675 C358.789084,18.4698353 358.947749,18.8084153 359.16025,19.08325 C359.372751,19.3580847 359.637665,19.5691659 359.955,19.7165 C360.272335,19.8638341 360.646331,19.9375 361.077,19.9375 L361.077,19.9375 Z M367.384,21 L367.384,13.6815 L366.432,13.571 C366.312999,13.5426665 366.21525,13.4987503 366.13875,13.43925 C366.06225,13.3797497 366.024,13.2933339 366.024,13.18 L366.024,12.5595 L367.384,12.5595 L367.384,11.7265 C367.384,11.2334975 367.453416,10.7957519 367.59225,10.41325 C367.731084,10.0307481 367.929415,9.70775132 368.18725,9.44425 C368.445085,9.18074868 368.755332,8.98100068 369.118,8.845 C369.480668,8.70899932 369.888664,8.641 370.342,8.641 C370.727335,8.641 371.084332,8.6976661 371.413,8.811 L371.379,9.5675 C371.373333,9.6808339 371.325167,9.74883322 371.2345,9.7715 C371.143833,9.79416678 371.016334,9.8055 370.852,9.8055 L370.5885,9.8055 C370.327832,9.8055 370.091251,9.83949966 369.87875,9.9075 C369.666249,9.97550034 369.483501,10.0859992 369.3305,10.239 C369.177499,10.3920008 369.059917,10.5931654 368.97775,10.8425 C368.895583,11.0918346 368.8545,11.4006648 368.8545,11.769 L368.8545,12.5595 L371.345,12.5595 L371.345,13.656 L368.9055,13.656 L368.9055,21 L367.384,21 Z M379.4625,12.2535 C379.978169,12.2535 380.454164,12.3399158 380.8905,12.51275 C381.326836,12.6855842 381.703665,12.934915 382.021,13.26075 C382.338335,13.586585 382.586249,13.9889143 382.76475,14.46775 C382.943251,14.9465857 383.0325,15.4919969 383.0325,16.104 C383.0325,16.3420012 383.007,16.5006663 382.956,16.58 C382.905,16.6593337 382.808667,16.699 382.667,16.699 L376.938,16.699 C376.949333,17.2430027 377.022999,17.7161647 377.159,18.1185 C377.295001,18.5208353 377.481999,18.856582 377.72,19.12575 C377.958001,19.394918 378.241332,19.5960827 378.57,19.72925 C378.898668,19.8624173 379.266998,19.929 379.675,19.929 C380.054669,19.929 380.381915,19.8850838 380.65675,19.79725 C380.931585,19.7094162 381.168166,19.6145005 381.3665,19.5125 C381.564834,19.4104995 381.730583,19.3155838 381.86375,19.22775 C381.996917,19.1399162 382.111666,19.096 382.208,19.096 C382.332667,19.096 382.429,19.1441662 382.497,19.2405 L382.922,19.793 C382.734999,20.0196678 382.511168,20.2165825 382.2505,20.38375 C381.989832,20.5509175 381.710751,20.6883328 381.41325,20.796 C381.115749,20.9036672 380.808335,20.9844164 380.491,21.03825 C380.173665,21.0920836 379.859168,21.119 379.5475,21.119 C378.952497,21.119 378.404253,21.0184177 377.90275,20.81725 C377.401247,20.6160823 376.967752,20.3214186 376.60225,19.93325 C376.236748,19.5450814 375.952001,19.0648362 375.748,18.4925 C375.543999,17.9201638 375.442,17.262837 375.442,16.5205 C375.442,15.9198303 375.534082,15.3588359 375.71825,14.8375 C375.902418,14.3161641 376.167332,13.8642519 376.513,13.48175 C376.858668,13.0992481 377.280831,12.7989178 377.7795,12.58075 C378.278169,12.3625822 378.839164,12.2535 379.4625,12.2535 L379.4625,12.2535 Z M379.4965,13.367 C378.765496,13.367 378.190335,13.5780812 377.771,14.00025 C377.351665,14.4224188 377.091001,15.0074963 376.989,15.7555 L381.6725,15.7555 C381.6725,15.4041649 381.624334,15.0825848 381.528,14.79075 C381.431666,14.4989152 381.290001,14.2467511 381.103,14.03425 C380.915999,13.8217489 380.687918,13.6574172 380.41875,13.54125 C380.149582,13.4250828 379.842168,13.367 379.4965,13.367 L379.4965,13.367 Z M383.874,12.3895 L385.115,12.3895 C385.234001,12.3895 385.333166,12.4206664 385.4125,12.483 C385.491834,12.5453336 385.5485,12.6189996 385.5825,12.704 L387.767,18.246 C387.846334,18.450001 387.908666,18.653999 387.954,18.858 C387.999334,19.062001 388.041833,19.2631657 388.0815,19.4615 C388.126834,19.2631657 388.175,19.062001 388.226,18.858 C388.277,18.653999 388.342166,18.450001 388.4215,18.246 L390.6315,12.704 C390.6655,12.6133329 390.72075,12.5382503 390.79725,12.47875 C390.87375,12.4192497 390.968666,12.3895 391.082,12.3895 L392.2635,12.3895 L388.753,21 L387.3845,21 L383.874,12.3895 Z M397.0745,12.2535 C397.590169,12.2535 398.066164,12.3399158 398.5025,12.51275 C398.938836,12.6855842 399.315665,12.934915 399.633,13.26075 C399.950335,13.586585 400.198249,13.9889143 400.37675,14.46775 C400.555251,14.9465857 400.6445,15.4919969 400.6445,16.104 C400.6445,16.3420012 400.619,16.5006663 400.568,16.58 C400.517,16.6593337 400.420667,16.699 400.279,16.699 L394.55,16.699 C394.561333,17.2430027 394.634999,17.7161647 394.771,18.1185 C394.907001,18.5208353 395.093999,18.856582 395.332,19.12575 C395.570001,19.394918 395.853332,19.5960827 396.182,19.72925 C396.510668,19.8624173 396.878998,19.929 397.287,19.929 C397.666669,19.929 397.993915,19.8850838 398.26875,19.79725 C398.543585,19.7094162 398.780166,19.6145005 398.9785,19.5125 C399.176834,19.4104995 399.342583,19.3155838 399.47575,19.22775 C399.608917,19.1399162 399.723666,19.096 399.82,19.096 C399.944667,19.096 400.041,19.1441662 400.109,19.2405 L400.534,19.793 C400.346999,20.0196678 400.123168,20.2165825 399.8625,20.38375 C399.601832,20.5509175 399.322751,20.6883328 399.02525,20.796 C398.727749,20.9036672 398.420335,20.9844164 398.103,21.03825 C397.785665,21.0920836 397.471168,21.119 397.1595,21.119 C396.564497,21.119 396.016253,21.0184177 395.51475,20.81725 C395.013247,20.6160823 394.579752,20.3214186 394.21425,19.93325 C393.848748,19.5450814 393.564001,19.0648362 393.36,18.4925 C393.155999,17.9201638 393.054,17.262837 393.054,16.5205 C393.054,15.9198303 393.146082,15.3588359 393.33025,14.8375 C393.514418,14.3161641 393.779332,13.8642519 394.125,13.48175 C394.470668,13.0992481 394.892831,12.7989178 395.3915,12.58075 C395.890169,12.3625822 396.451164,12.2535 397.0745,12.2535 L397.0745,12.2535 Z M397.1085,13.367 C396.377496,13.367 395.802335,13.5780812 395.383,14.00025 C394.963665,14.4224188 394.703001,15.0074963 394.601,15.7555 L399.2845,15.7555 C399.2845,15.4041649 399.236334,15.0825848 399.14,14.79075 C399.043666,14.4989152 398.902001,14.2467511 398.715,14.03425 C398.527999,13.8217489 398.299918,13.6574172 398.03075,13.54125 C397.761582,13.4250828 397.454168,13.367 397.1085,13.367 L397.1085,13.367 Z M402.574,21 L402.574,12.3895 L403.441,12.3895 C403.605334,12.3895 403.718666,12.4206664 403.781,12.483 C403.843334,12.5453336 403.885833,12.6529992 403.9085,12.806 L404.0105,14.149 C404.305168,13.5483303 404.669248,13.0794184 405.10275,12.74225 C405.536252,12.4050816 406.04483,12.2365 406.6285,12.2365 C406.866501,12.2365 407.081832,12.2634164 407.2745,12.31725 C407.467168,12.3710836 407.645666,12.4461662 407.81,12.5425 L407.6145,13.673 C407.574833,13.8146674 407.487001,13.8855 407.351,13.8855 C407.271666,13.8855 407.149834,13.8585836 406.9855,13.80475 C406.821166,13.7509164 406.591668,13.724 406.297,13.724 C405.769997,13.724 405.329418,13.8769985 404.97525,14.183 C404.621082,14.4890015 404.325001,14.9338304 404.087,15.5175 L404.087,21 L402.574,21 Z M411.9495,23.5415 C411.8985,23.6548339 411.83475,23.7454997 411.75825,23.8135 C411.68175,23.8815003 411.564167,23.9155 411.4055,23.9155 L410.2835,23.9155 L411.856,20.4985 L408.303,12.3895 L409.612,12.3895 C409.742334,12.3895 409.844333,12.422083 409.918,12.48725 C409.991667,12.552417 410.0455,12.6246663 410.0795,12.704 L412.383,18.127 C412.434,18.2516673 412.477916,18.3763327 412.51475,18.501 C412.551584,18.6256673 412.584167,18.753166 412.6125,18.8835 C412.652167,18.753166 412.691833,18.6256673 412.7315,18.501 C412.771167,18.3763327 412.8165,18.248834 412.8675,18.1185 L415.103,12.704 C415.137,12.6133329 415.195083,12.5382503 415.27725,12.47875 C415.359417,12.4192497 415.448666,12.3895 415.545,12.3895 L416.752,12.3895 L411.9495,23.5415 Z M427.2835,13.9195 C427.238166,13.9818336 427.192834,14.0299998 427.1475,14.064 C427.102166,14.0980002 427.037,14.115 426.952,14.115 C426.867,14.115 426.774917,14.0795837 426.67575,14.00875 C426.576583,13.9379163 426.450501,13.8600004 426.2975,13.775 C426.144499,13.6899996 425.958918,13.6120837 425.74075,13.54125 C425.522582,13.4704163 425.254835,13.435 424.9375,13.435 C424.518165,13.435 424.147002,13.5100826 423.824,13.66025 C423.500998,13.8104174 423.230418,14.0271652 423.01225,14.3105 C422.794082,14.5938347 422.629751,14.9366647 422.51925,15.339 C422.408749,15.7413353 422.3535,16.1918308 422.3535,16.6905 C422.3535,17.2118359 422.412999,17.6750813 422.532,18.08025 C422.651001,18.4854187 422.818166,18.8254153 423.0335,19.10025 C423.248834,19.3750847 423.510915,19.5847493 423.81975,19.72925 C424.128585,19.8737507 424.475665,19.946 424.861,19.946 C425.229335,19.946 425.532499,19.9020838 425.7705,19.81425 C426.008501,19.7264162 426.206833,19.6286672 426.3655,19.521 C426.524167,19.4133328 426.654499,19.3155838 426.7565,19.22775 C426.858501,19.1399162 426.960499,19.096 427.0625,19.096 C427.192834,19.096 427.289166,19.1441662 427.3515,19.2405 L427.7765,19.793 C427.402498,20.2520023 426.935003,20.5877489 426.374,20.80025 C425.812997,21.0127511 425.220836,21.119 424.5975,21.119 C424.059164,21.119 423.559086,21.0198343 423.09725,20.8215 C422.635414,20.6231657 422.234502,20.3355852 421.8945,19.95875 C421.554498,19.5819148 421.286751,19.1186694 421.09125,18.569 C420.895749,18.0193306 420.798,17.3931702 420.798,16.6905 C420.798,16.0501635 420.887249,15.4580027 421.06575,14.914 C421.244251,14.3699973 421.504915,13.9010853 421.84775,13.50725 C422.190585,13.1134147 422.614164,12.8060011 423.1185,12.585 C423.622836,12.3639989 424.20083,12.2535 424.8525,12.2535 C425.45317,12.2535 425.985831,12.351249 426.4505,12.54675 C426.915169,12.742251 427.325998,13.0184982 427.683,13.3755 L427.2835,13.9195 Z M429.349,21 L429.349,8.4795 L430.862,8.4795 L430.862,13.5455 C431.230335,13.154498 431.638331,12.8414178 432.086,12.60625 C432.533669,12.3710822 433.04933,12.2535 433.633,12.2535 C434.103336,12.2535 434.518415,12.3314159 434.87825,12.48725 C435.238085,12.6430841 435.538415,12.8640819 435.77925,13.15025 C436.020085,13.4364181 436.202833,13.7806647 436.3275,14.183 C436.452167,14.5853353 436.5145,15.0301642 436.5145,15.5175 L436.5145,21 L435.0015,21 L435.0015,15.5175 C435.0015,14.8658301 434.852751,14.3600851 434.55525,14.00025 C434.257749,13.6404149 433.803003,13.4605 433.191,13.4605 C432.743331,13.4605 432.325419,13.5681656 431.93725,13.7835 C431.549081,13.9988344 431.190668,14.2906648 430.862,14.659 L430.862,21 L429.349,21 Z M442.286,12.2535 C442.915003,12.2535 443.483081,12.3583323 443.99025,12.568 C444.497419,12.7776677 444.928082,13.0751647 445.28225,13.4605 C445.636418,13.8458353 445.908416,14.3119139 446.09825,14.85875 C446.288084,15.4055861 446.383,16.0161633 446.383,16.6905 C446.383,17.3705034 446.288084,17.9824973 446.09825,18.5265 C445.908416,19.0705027 445.636418,19.5351647 445.28225,19.9205 C444.928082,20.3058353 444.497419,20.6019156 443.99025,20.80875 C443.483081,21.0155844 442.915003,21.119 442.286,21.119 C441.656997,21.119 441.088919,21.0155844 440.58175,20.80875 C440.074581,20.6019156 439.642502,20.3058353 439.2855,19.9205 C438.928498,19.5351647 438.653668,19.0705027 438.461,18.5265 C438.268332,17.9824973 438.172,17.3705034 438.172,16.6905 C438.172,16.0161633 438.268332,15.4055861 438.461,14.85875 C438.653668,14.3119139 438.928498,13.8458353 439.2855,13.4605 C439.642502,13.0751647 440.074581,12.7776677 440.58175,12.568 C441.088919,12.3583323 441.656997,12.2535 442.286,12.2535 L442.286,12.2535 Z M442.286,19.9375 C443.136004,19.9375 443.770665,19.6527528 444.19,19.08325 C444.609335,18.5137472 444.819,17.7190051 444.819,16.699 C444.819,15.6733282 444.609335,14.8743362 444.19,14.302 C443.770665,13.7296638 443.136004,13.4435 442.286,13.4435 C441.855331,13.4435 441.481335,13.5171659 441.164,13.6645 C440.846665,13.8118341 440.581751,14.0243319 440.36925,14.302 C440.156749,14.5796681 439.998084,14.9210813 439.89325,15.32625 C439.788416,15.7314187 439.736,16.1889974 439.736,16.699 C439.736,17.2090025 439.788416,17.6651647 439.89325,18.0675 C439.998084,18.4698353 440.156749,18.8084153 440.36925,19.08325 C440.581751,19.3580847 440.846665,19.5691659 441.164,19.7165 C441.481335,19.8638341 441.855331,19.9375 442.286,19.9375 L442.286,19.9375 Z M449.936,12.3895 L449.936,21 L448.423,21 L448.423,12.3895 L449.936,12.3895 Z M450.276,9.6865 C450.276,9.83383407 450.24625,9.97124936 450.18675,10.09875 C450.12725,10.2262506 450.047917,10.3395828 449.94875,10.43875 C449.849583,10.5379172 449.734834,10.615833 449.6045,10.6725 C449.474166,10.7291669 449.335334,10.7575 449.188,10.7575 C449.040666,10.7575 448.903251,10.7291669 448.77575,10.6725 C448.648249,10.615833 448.534917,10.5379172 448.43575,10.43875 C448.336583,10.3395828 448.258667,10.2262506 448.202,10.09875 C448.145333,9.97124936 448.117,9.83383407 448.117,9.6865 C448.117,9.53916593 448.145333,9.39891733 448.202,9.26575 C448.258667,9.13258267 448.336583,9.01641716 448.43575,8.91725 C448.534917,8.81808284 448.648249,8.74016695 448.77575,8.6835 C448.903251,8.62683305 449.040666,8.5985 449.188,8.5985 C449.335334,8.5985 449.474166,8.62683305 449.6045,8.6835 C449.734834,8.74016695 449.849583,8.81808284 449.94875,8.91725 C450.047917,9.01641716 450.12725,9.13258267 450.18675,9.26575 C450.24625,9.39891733 450.276,9.53916593 450.276,9.6865 L450.276,9.6865 Z M458.4785,13.9195 C458.433166,13.9818336 458.387834,14.0299998 458.3425,14.064 C458.297166,14.0980002 458.232,14.115 458.147,14.115 C458.062,14.115 457.969917,14.0795837 457.87075,14.00875 C457.771583,13.9379163 457.645501,13.8600004 457.4925,13.775 C457.339499,13.6899996 457.153918,13.6120837 456.93575,13.54125 C456.717582,13.4704163 456.449835,13.435 456.1325,13.435 C455.713165,13.435 455.342002,13.5100826 455.019,13.66025 C454.695998,13.8104174 454.425418,14.0271652 454.20725,14.3105 C453.989082,14.5938347 453.824751,14.9366647 453.71425,15.339 C453.603749,15.7413353 453.5485,16.1918308 453.5485,16.6905 C453.5485,17.2118359 453.607999,17.6750813 453.727,18.08025 C453.846001,18.4854187 454.013166,18.8254153 454.2285,19.10025 C454.443834,19.3750847 454.705915,19.5847493 455.01475,19.72925 C455.323585,19.8737507 455.670665,19.946 456.056,19.946 C456.424335,19.946 456.727499,19.9020838 456.9655,19.81425 C457.203501,19.7264162 457.401833,19.6286672 457.5605,19.521 C457.719167,19.4133328 457.849499,19.3155838 457.9515,19.22775 C458.053501,19.1399162 458.155499,19.096 458.2575,19.096 C458.387834,19.096 458.484166,19.1441662 458.5465,19.2405 L458.9715,19.793 C458.597498,20.2520023 458.130003,20.5877489 457.569,20.80025 C457.007997,21.0127511 456.415836,21.119 455.7925,21.119 C455.254164,21.119 454.754086,21.0198343 454.29225,20.8215 C453.830414,20.6231657 453.429502,20.3355852 453.0895,19.95875 C452.749498,19.5819148 452.481751,19.1186694 452.28625,18.569 C452.090749,18.0193306 451.993,17.3931702 451.993,16.6905 C451.993,16.0501635 452.082249,15.4580027 452.26075,14.914 C452.439251,14.3699973 452.699915,13.9010853 453.04275,13.50725 C453.385585,13.1134147 453.809164,12.8060011 454.3135,12.585 C454.817836,12.3639989 455.39583,12.2535 456.0475,12.2535 C456.64817,12.2535 457.180831,12.351249 457.6455,12.54675 C458.110169,12.742251 458.520998,13.0184982 458.878,13.3755 L458.4785,13.9195 Z M463.9525,12.2535 C464.468169,12.2535 464.944164,12.3399158 465.3805,12.51275 C465.816836,12.6855842 466.193665,12.934915 466.511,13.26075 C466.828335,13.586585 467.076249,13.9889143 467.25475,14.46775 C467.433251,14.9465857 467.5225,15.4919969 467.5225,16.104 C467.5225,16.3420012 467.497,16.5006663 467.446,16.58 C467.395,16.6593337 467.298667,16.699 467.157,16.699 L461.428,16.699 C461.439333,17.2430027 461.512999,17.7161647 461.649,18.1185 C461.785001,18.5208353 461.971999,18.856582 462.21,19.12575 C462.448001,19.394918 462.731332,19.5960827 463.06,19.72925 C463.388668,19.8624173 463.756998,19.929 464.165,19.929 C464.544669,19.929 464.871915,19.8850838 465.14675,19.79725 C465.421585,19.7094162 465.658166,19.6145005 465.8565,19.5125 C466.054834,19.4104995 466.220583,19.3155838 466.35375,19.22775 C466.486917,19.1399162 466.601666,19.096 466.698,19.096 C466.822667,19.096 466.919,19.1441662 466.987,19.2405 L467.412,19.793 C467.224999,20.0196678 467.001168,20.2165825 466.7405,20.38375 C466.479832,20.5509175 466.200751,20.6883328 465.90325,20.796 C465.605749,20.9036672 465.298335,20.9844164 464.981,21.03825 C464.663665,21.0920836 464.349168,21.119 464.0375,21.119 C463.442497,21.119 462.894253,21.0184177 462.39275,20.81725 C461.891247,20.6160823 461.457752,20.3214186 461.09225,19.93325 C460.726748,19.5450814 460.442001,19.0648362 460.238,18.4925 C460.033999,17.9201638 459.932,17.262837 459.932,16.5205 C459.932,15.9198303 460.024082,15.3588359 460.20825,14.8375 C460.392418,14.3161641 460.657332,13.8642519 461.003,13.48175 C461.348668,13.0992481 461.770831,12.7989178 462.2695,12.58075 C462.768169,12.3625822 463.329164,12.2535 463.9525,12.2535 L463.9525,12.2535 Z M463.9865,13.367 C463.255496,13.367 462.680335,13.5780812 462.261,14.00025 C461.841665,14.4224188 461.581001,15.0074963 461.479,15.7555 L466.1625,15.7555 C466.1625,15.4041649 466.114334,15.0825848 466.018,14.79075 C465.921666,14.4989152 465.780001,14.2467511 465.593,14.03425 C465.405999,13.8217489 465.177918,13.6574172 464.90875,13.54125 C464.639582,13.4250828 464.332168,13.367 463.9865,13.367 L463.9865,13.367 Z M471.611,12.3895 L472.801,12.3895 C472.925667,12.3895 473.027666,12.4206664 473.107,12.483 C473.186334,12.5453336 473.240167,12.6189996 473.2685,12.704 L474.9175,18.246 C474.962834,18.450001 475.005333,18.6469157 475.045,18.83675 C475.084667,19.0265843 475.118667,19.2178324 475.147,19.4105 C475.192334,19.2178324 475.243333,19.0265843 475.3,18.83675 C475.356667,18.6469157 475.416166,18.450001 475.4785,18.246 L477.2975,12.67 C477.325833,12.5849996 477.375416,12.5141669 477.44625,12.4575 C477.517084,12.400833 477.606333,12.3725 477.714,12.3725 L478.3685,12.3725 C478.481834,12.3725 478.575333,12.400833 478.649,12.4575 C478.722667,12.5141669 478.773667,12.5849996 478.802,12.67 L480.5785,18.246 C480.640834,18.4443343 480.696083,18.6398324 480.74425,18.8325 C480.792417,19.0251676 480.839166,19.2149991 480.8845,19.402 C480.912833,19.2149991 480.949666,19.019501 480.995,18.8155 C481.040334,18.611499 481.0885,18.4216675 481.1395,18.246 L482.8225,12.704 C482.850833,12.6133329 482.904666,12.5382503 482.984,12.47875 C483.063334,12.4192497 483.156833,12.3895 483.2645,12.3895 L484.4035,12.3895 L481.6155,21 L480.417,21 C480.269666,21 480.167667,20.9036676 480.111,20.711 L478.207,14.8715 C478.161666,14.741166 478.124833,14.6094173 478.0965,14.47625 C478.068167,14.3430827 478.039833,14.211334 478.0115,14.081 C477.983167,14.211334 477.954833,14.3444993 477.9265,14.4805 C477.898167,14.6165007 477.861334,14.749666 477.816,14.88 L475.8865,20.711 C475.824166,20.9036676 475.708001,21 475.538,21 L474.399,21 L471.611,12.3895 Z M489.1635,12.2535 C489.679169,12.2535 490.155164,12.3399158 490.5915,12.51275 C491.027836,12.6855842 491.404665,12.934915 491.722,13.26075 C492.039335,13.586585 492.287249,13.9889143 492.46575,14.46775 C492.644251,14.9465857 492.7335,15.4919969 492.7335,16.104 C492.7335,16.3420012 492.708,16.5006663 492.657,16.58 C492.606,16.6593337 492.509667,16.699 492.368,16.699 L486.639,16.699 C486.650333,17.2430027 486.723999,17.7161647 486.86,18.1185 C486.996001,18.5208353 487.182999,18.856582 487.421,19.12575 C487.659001,19.394918 487.942332,19.5960827 488.271,19.72925 C488.599668,19.8624173 488.967998,19.929 489.376,19.929 C489.755669,19.929 490.082915,19.8850838 490.35775,19.79725 C490.632585,19.7094162 490.869166,19.6145005 491.0675,19.5125 C491.265834,19.4104995 491.431583,19.3155838 491.56475,19.22775 C491.697917,19.1399162 491.812666,19.096 491.909,19.096 C492.033667,19.096 492.13,19.1441662 492.198,19.2405 L492.623,19.793 C492.435999,20.0196678 492.212168,20.2165825 491.9515,20.38375 C491.690832,20.5509175 491.411751,20.6883328 491.11425,20.796 C490.816749,20.9036672 490.509335,20.9844164 490.192,21.03825 C489.874665,21.0920836 489.560168,21.119 489.2485,21.119 C488.653497,21.119 488.105253,21.0184177 487.60375,20.81725 C487.102247,20.6160823 486.668752,20.3214186 486.30325,19.93325 C485.937748,19.5450814 485.653001,19.0648362 485.449,18.4925 C485.244999,17.9201638 485.143,17.262837 485.143,16.5205 C485.143,15.9198303 485.235082,15.3588359 485.41925,14.8375 C485.603418,14.3161641 485.868332,13.8642519 486.214,13.48175 C486.559668,13.0992481 486.981831,12.7989178 487.4805,12.58075 C487.979169,12.3625822 488.540164,12.2535 489.1635,12.2535 L489.1635,12.2535 Z M489.1975,13.367 C488.466496,13.367 487.891335,13.5780812 487.472,14.00025 C487.052665,14.4224188 486.792001,15.0074963 486.69,15.7555 L491.3735,15.7555 C491.3735,15.4041649 491.325334,15.0825848 491.229,14.79075 C491.132666,14.4989152 490.991001,14.2467511 490.804,14.03425 C490.616999,13.8217489 490.388918,13.6574172 490.11975,13.54125 C489.850582,13.4250828 489.543168,13.367 489.1975,13.367 L489.1975,13.367 Z M497.944,21 L497.944,12.3895 L498.845,12.3895 C499.060334,12.3895 499.196333,12.4943323 499.253,12.704 L499.3635,13.588 C499.680835,13.196998 500.036415,12.8768346 500.43025,12.6275 C500.824085,12.3781654 501.281664,12.2535 501.803,12.2535 C502.38667,12.2535 502.858415,12.4149984 503.21825,12.738 C503.578085,13.0610016 503.837333,13.4973306 503.996,14.047 C504.115001,13.7353318 504.272249,13.4661678 504.46775,13.2395 C504.663251,13.0128322 504.882832,12.8258341 505.1265,12.6785 C505.370168,12.5311659 505.629415,12.4235003 505.90425,12.3555 C506.179085,12.2874997 506.458165,12.2535 506.7415,12.2535 C507.194836,12.2535 507.598582,12.3257493 507.95275,12.47025 C508.306918,12.6147507 508.607249,12.8258319 508.85375,13.1035 C509.100251,13.3811681 509.288666,13.7225813 509.419,14.12775 C509.549334,14.5329187 509.6145,14.9961641 509.6145,15.5175 L509.6145,21 L508.1015,21 L508.1015,15.5175 C508.1015,14.8431633 507.954168,14.3317517 507.6595,13.98325 C507.364832,13.6347483 506.937003,13.4605 506.376,13.4605 C506.126665,13.4605 505.890084,13.5044162 505.66625,13.59225 C505.442416,13.6800838 505.245501,13.8089991 505.0755,13.979 C504.905499,14.1490008 504.770917,14.3629154 504.67175,14.62075 C504.572583,14.8785846 504.523,15.1774983 504.523,15.5175 L504.523,21 L503.01,21 L503.01,15.5175 C503.01,14.8261632 502.871168,14.3105017 502.5935,13.9705 C502.315832,13.6304983 501.910669,13.4605 501.378,13.4605 C501.003998,13.4605 500.656918,13.5610823 500.33675,13.76225 C500.016582,13.9634177 499.723335,14.2368316 499.457,14.5825 L499.457,21 L497.944,21 Z M518.225,21 L517.5535,21 C517.406166,21 517.287167,20.9773336 517.1965,20.932 C517.105833,20.8866664 517.046333,20.7903341 517.018,20.643 L516.848,19.844 C516.621332,20.048001 516.400334,20.2307492 516.185,20.39225 C515.969666,20.5537508 515.743001,20.6897494 515.505,20.80025 C515.266999,20.9107506 515.013418,20.994333 514.74425,21.051 C514.475082,21.1076669 514.176168,21.136 513.8475,21.136 C513.513165,21.136 513.200085,21.0892505 512.90825,20.99575 C512.616415,20.9022495 512.362834,20.7620009 512.1475,20.575 C511.932166,20.3879991 511.760751,20.1514181 511.63325,19.86525 C511.505749,19.5790819 511.442,19.240502 511.442,18.8495 C511.442,18.5094983 511.535499,18.1822516 511.7225,17.86775 C511.909501,17.5532484 512.211248,17.2741679 512.62775,17.0305 C513.044252,16.7868321 513.589663,16.5870841 514.264,16.43125 C514.938337,16.2754159 515.762828,16.1861668 516.7375,16.1635 L516.7375,15.492 C516.7375,14.82333 516.594418,14.317585 516.30825,13.97475 C516.022082,13.631915 515.598503,13.4605 515.0375,13.4605 C514.669165,13.4605 514.358918,13.5072495 514.10675,13.60075 C513.854582,13.6942505 513.636418,13.7990828 513.45225,13.91525 C513.268082,14.0314172 513.109417,14.1362495 512.97625,14.22975 C512.843083,14.3232505 512.711334,14.37 512.581,14.37 C512.478999,14.37 512.38975,14.3430836 512.31325,14.28925 C512.23675,14.2354164 512.175834,14.1688337 512.1305,14.0895 L511.8585,13.605 C512.334502,13.1459977 512.847331,12.8031678 513.397,12.5765 C513.946669,12.3498322 514.55583,12.2365 515.2245,12.2365 C515.706169,12.2365 516.133998,12.3158325 516.508,12.4745 C516.882002,12.6331675 517.196499,12.8541652 517.4515,13.1375 C517.706501,13.4208347 517.899166,13.7636647 518.0295,14.166 C518.159834,14.5683353 518.225,15.0103309 518.225,15.492 L518.225,21 Z M514.298,20.0735 C514.564335,20.0735 514.807999,20.0465836 515.029,19.99275 C515.250001,19.9389164 515.458249,19.8624172 515.65375,19.76325 C515.849251,19.6640828 516.036249,19.5436674 516.21475,19.402 C516.393251,19.2603326 516.567499,19.0988342 516.7375,18.9175 L516.7375,17.124 C516.040497,17.1466668 515.448336,17.2019162 514.961,17.28975 C514.473664,17.3775838 514.077002,17.4923326 513.771,17.634 C513.464998,17.7756674 513.242584,17.9428324 513.10375,18.1355 C512.964916,18.3281676 512.8955,18.5434988 512.8955,18.7815 C512.8955,19.0081678 512.932333,19.2036658 513.006,19.368 C513.079667,19.5323342 513.178833,19.6669161 513.3035,19.77175 C513.428167,19.8765839 513.575499,19.9530831 513.7455,20.00125 C513.915501,20.0494169 514.099666,20.0735 514.298,20.0735 L514.298,20.0735 Z M522.0925,8.4795 L522.0925,15.849 L522.4835,15.849 C522.596834,15.849 522.690333,15.8334168 522.764,15.80225 C522.837667,15.7710832 522.919833,15.7073338 523.0105,15.611 L525.7305,12.6955 C525.8155,12.6048329 525.9005,12.5311669 525.9855,12.4745 C526.0705,12.417833 526.183833,12.3895 526.3255,12.3895 L527.7025,12.3895 L524.532,15.764 C524.452666,15.8603338 524.37475,15.945333 524.29825,16.019 C524.22175,16.092667 524.135334,16.157833 524.039,16.2145 C524.141001,16.2825003 524.233083,16.3604162 524.31525,16.44825 C524.397417,16.5360838 524.475333,16.6366661 524.549,16.75 L527.915,21 L526.555,21 C526.430333,21 526.324084,20.9759169 526.23625,20.92775 C526.148416,20.8795831 526.064834,20.8045005 525.9855,20.7025 L523.155,17.175 C523.07,17.0559994 522.985,16.9780835 522.9,16.94125 C522.815,16.9044165 522.687501,16.886 522.5175,16.886 L522.0925,16.886 L522.0925,21 L520.571,21 L520.571,8.4795 L522.0925,8.4795 Z M532.8365,12.2535 C533.352169,12.2535 533.828164,12.3399158 534.2645,12.51275 C534.700836,12.6855842 535.077665,12.934915 535.395,13.26075 C535.712335,13.586585 535.960249,13.9889143 536.13875,14.46775 C536.317251,14.9465857 536.4065,15.4919969 536.4065,16.104 C536.4065,16.3420012 536.381,16.5006663 536.33,16.58 C536.279,16.6593337 536.182667,16.699 536.041,16.699 L530.312,16.699 C530.323333,17.2430027 530.396999,17.7161647 530.533,18.1185 C530.669001,18.5208353 530.855999,18.856582 531.094,19.12575 C531.332001,19.394918 531.615332,19.5960827 531.944,19.72925 C532.272668,19.8624173 532.640998,19.929 533.049,19.929 C533.428669,19.929 533.755915,19.8850838 534.03075,19.79725 C534.305585,19.7094162 534.542166,19.6145005 534.7405,19.5125 C534.938834,19.4104995 535.104583,19.3155838 535.23775,19.22775 C535.370917,19.1399162 535.485666,19.096 535.582,19.096 C535.706667,19.096 535.803,19.1441662 535.871,19.2405 L536.296,19.793 C536.108999,20.0196678 535.885168,20.2165825 535.6245,20.38375 C535.363832,20.5509175 535.084751,20.6883328 534.78725,20.796 C534.489749,20.9036672 534.182335,20.9844164 533.865,21.03825 C533.547665,21.0920836 533.233168,21.119 532.9215,21.119 C532.326497,21.119 531.778253,21.0184177 531.27675,20.81725 C530.775247,20.6160823 530.341752,20.3214186 529.97625,19.93325 C529.610748,19.5450814 529.326001,19.0648362 529.122,18.4925 C528.917999,17.9201638 528.816,17.262837 528.816,16.5205 C528.816,15.9198303 528.908082,15.3588359 529.09225,14.8375 C529.276418,14.3161641 529.541332,13.8642519 529.887,13.48175 C530.232668,13.0992481 530.654831,12.7989178 531.1535,12.58075 C531.652169,12.3625822 532.213164,12.2535 532.8365,12.2535 L532.8365,12.2535 Z M532.8705,13.367 C532.139496,13.367 531.564335,13.5780812 531.145,14.00025 C530.725665,14.4224188 530.465001,15.0074963 530.363,15.7555 L535.0465,15.7555 C535.0465,15.4041649 534.998334,15.0825848 534.902,14.79075 C534.805666,14.4989152 534.664001,14.2467511 534.477,14.03425 C534.289999,13.8217489 534.061918,13.6574172 533.79275,13.54125 C533.523582,13.4250828 533.216168,13.367 532.8705,13.367 L532.8705,13.367 Z" id="Quantify-the-impact" fill="#FFFFFF"></path>
            </g>
            <path d="M16.7695312,3.39648438 L14.4140625,3.4140625 L14.0800781,3.4140625 L14.0800781,20.7636719 C14.0800781,22.0527408 14.4374964,22.925779 15.1523438,23.3828125 C15.6445337,23.6875015 16.6113209,23.9218742 18.0527344,24.0859375 L18.0527344,24.71875 C18.0527344,24.8125005 18.0410157,24.9062495 18.0175781,25 L6.38085938,25 L6.34570312,24.0859375 C6.81445547,23.9218742 7.28613044,23.7753913 7.76074219,23.6464844 C8.23535394,23.5175775 8.66015437,23.3476573 9.03515625,23.1367188 C9.87891047,22.6679664 10.3007812,21.8769587 10.3007812,20.7636719 L10.3007812,3.4140625 L7.734375,3.4140625 C6.67968223,3.4140625 5.87109656,3.45507771 5.30859375,3.53710938 C4.74609094,3.61914104 4.29199392,3.82128745 3.94628906,4.14355469 C3.60058421,4.46582192 3.28418112,4.83788852 2.99707031,5.25976562 C2.7099595,5.68164273 2.44043095,6.11816181 2.18847656,6.56933594 C1.93652218,7.02051007 1.6757826,7.41015461 1.40625,7.73828125 L0.59765625,7.73828125 L1.03710938,2.0078125 C4.02540557,2.12500059 7.99802209,2.18359375 12.9550781,2.18359375 C17.9121342,2.18359375 21.4042867,2.11328195 23.4316406,1.97265625 L23.9941406,7.75585938 L23.1503906,7.75585938 C22.880858,7.42773273 22.6259778,7.03808819 22.3857422,6.58691406 C22.1455066,6.13573993 21.884767,5.69922086 21.6035156,5.27734375 C20.9238247,4.24608859 20.2207068,3.67187559 19.4941406,3.5546875 C18.8261685,3.44921822 17.9179745,3.39648438 16.7695312,3.39648438 L16.7695312,3.39648438 Z M27.0043527,13.2226562 C26.7699765,13.9843788 26.6527902,14.8749949 26.6527902,15.8945312 C26.6527902,16.9140676 26.7699765,17.9042921 27.0043527,18.8652344 C27.2387288,19.8261767 27.5785692,20.6874962 28.0238839,21.4492188 C29.0082638,23.1367272 30.2562982,23.9804688 31.7680245,23.9804688 C33.2445944,23.9804688 34.3871611,23.429693 35.1957589,22.328125 C35.9457627,21.3085887 36.3207589,19.92579 36.3207589,18.1796875 C36.3207589,15.8710822 35.8637322,13.9375078 34.9496652,12.3789062 C34.0004417,10.7265542 32.7641259,9.90039062 31.2406808,9.90039062 C29.0961388,9.90039062 27.6840436,11.0078014 27.0043527,13.2226562 L27.0043527,13.2226562 Z M23.1371652,16.984375 C23.1371652,14.5468628 23.9574695,12.5429766 25.5981027,10.9726562 C27.1801418,9.47264875 29.0961383,8.72265625 31.3461495,8.72265625 C33.7485053,8.72265625 35.7348136,9.46093012 37.3051339,10.9375 C38.9574859,12.4843827 39.7836495,14.4941283 39.7836495,16.9667969 C39.7836495,19.4394655 38.9633453,21.4726483 37.322712,23.0664062 C35.7641105,24.5898514 33.8363954,25.3515625 31.5395089,25.3515625 C29.2426224,25.3515625 27.2856108,24.5781327 25.6684152,23.03125 C23.9809067,21.4257732 23.1371652,19.4101684 23.1371652,16.984375 L23.1371652,16.984375 Z M61.1805803,24.1210938 L61.1454241,25 L52.3563616,25 C52.332924,24.8710931 52.3212053,24.7187509 52.3212053,24.5429688 L52.3212053,24.1210938 C52.4618311,24.0273433 52.6581182,23.9541018 52.9100725,23.9013672 C53.1620269,23.8486325 53.4169072,23.7871097 53.674721,23.7167969 C54.3075366,23.5410147 54.6825329,23.2832048 54.799721,22.9433594 C55.0575348,22.4394506 55.1864397,21.7832072 55.1864397,20.9746094 L55.1864397,14.8574219 C55.1864397,13.4863213 55.0311678,12.5400417 54.7206194,12.0185547 C54.410071,11.4970677 54.067301,11.1337901 53.6922991,10.9287109 C53.3172972,10.7236318 52.8719892,10.6210938 52.3563616,10.6210938 C51.840734,10.6210938 51.3837073,10.6884759 50.9852678,10.8232422 C50.5868284,10.9580085 50.2118321,11.1367176 49.8602678,11.359375 C49.2860462,11.7226581 48.6473807,12.2968711 47.9442522,13.0820312 L47.9442522,20.8691406 C47.9442522,22.1699284 48.0731572,22.9257802 48.330971,23.1367188 C48.5887848,23.3476573 48.8465947,23.5029292 49.1044085,23.6025391 C49.3622223,23.7021489 49.6288212,23.787109 49.9042132,23.8574219 C50.1796052,23.9277347 50.4169075,24.0156245 50.6161272,24.1210938 L50.580971,25 L41.9149553,25 C41.9032365,24.941406 41.8973772,24.8828128 41.8973772,24.8242188 L41.8973772,24.1210938 C42.0497217,24.0273433 42.2606571,23.9482425 42.5301897,23.8837891 C42.7997223,23.8193356 43.0692509,23.7402348 43.3387835,23.6464844 C43.9950368,23.4121082 44.370033,23.0664085 44.4637835,22.609375 C44.5926904,22.1289038 44.6571428,21.6250026 44.6571428,21.0976562 L44.6571428,12.2734375 C44.3055786,11.6406218 43.3387914,11.1191427 41.7567522,10.7089844 L41.8094866,10.1113281 L46.7137835,8.91601562 L47.7860491,8.91601562 L47.9442522,11.4472656 C49.1981647,10.076165 50.5047923,9.22656414 51.8641741,8.8984375 C52.3798017,8.78124941 52.9481554,8.72265625 53.5692522,8.72265625 C55.8192635,8.72265625 57.3426857,9.66600619 58.1395647,11.5527344 C58.9950378,10.6152297 59.704015,9.98242352 60.2665178,9.65429688 C61.2860542,9.05663764 62.2704194,8.7578125 63.2196428,8.7578125 C64.1688663,8.7578125 64.9510851,8.84277259 65.5663225,9.01269531 C66.18156,9.18261804 66.7176874,9.44335762 67.174721,9.79492188 C68.1356633,10.521488 68.686439,11.6288988 68.8270647,13.1171875 C68.9208152,14.1718803 68.9676897,15.2792911 68.9676897,16.4394531 L68.9676897,21.0449219 C68.9676897,21.6542999 68.999916,22.1259749 69.0643694,22.4599609 C69.1288229,22.793947 69.2547982,23.0400383 69.4422991,23.1982422 C69.6298,23.3564461 69.8436651,23.4853511 70.0839007,23.5849609 C70.3241362,23.6845708 70.5702275,23.7724606 70.8221819,23.8486328 C71.0741363,23.9248051 71.2938607,24.0156245 71.4813616,24.1210938 L71.4462053,25 L62.9911272,25 C62.9676896,24.8710931 62.955971,24.7187509 62.955971,24.5429688 L62.955971,24.1210938 C63.1434719,24.0156245 63.3719853,23.9277347 63.6415178,23.8574219 C63.9110504,23.787109 64.1747197,23.6992193 64.4325335,23.59375 C65.0770679,23.3593738 65.4462049,23.0195335 65.5399553,22.5742188 C65.6337058,22.07031 65.6805803,21.5605495 65.6805803,21.0449219 L65.6805803,14.0664062 C65.6805803,12.9648382 65.4051925,12.1123077 64.8544085,11.5087891 C64.3036245,10.9052704 63.4950388,10.6035156 62.4286272,10.6035156 C61.0575266,10.6035156 59.7040245,11.3359302 58.3680803,12.8007812 C58.4383932,13.5273474 58.4735491,14.8281156 58.4735491,16.703125 L58.4735491,20.9570312 C58.4735491,21.6367221 58.5028457,22.134764 58.5614397,22.4511719 C58.6200338,22.7675797 58.7518684,23.0078117 58.9569475,23.171875 C59.1620267,23.3359383 59.3963993,23.4707026 59.6600725,23.5761719 C59.9237457,23.6816412 60.1932743,23.7724606 60.4686663,23.8486328 C60.7440583,23.9248051 60.9813606,24.0156245 61.1805803,24.1210938 L61.1805803,24.1210938 Z M77.075558,13.2226562 C76.8411818,13.9843788 76.7239955,14.8749949 76.7239955,15.8945312 C76.7239955,16.9140676 76.8411818,17.9042921 77.075558,18.8652344 C77.3099342,19.8261767 77.6497745,20.6874962 78.0950893,21.4492188 C79.0794692,23.1367272 80.3275036,23.9804688 81.8392299,23.9804688 C83.3157998,23.9804688 84.4583665,23.429693 85.2669643,22.328125 C86.016968,21.3085887 86.3919643,19.92579 86.3919643,18.1796875 C86.3919643,15.8710822 85.9349376,13.9375078 85.0208705,12.3789062 C84.071647,10.7265542 82.8353313,9.90039062 81.3118861,9.90039062 C79.1673442,9.90039062 77.7552489,11.0078014 77.075558,13.2226562 L77.075558,13.2226562 Z M73.2083705,16.984375 C73.2083705,14.5468628 74.0286748,12.5429766 75.669308,10.9726562 C77.2513472,9.47264875 79.1673436,8.72265625 81.4173549,8.72265625 C83.8197107,8.72265625 85.8060189,9.46093012 87.3763393,10.9375 C89.0286913,12.4843827 89.8548549,14.4941283 89.8548549,16.9667969 C89.8548549,19.4394655 89.0345506,21.4726483 87.3939174,23.0664062 C85.8353159,24.5898514 83.9076008,25.3515625 81.6107143,25.3515625 C79.3138278,25.3515625 77.3568161,24.5781327 75.7396205,23.03125 C74.0521121,21.4257732 73.2083705,19.4101684 73.2083705,16.984375 L73.2083705,16.984375 Z M94.5877232,12.2910156 C94.2595966,11.7402316 93.3396839,11.2597677 91.8279576,10.8496094 L91.8631138,10.234375 L96.5388951,8.8984375 L97.5408482,8.8984375 L97.8220982,12.1328125 C98.7947593,10.3632724 99.8670142,9.30859545 101.038895,8.96875 C101.437335,8.86328072 101.838698,8.81054688 102.242997,8.81054688 C102.647296,8.81054688 103.001784,8.86914004 103.306473,8.98632812 C103.611162,9.10351621 103.874831,9.25585844 104.097489,9.44335938 C104.566241,9.84179887 104.800614,10.2753883 104.800614,10.7441406 C104.800614,11.1074237 104.706865,11.4589827 104.519364,11.7988281 C104.1678,12.4902378 103.778155,12.8359375 103.350419,12.8359375 C102.922682,12.8359375 102.603349,12.7421884 102.392411,12.5546875 C102.181472,12.3671866 101.999833,12.1621105 101.847489,11.9394531 C101.695144,11.7167958 101.539872,11.5117197 101.381669,11.3242188 C101.223465,11.1367178 100.992022,11.0429688 100.687333,11.0429688 C100.382644,11.0429688 100.098467,11.1279288 99.8347935,11.2978516 C99.5711203,11.4677743 99.3279587,11.6874987 99.1053013,11.9570312 C98.882644,12.2265638 98.6717086,12.5312483 98.4724888,12.8710938 C98.2732691,13.2109392 98.0740523,13.5449202 97.8748326,13.8730469 L97.8748326,20.4121094 C97.8748326,21.5019586 97.9246368,22.2343731 98.0242466,22.609375 C98.1238565,22.9843769 98.2937767,23.2451165 98.5340123,23.3916016 C98.7742478,23.5380867 99.055495,23.6494137 99.3777623,23.7255859 C99.7000295,23.8017582 100.03694,23.863281 100.388504,23.9101562 C100.740069,23.9570315 101.050612,24.0273433 101.320145,24.1210938 L101.302567,24.6660156 L101.302567,25 L91.8806919,25 C91.8689731,24.9531248 91.8631138,24.882813 91.8631138,24.7890625 L91.8631138,24.1738281 C91.8631138,24.1152341 91.8689731,24.0742189 91.8806919,24.0507812 C92.2791314,23.9335932 92.6453387,23.8398441 92.9793248,23.7695312 C93.3133108,23.6992184 93.5974876,23.5820321 93.8318638,23.4179688 C94.3357726,23.0781233 94.5877232,22.3457088 94.5877232,21.2207031 L94.5877232,12.2910156 Z M108.461216,12.2910156 C108.13309,11.7402316 107.213177,11.2597677 105.701451,10.8496094 L105.736607,10.234375 L110.412388,8.8984375 L111.414341,8.8984375 L111.695591,12.1328125 C112.668253,10.3632724 113.740508,9.30859545 114.912388,8.96875 C115.310828,8.86328072 115.712191,8.81054688 116.11649,8.81054688 C116.520789,8.81054688 116.875277,8.86914004 117.179966,8.98632812 C117.484656,9.10351621 117.748325,9.25585844 117.970982,9.44335938 C118.439734,9.84179887 118.674107,10.2753883 118.674107,10.7441406 C118.674107,11.1074237 118.580358,11.4589827 118.392857,11.7988281 C118.041293,12.4902378 117.651648,12.8359375 117.223912,12.8359375 C116.796175,12.8359375 116.476843,12.7421884 116.265904,12.5546875 C116.054965,12.3671866 115.873327,12.1621105 115.720982,11.9394531 C115.568638,11.7167958 115.413366,11.5117197 115.255162,11.3242188 C115.096958,11.1367178 114.865515,11.0429688 114.560826,11.0429688 C114.256137,11.0429688 113.97196,11.1279288 113.708287,11.2978516 C113.444614,11.4677743 113.201452,11.6874987 112.978795,11.9570312 C112.756137,12.2265638 112.545202,12.5312483 112.345982,12.8710938 C112.146762,13.2109392 111.947546,13.5449202 111.748326,13.8730469 L111.748326,20.4121094 C111.748326,21.5019586 111.79813,22.2343731 111.89774,22.609375 C111.99735,22.9843769 112.16727,23.2451165 112.407506,23.3916016 C112.647741,23.5380867 112.928988,23.6494137 113.251256,23.7255859 C113.573523,23.8017582 113.910433,23.863281 114.261998,23.9101562 C114.613562,23.9570315 114.924106,24.0273433 115.193638,24.1210938 L115.17606,24.6660156 L115.17606,25 L105.754185,25 C105.742466,24.9531248 105.736607,24.882813 105.736607,24.7890625 L105.736607,24.1738281 C105.736607,24.1152341 105.742466,24.0742189 105.754185,24.0507812 C106.152625,23.9335932 106.518832,23.8398441 106.852818,23.7695312 C107.186804,23.6992184 107.470981,23.5820321 107.705357,23.4179688 C108.209266,23.0781233 108.461216,22.3457088 108.461216,21.2207031 L108.461216,12.2910156 Z M123.881585,13.2226562 C123.647209,13.9843788 123.530022,14.8749949 123.530022,15.8945312 C123.530022,16.9140676 123.647209,17.9042921 123.881585,18.8652344 C124.115961,19.8261767 124.455801,20.6874962 124.901116,21.4492188 C125.885496,23.1367272 127.13353,23.9804688 128.645257,23.9804688 C130.121827,23.9804688 131.264393,23.429693 132.072991,22.328125 C132.822995,21.3085887 133.197991,19.92579 133.197991,18.1796875 C133.197991,15.8710822 132.740964,13.9375078 131.826897,12.3789062 C130.877674,10.7265542 129.641358,9.90039062 128.117913,9.90039062 C125.973371,9.90039062 124.561276,11.0078014 123.881585,13.2226562 L123.881585,13.2226562 Z M120.014397,16.984375 C120.014397,14.5468628 120.834702,12.5429766 122.475335,10.9726562 C124.057374,9.47264875 125.97337,8.72265625 128.223382,8.72265625 C130.625737,8.72265625 132.612046,9.46093012 134.182366,10.9375 C135.834718,12.4843827 136.660882,14.4941283 136.660882,16.9667969 C136.660882,19.4394655 135.840577,21.4726483 134.199944,23.0664062 C132.641343,24.5898514 130.713628,25.3515625 128.416741,25.3515625 C126.119855,25.3515625 124.162843,24.5781327 122.545647,23.03125 C120.858139,21.4257732 120.014397,19.4101684 120.014397,16.984375 L120.014397,16.984375 Z M143.063672,11.640625 C143.063672,11.9804704 143.098828,12.2207024 143.169141,12.3613281 L146.421094,20.7285156 L149.637891,12.90625 C149.087107,11.0781159 148.102741,10.1230473 146.684766,10.0410156 L146.719922,9.19726562 L154.489453,9.19726562 C154.512891,9.50195465 154.524609,9.78320184 154.524609,10.0410156 C154.301952,10.1464849 154.073439,10.2343746 153.839062,10.3046875 C153.604686,10.3750004 153.387892,10.4570308 153.188672,10.5507812 C152.731638,10.7617198 152.503125,11.0781229 152.503125,11.5 C152.503125,11.7929702 152.608593,12.2031224 152.819531,12.7304688 L155.684766,20.5878906 L158.426953,13.1875 C158.64961,12.6015596 158.760937,12.1298846 158.760937,11.7724609 C158.760937,11.4150373 158.714063,11.1484384 158.620312,10.9726562 C158.526562,10.7968741 158.388868,10.6621098 158.207227,10.5683594 C158.025585,10.4746089 157.802931,10.3984378 157.539258,10.3398438 C157.275585,10.2812497 156.97383,10.1992193 156.633984,10.09375 C156.610547,9.97656191 156.598828,9.83593832 156.598828,9.671875 C156.598828,9.51953049 156.610547,9.36132895 156.633984,9.19726562 L162.803906,9.19726562 L162.803906,10.1289062 C161.995308,10.2343755 161.216019,10.761714 160.466016,11.7109375 C160.255077,11.9687513 160.108594,12.2148426 160.026562,12.4492188 L155.280469,25.2460938 C155.151562,25.3164066 154.975782,25.3515625 154.753125,25.3515625 C154.530468,25.3515625 154.348829,25.3164066 154.208203,25.2460938 L150.217969,14.5234375 L145.981641,25.2460938 C145.841015,25.3164066 145.650587,25.3515625 145.410352,25.3515625 C145.170116,25.3515625 144.991407,25.3164066 144.874219,25.2460938 L139.969922,12.7128906 C139.641795,11.892574 139.366407,11.3417983 139.14375,11.0605469 C138.733592,10.5449193 138.200394,10.2109383 137.544141,10.0585938 L137.579297,9.19726562 L144.821484,9.19726562 C144.833203,9.34961014 144.839062,9.49609305 144.839062,9.63671875 L144.839062,10.0410156 C143.655463,10.4160175 143.063672,10.9492153 143.063672,11.640625 L143.063672,11.640625 Z" id="Tomorrow" fill="#FFFFFF"></path>
        </g>
    </g>
</svg>