<?xml version="1.0" encoding="UTF-8" standalone="no"?>
<svg width="163px" height="39px" viewBox="0 0 163 39" version="1.1" xmlns="http://www.w3.org/2000/svg" xmlns:xlink="http://www.w3.org/1999/xlink">
    <!-- Generator: Sketch 39.1 (31720) - http://www.bohemiancoding.com/sketch -->
    <title>Group</title>
    <desc>Created with Sketch.</desc>
    <defs></defs>
    <g id="Page-1" stroke="none" stroke-width="1" fill="none" fill-rule="evenodd">
        <g id="Artboard-3" transform="translate(-6.000000, -8.000000)" fill="#FFFFFF">
            <g id="Group" transform="translate(6.000000, 8.000000)">
                <path d="M16.171875,16.4238281 L13.8164062,16.4414062 L13.4824219,16.4414062 L13.4824219,33.7910156 C13.4824219,35.0800846 13.8398402,35.9531227 14.5546875,36.4101562 C15.0468775,36.7148453 16.0136647,36.9492179 17.4550781,37.1132812 L17.4550781,37.7460938 C17.4550781,37.8398442 17.4433595,37.9335933 17.4199219,38.0273438 L5.78320312,38.0273438 L5.74804688,37.1132812 C6.21679922,36.9492179 6.68847419,36.802735 7.16308594,36.6738281 C7.63769769,36.5449212 8.06249812,36.3750011 8.4375,36.1640625 C9.28125422,35.6953102 9.703125,34.9043024 9.703125,33.7910156 L9.703125,16.4414062 L7.13671875,16.4414062 C6.08202598,16.4414062 5.27344031,16.4824215 4.7109375,16.5644531 C4.14843469,16.6464848 3.69433767,16.8486312 3.34863281,17.1708984 C3.00292796,17.4931657 2.68652487,17.8652323 2.39941406,18.2871094 C2.11230325,18.7089865 1.8427747,19.1455056 1.59082031,19.5966797 C1.33886593,20.0478538 1.07812635,20.4374984 0.80859375,20.765625 L0,20.765625 L0.439453125,15.0351562 C3.42774932,15.1523443 7.40036584,15.2109375 12.3574219,15.2109375 C17.3144779,15.2109375 20.8066305,15.1406257 22.8339844,15 L23.3964844,20.7832031 L22.5527344,20.7832031 C22.2832018,20.4550765 22.0283215,20.0654319 21.7880859,19.6142578 C21.5478504,19.1630837 21.2871108,18.7265646 21.0058594,18.3046875 C20.3261685,17.2734323 19.6230505,16.6992193 18.8964844,16.5820312 C18.2285123,16.476562 17.3203182,16.4238281 16.171875,16.4238281 L16.171875,16.4238281 Z M26.4066964,26.25 C26.1723203,27.0117226 26.0551339,27.9023387 26.0551339,28.921875 C26.0551339,29.9414113 26.1723203,30.9316358 26.4066964,31.8925781 C26.6410726,32.8535204 26.9809129,33.7148399 27.4262277,34.4765625 C28.4106076,36.1640709 29.658642,37.0078125 31.1703683,37.0078125 C32.6469382,37.0078125 33.7895049,36.4570368 34.5981027,35.3554688 C35.3481064,34.3359324 35.7231027,32.9531337 35.7231027,31.2070312 C35.7231027,28.898426 35.266076,26.9648515 34.3520089,25.40625 C33.4027854,23.753898 32.1664697,22.9277344 30.6430245,22.9277344 C28.4984826,22.9277344 27.0863873,24.0351452 26.4066964,26.25 L26.4066964,26.25 Z M22.5395089,30.0117188 C22.5395089,27.5742066 23.3598132,25.5703204 25.0004464,24 C26.5824856,22.4999925 28.498482,21.75 30.7484933,21.75 C33.1508491,21.75 35.1371573,22.4882739 36.7074777,23.9648438 C38.3598297,25.5117265 39.1859933,27.521472 39.1859933,29.9941406 C39.1859933,32.4668092 38.365689,34.499992 36.7250558,36.09375 C35.1664543,37.6171951 33.2387392,38.3789062 30.9418527,38.3789062 C28.6449662,38.3789062 26.6879545,37.6054765 25.0707589,36.0585938 C23.3832505,34.453117 22.5395089,32.4375121 22.5395089,30.0117188 L22.5395089,30.0117188 Z M60.5829241,37.1484375 L60.5477678,38.0273438 L51.7587053,38.0273438 C51.7352677,37.8984369 51.7235491,37.7460946 51.7235491,37.5703125 L51.7235491,37.1484375 C51.8641748,37.054687 52.0604619,36.9814456 52.3124163,36.9287109 C52.5643707,36.8759763 52.8192509,36.8144535 53.0770647,36.7441406 C53.7098804,36.5683585 54.0848766,36.3105486 54.2020647,35.9707031 C54.4598785,35.4667944 54.5887835,34.8105509 54.5887835,34.0019531 L54.5887835,27.8847656 C54.5887835,26.513665 54.4335116,25.5673854 54.1229632,25.0458984 C53.8124147,24.5244115 53.4696447,24.1611338 53.0946428,23.9560547 C52.719641,23.7509755 52.2743329,23.6484375 51.7587053,23.6484375 C51.2430778,23.6484375 50.7860511,23.7158196 50.3876116,23.8505859 C49.9891721,23.9853522 49.6141759,24.1640614 49.2626116,24.3867188 C48.68839,24.7500018 48.0497245,25.3242148 47.346596,26.109375 L47.346596,33.8964844 C47.346596,35.1972721 47.4755009,35.9531239 47.7333147,36.1640625 C47.9911285,36.3750011 48.2489384,36.5302729 48.5067522,36.6298828 C48.764566,36.7294927 49.0311649,36.8144528 49.3065569,36.8847656 C49.5819489,36.9550785 49.8192512,37.0429682 50.018471,37.1484375 L49.9833147,38.0273438 L41.3172991,38.0273438 C41.3055803,37.9687497 41.299721,37.9101565 41.299721,37.8515625 L41.299721,37.1484375 C41.4520655,37.054687 41.6630009,36.9755863 41.9325335,36.9111328 C42.2020661,36.8466794 42.4715946,36.7675786 42.7411272,36.6738281 C43.3973805,36.439452 43.7723768,36.0937523 43.8661272,35.6367188 C43.9950341,35.1562476 44.0594866,34.6523464 44.0594866,34.125 L44.0594866,25.3007812 C43.7079223,24.6679656 42.7411351,24.1464864 41.159096,23.7363281 L41.2118303,23.1386719 L46.1161272,21.9433594 L47.1883928,21.9433594 L47.346596,24.4746094 C48.6005085,23.1035088 49.9071361,22.2539079 51.2665178,21.9257812 C51.7821454,21.8085932 52.3504991,21.75 52.971596,21.75 C55.2216072,21.75 56.7450295,22.6933499 57.5419085,24.5800781 C58.3973815,23.6425734 59.1063588,23.0097673 59.6688616,22.6816406 C60.6883979,22.0839814 61.6727631,21.7851562 62.6219866,21.7851562 C63.5712101,21.7851562 64.3534288,21.8701163 64.9686663,22.0400391 C65.5839037,22.2099618 66.1200312,22.4707014 66.5770647,22.8222656 C67.538007,23.5488318 68.0887828,24.6562426 68.2294085,26.1445312 C68.3231589,27.199224 68.3700335,28.3066348 68.3700335,29.4667969 L68.3700335,34.0722656 C68.3700335,34.6816437 68.4022597,35.1533186 68.4667132,35.4873047 C68.5311666,35.8212907 68.6571419,36.067382 68.8446428,36.2255859 C69.0321438,36.3837899 69.2460088,36.5126948 69.4862444,36.6123047 C69.72648,36.7119146 69.9725713,36.7998043 70.2245257,36.8759766 C70.47648,36.9521488 70.6962044,37.0429682 70.8837053,37.1484375 L70.8485491,38.0273438 L62.393471,38.0273438 C62.3700334,37.8984369 62.3583147,37.7460946 62.3583147,37.5703125 L62.3583147,37.1484375 C62.5458157,37.0429682 62.774329,36.9550785 63.0438616,36.8847656 C63.3133942,36.8144528 63.5770634,36.726563 63.8348772,36.6210938 C64.4794117,36.3867176 64.8485486,36.0468772 64.9422991,35.6015625 C65.0360496,35.0976537 65.0829241,34.5878932 65.0829241,34.0722656 L65.0829241,27.09375 C65.0829241,25.992182 64.8075362,25.1396515 64.2567522,24.5361328 C63.7059682,23.9326142 62.8973826,23.6308594 61.830971,23.6308594 C60.4598704,23.6308594 59.1063683,24.3632739 57.7704241,25.828125 C57.8407369,26.5546911 57.8758928,27.8554594 57.8758928,29.7304688 L57.8758928,33.984375 C57.8758928,34.6640659 57.9051894,35.1621078 57.9637835,35.4785156 C58.0223775,35.7949235 58.1542121,36.0351554 58.3592913,36.1992188 C58.5643704,36.3632821 58.7987431,36.4980463 59.0624163,36.6035156 C59.3260895,36.7089849 59.595618,36.7998043 59.87101,36.8759766 C60.146402,36.9521488 60.3837044,37.0429682 60.5829241,37.1484375 L60.5829241,37.1484375 Z M76.4779018,26.25 C76.2435256,27.0117226 76.1263393,27.9023387 76.1263393,28.921875 C76.1263393,29.9414113 76.2435256,30.9316358 76.4779018,31.8925781 C76.7122779,32.8535204 77.0521183,33.7148399 77.497433,34.4765625 C78.4818129,36.1640709 79.7298473,37.0078125 81.2415736,37.0078125 C82.7181435,37.0078125 83.8607102,36.4570368 84.669308,35.3554688 C85.4193118,34.3359324 85.794308,32.9531337 85.794308,31.2070312 C85.794308,28.898426 85.3372813,26.9648515 84.4232143,25.40625 C83.4739908,23.753898 82.237675,22.9277344 80.7142299,22.9277344 C78.5696879,22.9277344 77.1575927,24.0351452 76.4779018,26.25 L76.4779018,26.25 Z M72.6107143,30.0117188 C72.6107143,27.5742066 73.4310186,25.5703204 75.0716518,24 C76.6536909,22.4999925 78.5696874,21.75 80.8196986,21.75 C83.2220544,21.75 85.2083627,22.4882739 86.778683,23.9648438 C88.431035,25.5117265 89.2571986,27.521472 89.2571986,29.9941406 C89.2571986,32.4668092 88.4368943,34.499992 86.7962611,36.09375 C85.2376596,37.6171951 83.3099445,38.3789062 81.013058,38.3789062 C78.7161715,38.3789062 76.7591599,37.6054765 75.1419643,36.0585938 C73.4544558,34.453117 72.6107143,32.4375121 72.6107143,30.0117188 L72.6107143,30.0117188 Z M93.9900669,25.3183594 C93.6619403,24.7675754 92.7420276,24.2871114 91.2303013,23.8769531 L91.2654576,23.2617188 L95.9412388,21.9257812 L96.9431919,21.9257812 L97.2244419,25.1601562 C98.1971031,23.3906162 99.269358,22.3359392 100.441239,21.9960938 C100.839678,21.8906245 101.241041,21.8378906 101.64534,21.8378906 C102.049639,21.8378906 102.404128,21.8964838 102.708817,22.0136719 C103.013506,22.13086 103.277175,22.2832022 103.499833,22.4707031 C103.968585,22.8691426 104.202958,23.302732 104.202958,23.7714844 C104.202958,24.1347674 104.109209,24.4863264 103.921708,24.8261719 C103.570143,25.5175816 103.180499,25.8632812 102.752762,25.8632812 C102.325026,25.8632812 102.005693,25.7695322 101.794754,25.5820312 C101.583816,25.3945303 101.402177,25.1894542 101.249833,24.9667969 C101.097488,24.7441395 100.942216,24.5390634 100.784012,24.3515625 C100.625808,24.1640616 100.394365,24.0703125 100.089676,24.0703125 C99.7849873,24.0703125 99.5008105,24.1552726 99.2371373,24.3251953 C98.9734641,24.495118 98.7303024,24.7148424 98.5076451,24.984375 C98.2849877,25.2539076 98.0740523,25.5585921 97.8748326,25.8984375 C97.6756128,26.2382829 97.4763961,26.572264 97.2771763,26.9003906 L97.2771763,33.4394531 C97.2771763,34.5293023 97.3269805,35.2617169 97.4265904,35.6367188 C97.5262003,36.0117206 97.6961204,36.2724602 97.936356,36.4189453 C98.1765916,36.5654304 98.4578388,36.6767574 98.780106,36.7529297 C99.1023732,36.8291019 99.4392839,36.8906248 99.7908482,36.9375 C100.142412,36.9843752 100.452956,37.054687 100.722489,37.1484375 L100.704911,37.6933594 L100.704911,38.0273438 L91.2830357,38.0273438 C91.2713169,37.9804685 91.2654576,37.9101567 91.2654576,37.8164062 L91.2654576,37.2011719 C91.2654576,37.1425778 91.2713169,37.1015626 91.2830357,37.078125 C91.6814752,36.9609369 92.0476825,36.8671879 92.3816685,36.796875 C92.7156546,36.7265621 92.9998314,36.6093758 93.2342076,36.4453125 C93.7381163,36.1054671 93.9900669,35.3730525 93.9900669,34.2480469 L93.9900669,25.3183594 Z M107.86356,25.3183594 C107.535434,24.7675754 106.615521,24.2871114 105.103795,23.8769531 L105.138951,23.2617188 L109.814732,21.9257812 L110.816685,21.9257812 L111.097935,25.1601562 C112.070596,23.3906162 113.142851,22.3359392 114.314732,21.9960938 C114.713172,21.8906245 115.114535,21.8378906 115.518834,21.8378906 C115.923133,21.8378906 116.277621,21.8964838 116.58231,22.0136719 C116.886999,22.13086 117.150669,22.2832022 117.373326,22.4707031 C117.842078,22.8691426 118.076451,23.302732 118.076451,23.7714844 C118.076451,24.1347674 117.982702,24.4863264 117.795201,24.8261719 C117.443637,25.5175816 117.053992,25.8632812 116.626256,25.8632812 C116.198519,25.8632812 115.879186,25.7695322 115.668248,25.5820312 C115.457309,25.3945303 115.27567,25.1894542 115.123326,24.9667969 C114.970981,24.7441395 114.815709,24.5390634 114.657506,24.3515625 C114.499302,24.1640616 114.267859,24.0703125 113.96317,24.0703125 C113.658481,24.0703125 113.374304,24.1552726 113.110631,24.3251953 C112.846957,24.495118 112.603796,24.7148424 112.381138,24.984375 C112.158481,25.2539076 111.947546,25.5585921 111.748326,25.8984375 C111.549106,26.2382829 111.349889,26.572264 111.15067,26.9003906 L111.15067,33.4394531 C111.15067,34.5293023 111.200474,35.2617169 111.300084,35.6367188 C111.399694,36.0117206 111.569614,36.2724602 111.809849,36.4189453 C112.050085,36.5654304 112.331332,36.6767574 112.653599,36.7529297 C112.975867,36.8291019 113.312777,36.8906248 113.664341,36.9375 C114.015906,36.9843752 114.32645,37.054687 114.595982,37.1484375 L114.578404,37.6933594 L114.578404,38.0273438 L105.156529,38.0273438 C105.14481,37.9804685 105.138951,37.9101567 105.138951,37.8164062 L105.138951,37.2011719 C105.138951,37.1425778 105.14481,37.1015626 105.156529,37.078125 C105.554968,36.9609369 105.921176,36.8671879 106.255162,36.796875 C106.589148,36.7265621 106.873325,36.6093758 107.107701,36.4453125 C107.61161,36.1054671 107.86356,35.3730525 107.86356,34.2480469 L107.86356,25.3183594 Z M123.283929,26.25 C123.049552,27.0117226 122.932366,27.9023387 122.932366,28.921875 C122.932366,29.9414113 123.049552,30.9316358 123.283929,31.8925781 C123.518305,32.8535204 123.858145,33.7148399 124.30346,34.4765625 C125.28784,36.1640709 126.535874,37.0078125 128.0476,37.0078125 C129.52417,37.0078125 130.666737,36.4570368 131.475335,35.3554688 C132.225339,34.3359324 132.600335,32.9531337 132.600335,31.2070312 C132.600335,28.898426 132.143308,26.9648515 131.229241,25.40625 C130.280018,23.753898 129.043702,22.9277344 127.520257,22.9277344 C125.375715,22.9277344 123.963619,24.0351452 123.283929,26.25 L123.283929,26.25 Z M119.416741,30.0117188 C119.416741,27.5742066 120.237045,25.5703204 121.877679,24 C123.459718,22.4999925 125.375714,21.75 127.625725,21.75 C130.028081,21.75 132.014389,22.4882739 133.58471,23.9648438 C135.237062,25.5117265 136.063225,27.521472 136.063225,29.9941406 C136.063225,32.4668092 135.242921,34.499992 133.602288,36.09375 C132.043686,37.6171951 130.115971,38.3789062 127.819085,38.3789062 C125.522198,38.3789062 123.565187,37.6054765 121.947991,36.0585938 C120.260483,34.453117 119.416741,32.4375121 119.416741,30.0117188 L119.416741,30.0117188 Z M142.466016,24.6679688 C142.466016,25.0078142 142.501171,25.2480462 142.571484,25.3886719 L145.823437,33.7558594 L149.040234,25.9335938 C148.48945,24.1054596 147.505085,23.150391 146.087109,23.0683594 L146.122266,22.2246094 L153.891797,22.2246094 C153.915234,22.5292984 153.926953,22.8105456 153.926953,23.0683594 C153.704296,23.1738287 153.475782,23.2617184 153.241406,23.3320312 C153.00703,23.4023441 152.790235,23.4843745 152.591016,23.578125 C152.133982,23.7890636 151.905469,24.1054666 151.905469,24.5273438 C151.905469,24.820314 152.010936,25.2304661 152.221875,25.7578125 L155.087109,33.6152344 L157.829297,26.2148438 C158.051954,25.6289033 158.163281,25.1572283 158.163281,24.7998047 C158.163281,24.442381 158.116407,24.1757821 158.022656,24 C157.928906,23.8242179 157.791212,23.6894536 157.60957,23.5957031 C157.427929,23.5019527 157.205275,23.4257815 156.941602,23.3671875 C156.677928,23.3085935 156.376174,23.226563 156.036328,23.1210938 C156.01289,23.0039057 156.001172,22.8632821 156.001172,22.6992188 C156.001172,22.5468742 156.01289,22.3886727 156.036328,22.2246094 L162.20625,22.2246094 L162.20625,23.15625 C161.397652,23.2617193 160.618363,23.7890578 159.868359,24.7382812 C159.657421,24.996095 159.510938,25.2421863 159.428906,25.4765625 L154.682812,38.2734375 C154.553906,38.3437504 154.378126,38.3789062 154.155469,38.3789062 C153.932811,38.3789062 153.751173,38.3437504 153.610547,38.2734375 L149.620312,27.5507812 L145.383984,38.2734375 C145.243359,38.3437504 145.052931,38.3789062 144.812695,38.3789062 C144.57246,38.3789062 144.393751,38.3437504 144.276562,38.2734375 L139.372266,25.7402344 C139.044139,24.9199178 138.768751,24.369142 138.546094,24.0878906 C138.135935,23.572263 137.602738,23.238282 136.946484,23.0859375 L136.981641,22.2246094 L144.223828,22.2246094 C144.235547,22.3769539 144.241406,22.5234368 144.241406,22.6640625 L144.241406,23.0683594 C143.057807,23.4433612 142.466016,23.976559 142.466016,24.6679688 L142.466016,24.6679688 Z" id="Tomorrow"></path>
                <path d="M0,0 L108,0 L108,10 L0,10 L0,0 Z M6.251,7 L5.627,7 C5.55699965,7 5.49950023,6.98250018 5.4545,6.9475 C5.40949978,6.91249983 5.3770001,6.86900026 5.357,6.817 L5.033,5.932 L3.236,5.932 L2.912,6.817 C2.89599992,6.86300023 2.86450024,6.90499981 2.8175,6.943 C2.77049977,6.98100019 2.71300034,7 2.645,7 L2.018,7 L3.722,2.662 L4.547,2.662 L6.251,7 Z M3.443,5.362 L4.826,5.362 L4.298,3.919 C4.27399988,3.85499968 4.24750014,3.77950044 4.2185,3.6925 C4.18949985,3.60549957 4.16100014,3.51100051 4.133,3.409 C4.10499986,3.51100051 4.07750013,3.60599956 4.0505,3.694 C4.02349986,3.78200044 3.99700013,3.85899967 3.971,3.925 L3.443,5.362 Z M7.32350002,2.662 C7.3595002,2.662 7.3894999,2.66349999 7.41350002,2.6665 C7.43750014,2.66950002 7.45899992,2.67549996 7.47800002,2.6845 C7.49700011,2.69350005 7.51549993,2.70649992 7.53350002,2.7235 C7.55150011,2.74050009 7.57149991,2.76299986 7.59350002,2.791 L9.87050002,5.692 C9.86249998,5.62199965 9.85700003,5.55350034 9.85400002,5.4865 C9.851,5.41949967 9.84950002,5.35700029 9.84950002,5.299 L9.84950002,2.662 L10.5605,2.662 L10.5605,7 L10.1435,7 C10.0794997,7 10.0265002,6.9900001 9.98450002,6.97 C9.94249981,6.9499999 9.90150022,6.91400026 9.86150002,6.862 L7.59350002,3.973 C7.59950005,4.03700032 7.604,4.10049969 7.60700002,4.1635 C7.61000003,4.22650032 7.61150002,4.28399974 7.61150002,4.336 L7.61150002,7 L6.90050002,7 L6.90050002,2.662 L7.32350002,2.662 Z M17.1605,4.831 C17.1605,5.14900159 17.1075006,5.44349865 17.0015,5.7145 C16.8954995,5.98550136 16.746501,6.21999901 16.5545,6.418 C16.3624991,6.61600099 16.1315014,6.77049945 15.8615,6.8815 C15.5914987,6.99250056 15.2925017,7.048 14.9645,7.048 C14.6364984,7.048 14.3370014,6.99250056 14.066,6.8815 C13.7949987,6.77049945 13.563001,6.61600099 13.37,6.418 C13.1769991,6.21999901 13.0275006,5.98550136 12.9215,5.7145 C12.8154995,5.44349865 12.7625,5.14900159 12.7625,4.831 C12.7625,4.51299841 12.8154995,4.21850136 12.9215,3.9475 C13.0275006,3.67649865 13.1769991,3.44200099 13.37,3.244 C13.563001,3.04599901 13.7949987,2.89150056 14.066,2.7805 C14.3370014,2.66949945 14.6364984,2.614 14.9645,2.614 C15.2925017,2.614 15.5914987,2.66999944 15.8615,2.782 C16.1315014,2.89400056 16.3624991,3.04849902 16.5545,3.2455 C16.746501,3.44250099 16.8954995,3.67649865 17.0015,3.9475 C17.1075006,4.21850136 17.1605,4.51299841 17.1605,4.831 Z M16.3325,4.831 C16.3325,4.59299881 16.3010004,4.37950094 16.238,4.1905 C16.1749997,4.00149905 16.0845006,3.84100066 15.9665,3.709 C15.8484995,3.57699934 15.7050009,3.47600035 15.536,3.406 C15.3669992,3.33599965 15.1765011,3.301 14.9645,3.301 C14.752499,3.301 14.5615009,3.33599965 14.3915,3.406 C14.2214992,3.47600035 14.0770006,3.57699934 13.958,3.709 C13.8389995,3.84100066 13.7475004,4.00149905 13.6835,4.1905 C13.6194997,4.37950094 13.5875,4.59299881 13.5875,4.831 C13.5875,5.06900119 13.6194997,5.28249905 13.6835,5.4715 C13.7475004,5.66050094 13.8389995,5.82049934 13.958,5.9515 C14.0770006,6.08250065 14.2214992,6.18299965 14.3915,6.253 C14.5615009,6.32300035 14.752499,6.358 14.9645,6.358 C15.1765011,6.358 15.3669992,6.32300035 15.536,6.253 C15.7050009,6.18299965 15.8484995,6.08250065 15.9665,5.9515 C16.0845006,5.82049934 16.1749997,5.66050094 16.238,5.4715 C16.3010004,5.28249905 16.3325,5.06900119 16.3325,4.831 Z M18.8330001,5.473 L18.8330001,7 L18.0260001,7 L18.0260001,2.662 L19.4390001,2.662 C19.7290015,2.662 19.979999,2.69599966 20.1920001,2.764 C20.4040011,2.83200034 20.5789994,2.92699939 20.7170001,3.049 C20.8550008,3.17100061 20.9569997,3.31699915 21.0230001,3.487 C21.0890004,3.65700085 21.1220001,3.84299899 21.1220001,4.045 C21.1220001,4.25500105 21.0870004,4.44749913 21.0170001,4.6225 C20.9469997,4.79750088 20.8420008,4.94799937 20.7020001,5.074 C20.5619994,5.20000063 20.3870011,5.29799965 20.1770001,5.368 C19.966999,5.43800035 19.7210015,5.473 19.4390001,5.473 L18.8330001,5.473 Z M18.8330001,4.843 L19.4390001,4.843 C19.5870008,4.843 19.7159995,4.82450019 19.8260001,4.7875 C19.9360006,4.75049982 20.0269997,4.69750035 20.0990001,4.6285 C20.1710004,4.55949966 20.2249999,4.4755005 20.2610001,4.3765 C20.2970002,4.27749951 20.3150001,4.16700061 20.3150001,4.045 C20.3150001,3.92899942 20.2970002,3.82400047 20.2610001,3.73 C20.2249999,3.63599953 20.1710004,3.55600033 20.0990001,3.49 C20.0269997,3.42399967 19.9360006,3.37350018 19.8260001,3.3385 C19.7159995,3.30349983 19.5870008,3.286 19.4390001,3.286 L18.8330001,3.286 L18.8330001,4.843 Z M24.6875001,2.662 L24.6875001,3.304 L22.7645001,3.304 L22.7645001,4.507 L24.2795001,4.507 L24.2795001,5.128 L22.7645001,5.128 L22.7645001,6.355 L24.6875001,6.355 L24.6875001,7 L21.9515001,7 L21.9515001,2.662 L24.6875001,2.662 Z M26.0120001,2.662 C26.0480003,2.662 26.078,2.66349999 26.1020001,2.6665 C26.1260002,2.66950002 26.1475,2.67549996 26.1665001,2.6845 C26.1855002,2.69350005 26.204,2.70649992 26.2220001,2.7235 C26.2400002,2.74050009 26.26,2.76299986 26.2820001,2.791 L28.5590001,5.692 C28.5510001,5.62199965 28.5455001,5.55350034 28.5425001,5.4865 C28.5395001,5.41949967 28.5380001,5.35700029 28.5380001,5.299 L28.5380001,2.662 L29.2490001,2.662 L29.2490001,7 L28.8320001,7 C28.7679998,7 28.7150003,6.9900001 28.6730001,6.97 C28.6309999,6.9499999 28.5900003,6.91400026 28.5500001,6.862 L26.2820001,3.973 C26.2880001,4.03700032 26.2925001,4.10049969 26.2955001,4.1635 C26.2985001,4.22650032 26.3000001,4.28399974 26.3000001,4.336 L26.3000001,7 L25.5890001,7 L25.5890001,2.662 L26.0120001,2.662 Z M30.1895001,4.879 L31.7435001,4.879 L31.7435001,5.497 L30.1895001,5.497 L30.1895001,4.879 Z M35.0090001,3.451 C34.987,3.49500022 34.9615003,3.52599991 34.9325001,3.544 C34.9035,3.56200009 34.8690003,3.571 34.8290001,3.571 C34.7889999,3.571 34.7440004,3.55550016 34.6940001,3.5245 C34.6439999,3.49349985 34.5850005,3.45900019 34.5170001,3.421 C34.4489998,3.38299981 34.3695006,3.34850016 34.2785001,3.3175 C34.1874997,3.28649985 34.0800007,3.271 33.9560001,3.271 C33.8439996,3.271 33.7465005,3.28449987 33.6635001,3.3115 C33.5804997,3.33850014 33.5105004,3.37599976 33.4535001,3.424 C33.3964998,3.47200024 33.3540003,3.52949967 33.3260001,3.5965 C33.298,3.66350034 33.2840001,3.7369996 33.2840001,3.817 C33.2840001,3.91900051 33.3124998,4.00399966 33.3695001,4.072 C33.4265004,4.14000034 33.5019997,4.19799976 33.5960001,4.246 C33.6900006,4.29400024 33.7969995,4.33699981 33.9170001,4.375 C34.0370007,4.41300019 34.1594995,4.45349979 34.2845001,4.4965 C34.4095007,4.53950022 34.5319995,4.58949972 34.6520001,4.6465 C34.7720007,4.70350029 34.8789997,4.77549957 34.9730001,4.8625 C35.0670006,4.94950044 35.1424998,5.05599937 35.1995001,5.182 C35.2565004,5.30800063 35.2850001,5.4609991 35.2850001,5.641 C35.2850001,5.83700098 35.2515005,6.02049915 35.1845001,6.1915 C35.1174998,6.36250086 35.0195008,6.51149937 34.8905001,6.6385 C34.7614995,6.76550064 34.6040011,6.86549964 34.4180001,6.9385 C34.2319992,7.01150037 34.0190013,7.048 33.7790001,7.048 C33.6409994,7.048 33.5050008,7.03450014 33.3710001,7.0075 C33.2369995,6.98049987 33.1085007,6.94200025 32.9855001,6.892 C32.8624995,6.84199975 32.7475007,6.78200035 32.6405001,6.712 C32.5334996,6.64199965 32.4380005,6.56400043 32.3540001,6.478 L32.5880001,6.091 C32.6100002,6.06299986 32.6365,6.0395001 32.6675001,6.0205 C32.6985003,6.00149991 32.7329999,5.992 32.7710001,5.992 C32.8210004,5.992 32.8749998,6.0124998 32.9330001,6.0535 C32.9910004,6.09450021 33.0594997,6.13999975 33.1385001,6.19 C33.2175005,6.24000025 33.3104996,6.2854998 33.4175001,6.3265 C33.5245007,6.36750021 33.6529994,6.388 33.8030001,6.388 C34.0330013,6.388 34.2109995,6.33350055 34.3370001,6.2245 C34.4630008,6.11549946 34.5260001,5.95900102 34.5260001,5.755 C34.5260001,5.64099943 34.4975004,5.54800036 34.4405001,5.476 C34.3834998,5.40399964 34.3080006,5.34350025 34.2140001,5.2945 C34.1199997,5.24549976 34.0130007,5.20400017 33.8930001,5.17 C33.7729995,5.13599983 33.6510007,5.0990002 33.5270001,5.059 C33.4029995,5.0189998 33.2810007,4.97100028 33.1610001,4.915 C33.0409995,4.85899972 32.9340006,4.78600045 32.8400001,4.696 C32.7459997,4.60599955 32.6705004,4.49350068 32.6135001,4.3585 C32.5564998,4.22349933 32.5280001,4.05700099 32.5280001,3.859 C32.5280001,3.70099921 32.5594998,3.54700075 32.6225001,3.397 C32.6855004,3.24699925 32.7774995,3.11400058 32.8985001,2.998 C33.0195007,2.88199942 33.1679992,2.78900035 33.3440001,2.719 C33.520001,2.64899965 33.720999,2.614 33.9470001,2.614 C34.2030014,2.614 34.438999,2.6539996 34.6550001,2.734 C34.8710012,2.8140004 35.0549994,2.92599928 35.2070001,3.07 L35.0090001,3.451 Z M40.2665001,4.831 C40.2665001,5.14900159 40.2135007,5.44349865 40.1075001,5.7145 C40.0014996,5.98550136 39.8525011,6.21999901 39.6605001,6.418 C39.4684992,6.61600099 39.2375015,6.77049945 38.9675001,6.8815 C38.6974988,6.99250056 38.3985018,7.048 38.0705001,7.048 C37.7424985,7.048 37.4430015,6.99250056 37.1720001,6.8815 C36.9009988,6.77049945 36.6690011,6.61600099 36.4760001,6.418 C36.2829992,6.21999901 36.1335007,5.98550136 36.0275001,5.7145 C35.9214996,5.44349865 35.8685001,5.14900159 35.8685001,4.831 C35.8685001,4.51299841 35.9214996,4.21850136 36.0275001,3.9475 C36.1335007,3.67649865 36.2829992,3.44200099 36.4760001,3.244 C36.6690011,3.04599901 36.9009988,2.89150056 37.1720001,2.7805 C37.4430015,2.66949945 37.7424985,2.614 38.0705001,2.614 C38.3985018,2.614 38.6974988,2.66999944 38.9675001,2.782 C39.2375015,2.89400056 39.4684992,3.04849902 39.6605001,3.2455 C39.8525011,3.44250099 40.0014996,3.67649865 40.1075001,3.9475 C40.2135007,4.21850136 40.2665001,4.51299841 40.2665001,4.831 Z M39.4385001,4.831 C39.4385001,4.59299881 39.4070005,4.37950094 39.3440001,4.1905 C39.2809998,4.00149905 39.1905007,3.84100066 39.0725001,3.709 C38.9544995,3.57699934 38.811001,3.47600035 38.6420001,3.406 C38.4729993,3.33599965 38.2825012,3.301 38.0705001,3.301 C37.8584991,3.301 37.667501,3.33599965 37.4975001,3.406 C37.3274993,3.47600035 37.1830007,3.57699934 37.0640001,3.709 C36.9449995,3.84100066 36.8535005,4.00149905 36.7895001,4.1905 C36.7254998,4.37950094 36.6935001,4.59299881 36.6935001,4.831 C36.6935001,5.06900119 36.7254998,5.28249905 36.7895001,5.4715 C36.8535005,5.66050094 36.9449995,5.82049934 37.0640001,5.9515 C37.1830007,6.08250065 37.3274993,6.18299965 37.4975001,6.253 C37.667501,6.32300035 37.8584991,6.358 38.0705001,6.358 C38.2825012,6.358 38.4729993,6.32300035 38.6420001,6.253 C38.811001,6.18299965 38.9544995,6.08250065 39.0725001,5.9515 C39.1905007,5.82049934 39.2809998,5.66050094 39.3440001,5.4715 C39.4070005,5.28249905 39.4385001,5.06900119 39.4385001,4.831 Z M42.8510002,6.349 C43.0070009,6.349 43.1464995,6.32300026 43.2695002,6.271 C43.3925008,6.21899974 43.4964997,6.14600047 43.5815002,6.052 C43.6665006,5.95799953 43.7314999,5.84400067 43.7765002,5.71 C43.8215004,5.57599933 43.8440002,5.42600083 43.8440002,5.26 L43.8440002,2.662 L44.6510002,2.662 L44.6510002,5.26 C44.6510002,5.51800129 44.6095006,5.75649891 44.5265002,5.9755 C44.4434997,6.1945011 44.3240009,6.38349921 44.1680002,6.5425 C44.0119994,6.7015008 43.8230013,6.82549956 43.6010002,6.9145 C43.378999,7.00350045 43.1290015,7.048 42.8510002,7.048 C42.5729988,7.048 42.3230013,7.00350045 42.1010002,6.9145 C41.878999,6.82549956 41.6905009,6.7015008 41.5355002,6.5425 C41.3804994,6.38349921 41.2615006,6.1945011 41.1785002,5.9755 C41.0954997,5.75649891 41.0540002,5.51800129 41.0540002,5.26 L41.0540002,2.662 L41.8610002,2.662 L41.8610002,5.257 C41.8610002,5.42300083 41.8834999,5.57299933 41.9285002,5.707 C41.9735004,5.84100067 42.0379997,5.95549953 42.1220002,6.0505 C42.2060006,6.14550048 42.3094995,6.21899974 42.4325002,6.271 C42.5555008,6.32300026 42.6949994,6.349 42.8510002,6.349 Z M46.5095002,5.305 L46.5095002,7 L45.7025002,7 L45.7025002,2.662 L47.0255002,2.662 C47.3215017,2.662 47.5749991,2.6924997 47.7860002,2.7535 C47.9970012,2.81450031 48.1699995,2.89999945 48.3050002,3.01 C48.4400008,3.12000055 48.5389999,3.25149924 48.6020002,3.4045 C48.6650005,3.55750077 48.6965002,3.72599908 48.6965002,3.91 C48.6965002,4.05600073 48.6750004,4.19399935 48.6320002,4.324 C48.589,4.45400065 48.5270006,4.57199947 48.4460002,4.678 C48.3649998,4.78400053 48.2650008,4.8769996 48.1460002,4.957 C48.0269996,5.0370004 47.8915009,5.10099976 47.7395002,5.149 C47.8415007,5.20700029 47.9294998,5.28999946 48.0035002,5.398 L49.0895002,7 L48.3635002,7 C48.2934998,7 48.2340004,6.98600014 48.1850002,6.958 C48.1359999,6.92999986 48.0945003,6.89000026 48.0605002,6.838 L47.1485002,5.449 C47.1145,5.39699974 47.0770004,5.36000011 47.0360002,5.338 C46.995,5.31599989 46.9345006,5.305 46.8545002,5.305 L46.5095002,5.305 Z M46.5095002,4.726 L47.0135002,4.726 C47.1655009,4.726 47.2979996,4.70700019 47.4110002,4.669 C47.5240007,4.63099981 47.6169998,4.57850034 47.6900002,4.5115 C47.7630005,4.44449967 47.8175,4.36500046 47.8535002,4.273 C47.8895004,4.18099954 47.9075002,4.08000055 47.9075002,3.97 C47.9075002,3.7499989 47.8350009,3.58100059 47.6900002,3.463 C47.5449994,3.34499941 47.3235017,3.286 47.0255002,3.286 L46.5095002,3.286 L46.5095002,4.726 Z M52.6460002,5.977 C52.6900004,5.977 52.728,5.99399983 52.7600002,6.028 L53.0780002,6.373 C52.9019993,6.59100109 52.6855015,6.75799942 52.4285002,6.874 C52.1714989,6.99000058 51.863002,7.048 51.5030002,7.048 C51.1809986,7.048 50.8915015,6.99300055 50.6345002,6.883 C50.3774989,6.77299945 50.1580011,6.62000098 49.9760002,6.424 C49.7939993,6.22799902 49.6545007,5.99400136 49.5575002,5.722 C49.4604997,5.44999864 49.4120002,5.15300161 49.4120002,4.831 C49.4120002,4.50499837 49.4659996,4.20650136 49.5740002,3.9355 C49.6820007,3.66449865 49.8339992,3.43100098 50.0300002,3.235 C50.2260012,3.03899902 50.4604988,2.88650055 50.7335002,2.7775 C51.0065016,2.66849946 51.3079985,2.614 51.6380002,2.614 C51.9600018,2.614 52.241499,2.66549949 52.4825002,2.7685 C52.7235014,2.87150052 52.9299993,3.00799915 53.1020002,3.178 L52.8320002,3.553 C52.8160001,3.57700012 52.7955003,3.59799991 52.7705002,3.616 C52.7455001,3.63400009 52.7110004,3.643 52.6670002,3.643 C52.621,3.643 52.5740004,3.62500018 52.5260002,3.589 C52.4779999,3.55299982 52.4170006,3.51400021 52.3430002,3.472 C52.2689998,3.42999979 52.1755008,3.39100018 52.0625002,3.355 C51.9494996,3.31899982 51.8060011,3.301 51.6320002,3.301 C51.4279992,3.301 51.240501,3.33649965 51.0695002,3.4075 C50.8984993,3.47850036 50.7515008,3.57999934 50.6285002,3.712 C50.5054996,3.84400066 50.4095005,4.00449906 50.3405002,4.1935 C50.2714998,4.38250095 50.2370002,4.59499882 50.2370002,4.831 C50.2370002,5.07500122 50.2714998,5.29199905 50.3405002,5.482 C50.4095005,5.67200095 50.5029996,5.83199935 50.6210002,5.962 C50.7390008,6.09200065 50.8779994,6.19149966 51.0380002,6.2605 C51.198001,6.32950035 51.3699993,6.364 51.5540002,6.364 C51.6640007,6.364 51.7634997,6.35800006 51.8525002,6.346 C51.9415006,6.33399994 52.0234998,6.31500013 52.0985002,6.289 C52.1735006,6.26299987 52.2444999,6.22950021 52.3115002,6.1885 C52.3785005,6.1474998 52.4449999,6.0970003 52.5110002,6.037 C52.5310003,6.01899991 52.5520001,6.00450006 52.5740002,5.9935 C52.5960003,5.98249995 52.6200001,5.977 52.6460002,5.977 Z M56.6255002,2.662 L56.6255002,3.304 L54.7025002,3.304 L54.7025002,4.507 L56.2175002,4.507 L56.2175002,5.128 L54.7025002,5.128 L54.7025002,6.355 L56.6255002,6.355 L56.6255002,7 L53.8895002,7 L53.8895002,2.662 L56.6255002,2.662 Z M59.7215002,5.473 L59.7215002,7 L58.9145002,7 L58.9145002,2.662 L60.3275002,2.662 C60.6175017,2.662 60.8684992,2.69599966 61.0805002,2.764 C61.2925013,2.83200034 61.4674995,2.92699939 61.6055002,3.049 C61.7435009,3.17100061 61.8454999,3.31699915 61.9115002,3.487 C61.9775006,3.65700085 62.0105002,3.84299899 62.0105002,4.045 C62.0105002,4.25500105 61.9755006,4.44749913 61.9055002,4.6225 C61.8354999,4.79750088 61.7305009,4.94799937 61.5905002,5.074 C61.4504995,5.20000063 61.2755013,5.29799965 61.0655002,5.368 C60.8554992,5.43800035 60.6095016,5.473 60.3275002,5.473 L59.7215002,5.473 Z M59.7215002,4.843 L60.3275002,4.843 C60.475501,4.843 60.6044997,4.82450019 60.7145002,4.7875 C60.8245008,4.75049982 60.9154999,4.69750035 60.9875002,4.6285 C61.0595006,4.55949966 61.1135001,4.4755005 61.1495002,4.3765 C61.1855004,4.27749951 61.2035002,4.16700061 61.2035002,4.045 C61.2035002,3.92899942 61.1855004,3.82400047 61.1495002,3.73 C61.1135001,3.63599953 61.0595006,3.55600033 60.9875002,3.49 C60.9154999,3.42399967 60.8245008,3.37350018 60.7145002,3.3385 C60.6044997,3.30349983 60.475501,3.286 60.3275002,3.286 L59.7215002,3.286 L59.7215002,4.843 Z M63.6740002,5.305 L63.6740002,7 L62.8670002,7 L62.8670002,2.662 L64.1900002,2.662 C64.4860017,2.662 64.7394992,2.6924997 64.9505002,2.7535 C65.1615013,2.81450031 65.3344996,2.89999945 65.4695002,3.01 C65.6045009,3.12000055 65.7034999,3.25149924 65.7665002,3.4045 C65.8295006,3.55750077 65.8610002,3.72599908 65.8610002,3.91 C65.8610002,4.05600073 65.8395005,4.19399935 65.7965002,4.324 C65.7535,4.45400065 65.6915007,4.57199947 65.6105002,4.678 C65.5294998,4.78400053 65.4295008,4.8769996 65.3105002,4.957 C65.1914997,5.0370004 65.056001,5.10099976 64.9040002,5.149 C65.0060008,5.20700029 65.0939999,5.28999946 65.1680002,5.398 L66.2540002,7 L65.5280002,7 C65.4579999,7 65.3985005,6.98600014 65.3495002,6.958 C65.3005,6.92999986 65.2590004,6.89000026 65.2250002,6.838 L64.3130002,5.449 C64.2790001,5.39699974 64.2415005,5.36000011 64.2005002,5.338 C64.1595,5.31599989 64.0990006,5.305 64.0190002,5.305 L63.6740002,5.305 Z M63.6740002,4.726 L64.1780002,4.726 C64.330001,4.726 64.4624997,4.70700019 64.5755002,4.669 C64.6885008,4.63099981 64.7814999,4.57850034 64.8545002,4.5115 C64.9275006,4.44449967 64.9820001,4.36500046 65.0180002,4.273 C65.0540004,4.18099954 65.0720002,4.08000055 65.0720002,3.97 C65.0720002,3.7499989 64.999501,3.58100059 64.8545002,3.463 C64.7094995,3.34499941 64.4880017,3.286 64.1900002,3.286 L63.6740002,3.286 L63.6740002,4.726 Z M70.9895003,4.831 C70.9895003,5.14900159 70.9365008,5.44349865 70.8305003,5.7145 C70.7244997,5.98550136 70.5755012,6.21999901 70.3835003,6.418 C70.1914993,6.61600099 69.9605016,6.77049945 69.6905003,6.8815 C69.4204989,6.99250056 69.1215019,7.048 68.7935003,7.048 C68.4654986,7.048 68.1660016,6.99250056 67.8950003,6.8815 C67.6239989,6.77049945 67.3920012,6.61600099 67.1990003,6.418 C67.0059993,6.21999901 66.8565008,5.98550136 66.7505003,5.7145 C66.6444997,5.44349865 66.5915003,5.14900159 66.5915003,4.831 C66.5915003,4.51299841 66.6444997,4.21850136 66.7505003,3.9475 C66.8565008,3.67649865 67.0059993,3.44200099 67.1990003,3.244 C67.3920012,3.04599901 67.6239989,2.89150056 67.8950003,2.7805 C68.1660016,2.66949945 68.4654986,2.614 68.7935003,2.614 C69.1215019,2.614 69.4204989,2.66999944 69.6905003,2.782 C69.9605016,2.89400056 70.1914993,3.04849902 70.3835003,3.2455 C70.5755012,3.44250099 70.7244997,3.67649865 70.8305003,3.9475 C70.9365008,4.21850136 70.9895003,4.51299841 70.9895003,4.831 Z M70.1615003,4.831 C70.1615003,4.59299881 70.1300006,4.37950094 70.0670003,4.1905 C70.0039999,4.00149905 69.9135009,3.84100066 69.7955003,3.709 C69.6774997,3.57699934 69.5340011,3.47600035 69.3650003,3.406 C69.1959994,3.33599965 69.0055013,3.301 68.7935003,3.301 C68.5814992,3.301 68.3905011,3.33599965 68.2205003,3.406 C68.0504994,3.47600035 67.9060009,3.57699934 67.7870003,3.709 C67.6679997,3.84100066 67.5765006,4.00149905 67.5125003,4.1905 C67.4484999,4.37950094 67.4165003,4.59299881 67.4165003,4.831 C67.4165003,5.06900119 67.4484999,5.28249905 67.5125003,5.4715 C67.5765006,5.66050094 67.6679997,5.82049934 67.7870003,5.9515 C67.9060009,6.08250065 68.0504994,6.18299965 68.2205003,6.253 C68.3905011,6.32300035 68.5814992,6.358 68.7935003,6.358 C69.0055013,6.358 69.1959994,6.32300035 69.3650003,6.253 C69.5340011,6.18299965 69.6774997,6.08250065 69.7955003,5.9515 C69.9135009,5.82049934 70.0039999,5.66050094 70.0670003,5.4715 C70.1300006,5.28249905 70.1615003,5.06900119 70.1615003,4.831 Z M73.5740003,5.458 C73.5740003,5.70200122 73.5440006,5.92199902 73.4840003,6.118 C73.424,6.31400098 73.3345009,6.48099931 73.2155003,6.619 C73.0964997,6.75700069 72.9480012,6.86299963 72.7700003,6.937 C72.5919994,7.01100037 72.3850015,7.048 72.1490003,7.048 C72.0409997,7.048 71.9350008,7.04150007 71.8310003,7.0285 C71.7269998,7.01549994 71.6180008,6.99500014 71.5040003,6.967 L71.5460003,6.487 C71.5500003,6.44299978 71.5665001,6.40750014 71.5955003,6.3805 C71.6245004,6.35349987 71.667,6.34 71.7230003,6.34 C71.7570004,6.34 71.8015,6.34699993 71.8565003,6.361 C71.9115006,6.37500007 71.9809999,6.382 72.0650003,6.382 C72.1790008,6.382 72.2799998,6.36550017 72.3680003,6.3325 C72.4560007,6.29949984 72.5295,6.24700036 72.5885003,6.175 C72.6475006,6.10299964 72.6920001,6.00950058 72.7220003,5.8945 C72.7520004,5.77949943 72.7670003,5.64000082 72.7670003,5.476 L72.7670003,2.662 L73.5740003,2.662 L73.5740003,5.458 Z M77.3885003,2.662 L77.3885003,3.304 L75.4655003,3.304 L75.4655003,4.507 L76.9805003,4.507 L76.9805003,5.128 L75.4655003,5.128 L75.4655003,6.355 L77.3885003,6.355 L77.3885003,7 L74.6525003,7 L74.6525003,2.662 L77.3885003,2.662 Z M81.2720003,5.977 C81.3160005,5.977 81.3540001,5.99399983 81.3860003,6.028 L81.7040003,6.373 C81.5279994,6.59100109 81.3115016,6.75799942 81.0545003,6.874 C80.797499,6.99000058 80.4890021,7.048 80.1290003,7.048 C79.8069987,7.048 79.5175016,6.99300055 79.2605003,6.883 C79.003499,6.77299945 78.7840012,6.62000098 78.6020003,6.424 C78.4199994,6.22799902 78.2805008,5.99400136 78.1835003,5.722 C78.0864998,5.44999864 78.0380003,5.15300161 78.0380003,4.831 C78.0380003,4.50499837 78.0919998,4.20650136 78.2000003,3.9355 C78.3080008,3.66449865 78.4599993,3.43100098 78.6560003,3.235 C78.8520013,3.03899902 79.0864989,2.88650055 79.3595003,2.7775 C79.6325017,2.66849946 79.9339987,2.614 80.2640003,2.614 C80.5860019,2.614 80.8674991,2.66549949 81.1085003,2.7685 C81.3495015,2.87150052 81.5559994,3.00799915 81.7280003,3.178 L81.4580003,3.553 C81.4420002,3.57700012 81.4215004,3.59799991 81.3965003,3.616 C81.3715002,3.63400009 81.3370005,3.643 81.2930003,3.643 C81.2470001,3.643 81.2000005,3.62500018 81.1520003,3.589 C81.1040001,3.55299982 81.0430007,3.51400021 80.9690003,3.472 C80.8949999,3.42999979 80.8015009,3.39100018 80.6885003,3.355 C80.5754997,3.31899982 80.4320012,3.301 80.2580003,3.301 C80.0539993,3.301 79.8665012,3.33649965 79.6955003,3.4075 C79.5244995,3.47850036 79.3775009,3.57999934 79.2545003,3.712 C79.1314997,3.84400066 79.0355007,4.00449906 78.9665003,4.1935 C78.8975,4.38250095 78.8630003,4.59499882 78.8630003,4.831 C78.8630003,5.07500122 78.8975,5.29199905 78.9665003,5.482 C79.0355007,5.67200095 79.1289997,5.83199935 79.2470003,5.962 C79.3650009,6.09200065 79.5039995,6.19149966 79.6640003,6.2605 C79.8240011,6.32950035 79.9959994,6.364 80.1800003,6.364 C80.2900009,6.364 80.3894999,6.35800006 80.4785003,6.346 C80.5675008,6.33399994 80.6494999,6.31500013 80.7245003,6.289 C80.7995007,6.26299987 80.8705,6.22950021 80.9375003,6.1885 C81.0045006,6.1474998 81.071,6.0970003 81.1370003,6.037 C81.1570004,6.01899991 81.1780002,6.00450006 81.2000003,5.9935 C81.2220004,5.98249995 81.2460002,5.977 81.2720003,5.977 Z M85.5725003,2.662 L85.5725003,3.325 L84.2675003,3.325 L84.2675003,7 L83.4605003,7 L83.4605003,3.325 L82.1495003,3.325 L82.1495003,2.662 L85.5725003,2.662 Z M90.3845004,2.662 L90.3845004,3.304 L88.4615004,3.304 L88.4615004,4.588 L90.0845004,4.588 L90.0845004,5.233 L88.4615004,5.233 L88.4615004,7 L87.6485004,7 L87.6485004,2.662 L90.3845004,2.662 Z M92.0540004,5.305 L92.0540004,7 L91.2470004,7 L91.2470004,2.662 L92.5700004,2.662 C92.8660019,2.662 93.1194993,2.6924997 93.3305004,2.7535 C93.5415014,2.81450031 93.7144997,2.89999945 93.8495004,3.01 C93.984501,3.12000055 94.0835001,3.25149924 94.1465004,3.4045 C94.2095007,3.55750077 94.2410004,3.72599908 94.2410004,3.91 C94.2410004,4.05600073 94.2195006,4.19399935 94.1765004,4.324 C94.1335002,4.45400065 94.0715008,4.57199947 93.9905004,4.678 C93.9095,4.78400053 93.809501,4.8769996 93.6905004,4.957 C93.5714998,5.0370004 93.4360011,5.10099976 93.2840004,5.149 C93.3860009,5.20700029 93.474,5.28999946 93.5480004,5.398 L94.6340004,7 L93.9080004,7 C93.838,7 93.7785006,6.98600014 93.7295004,6.958 C93.6805001,6.92999986 93.6390005,6.89000026 93.6050004,6.838 L92.6930004,5.449 C92.6590002,5.39699974 92.6215006,5.36000011 92.5805004,5.338 C92.5395002,5.31599989 92.4790008,5.305 92.3990004,5.305 L92.0540004,5.305 Z M92.0540004,4.726 L92.5580004,4.726 C92.7100011,4.726 92.8424998,4.70700019 92.9555004,4.669 C93.0685009,4.63099981 93.1615,4.57850034 93.2345004,4.5115 C93.3075007,4.44449967 93.3620002,4.36500046 93.3980004,4.273 C93.4340006,4.18099954 93.4520004,4.08000055 93.4520004,3.97 C93.4520004,3.7499989 93.3795011,3.58100059 93.2345004,3.463 C93.0894996,3.34499941 92.8680019,3.286 92.5700004,3.286 L92.0540004,3.286 L92.0540004,4.726 Z M99.3695004,4.831 C99.3695004,5.14900159 99.3165009,5.44349865 99.2105004,5.7145 C99.1044999,5.98550136 98.9555013,6.21999901 98.7635004,6.418 C98.5714994,6.61600099 98.3405017,6.77049945 98.0705004,6.8815 C97.800499,6.99250056 97.501502,7.048 97.1735004,7.048 C96.8454987,7.048 96.5460017,6.99250056 96.2750004,6.8815 C96.003999,6.77049945 95.7720014,6.61600099 95.5790004,6.418 C95.3859994,6.21999901 95.2365009,5.98550136 95.1305004,5.7145 C95.0244999,5.44349865 94.9715004,5.14900159 94.9715004,4.831 C94.9715004,4.51299841 95.0244999,4.21850136 95.1305004,3.9475 C95.2365009,3.67649865 95.3859994,3.44200099 95.5790004,3.244 C95.7720014,3.04599901 96.003999,2.89150056 96.2750004,2.7805 C96.5460017,2.66949945 96.8454987,2.614 97.1735004,2.614 C97.501502,2.614 97.800499,2.66999944 98.0705004,2.782 C98.3405017,2.89400056 98.5714994,3.04849902 98.7635004,3.2455 C98.9555013,3.44250099 99.1044999,3.67649865 99.2105004,3.9475 C99.3165009,4.21850136 99.3695004,4.51299841 99.3695004,4.831 Z M98.5415004,4.831 C98.5415004,4.59299881 98.5100007,4.37950094 98.4470004,4.1905 C98.3840001,4.00149905 98.293501,3.84100066 98.1755004,3.709 C98.0574998,3.57699934 97.9140012,3.47600035 97.7450004,3.406 C97.5759995,3.33599965 97.3855014,3.301 97.1735004,3.301 C96.9614993,3.301 96.7705012,3.33599965 96.6005004,3.406 C96.4304995,3.47600035 96.286001,3.57699934 96.1670004,3.709 C96.0479998,3.84100066 95.9565007,4.00149905 95.8925004,4.1905 C95.8285001,4.37950094 95.7965004,4.59299881 95.7965004,4.831 C95.7965004,5.06900119 95.8285001,5.28249905 95.8925004,5.4715 C95.9565007,5.66050094 96.0479998,5.82049934 96.1670004,5.9515 C96.286001,6.08250065 96.4304995,6.18299965 96.6005004,6.253 C96.7705012,6.32300035 96.9614993,6.358 97.1735004,6.358 C97.3855014,6.358 97.5759995,6.32300035 97.7450004,6.253 C97.9140012,6.18299965 98.0574998,6.08250065 98.1755004,5.9515 C98.293501,5.82049934 98.3840001,5.66050094 98.4470004,5.4715 C98.5100007,5.28249905 98.5415004,5.06900119 98.5415004,4.831 Z M102.386,5.2 C102.420001,5.26400032 102.4515,5.33049966 102.4805,5.3995 C102.509501,5.46850035 102.538,5.53799965 102.566,5.608 C102.594001,5.53599964 102.623,5.46500035 102.653,5.395 C102.683001,5.32499965 102.715,5.25800032 102.749,5.194 L104.033,2.791 C104.049,2.76099985 104.0655,2.73700009 104.0825,2.719 C104.0995,2.70099991 104.1185,2.68800004 104.1395,2.68 C104.160501,2.67199996 104.184,2.66700001 104.21,2.665 C104.236001,2.66299999 104.267,2.662 104.303,2.662 L104.912,2.662 L104.912,7 L104.201,7 L104.201,4.198 C104.201,4.14599974 104.2025,4.08900031 104.2055,4.027 C104.2085,3.96499969 104.213,3.90200032 104.219,3.838 L102.908,6.298 C102.878,6.35400028 102.839001,6.39749985 102.791,6.4285 C102.743,6.45950016 102.687001,6.475 102.623,6.475 L102.512,6.475 C102.448,6.475 102.392001,6.45950016 102.344,6.4285 C102.296,6.39749985 102.257001,6.35400028 102.227,6.298 L100.898,3.829 C100.906,3.89500033 100.9115,3.95949969 100.9145,4.0225 C100.9175,4.08550032 100.919,4.14399973 100.919,4.198 L100.919,7 L100.208,7 L100.208,2.662 L100.817,2.662 C100.853001,2.662 100.884,2.66299999 100.91,2.665 C100.936001,2.66700001 100.9595,2.67199996 100.9805,2.68 C101.001501,2.68800004 101.021,2.70099991 101.039,2.719 C101.057,2.73700009 101.074,2.76099985 101.09,2.791 L102.386,5.2 Z" id="Combined-Shape"></path>
            </g>
        </g>
    </g>
</svg>