<?xml version="1.0" encoding="UTF-8" standalone="no"?>
<svg width="163px" height="43px" viewBox="0 0 163 43" version="1.1" xmlns="http://www.w3.org/2000/svg" xmlns:xlink="http://www.w3.org/1999/xlink">
    <!-- Generator: Sketch 39.1 (31720) - http://www.bohemiancoding.com/sketch -->
    <title>Group</title>
    <desc>Created with Sketch.</desc>
    <defs></defs>
    <g id="Page-1" stroke="none" stroke-width="1" fill="none" fill-rule="evenodd">
        <g id="Artboard-3" transform="translate(-6.000000, -4.000000)" fill="#FFFFFF">
            <g id="Group" transform="translate(6.000000, 4.000000)">
                <path d="M16.171875,20.4238281 L13.8164062,20.4414062 L13.4824219,20.4414062 L13.4824219,37.7910156 C13.4824219,39.0800846 13.8398402,39.9531227 14.5546875,40.4101562 C15.0468775,40.7148453 16.0136647,40.9492179 17.4550781,41.1132812 L17.4550781,41.7460938 C17.4550781,41.8398442 17.4433595,41.9335933 17.4199219,42.0273438 L5.78320312,42.0273438 L5.74804688,41.1132812 C6.21679922,40.9492179 6.68847419,40.802735 7.16308594,40.6738281 C7.63769769,40.5449212 8.06249812,40.3750011 8.4375,40.1640625 C9.28125422,39.6953102 9.703125,38.9043024 9.703125,37.7910156 L9.703125,20.4414062 L7.13671875,20.4414062 C6.08202598,20.4414062 5.27344031,20.4824215 4.7109375,20.5644531 C4.14843469,20.6464848 3.69433767,20.8486312 3.34863281,21.1708984 C3.00292796,21.4931657 2.68652487,21.8652323 2.39941406,22.2871094 C2.11230325,22.7089865 1.8427747,23.1455056 1.59082031,23.5966797 C1.33886593,24.0478538 1.07812635,24.4374984 0.80859375,24.765625 L0,24.765625 L0.439453125,19.0351562 C3.42774932,19.1523443 7.40036584,19.2109375 12.3574219,19.2109375 C17.3144779,19.2109375 20.8066305,19.1406257 22.8339844,19 L23.3964844,24.7832031 L22.5527344,24.7832031 C22.2832018,24.4550765 22.0283215,24.0654319 21.7880859,23.6142578 C21.5478504,23.1630837 21.2871108,22.7265646 21.0058594,22.3046875 C20.3261685,21.2734323 19.6230505,20.6992193 18.8964844,20.5820312 C18.2285123,20.476562 17.3203182,20.4238281 16.171875,20.4238281 L16.171875,20.4238281 Z M26.4066964,30.25 C26.1723203,31.0117226 26.0551339,31.9023387 26.0551339,32.921875 C26.0551339,33.9414113 26.1723203,34.9316358 26.4066964,35.8925781 C26.6410726,36.8535204 26.9809129,37.7148399 27.4262277,38.4765625 C28.4106076,40.1640709 29.658642,41.0078125 31.1703683,41.0078125 C32.6469382,41.0078125 33.7895049,40.4570368 34.5981027,39.3554688 C35.3481064,38.3359324 35.7231027,36.9531337 35.7231027,35.2070312 C35.7231027,32.898426 35.266076,30.9648515 34.3520089,29.40625 C33.4027854,27.753898 32.1664697,26.9277344 30.6430245,26.9277344 C28.4984826,26.9277344 27.0863873,28.0351452 26.4066964,30.25 L26.4066964,30.25 Z M22.5395089,34.0117188 C22.5395089,31.5742066 23.3598132,29.5703204 25.0004464,28 C26.5824856,26.4999925 28.498482,25.75 30.7484933,25.75 C33.1508491,25.75 35.1371573,26.4882739 36.7074777,27.9648438 C38.3598297,29.5117265 39.1859933,31.521472 39.1859933,33.9941406 C39.1859933,36.4668092 38.365689,38.499992 36.7250558,40.09375 C35.1664543,41.6171951 33.2387392,42.3789062 30.9418527,42.3789062 C28.6449662,42.3789062 26.6879545,41.6054765 25.0707589,40.0585938 C23.3832505,38.453117 22.5395089,36.4375121 22.5395089,34.0117188 L22.5395089,34.0117188 Z M60.5829241,41.1484375 L60.5477678,42.0273438 L51.7587053,42.0273438 C51.7352677,41.8984369 51.7235491,41.7460946 51.7235491,41.5703125 L51.7235491,41.1484375 C51.8641748,41.054687 52.0604619,40.9814456 52.3124163,40.9287109 C52.5643707,40.8759763 52.8192509,40.8144535 53.0770647,40.7441406 C53.7098804,40.5683585 54.0848766,40.3105486 54.2020647,39.9707031 C54.4598785,39.4667944 54.5887835,38.8105509 54.5887835,38.0019531 L54.5887835,31.8847656 C54.5887835,30.513665 54.4335116,29.5673854 54.1229632,29.0458984 C53.8124147,28.5244115 53.4696447,28.1611338 53.0946428,27.9560547 C52.719641,27.7509755 52.2743329,27.6484375 51.7587053,27.6484375 C51.2430778,27.6484375 50.7860511,27.7158196 50.3876116,27.8505859 C49.9891721,27.9853522 49.6141759,28.1640614 49.2626116,28.3867188 C48.68839,28.7500018 48.0497245,29.3242148 47.346596,30.109375 L47.346596,37.8964844 C47.346596,39.1972721 47.4755009,39.9531239 47.7333147,40.1640625 C47.9911285,40.3750011 48.2489384,40.5302729 48.5067522,40.6298828 C48.764566,40.7294927 49.0311649,40.8144528 49.3065569,40.8847656 C49.5819489,40.9550785 49.8192512,41.0429682 50.018471,41.1484375 L49.9833147,42.0273438 L41.3172991,42.0273438 C41.3055803,41.9687497 41.299721,41.9101565 41.299721,41.8515625 L41.299721,41.1484375 C41.4520655,41.054687 41.6630009,40.9755863 41.9325335,40.9111328 C42.2020661,40.8466794 42.4715946,40.7675786 42.7411272,40.6738281 C43.3973805,40.439452 43.7723768,40.0937523 43.8661272,39.6367188 C43.9950341,39.1562476 44.0594866,38.6523464 44.0594866,38.125 L44.0594866,29.3007812 C43.7079223,28.6679656 42.7411351,28.1464864 41.159096,27.7363281 L41.2118303,27.1386719 L46.1161272,25.9433594 L47.1883928,25.9433594 L47.346596,28.4746094 C48.6005085,27.1035088 49.9071361,26.2539079 51.2665178,25.9257812 C51.7821454,25.8085932 52.3504991,25.75 52.971596,25.75 C55.2216072,25.75 56.7450295,26.6933499 57.5419085,28.5800781 C58.3973815,27.6425734 59.1063588,27.0097673 59.6688616,26.6816406 C60.6883979,26.0839814 61.6727631,25.7851562 62.6219866,25.7851562 C63.5712101,25.7851562 64.3534288,25.8701163 64.9686663,26.0400391 C65.5839037,26.2099618 66.1200312,26.4707014 66.5770647,26.8222656 C67.538007,27.5488318 68.0887828,28.6562426 68.2294085,30.1445312 C68.3231589,31.199224 68.3700335,32.3066348 68.3700335,33.4667969 L68.3700335,38.0722656 C68.3700335,38.6816437 68.4022597,39.1533186 68.4667132,39.4873047 C68.5311666,39.8212907 68.6571419,40.067382 68.8446428,40.2255859 C69.0321438,40.3837899 69.2460088,40.5126948 69.4862444,40.6123047 C69.72648,40.7119146 69.9725713,40.7998043 70.2245257,40.8759766 C70.47648,40.9521488 70.6962044,41.0429682 70.8837053,41.1484375 L70.8485491,42.0273438 L62.393471,42.0273438 C62.3700334,41.8984369 62.3583147,41.7460946 62.3583147,41.5703125 L62.3583147,41.1484375 C62.5458157,41.0429682 62.774329,40.9550785 63.0438616,40.8847656 C63.3133942,40.8144528 63.5770634,40.726563 63.8348772,40.6210938 C64.4794117,40.3867176 64.8485486,40.0468772 64.9422991,39.6015625 C65.0360496,39.0976537 65.0829241,38.5878932 65.0829241,38.0722656 L65.0829241,31.09375 C65.0829241,29.992182 64.8075362,29.1396515 64.2567522,28.5361328 C63.7059682,27.9326142 62.8973826,27.6308594 61.830971,27.6308594 C60.4598704,27.6308594 59.1063683,28.3632739 57.7704241,29.828125 C57.8407369,30.5546911 57.8758928,31.8554594 57.8758928,33.7304688 L57.8758928,37.984375 C57.8758928,38.6640659 57.9051894,39.1621078 57.9637835,39.4785156 C58.0223775,39.7949235 58.1542121,40.0351554 58.3592913,40.1992188 C58.5643704,40.3632821 58.7987431,40.4980463 59.0624163,40.6035156 C59.3260895,40.7089849 59.595618,40.7998043 59.87101,40.8759766 C60.146402,40.9521488 60.3837044,41.0429682 60.5829241,41.1484375 L60.5829241,41.1484375 Z M76.4779018,30.25 C76.2435256,31.0117226 76.1263393,31.9023387 76.1263393,32.921875 C76.1263393,33.9414113 76.2435256,34.9316358 76.4779018,35.8925781 C76.7122779,36.8535204 77.0521183,37.7148399 77.497433,38.4765625 C78.4818129,40.1640709 79.7298473,41.0078125 81.2415736,41.0078125 C82.7181435,41.0078125 83.8607102,40.4570368 84.669308,39.3554688 C85.4193118,38.3359324 85.794308,36.9531337 85.794308,35.2070312 C85.794308,32.898426 85.3372813,30.9648515 84.4232143,29.40625 C83.4739908,27.753898 82.237675,26.9277344 80.7142299,26.9277344 C78.5696879,26.9277344 77.1575927,28.0351452 76.4779018,30.25 L76.4779018,30.25 Z M72.6107143,34.0117188 C72.6107143,31.5742066 73.4310186,29.5703204 75.0716518,28 C76.6536909,26.4999925 78.5696874,25.75 80.8196986,25.75 C83.2220544,25.75 85.2083627,26.4882739 86.778683,27.9648438 C88.431035,29.5117265 89.2571986,31.521472 89.2571986,33.9941406 C89.2571986,36.4668092 88.4368943,38.499992 86.7962611,40.09375 C85.2376596,41.6171951 83.3099445,42.3789062 81.013058,42.3789062 C78.7161715,42.3789062 76.7591599,41.6054765 75.1419643,40.0585938 C73.4544558,38.453117 72.6107143,36.4375121 72.6107143,34.0117188 L72.6107143,34.0117188 Z M93.9900669,29.3183594 C93.6619403,28.7675754 92.7420276,28.2871114 91.2303013,27.8769531 L91.2654576,27.2617188 L95.9412388,25.9257812 L96.9431919,25.9257812 L97.2244419,29.1601562 C98.1971031,27.3906162 99.269358,26.3359392 100.441239,25.9960938 C100.839678,25.8906245 101.241041,25.8378906 101.64534,25.8378906 C102.049639,25.8378906 102.404128,25.8964838 102.708817,26.0136719 C103.013506,26.13086 103.277175,26.2832022 103.499833,26.4707031 C103.968585,26.8691426 104.202958,27.302732 104.202958,27.7714844 C104.202958,28.1347674 104.109209,28.4863264 103.921708,28.8261719 C103.570143,29.5175816 103.180499,29.8632812 102.752762,29.8632812 C102.325026,29.8632812 102.005693,29.7695322 101.794754,29.5820312 C101.583816,29.3945303 101.402177,29.1894542 101.249833,28.9667969 C101.097488,28.7441395 100.942216,28.5390634 100.784012,28.3515625 C100.625808,28.1640616 100.394365,28.0703125 100.089676,28.0703125 C99.7849873,28.0703125 99.5008105,28.1552726 99.2371373,28.3251953 C98.9734641,28.495118 98.7303024,28.7148424 98.5076451,28.984375 C98.2849877,29.2539076 98.0740523,29.5585921 97.8748326,29.8984375 C97.6756128,30.2382829 97.4763961,30.572264 97.2771763,30.9003906 L97.2771763,37.4394531 C97.2771763,38.5293023 97.3269805,39.2617169 97.4265904,39.6367188 C97.5262003,40.0117206 97.6961204,40.2724602 97.936356,40.4189453 C98.1765916,40.5654304 98.4578388,40.6767574 98.780106,40.7529297 C99.1023732,40.8291019 99.4392839,40.8906248 99.7908482,40.9375 C100.142412,40.9843752 100.452956,41.054687 100.722489,41.1484375 L100.704911,41.6933594 L100.704911,42.0273438 L91.2830357,42.0273438 C91.2713169,41.9804685 91.2654576,41.9101567 91.2654576,41.8164062 L91.2654576,41.2011719 C91.2654576,41.1425778 91.2713169,41.1015626 91.2830357,41.078125 C91.6814752,40.9609369 92.0476825,40.8671879 92.3816685,40.796875 C92.7156546,40.7265621 92.9998314,40.6093758 93.2342076,40.4453125 C93.7381163,40.1054671 93.9900669,39.3730525 93.9900669,38.2480469 L93.9900669,29.3183594 Z M107.86356,29.3183594 C107.535434,28.7675754 106.615521,28.2871114 105.103795,27.8769531 L105.138951,27.2617188 L109.814732,25.9257812 L110.816685,25.9257812 L111.097935,29.1601562 C112.070596,27.3906162 113.142851,26.3359392 114.314732,25.9960938 C114.713172,25.8906245 115.114535,25.8378906 115.518834,25.8378906 C115.923133,25.8378906 116.277621,25.8964838 116.58231,26.0136719 C116.886999,26.13086 117.150669,26.2832022 117.373326,26.4707031 C117.842078,26.8691426 118.076451,27.302732 118.076451,27.7714844 C118.076451,28.1347674 117.982702,28.4863264 117.795201,28.8261719 C117.443637,29.5175816 117.053992,29.8632812 116.626256,29.8632812 C116.198519,29.8632812 115.879186,29.7695322 115.668248,29.5820312 C115.457309,29.3945303 115.27567,29.1894542 115.123326,28.9667969 C114.970981,28.7441395 114.815709,28.5390634 114.657506,28.3515625 C114.499302,28.1640616 114.267859,28.0703125 113.96317,28.0703125 C113.658481,28.0703125 113.374304,28.1552726 113.110631,28.3251953 C112.846957,28.495118 112.603796,28.7148424 112.381138,28.984375 C112.158481,29.2539076 111.947546,29.5585921 111.748326,29.8984375 C111.549106,30.2382829 111.349889,30.572264 111.15067,30.9003906 L111.15067,37.4394531 C111.15067,38.5293023 111.200474,39.2617169 111.300084,39.6367188 C111.399694,40.0117206 111.569614,40.2724602 111.809849,40.4189453 C112.050085,40.5654304 112.331332,40.6767574 112.653599,40.7529297 C112.975867,40.8291019 113.312777,40.8906248 113.664341,40.9375 C114.015906,40.9843752 114.32645,41.054687 114.595982,41.1484375 L114.578404,41.6933594 L114.578404,42.0273438 L105.156529,42.0273438 C105.14481,41.9804685 105.138951,41.9101567 105.138951,41.8164062 L105.138951,41.2011719 C105.138951,41.1425778 105.14481,41.1015626 105.156529,41.078125 C105.554968,40.9609369 105.921176,40.8671879 106.255162,40.796875 C106.589148,40.7265621 106.873325,40.6093758 107.107701,40.4453125 C107.61161,40.1054671 107.86356,39.3730525 107.86356,38.2480469 L107.86356,29.3183594 Z M123.283929,30.25 C123.049552,31.0117226 122.932366,31.9023387 122.932366,32.921875 C122.932366,33.9414113 123.049552,34.9316358 123.283929,35.8925781 C123.518305,36.8535204 123.858145,37.7148399 124.30346,38.4765625 C125.28784,40.1640709 126.535874,41.0078125 128.0476,41.0078125 C129.52417,41.0078125 130.666737,40.4570368 131.475335,39.3554688 C132.225339,38.3359324 132.600335,36.9531337 132.600335,35.2070312 C132.600335,32.898426 132.143308,30.9648515 131.229241,29.40625 C130.280018,27.753898 129.043702,26.9277344 127.520257,26.9277344 C125.375715,26.9277344 123.963619,28.0351452 123.283929,30.25 L123.283929,30.25 Z M119.416741,34.0117188 C119.416741,31.5742066 120.237045,29.5703204 121.877679,28 C123.459718,26.4999925 125.375714,25.75 127.625725,25.75 C130.028081,25.75 132.014389,26.4882739 133.58471,27.9648438 C135.237062,29.5117265 136.063225,31.521472 136.063225,33.9941406 C136.063225,36.4668092 135.242921,38.499992 133.602288,40.09375 C132.043686,41.6171951 130.115971,42.3789062 127.819085,42.3789062 C125.522198,42.3789062 123.565187,41.6054765 121.947991,40.0585938 C120.260483,38.453117 119.416741,36.4375121 119.416741,34.0117188 L119.416741,34.0117188 Z M142.466016,28.6679688 C142.466016,29.0078142 142.501171,29.2480462 142.571484,29.3886719 L145.823437,37.7558594 L149.040234,29.9335938 C148.48945,28.1054596 147.505085,27.150391 146.087109,27.0683594 L146.122266,26.2246094 L153.891797,26.2246094 C153.915234,26.5292984 153.926953,26.8105456 153.926953,27.0683594 C153.704296,27.1738287 153.475782,27.2617184 153.241406,27.3320312 C153.00703,27.4023441 152.790235,27.4843745 152.591016,27.578125 C152.133982,27.7890636 151.905469,28.1054666 151.905469,28.5273438 C151.905469,28.820314 152.010936,29.2304661 152.221875,29.7578125 L155.087109,37.6152344 L157.829297,30.2148438 C158.051954,29.6289033 158.163281,29.1572283 158.163281,28.7998047 C158.163281,28.442381 158.116407,28.1757821 158.022656,28 C157.928906,27.8242179 157.791212,27.6894536 157.60957,27.5957031 C157.427929,27.5019527 157.205275,27.4257815 156.941602,27.3671875 C156.677928,27.3085935 156.376174,27.226563 156.036328,27.1210938 C156.01289,27.0039057 156.001172,26.8632821 156.001172,26.6992188 C156.001172,26.5468742 156.01289,26.3886727 156.036328,26.2246094 L162.20625,26.2246094 L162.20625,27.15625 C161.397652,27.2617193 160.618363,27.7890578 159.868359,28.7382812 C159.657421,28.996095 159.510938,29.2421863 159.428906,29.4765625 L154.682812,42.2734375 C154.553906,42.3437504 154.378126,42.3789062 154.155469,42.3789062 C153.932811,42.3789062 153.751173,42.3437504 153.610547,42.2734375 L149.620312,31.5507812 L145.383984,42.2734375 C145.243359,42.3437504 145.052931,42.3789062 144.812695,42.3789062 C144.57246,42.3789062 144.393751,42.3437504 144.276562,42.2734375 L139.372266,29.7402344 C139.044139,28.9199178 138.768751,28.369142 138.546094,28.0878906 C138.135935,27.572263 137.602738,27.238282 136.946484,27.0859375 L136.981641,26.2246094 L144.223828,26.2246094 C144.235547,26.3769539 144.241406,26.5234368 144.241406,26.6640625 L144.241406,27.0683594 C143.057807,27.4433612 142.466016,27.976559 142.466016,28.6679688 L142.466016,28.6679688 Z" id="Tomorrow"></path>
                <path d="M0,0 L73,0 L73,14 L0,14 L0,0 Z M10.1937456,10.1818182 L9.26139474,10.1818182 C9.15680357,10.1818182 9.07089069,10.1558336 9.00365351,10.1038636 C8.93641633,10.0518937 8.88785687,9.98730342 8.85797368,9.91009091 L8.37386842,8.596 L5.68887719,8.596 L5.20477193,9.91009091 C5.18086538,9.97839428 5.13380006,10.0407573 5.06357456,10.0971818 C4.99334906,10.1536063 4.90743618,10.1818182 4.80583333,10.1818182 L3.869,10.1818182 L6.41503509,3.74054545 L7.64771053,3.74054545 L10.1937456,10.1818182 Z M5.99816667,7.74963636 L8.06457895,7.74963636 L7.27566667,5.607 C7.23980684,5.51196922 7.2002122,5.39986428 7.15688158,5.27068182 C7.11355095,5.14149935 7.07096805,5.00118258 7.02913158,4.84972727 C6.98729511,5.00118258 6.94620634,5.14224177 6.90586404,5.27290909 C6.86552173,5.40357641 6.82592709,5.5179086 6.78707895,5.61590909 L5.99816667,7.74963636 Z M14.4431141,7.91445455 L14.4431141,10.1818182 L13.2373334,10.1818182 L13.2373334,3.74054545 L15.3485702,3.74054545 C15.7818765,3.74054545 16.1569049,3.7910298 16.4736667,3.892 C16.7904285,3.9929702 17.0519025,4.1340294 17.2580965,4.31518182 C17.4642905,4.49633424 17.6166925,4.71311995 17.7153071,4.96554545 C17.8139216,5.21797096 17.8632281,5.49415002 17.8632281,5.79409091 C17.8632281,6.10591065 17.8109333,6.39174113 17.7063421,6.65159091 C17.601751,6.91144069 17.4448666,7.13490816 17.2356842,7.322 C17.0265019,7.50909184 16.7650279,7.65460554 16.4512544,7.75854545 C16.1374809,7.86248537 15.7699232,7.91445455 15.3485702,7.91445455 L14.4431141,7.91445455 Z M14.4431141,6.979 L15.3485702,6.979 C15.5697058,6.979 15.7624495,6.95153058 15.9268071,6.89659091 C16.0911646,6.84165124 16.2271311,6.76295506 16.3347106,6.6605 C16.44229,6.55804494 16.5229734,6.43331892 16.5767632,6.28631818 C16.6305529,6.13931745 16.6574474,5.97524333 16.6574474,5.79409091 C16.6574474,5.62184762 16.6305529,5.46594009 16.5767632,5.32636364 C16.5229734,5.18678718 16.44229,5.06800049 16.3347106,4.97 C16.2271311,4.87199951 16.0911646,4.79701541 15.9268071,4.74504545 C15.7624495,4.6930755 15.5697058,4.66709091 15.3485702,4.66709091 L14.4431141,4.66709091 L14.4431141,6.979 Z M20.3487501,7.665 L20.3487501,10.1818182 L19.1429693,10.1818182 L19.1429693,3.74054545 L21.1197325,3.74054545 C21.5620037,3.74054545 21.9407675,3.78583288 22.2560351,3.87640909 C22.5713028,3.9669853 22.8297885,4.09393858 23.0315001,4.25727273 C23.2332116,4.42060688 23.3811312,4.6158625 23.4752632,4.84304545 C23.5693953,5.07022841 23.6164606,5.32042288 23.6164606,5.59363636 C23.6164606,5.81042533 23.5843366,6.01533237 23.5200878,6.20836364 C23.4558389,6.4013949 23.3632024,6.57660527 23.2421755,6.734 C23.1211486,6.89139473 22.9717349,7.02948425 22.7939299,7.14827273 C22.6161249,7.2670612 22.4136693,7.36209055 22.1865571,7.43336364 C22.3389613,7.51948528 22.4704454,7.64272647 22.5810132,7.80309091 L24.2036623,10.1818182 L23.1189079,10.1818182 C23.0143168,10.1818182 22.9254156,10.1610305 22.8522018,10.1194545 C22.778988,10.0778786 22.7169813,10.0184852 22.6661799,9.94127273 L21.3035132,7.87881818 C21.2527118,7.80160567 21.1966816,7.74666683 21.1354211,7.714 C21.0741606,7.68133317 20.9837653,7.665 20.8642325,7.665 L20.3487501,7.665 Z M20.3487501,6.80527273 L21.1018027,6.80527273 C21.3289149,6.80527273 21.5268881,6.77706089 21.6957281,6.72063636 C21.8645681,6.66421184 22.0035229,6.58625807 22.1125965,6.48677273 C22.2216702,6.38728738 22.3031007,6.26924311 22.3568904,6.13263636 C22.4106801,5.99602962 22.4375746,5.84606142 22.4375746,5.68272727 C22.4375746,5.35605897 22.3292497,5.10512209 22.1125965,4.92990909 C21.8959434,4.75469609 21.564992,4.66709091 21.1197325,4.66709091 L20.3487501,4.66709091 L20.3487501,6.80527273 Z M31.2792194,6.96118182 C31.2792194,7.433366 31.2000301,7.8706495 31.0416492,8.27304545 C30.8832683,8.67544141 30.6606419,9.02363489 30.3737632,9.31763636 C30.0868846,9.61163783 29.7417389,9.84104463 29.3383159,10.0058636 C28.9348928,10.1706826 28.4881458,10.2530909 27.9980615,10.2530909 C27.5079771,10.2530909 27.0604831,10.1706826 26.6555659,10.0058636 C26.2506486,9.84104463 25.9040088,9.61163783 25.615636,9.31763636 C25.3272632,9.02363489 25.1038897,8.67544141 24.9455088,8.27304545 C24.7871279,7.8706495 24.7079387,7.433366 24.7079387,6.96118182 C24.7079387,6.48899764 24.7871279,6.05171413 24.9455088,5.64931818 C25.1038897,5.24692223 25.3272632,4.89872874 25.615636,4.60472727 C25.9040088,4.3107258 26.2506486,4.08131901 26.6555659,3.9165 C27.0604831,3.75168099 27.5079771,3.66927273 27.9980615,3.66927273 C28.4881458,3.66927273 28.9348928,3.75242341 29.3383159,3.91872727 C29.7417389,4.08503113 30.0868846,4.31443793 30.3737632,4.60695455 C30.6606419,4.89947116 30.8832683,5.24692223 31.0416492,5.64931818 C31.2000301,6.05171413 31.2792194,6.48899764 31.2792194,6.96118182 Z M30.0420615,6.96118182 C30.0420615,6.60778611 29.9949962,6.29077413 29.9008641,6.01013636 C29.8067321,5.7294986 29.6715126,5.4911828 29.4952018,5.29518182 C29.318891,5.09918084 29.1044823,4.94921264 28.8519694,4.84527273 C28.5994564,4.74133281 28.3148233,4.68936364 27.9980615,4.68936364 C27.6812997,4.68936364 27.3959195,4.74133281 27.1419123,4.84527273 C26.8879052,4.94921264 26.6720024,5.09918084 26.4941974,5.29518182 C26.3163925,5.4911828 26.1796789,5.7294986 26.0840527,6.01013636 C25.9884265,6.29077413 25.9406141,6.60778611 25.9406141,6.96118182 C25.9406141,7.31457752 25.9884265,7.63158951 26.0840527,7.91222727 C26.1796789,8.19286504 26.3163925,8.43043842 26.4941974,8.62495455 C26.6720024,8.81947067 26.8879052,8.96869645 27.1419123,9.07263636 C27.3959195,9.17657628 27.6812997,9.22854545 27.9980615,9.22854545 C28.3148233,9.22854545 28.5994564,9.17657628 28.8519694,9.07263636 C29.1044823,8.96869645 29.318891,8.81947067 29.4952018,8.62495455 C29.6715126,8.43043842 29.8067321,8.19286504 29.9008641,7.91222727 C29.9949962,7.63158951 30.0420615,7.31457752 30.0420615,6.96118182 Z M35.1408553,7.89218182 C35.1408553,8.25448666 35.0960312,8.58115006 35.0063817,8.87218182 C34.9167321,9.16321358 34.7830068,9.41118079 34.6052018,9.61609091 C34.4273969,9.82100102 34.2055175,9.97839339 33.9395571,10.0882727 C33.6735967,10.1981521 33.3643103,10.2530909 33.0116887,10.2530909 C32.8503195,10.2530909 32.6919409,10.2434395 32.5365483,10.2241364 C32.3811557,10.2048332 32.2182948,10.1743941 32.0479606,10.1328182 L32.110715,9.42009091 C32.1166916,9.35475725 32.1413449,9.30204566 32.1846755,9.26195455 C32.2280061,9.22186344 32.291507,9.20181818 32.3751799,9.20181818 C32.4259813,9.20181818 32.4924704,9.21221202 32.5746492,9.233 C32.656828,9.25378798 32.7606705,9.26418182 32.8861799,9.26418182 C33.0565141,9.26418182 33.2074219,9.23968206 33.338908,9.19068182 C33.470394,9.14168157 33.5802131,9.06372781 33.6683685,8.95681818 C33.7565239,8.84990856 33.823013,8.71107661 33.8678378,8.54031818 C33.9126626,8.36955975 33.9350746,8.16242546 33.9350746,7.91890909 L33.9350746,3.74054545 L35.1408553,3.74054545 L35.1408553,7.89218182 Z M40.8402983,3.74054545 L40.8402983,4.69381818 L37.967044,4.69381818 L37.967044,6.48009091 L40.2306843,6.48009091 L40.2306843,7.40218182 L37.967044,7.40218182 L37.967044,9.22409091 L40.8402983,9.22409091 L40.8402983,10.1818182 L36.7522983,10.1818182 L36.7522983,3.74054545 L40.8402983,3.74054545 Z M46.6428378,8.66281818 C46.7085809,8.66281818 46.7653581,8.68806035 46.8131712,8.73854545 L47.2883115,9.25081818 C47.0253394,9.57451677 46.7018588,9.82248399 46.3178598,9.99472727 C45.9338608,10.1669706 45.4729195,10.2530909 44.935022,10.2530909 C44.4539027,10.2530909 44.02135,10.1714251 43.637351,10.0080909 C43.253352,9.84475676 42.9253889,9.61757721 42.6534519,9.32654545 C42.3815148,9.0355137 42.1730827,8.68806263 42.0281492,8.28418182 C41.8832158,7.88030101 41.8107501,7.43930542 41.8107501,6.96118182 C41.8107501,6.47711879 41.8914335,6.03389595 42.0528027,5.6315 C42.214172,5.22910405 42.4412808,4.88239539 42.7341361,4.59136364 C43.0269913,4.30033188 43.3773665,4.07389475 43.785272,3.91204545 C44.1931776,3.75019616 44.6436599,3.66927273 45.1367326,3.66927273 C45.6178519,3.66927273 46.0384515,3.74574166 46.398544,3.89868182 C46.7586364,4.05162198 47.0671757,4.25430177 47.3241712,4.50672727 L46.9207501,5.06354545 C46.8968436,5.099182 46.8662138,5.1303635 46.8288598,5.15709091 C46.7915058,5.18381832 46.739958,5.19718182 46.674215,5.19718182 C46.6054837,5.19718182 46.5352592,5.17045481 46.4635396,5.117 C46.3918199,5.06354519 46.3006776,5.00563668 46.1901098,4.94327273 C46.079542,4.88090878 45.9398401,4.82300027 45.7710001,4.76954545 C45.6021601,4.71609064 45.3877514,4.68936364 45.1277677,4.68936364 C44.8229591,4.68936364 44.5428084,4.74207523 44.2873071,4.8475 C44.0318059,4.95292477 43.8121677,5.10363538 43.6283861,5.29963636 C43.4446045,5.49563734 43.3011673,5.73395314 43.1980703,6.01459091 C43.0949733,6.29522868 43.0434256,6.61075582 43.0434256,6.96118182 C43.0434256,7.32348666 43.0949733,7.64569556 43.1980703,7.92781818 C43.3011673,8.2099408 43.4408691,8.44751419 43.6171799,8.64054545 C43.7934908,8.83357672 44.0011758,8.98131767 44.2402413,9.08377273 C44.4793069,9.18622779 44.7362985,9.23745455 45.0112238,9.23745455 C45.1755813,9.23745455 45.324248,9.22854554 45.4572282,9.21072727 C45.5902084,9.192909 45.7127276,9.16469716 45.8247896,9.12609091 C45.9368516,9.08748466 46.0429353,9.03774273 46.143044,8.97686364 C46.2431527,8.91598454 46.3425128,8.84100045 46.4411273,8.75190909 C46.4710105,8.72518168 46.5023874,8.7036516 46.5352589,8.68731818 C46.5681304,8.67098477 46.6039897,8.66281818 46.6428378,8.66281818 Z M53.0684387,3.74054545 L53.0684387,4.725 L51.1185703,4.725 L51.1185703,10.1818182 L49.9127896,10.1818182 L49.9127896,4.725 L47.9539563,4.725 L47.9539563,3.74054545 L53.0684387,3.74054545 Z M56.1702984,10.1818182 L56.1702984,3.74054545 L58.407044,3.74054545 C58.8313853,3.74054545 59.1937136,3.78063596 59.4940396,3.86081818 C59.7943657,3.9410004 60.0408983,4.05533259 60.2336449,4.20381818 C60.4263915,4.35230377 60.5675874,4.53196864 60.657237,4.74281818 C60.7468866,4.95366772 60.7917107,5.1912411 60.7917107,5.45554545 C60.7917107,5.60700076 60.7692986,5.75177204 60.7244739,5.88986364 C60.6796491,6.02795524 60.6101717,6.15713576 60.5160396,6.27740909 C60.4219076,6.39768242 60.3023766,6.50681769 60.1574432,6.60481818 C60.0125097,6.70281867 59.8399368,6.78596936 59.6397195,6.85427273 C60.5302385,7.05324342 60.9754914,7.53135985 60.9754914,8.28863636 C60.9754914,8.56184985 60.9231966,8.81427157 60.8186054,9.04590909 C60.7140143,9.27754661 60.5616123,9.47725674 60.3613949,9.64504545 C60.1611775,9.81283417 59.9146449,9.94424195 59.6217896,10.0392727 C59.3289344,10.1343035 58.9942477,10.1818182 58.6177195,10.1818182 L56.1702984,10.1818182 Z M57.3760791,7.35763636 L57.3760791,9.24636364 L58.5997896,9.24636364 C58.8239136,9.24636364 59.0114278,9.21963663 59.1623379,9.16618182 C59.313248,9.11272701 59.4342731,9.04145499 59.5254168,8.95236364 C59.6165606,8.86327228 59.6823026,8.75933393 59.7226449,8.64054545 C59.7629872,8.52175698 59.7831581,8.39554612 59.7831581,8.26190909 C59.7831581,8.12233264 59.760746,7.99686419 59.7159212,7.8855 C59.6710964,7.77413581 59.600872,7.67910645 59.5052458,7.60040909 C59.4096196,7.52171173 59.2871003,7.46157597 59.1376844,7.42 C58.9882684,7.37842403 58.8074778,7.35763636 58.5953072,7.35763636 L57.3760791,7.35763636 Z M57.3760791,6.52909091 L58.3398072,6.52909091 C58.7492069,6.52909091 59.0599874,6.45484923 59.2721581,6.30636364 C59.4843287,6.15787805 59.5904124,5.9217895 59.5904124,5.59809091 C59.5904124,5.26251347 59.4947877,5.02345526 59.3035353,4.88090909 C59.1122828,4.73836292 58.8134554,4.66709091 58.407044,4.66709091 L57.3760791,4.66709091 L57.3760791,6.52909091 Z M65.1957239,7.67836364 L65.1957239,10.1818182 L63.9899432,10.1818182 L63.9899432,7.67836364 L61.6276888,3.74054545 L62.6900309,3.74054545 C62.7946221,3.74054545 62.8775467,3.76578763 62.9388072,3.81627273 C63.0000677,3.86675783 63.0516155,3.93060567 63.0934519,4.00781818 L64.2813028,6.15936364 C64.3500342,6.28706124 64.4097996,6.40807519 64.4606011,6.52240909 C64.5114025,6.636743 64.5577207,6.74884794 64.5995572,6.85872727 C64.6384053,6.74587822 64.6824824,6.63228845 64.7317897,6.51795455 C64.7810969,6.40362064 64.8401153,6.28409153 64.9088467,6.15936364 L66.0877326,4.00781818 C66.1206042,3.94248452 66.1699107,3.88160634 66.2356537,3.82518182 C66.3013967,3.76875729 66.3850684,3.74054545 66.4866712,3.74054545 L67.5534958,3.74054545 L65.1957239,7.67836364 Z" id="Combined-Shape"></path>
            </g>
        </g>
    </g>
</svg>