<?xml version="1.0" encoding="UTF-8" standalone="no"?>
<svg width="163px" height="40px" viewBox="0 0 163 40" version="1.1" xmlns="http://www.w3.org/2000/svg" xmlns:xlink="http://www.w3.org/1999/xlink">
    <!-- Generator: Sketch 39.1 (31720) - http://www.bohemiancoding.com/sketch -->
    <title>Group</title>
    <desc>Created with Sketch.</desc>
    <defs></defs>
    <g id="Page-1" stroke="none" stroke-width="1" fill="none" fill-rule="evenodd">
        <g id="Artboard-3" transform="translate(-6.000000, -7.000000)" fill="#FFFFFF">
            <g id="Group" transform="translate(6.000000, 7.000000)">
                <path d="M16.171875,17.4238281 L13.8164062,17.4414062 L13.4824219,17.4414062 L13.4824219,34.7910156 C13.4824219,36.0800846 13.8398402,36.9531227 14.5546875,37.4101562 C15.0468775,37.7148453 16.0136647,37.9492179 17.4550781,38.1132812 L17.4550781,38.7460938 C17.4550781,38.8398442 17.4433595,38.9335933 17.4199219,39.0273438 L5.78320312,39.0273438 L5.74804688,38.1132812 C6.21679922,37.9492179 6.68847419,37.802735 7.16308594,37.6738281 C7.63769769,37.5449212 8.06249812,37.3750011 8.4375,37.1640625 C9.28125422,36.6953102 9.703125,35.9043024 9.703125,34.7910156 L9.703125,17.4414062 L7.13671875,17.4414062 C6.08202598,17.4414062 5.27344031,17.4824215 4.7109375,17.5644531 C4.14843469,17.6464848 3.69433767,17.8486312 3.34863281,18.1708984 C3.00292796,18.4931657 2.68652487,18.8652323 2.39941406,19.2871094 C2.11230325,19.7089865 1.8427747,20.1455056 1.59082031,20.5966797 C1.33886593,21.0478538 1.07812635,21.4374984 0.80859375,21.765625 L0,21.765625 L0.439453125,16.0351562 C3.42774932,16.1523443 7.40036584,16.2109375 12.3574219,16.2109375 C17.3144779,16.2109375 20.8066305,16.1406257 22.8339844,16 L23.3964844,21.7832031 L22.5527344,21.7832031 C22.2832018,21.4550765 22.0283215,21.0654319 21.7880859,20.6142578 C21.5478504,20.1630837 21.2871108,19.7265646 21.0058594,19.3046875 C20.3261685,18.2734323 19.6230505,17.6992193 18.8964844,17.5820312 C18.2285123,17.476562 17.3203182,17.4238281 16.171875,17.4238281 L16.171875,17.4238281 Z M26.4066964,27.25 C26.1723203,28.0117226 26.0551339,28.9023387 26.0551339,29.921875 C26.0551339,30.9414113 26.1723203,31.9316358 26.4066964,32.8925781 C26.6410726,33.8535204 26.9809129,34.7148399 27.4262277,35.4765625 C28.4106076,37.1640709 29.658642,38.0078125 31.1703683,38.0078125 C32.6469382,38.0078125 33.7895049,37.4570368 34.5981027,36.3554688 C35.3481064,35.3359324 35.7231027,33.9531337 35.7231027,32.2070312 C35.7231027,29.898426 35.266076,27.9648515 34.3520089,26.40625 C33.4027854,24.753898 32.1664697,23.9277344 30.6430245,23.9277344 C28.4984826,23.9277344 27.0863873,25.0351452 26.4066964,27.25 L26.4066964,27.25 Z M22.5395089,31.0117188 C22.5395089,28.5742066 23.3598132,26.5703204 25.0004464,25 C26.5824856,23.4999925 28.498482,22.75 30.7484933,22.75 C33.1508491,22.75 35.1371573,23.4882739 36.7074777,24.9648438 C38.3598297,26.5117265 39.1859933,28.521472 39.1859933,30.9941406 C39.1859933,33.4668092 38.365689,35.499992 36.7250558,37.09375 C35.1664543,38.6171951 33.2387392,39.3789062 30.9418527,39.3789062 C28.6449662,39.3789062 26.6879545,38.6054765 25.0707589,37.0585938 C23.3832505,35.453117 22.5395089,33.4375121 22.5395089,31.0117188 L22.5395089,31.0117188 Z M60.5829241,38.1484375 L60.5477678,39.0273438 L51.7587053,39.0273438 C51.7352677,38.8984369 51.7235491,38.7460946 51.7235491,38.5703125 L51.7235491,38.1484375 C51.8641748,38.054687 52.0604619,37.9814456 52.3124163,37.9287109 C52.5643707,37.8759763 52.8192509,37.8144535 53.0770647,37.7441406 C53.7098804,37.5683585 54.0848766,37.3105486 54.2020647,36.9707031 C54.4598785,36.4667944 54.5887835,35.8105509 54.5887835,35.0019531 L54.5887835,28.8847656 C54.5887835,27.513665 54.4335116,26.5673854 54.1229632,26.0458984 C53.8124147,25.5244115 53.4696447,25.1611338 53.0946428,24.9560547 C52.719641,24.7509755 52.2743329,24.6484375 51.7587053,24.6484375 C51.2430778,24.6484375 50.7860511,24.7158196 50.3876116,24.8505859 C49.9891721,24.9853522 49.6141759,25.1640614 49.2626116,25.3867188 C48.68839,25.7500018 48.0497245,26.3242148 47.346596,27.109375 L47.346596,34.8964844 C47.346596,36.1972721 47.4755009,36.9531239 47.7333147,37.1640625 C47.9911285,37.3750011 48.2489384,37.5302729 48.5067522,37.6298828 C48.764566,37.7294927 49.0311649,37.8144528 49.3065569,37.8847656 C49.5819489,37.9550785 49.8192512,38.0429682 50.018471,38.1484375 L49.9833147,39.0273438 L41.3172991,39.0273438 C41.3055803,38.9687497 41.299721,38.9101565 41.299721,38.8515625 L41.299721,38.1484375 C41.4520655,38.054687 41.6630009,37.9755863 41.9325335,37.9111328 C42.2020661,37.8466794 42.4715946,37.7675786 42.7411272,37.6738281 C43.3973805,37.439452 43.7723768,37.0937523 43.8661272,36.6367188 C43.9950341,36.1562476 44.0594866,35.6523464 44.0594866,35.125 L44.0594866,26.3007812 C43.7079223,25.6679656 42.7411351,25.1464864 41.159096,24.7363281 L41.2118303,24.1386719 L46.1161272,22.9433594 L47.1883928,22.9433594 L47.346596,25.4746094 C48.6005085,24.1035088 49.9071361,23.2539079 51.2665178,22.9257812 C51.7821454,22.8085932 52.3504991,22.75 52.971596,22.75 C55.2216072,22.75 56.7450295,23.6933499 57.5419085,25.5800781 C58.3973815,24.6425734 59.1063588,24.0097673 59.6688616,23.6816406 C60.6883979,23.0839814 61.6727631,22.7851562 62.6219866,22.7851562 C63.5712101,22.7851562 64.3534288,22.8701163 64.9686663,23.0400391 C65.5839037,23.2099618 66.1200312,23.4707014 66.5770647,23.8222656 C67.538007,24.5488318 68.0887828,25.6562426 68.2294085,27.1445312 C68.3231589,28.199224 68.3700335,29.3066348 68.3700335,30.4667969 L68.3700335,35.0722656 C68.3700335,35.6816437 68.4022597,36.1533186 68.4667132,36.4873047 C68.5311666,36.8212907 68.6571419,37.067382 68.8446428,37.2255859 C69.0321438,37.3837899 69.2460088,37.5126948 69.4862444,37.6123047 C69.72648,37.7119146 69.9725713,37.7998043 70.2245257,37.8759766 C70.47648,37.9521488 70.6962044,38.0429682 70.8837053,38.1484375 L70.8485491,39.0273438 L62.393471,39.0273438 C62.3700334,38.8984369 62.3583147,38.7460946 62.3583147,38.5703125 L62.3583147,38.1484375 C62.5458157,38.0429682 62.774329,37.9550785 63.0438616,37.8847656 C63.3133942,37.8144528 63.5770634,37.726563 63.8348772,37.6210938 C64.4794117,37.3867176 64.8485486,37.0468772 64.9422991,36.6015625 C65.0360496,36.0976537 65.0829241,35.5878932 65.0829241,35.0722656 L65.0829241,28.09375 C65.0829241,26.992182 64.8075362,26.1396515 64.2567522,25.5361328 C63.7059682,24.9326142 62.8973826,24.6308594 61.830971,24.6308594 C60.4598704,24.6308594 59.1063683,25.3632739 57.7704241,26.828125 C57.8407369,27.5546911 57.8758928,28.8554594 57.8758928,30.7304688 L57.8758928,34.984375 C57.8758928,35.6640659 57.9051894,36.1621078 57.9637835,36.4785156 C58.0223775,36.7949235 58.1542121,37.0351554 58.3592913,37.1992188 C58.5643704,37.3632821 58.7987431,37.4980463 59.0624163,37.6035156 C59.3260895,37.7089849 59.595618,37.7998043 59.87101,37.8759766 C60.146402,37.9521488 60.3837044,38.0429682 60.5829241,38.1484375 L60.5829241,38.1484375 Z M76.4779018,27.25 C76.2435256,28.0117226 76.1263393,28.9023387 76.1263393,29.921875 C76.1263393,30.9414113 76.2435256,31.9316358 76.4779018,32.8925781 C76.7122779,33.8535204 77.0521183,34.7148399 77.497433,35.4765625 C78.4818129,37.1640709 79.7298473,38.0078125 81.2415736,38.0078125 C82.7181435,38.0078125 83.8607102,37.4570368 84.669308,36.3554688 C85.4193118,35.3359324 85.794308,33.9531337 85.794308,32.2070312 C85.794308,29.898426 85.3372813,27.9648515 84.4232143,26.40625 C83.4739908,24.753898 82.237675,23.9277344 80.7142299,23.9277344 C78.5696879,23.9277344 77.1575927,25.0351452 76.4779018,27.25 L76.4779018,27.25 Z M72.6107143,31.0117188 C72.6107143,28.5742066 73.4310186,26.5703204 75.0716518,25 C76.6536909,23.4999925 78.5696874,22.75 80.8196986,22.75 C83.2220544,22.75 85.2083627,23.4882739 86.778683,24.9648438 C88.431035,26.5117265 89.2571986,28.521472 89.2571986,30.9941406 C89.2571986,33.4668092 88.4368943,35.499992 86.7962611,37.09375 C85.2376596,38.6171951 83.3099445,39.3789062 81.013058,39.3789062 C78.7161715,39.3789062 76.7591599,38.6054765 75.1419643,37.0585938 C73.4544558,35.453117 72.6107143,33.4375121 72.6107143,31.0117188 L72.6107143,31.0117188 Z M93.9900669,26.3183594 C93.6619403,25.7675754 92.7420276,25.2871114 91.2303013,24.8769531 L91.2654576,24.2617188 L95.9412388,22.9257812 L96.9431919,22.9257812 L97.2244419,26.1601562 C98.1971031,24.3906162 99.269358,23.3359392 100.441239,22.9960938 C100.839678,22.8906245 101.241041,22.8378906 101.64534,22.8378906 C102.049639,22.8378906 102.404128,22.8964838 102.708817,23.0136719 C103.013506,23.13086 103.277175,23.2832022 103.499833,23.4707031 C103.968585,23.8691426 104.202958,24.302732 104.202958,24.7714844 C104.202958,25.1347674 104.109209,25.4863264 103.921708,25.8261719 C103.570143,26.5175816 103.180499,26.8632812 102.752762,26.8632812 C102.325026,26.8632812 102.005693,26.7695322 101.794754,26.5820312 C101.583816,26.3945303 101.402177,26.1894542 101.249833,25.9667969 C101.097488,25.7441395 100.942216,25.5390634 100.784012,25.3515625 C100.625808,25.1640616 100.394365,25.0703125 100.089676,25.0703125 C99.7849873,25.0703125 99.5008105,25.1552726 99.2371373,25.3251953 C98.9734641,25.495118 98.7303024,25.7148424 98.5076451,25.984375 C98.2849877,26.2539076 98.0740523,26.5585921 97.8748326,26.8984375 C97.6756128,27.2382829 97.4763961,27.572264 97.2771763,27.9003906 L97.2771763,34.4394531 C97.2771763,35.5293023 97.3269805,36.2617169 97.4265904,36.6367188 C97.5262003,37.0117206 97.6961204,37.2724602 97.936356,37.4189453 C98.1765916,37.5654304 98.4578388,37.6767574 98.780106,37.7529297 C99.1023732,37.8291019 99.4392839,37.8906248 99.7908482,37.9375 C100.142412,37.9843752 100.452956,38.054687 100.722489,38.1484375 L100.704911,38.6933594 L100.704911,39.0273438 L91.2830357,39.0273438 C91.2713169,38.9804685 91.2654576,38.9101567 91.2654576,38.8164062 L91.2654576,38.2011719 C91.2654576,38.1425778 91.2713169,38.1015626 91.2830357,38.078125 C91.6814752,37.9609369 92.0476825,37.8671879 92.3816685,37.796875 C92.7156546,37.7265621 92.9998314,37.6093758 93.2342076,37.4453125 C93.7381163,37.1054671 93.9900669,36.3730525 93.9900669,35.2480469 L93.9900669,26.3183594 Z M107.86356,26.3183594 C107.535434,25.7675754 106.615521,25.2871114 105.103795,24.8769531 L105.138951,24.2617188 L109.814732,22.9257812 L110.816685,22.9257812 L111.097935,26.1601562 C112.070596,24.3906162 113.142851,23.3359392 114.314732,22.9960938 C114.713172,22.8906245 115.114535,22.8378906 115.518834,22.8378906 C115.923133,22.8378906 116.277621,22.8964838 116.58231,23.0136719 C116.886999,23.13086 117.150669,23.2832022 117.373326,23.4707031 C117.842078,23.8691426 118.076451,24.302732 118.076451,24.7714844 C118.076451,25.1347674 117.982702,25.4863264 117.795201,25.8261719 C117.443637,26.5175816 117.053992,26.8632812 116.626256,26.8632812 C116.198519,26.8632812 115.879186,26.7695322 115.668248,26.5820312 C115.457309,26.3945303 115.27567,26.1894542 115.123326,25.9667969 C114.970981,25.7441395 114.815709,25.5390634 114.657506,25.3515625 C114.499302,25.1640616 114.267859,25.0703125 113.96317,25.0703125 C113.658481,25.0703125 113.374304,25.1552726 113.110631,25.3251953 C112.846957,25.495118 112.603796,25.7148424 112.381138,25.984375 C112.158481,26.2539076 111.947546,26.5585921 111.748326,26.8984375 C111.549106,27.2382829 111.349889,27.572264 111.15067,27.9003906 L111.15067,34.4394531 C111.15067,35.5293023 111.200474,36.2617169 111.300084,36.6367188 C111.399694,37.0117206 111.569614,37.2724602 111.809849,37.4189453 C112.050085,37.5654304 112.331332,37.6767574 112.653599,37.7529297 C112.975867,37.8291019 113.312777,37.8906248 113.664341,37.9375 C114.015906,37.9843752 114.32645,38.054687 114.595982,38.1484375 L114.578404,38.6933594 L114.578404,39.0273438 L105.156529,39.0273438 C105.14481,38.9804685 105.138951,38.9101567 105.138951,38.8164062 L105.138951,38.2011719 C105.138951,38.1425778 105.14481,38.1015626 105.156529,38.078125 C105.554968,37.9609369 105.921176,37.8671879 106.255162,37.796875 C106.589148,37.7265621 106.873325,37.6093758 107.107701,37.4453125 C107.61161,37.1054671 107.86356,36.3730525 107.86356,35.2480469 L107.86356,26.3183594 Z M123.283929,27.25 C123.049552,28.0117226 122.932366,28.9023387 122.932366,29.921875 C122.932366,30.9414113 123.049552,31.9316358 123.283929,32.8925781 C123.518305,33.8535204 123.858145,34.7148399 124.30346,35.4765625 C125.28784,37.1640709 126.535874,38.0078125 128.0476,38.0078125 C129.52417,38.0078125 130.666737,37.4570368 131.475335,36.3554688 C132.225339,35.3359324 132.600335,33.9531337 132.600335,32.2070312 C132.600335,29.898426 132.143308,27.9648515 131.229241,26.40625 C130.280018,24.753898 129.043702,23.9277344 127.520257,23.9277344 C125.375715,23.9277344 123.963619,25.0351452 123.283929,27.25 L123.283929,27.25 Z M119.416741,31.0117188 C119.416741,28.5742066 120.237045,26.5703204 121.877679,25 C123.459718,23.4999925 125.375714,22.75 127.625725,22.75 C130.028081,22.75 132.014389,23.4882739 133.58471,24.9648438 C135.237062,26.5117265 136.063225,28.521472 136.063225,30.9941406 C136.063225,33.4668092 135.242921,35.499992 133.602288,37.09375 C132.043686,38.6171951 130.115971,39.3789062 127.819085,39.3789062 C125.522198,39.3789062 123.565187,38.6054765 121.947991,37.0585938 C120.260483,35.453117 119.416741,33.4375121 119.416741,31.0117188 L119.416741,31.0117188 Z M142.466016,25.6679688 C142.466016,26.0078142 142.501171,26.2480462 142.571484,26.3886719 L145.823437,34.7558594 L149.040234,26.9335938 C148.48945,25.1054596 147.505085,24.150391 146.087109,24.0683594 L146.122266,23.2246094 L153.891797,23.2246094 C153.915234,23.5292984 153.926953,23.8105456 153.926953,24.0683594 C153.704296,24.1738287 153.475782,24.2617184 153.241406,24.3320312 C153.00703,24.4023441 152.790235,24.4843745 152.591016,24.578125 C152.133982,24.7890636 151.905469,25.1054666 151.905469,25.5273438 C151.905469,25.820314 152.010936,26.2304661 152.221875,26.7578125 L155.087109,34.6152344 L157.829297,27.2148438 C158.051954,26.6289033 158.163281,26.1572283 158.163281,25.7998047 C158.163281,25.442381 158.116407,25.1757821 158.022656,25 C157.928906,24.8242179 157.791212,24.6894536 157.60957,24.5957031 C157.427929,24.5019527 157.205275,24.4257815 156.941602,24.3671875 C156.677928,24.3085935 156.376174,24.226563 156.036328,24.1210938 C156.01289,24.0039057 156.001172,23.8632821 156.001172,23.6992188 C156.001172,23.5468742 156.01289,23.3886727 156.036328,23.2246094 L162.20625,23.2246094 L162.20625,24.15625 C161.397652,24.2617193 160.618363,24.7890578 159.868359,25.7382812 C159.657421,25.996095 159.510938,26.2421863 159.428906,26.4765625 L154.682812,39.2734375 C154.553906,39.3437504 154.378126,39.3789062 154.155469,39.3789062 C153.932811,39.3789062 153.751173,39.3437504 153.610547,39.2734375 L149.620312,28.5507812 L145.383984,39.2734375 C145.243359,39.3437504 145.052931,39.3789062 144.812695,39.3789062 C144.57246,39.3789062 144.393751,39.3437504 144.276562,39.2734375 L139.372266,26.7402344 C139.044139,25.9199178 138.768751,25.369142 138.546094,25.0878906 C138.135935,24.572263 137.602738,24.238282 136.946484,24.0859375 L136.981641,23.2246094 L144.223828,23.2246094 C144.235547,23.3769539 144.241406,23.5234368 144.241406,23.6640625 L144.241406,24.0683594 C143.057807,24.4433612 142.466016,24.976559 142.466016,25.6679688 L142.466016,25.6679688 Z" id="Tomorrow"></path>
                <path d="M0,0 L57,0 L57,11 L0,11 L0,0 Z M7.9595,8 L7.2315,8 C7.14983293,8 7.08275026,7.97958354 7.03025,7.93875 C6.97774974,7.89791646 6.93983345,7.84716697 6.9165,7.7865 L6.5385,6.754 L4.442,6.754 L4.064,7.7865 C4.04533324,7.84016694 4.00858361,7.88916645 3.95375,7.9335 C3.89891639,7.97783356 3.83183373,8 3.7525,8 L3.021,8 L5.009,2.939 L5.9715,2.939 L7.9595,8 Z M4.6835,6.089 L6.297,6.089 L5.681,4.4055 C5.65299986,4.33083296 5.6220835,4.24275051 5.58825,4.14125 C5.5544165,4.03974949 5.52116683,3.9295006 5.4885,3.8105 C5.45583317,3.9295006 5.42375016,4.04033282 5.39225,4.143 C5.36074984,4.24566718 5.32983348,4.33549962 5.2995,4.4125 L4.6835,6.089 Z M11.2775,6.2185 L11.2775,8 L10.336,8 L10.336,2.939 L11.9845,2.939 C12.3228351,2.939 12.6156655,2.97866627 12.863,3.058 C13.1103346,3.13733373 13.3144992,3.24816596 13.4755,3.3905 C13.6365008,3.53283405 13.7554996,3.70316568 13.8325,3.9015 C13.9095004,4.09983433 13.948,4.31683216 13.948,4.5525 C13.948,4.79750123 13.9071671,5.02208231 13.8255,5.22625 C13.743833,5.43041769 13.6213342,5.60599927 13.458,5.753 C13.2946659,5.90000074 13.0905013,6.01433293 12.8455,6.096 C12.6004988,6.17766708 12.3135017,6.2185 11.9845,6.2185 L11.2775,6.2185 Z M11.2775,5.4835 L11.9845,5.4835 C12.1571676,5.4835 12.3076661,5.46191688 12.436,5.41875 C12.564334,5.37558312 12.6704996,5.3137504 12.7545,5.23325 C12.8385004,5.1527496 12.9014998,5.05475058 12.9435,4.93925 C12.9855002,4.82374942 13.0065,4.69483404 13.0065,4.5525 C13.0065,4.41716599 12.9855002,4.29466721 12.9435,4.185 C12.9014998,4.07533278 12.8385004,3.98200038 12.7545,3.905 C12.6704996,3.82799961 12.564334,3.76908354 12.436,3.72825 C12.3076661,3.68741646 12.1571676,3.667 11.9845,3.667 L11.2775,3.667 L11.2775,5.4835 Z M15.88875,6.0225 L15.88875,8 L14.94725,8 L14.94725,2.939 L16.49075,2.939 C16.8360851,2.939 17.1318321,2.97458298 17.378,3.04575 C17.6241679,3.11691702 17.8259993,3.21666603 17.9835,3.345 C18.1410008,3.47333398 18.2564997,3.62674911 18.33,3.80525 C18.4035004,3.98375089 18.44025,4.18033226 18.44025,4.395 C18.44025,4.56533419 18.415167,4.72633258 18.365,4.878 C18.3148331,5.02966743 18.2425005,5.16733272 18.148,5.291 C18.0534996,5.41466729 17.9368341,5.5231662 17.798,5.6165 C17.659166,5.7098338 17.5010843,5.78449972 17.32375,5.8405 C17.4427506,5.90816701 17.5454163,6.00499937 17.63175,6.131 L18.89875,8 L18.05175,8 C17.970083,8 17.900667,7.98366683 17.8435,7.951 C17.7863331,7.91833317 17.7379169,7.87166697 17.69825,7.811 L16.63425,6.1905 C16.5945832,6.12983303 16.5508336,6.0866668 16.503,6.061 C16.4551665,6.03533321 16.3845838,6.0225 16.29125,6.0225 L15.88875,6.0225 Z M15.88875,5.347 L16.47675,5.347 C16.6540843,5.347 16.808666,5.32483355 16.9405,5.2805 C17.072334,5.23616644 17.1808329,5.17491706 17.266,5.09675 C17.3511671,5.01858294 17.4147498,4.92583387 17.45675,4.8185 C17.4987502,4.71116613 17.51975,4.59333397 17.51975,4.465 C17.51975,4.20833205 17.4351676,4.01116735 17.266,3.8735 C17.0968325,3.73583264 16.8384184,3.667 16.49075,3.667 L15.88875,3.667 L15.88875,5.347 Z M24.4235001,5.4695 C24.4235001,5.84050186 24.3616673,6.18408175 24.2380001,6.50025 C24.1143328,6.81641825 23.9405012,7.08999885 23.7165001,7.321 C23.4924989,7.55200116 23.2230016,7.73224935 22.9080001,7.86175 C22.5929985,7.99125065 22.2441686,8.056 21.8615001,8.056 C21.4788315,8.056 21.1294183,7.99125065 20.8132501,7.86175 C20.4970818,7.73224935 20.2264178,7.55200116 20.0012501,7.321 C19.7760823,7.08999885 19.6016673,6.81641825 19.4780001,6.50025 C19.3543328,6.18408175 19.2925001,5.84050186 19.2925001,5.4695 C19.2925001,5.09849815 19.3543328,4.75491825 19.4780001,4.43875 C19.6016673,4.12258175 19.7760823,3.84900116 20.0012501,3.618 C20.2264178,3.38699885 20.4970818,3.20675065 20.8132501,3.07725 C21.1294183,2.94774935 21.4788315,2.883 21.8615001,2.883 C22.2441686,2.883 22.5929985,2.94833268 22.9080001,3.079 C23.2230016,3.20966732 23.4924989,3.38991552 23.7165001,3.61975 C23.9405012,3.84958448 24.1143328,4.12258175 24.2380001,4.43875 C24.3616673,4.75491825 24.4235001,5.09849815 24.4235001,5.4695 Z M23.4575001,5.4695 C23.4575001,5.19183195 23.4207504,4.9427511 23.3472501,4.72225 C23.2737497,4.5017489 23.1681674,4.31450077 23.0305001,4.1605 C22.8928327,4.00649923 22.7254177,3.88866708 22.5282501,3.807 C22.3310824,3.72533293 22.1088346,3.6845 21.8615001,3.6845 C21.6141655,3.6845 21.3913344,3.72533293 21.1930001,3.807 C20.9946657,3.88866708 20.8260841,4.00649923 20.6872501,4.1605 C20.548416,4.31450077 20.4416671,4.5017489 20.3670001,4.72225 C20.292333,4.9427511 20.2550001,5.19183195 20.2550001,5.4695 C20.2550001,5.74716806 20.292333,5.9962489 20.3670001,6.21675 C20.4416671,6.4372511 20.548416,6.6239159 20.6872501,6.77675 C20.8260841,6.9295841 20.9946657,7.04683293 21.1930001,7.1285 C21.3913344,7.21016708 21.6141655,7.251 21.8615001,7.251 C22.1088346,7.251 22.3310824,7.21016708 22.5282501,7.1285 C22.7254177,7.04683293 22.8928327,6.9295841 23.0305001,6.77675 C23.1681674,6.6239159 23.2737497,6.4372511 23.3472501,6.21675 C23.4207504,5.9962489 23.4575001,5.74716806 23.4575001,5.4695 Z M27.4387501,6.201 C27.4387501,6.48566809 27.4037504,6.74233219 27.3337501,6.971 C27.2637497,7.19966781 27.1593341,7.3944992 27.0205001,7.5555 C26.881666,7.71650081 26.7084178,7.84016624 26.5007501,7.9265 C26.2930824,8.01283377 26.0515848,8.056 25.7762501,8.056 C25.6502494,8.056 25.526584,8.04841674 25.4052501,8.03325 C25.2839161,8.01808326 25.1567507,7.99416683 25.0237501,7.9615 L25.0727501,7.4015 C25.0774168,7.35016641 25.0966666,7.30875016 25.1305001,7.27725 C25.1643336,7.24574984 25.2139164,7.23 25.2792501,7.23 C25.3189169,7.23 25.3708331,7.23816659 25.4350001,7.2545 C25.4991671,7.27083342 25.5802496,7.279 25.6782501,7.279 C25.8112507,7.279 25.9290829,7.25975019 26.0317501,7.22125 C26.1344172,7.18274981 26.2201664,7.12150042 26.2890001,7.0375 C26.3578337,6.95349958 26.4097499,6.84441734 26.4447501,6.71025 C26.4797502,6.57608266 26.4972501,6.41333429 26.4972501,6.222 L26.4972501,2.939 L27.4387501,2.939 L27.4387501,6.201 Z M31.8890001,2.939 L31.8890001,3.688 L29.6455001,3.688 L29.6455001,5.0915 L31.4130001,5.0915 L31.4130001,5.816 L29.6455001,5.816 L29.6455001,7.2475 L31.8890001,7.2475 L31.8890001,8 L28.6970001,8 L28.6970001,2.939 L31.8890001,2.939 Z M36.4197501,6.8065 C36.4710837,6.8065 36.5154166,6.82633314 36.5527501,6.866 L36.9237501,7.2685 C36.7184157,7.52283461 36.4658349,7.71766599 36.1660001,7.853 C35.8661653,7.98833401 35.5062522,8.056 35.0862501,8.056 C34.7105815,8.056 34.3728349,7.99183398 34.0730001,7.8635 C33.7731653,7.73516603 33.5170845,7.55666781 33.3047501,7.328 C33.0924157,7.09933219 32.9296673,6.82633492 32.8165001,6.509 C32.7033329,6.19166508 32.6467501,5.84516855 32.6467501,5.4695 C32.6467501,5.08916477 32.7097495,4.74091825 32.8357501,4.42475 C32.9617507,4.10858175 33.1390823,3.83616781 33.3677501,3.6075 C33.5964179,3.37883219 33.8699985,3.2009173 34.1885001,3.07375 C34.5070017,2.9465827 34.8587482,2.883 35.2437501,2.883 C35.6194186,2.883 35.947832,2.94308273 36.2290001,3.06325 C36.5101682,3.18341727 36.7510824,3.34266568 36.9517501,3.541 L36.6367501,3.9785 C36.6180833,4.00650014 36.5941669,4.0309999 36.5650001,4.052 C36.5358333,4.07300011 36.4955837,4.0835 36.4442501,4.0835 C36.3905832,4.0835 36.3357504,4.06250021 36.2797501,4.0205 C36.2237498,3.97849979 36.1525839,3.93300025 36.0662501,3.884 C35.9799163,3.83499976 35.8708341,3.78950021 35.7390001,3.7475 C35.6071661,3.70549979 35.4397511,3.6845 35.2367501,3.6845 C34.9987489,3.6845 34.7800011,3.72591625 34.5805001,3.80875 C34.3809991,3.89158375 34.2095008,4.00999923 34.0660001,4.164 C33.9224994,4.31800077 33.8105005,4.5052489 33.7300001,4.72575 C33.6494997,4.9462511 33.6092501,5.19416529 33.6092501,5.4695 C33.6092501,5.75416809 33.6494997,6.00733223 33.7300001,6.229 C33.8105005,6.45066778 33.9195827,6.63733258 34.0572501,6.789 C34.1949174,6.94066743 34.3570825,7.0567496 34.5437501,7.13725 C34.7304177,7.2177504 34.9310824,7.258 35.1457501,7.258 C35.2740841,7.258 35.3901662,7.25100007 35.4940001,7.237 C35.5978339,7.22299993 35.6934997,7.20083349 35.7810001,7.1705 C35.8685005,7.14016652 35.951333,7.10108357 36.0295001,7.05325 C36.1076671,7.00541643 36.1852497,6.94650035 36.2622501,6.8765 C36.2855835,6.8554999 36.3100833,6.8385834 36.3357501,6.82575 C36.3614169,6.8129166 36.3894166,6.8065 36.4197501,6.8065 Z M41.4370001,2.939 L41.4370001,3.7125 L39.9145001,3.7125 L39.9145001,8 L38.9730001,8 L38.9730001,3.7125 L37.4435001,3.7125 L37.4435001,2.939 L41.4370001,2.939 Z M43.8590001,8 L43.8590001,2.939 L45.6055001,2.939 C45.9368351,2.939 46.219749,2.97049969 46.4542501,3.0335 C46.6887513,3.09650032 46.8812494,3.18633275 47.0317501,3.303 C47.1822509,3.41966725 47.2924998,3.56083251 47.3625001,3.7265 C47.4325005,3.8921675 47.4675001,4.0788323 47.4675001,4.2865 C47.4675001,4.4055006 47.4500003,4.51924946 47.4150001,4.62775 C47.38,4.73625054 47.3257505,4.83774953 47.2522501,4.93225 C47.1787498,5.02675047 47.0854174,5.11249962 46.9722501,5.1895 C46.8590829,5.26650039 46.7243342,5.33183307 46.5680001,5.3855 C47.2633369,5.54183412 47.6110001,5.91749703 47.6110001,6.5125 C47.6110001,6.72716774 47.5701672,6.92549909 47.4885001,7.1075 C47.4068331,7.28950091 47.2878342,7.44641601 47.1315001,7.57825 C46.975166,7.71008399 46.7826679,7.81333296 46.5540001,7.888 C46.3253323,7.96266704 46.0640016,8 45.7700001,8 L43.8590001,8 Z M44.8005001,5.781 L44.8005001,7.265 L45.7560001,7.265 C45.931001,7.265 46.0774162,7.24400021 46.1952501,7.202 C46.3130841,7.15999979 46.4075831,7.10400035 46.4787501,7.034 C46.5499172,6.96399965 46.60125,6.8823338 46.6327501,6.789 C46.6642503,6.6956662 46.6800001,6.59650052 46.6800001,6.4915 C46.6800001,6.38183278 46.6625003,6.28325044 46.6275001,6.19575 C46.5925,6.10824956 46.5376672,6.03358364 46.4630001,5.97175 C46.3883331,5.90991636 46.2926674,5.86266683 46.1760001,5.83 C46.0593329,5.79733317 45.9181676,5.781 45.7525001,5.781 L44.8005001,5.781 Z M44.8005001,5.13 L45.5530001,5.13 C45.8726684,5.13 46.1153326,5.07166725 46.2810001,4.955 C46.4466676,4.83833275 46.5295001,4.6528346 46.5295001,4.3985 C46.5295001,4.13483201 46.4548342,3.94700056 46.3055001,3.835 C46.1561661,3.72299944 45.9228351,3.667 45.6055001,3.667 L44.8005001,3.667 L44.8005001,5.13 Z M50.9062501,6.033 L50.9062501,8 L49.9647501,8 L49.9647501,6.033 L48.1202501,2.939 L48.9497501,2.939 C49.0314172,2.939 49.0961666,2.95883314 49.1440001,2.9985 C49.1918337,3.03816687 49.2320833,3.08833303 49.2647501,3.149 L50.1922501,4.8395 C50.2459171,4.93983384 50.2925833,5.03491622 50.3322501,5.12475 C50.371917,5.21458378 50.4080833,5.30266624 50.4407501,5.389 C50.4710836,5.30033289 50.5055,5.21108378 50.5440001,5.12125 C50.5825003,5.03141622 50.6285832,4.93750049 50.6822501,4.8395 L51.6027501,3.149 C51.6284169,3.09766641 51.6669166,3.04983356 51.7182501,3.0055 C51.7695837,2.96116645 51.8349164,2.939 51.9142501,2.939 L52.7472501,2.939 L50.9062501,6.033 Z" id="Combined-Shape"></path>
            </g>
        </g>
    </g>
</svg>