<svg width="71" height="75" viewBox="0 0 71 75" fill="none" xmlns="http://www.w3.org/2000/svg">
<g clip-path="url(#clip0_4314_4836)">
<path fill-rule="evenodd" clip-rule="evenodd" d="M3.0819 50.9458C4.98606 52.8132 7.61663 53.9683 10.5223 53.9683H29.7351V69.3859C29.7351 70.9362 30.3758 72.3397 31.4118 73.3557C32.4477 74.3716 33.8789 75 35.4597 75C39.105 75 42.529 73.2848 44.6657 70.3885L69.0028 37.3997C70.3011 35.6398 71 33.5231 71 31.3509C71 28.5014 69.8223 25.9216 67.9181 24.0542C66.014 22.1868 63.3834 21.0317 60.4778 21.0317H41.265V5.61409C41.265 4.0638 40.6242 2.66028 39.5883 1.64433C38.5524 0.628379 37.1212 0 35.5404 0C31.8951 0 28.4711 1.71516 26.3343 4.61154L1.99725 37.6003C0.698936 39.3601 0 41.4769 0 43.6491C0 46.4986 1.17774 49.0784 3.0819 50.9458Z" fill="white"/>
</g>
<defs>
<clipPath id="clip0_4314_4836">
<rect width="71" height="75" fill="white"/>
</clipPath>
</defs>
</svg>
