<svg width="10" height="6" viewBox="0 0 10 6" fill="none" xmlns="http://www.w3.org/2000/svg">
<path d="M7.75 1.45001H1.75C1.46875 1.45001 1.25 1.68439 1.25 1.95001V4.45001C1.25 4.73126 1.46875 4.95001 1.75 4.95001H7.75C8.01562 4.95001 8.25 4.73126 8.25 4.45001V1.95001C8.25 1.68439 8.01562 1.45001 7.75 1.45001ZM1.75 0.700012H7.75C8.4375 0.700012 9 1.26251 9 1.95001V2.20001C9.26562 2.20001 9.5 2.43439 9.5 2.70001V3.70001C9.5 3.98126 9.26562 4.20001 9 4.20001V4.45001C9 5.15314 8.4375 5.70001 7.75 5.70001H1.75C1.04688 5.70001 0.5 5.15314 0.5 4.45001V1.95001C0.5 1.26251 1.04688 0.700012 1.75 0.700012ZM7.5 2.20001V4.20001H2V2.20001H7.5Z" fill="white"/>
</svg>
