<svg width="8" height="8" viewBox="0 0 8 8" fill="none" xmlns="http://www.w3.org/2000/svg">
<path d="M3.32996 1.99999C3.32996 1.88953 3.4195 1.79999 3.52996 1.79999H4.45996C4.57041 1.79999 4.65996 1.88953 4.65996 1.99999V6.39999C4.65996 6.51045 4.57041 6.59999 4.45996 6.59999H3.52996C3.4195 6.59999 3.32996 6.51045 3.32996 6.39999V1.99999Z" fill="white"/>
<path fill-rule="evenodd" clip-rule="evenodd" d="M3.62996 0C3.46427 0 3.32996 0.134315 3.32996 0.3V0.5H3C2.44772 0.5 2 0.947715 2 1.5V7C2 7.55228 2.44772 8 3 8H5C5.55228 8 6 7.55228 6 7V1.5C6 0.947715 5.55228 0.5 5 0.5H4.65996V0.3C4.65996 0.134315 4.52564 0 4.35996 0H3.62996ZM3 1.25H5C5.13807 1.25 5.25 1.36193 5.25 1.5V7C5.25 7.13807 5.13807 7.25 5 7.25H3C2.86193 7.25 2.75 7.13807 2.75 7V1.5C2.75 1.36193 2.86193 1.25 3 1.25Z" fill="white"/>
</svg>
