<svg width="8" height="8" viewBox="0 0 8 8" fill="none" xmlns="http://www.w3.org/2000/svg">
<path d="M4.79688 3.23438C6.09375 3.09375 7.10938 2.0625 7.23438 0.75H7.125C5.92188 0.75 4.90625 1.53125 4.51562 2.59375C4.39062 2.32812 4.21875 2.07812 4.03125 1.85938C4.625 0.75 5.78125 0 7.125 0H7.5C7.76562 0 8 0.234375 8 0.5C8 2.28125 6.67188 3.75 4.95312 3.96875C4.92188 3.71875 4.875 3.48438 4.79688 3.23438ZM0.75 1.75V2C0.75 3.53125 1.96875 4.75 3.5 4.75H3.625V4.5C3.625 2.98438 2.39062 1.75 0.875 1.75H0.75ZM4.375 4.5V4.75V5.5V7.625C4.375 7.84375 4.20312 8 4 8C3.78125 8 3.625 7.84375 3.625 7.625V5.5H3.5C1.5625 5.5 0 3.9375 0 2V1.5C0 1.23438 0.21875 1 0.5 1H0.875C2.79688 1 4.375 2.57812 4.375 4.5Z" fill="white"/>
</svg>
