<svg width="8" height="9" viewBox="0 0 8 9" fill="none" xmlns="http://www.w3.org/2000/svg">
<path d="M4.79688 4.03436C6.09375 3.89374 7.10938 2.86249 7.23438 1.54999H7.125C5.92188 1.54999 4.90625 2.33124 4.51562 3.39374C4.39062 3.12811 4.21875 2.87811 4.03125 2.65936C4.625 1.54999 5.78125 0.799988 7.125 0.799988H7.5C7.76562 0.799988 8 1.03436 8 1.29999C8 3.08124 6.67188 4.54999 4.95312 4.76874C4.92188 4.51874 4.875 4.28436 4.79688 4.03436ZM0.75 2.54999V2.79999C0.75 4.33124 1.96875 5.54999 3.5 5.54999H3.625V5.29999C3.625 3.78436 2.39062 2.54999 0.875 2.54999H0.75ZM4.375 5.29999V5.54999V6.29999V8.42499C4.375 8.64374 4.20312 8.79999 4 8.79999C3.78125 8.79999 3.625 8.64374 3.625 8.42499V6.29999H3.5C1.5625 6.29999 0 4.73749 0 2.79999V2.29999C0 2.03436 0.21875 1.79999 0.5 1.79999H0.875C2.79688 1.79999 4.375 3.37811 4.375 5.29999Z" fill="white"/>
</svg>
