<svg width="8" height="8" viewBox="0 0 8 8" fill="none" xmlns="http://www.w3.org/2000/svg">
<path fill-rule="evenodd" clip-rule="evenodd" d="M3.78066 0.850998C3.50267 0.686406 3.14372 0.781766 2.98408 1.06262L0.845654 4.82471C0.714296 5.05581 0.757606 5.34671 0.950588 5.52952L1.97434 6.49932C2.0299 6.55196 2.09537 6.59303 2.16694 6.62015L3.67669 7.19222C3.84639 7.25653 4.03645 7.23736 4.18989 7.14045L6.96023 5.39088C7.19508 5.24256 7.29113 4.94811 7.1889 4.68986L6.32013 2.49523C6.27298 2.37611 6.18756 2.27604 6.07731 2.21077L3.78066 0.850998ZM2.31441 0.682023C2.68691 0.026695 3.52446 -0.195809 4.17311 0.188238L6.46976 1.54801C6.727 1.70031 6.92631 1.9338 7.03634 2.21175L7.90511 4.40638C8.14365 5.00897 7.91954 5.69602 7.37155 6.0421L4.60121 7.79167C4.24319 8.01778 3.79971 8.06251 3.40373 7.91247L1.89398 7.34039C1.72699 7.27711 1.57423 7.18128 1.44458 7.05847L0.420835 6.08867C-0.0294566 5.6621 -0.130514 4.98334 0.175988 4.44411L2.31441 0.682023Z" fill="black"/>
<path d="M2.37624 4.72211L3.04163 3.55143C3.31796 3.06524 3.9393 2.90017 4.4205 3.18509L5.028 3.54479C5.21883 3.65779 5.36669 3.83101 5.44831 4.03722L5.68394 4.63248C5.8609 5.07954 5.69465 5.58926 5.28812 5.84601L4.41088 6.40006C4.14528 6.56781 3.81628 6.601 3.52253 6.48968L3.06563 6.31654C2.94174 6.2696 2.82842 6.1985 2.73224 6.10739L2.55788 5.9422C2.22383 5.62573 2.14886 5.12216 2.37624 4.72211Z" fill="black"/>
</svg>
