<svg width="8" height="9" viewBox="0 0 8 9" fill="none" xmlns="http://www.w3.org/2000/svg">
<path d="M1.89062 2.65314C1.5 3.34064 1.25 4.04376 1.25 4.62189C1.25 6.23126 2.45312 7.45001 4 7.45001C5.51562 7.45001 6.75 6.23126 6.75 4.62189C6.75 4.16876 6.57812 3.55939 6.29688 2.96564C6.04688 2.40314 5.71875 1.90314 5.40625 1.57501C5.34375 1.65314 5.26562 1.76251 5.17188 1.87189C5.14062 1.93439 5.09375 1.99689 5.04688 2.05939C4.98438 2.15314 4.90625 2.26251 4.85938 2.32501C4.79688 2.41876 4.6875 2.46564 4.5625 2.48126C4.45312 2.48126 4.34375 2.41876 4.26562 2.32501C4.21875 2.26251 4.15625 2.18439 4.09375 2.12189C3.79688 1.73126 3.45312 1.29376 3.15625 0.996887C2.73438 1.40314 2.26562 1.99689 1.89062 2.65314ZM3.60938 0.387512C3.90625 0.668762 4.25 1.09064 4.54688 1.46564L4.5625 1.45001C4.67188 1.27814 4.8125 1.09064 4.9375 0.965637C5.20312 0.731262 5.59375 0.731262 5.85938 0.965637C6.26562 1.37189 6.67188 1.99689 6.96875 2.65314C7.28125 3.29376 7.5 4.01251 7.5 4.62189C7.5 6.63751 5.9375 8.20001 4 8.20001C2.03125 8.20001 0.5 6.62189 0.5 4.62189C0.5 3.84064 0.8125 3.01251 1.23438 2.27814C1.65625 1.54376 2.20312 0.856262 2.70312 0.387512C2.96875 0.153137 3.35938 0.153137 3.60938 0.387512ZM4.01562 6.70001C3.03125 6.70001 2.25 6.07501 2.23438 4.99689C2.23438 4.52814 2.5 4.10626 3.03125 3.45001C3.14062 3.32501 3.32812 3.32501 3.42188 3.45001C3.6875 3.77814 4.14062 4.37189 4.40625 4.70001C4.5 4.82501 4.6875 4.82501 4.78125 4.70001L5.1875 4.24689C5.28125 4.12189 5.46875 4.13751 5.53125 4.27814C5.92188 4.99689 5.75 5.91876 5.09375 6.37189C4.76562 6.59064 4.42188 6.70001 4.01562 6.70001Z" fill="black"/>
</svg>
