<svg width="8" height="8" viewBox="0 0 8 8" fill="none" xmlns="http://www.w3.org/2000/svg">
<path d="M1.89062 2.44499C1.5 3.1335 1.25 3.83765 1.25 4.41663C1.25 6.02836 2.45312 7.2489 4 7.2489C5.51562 7.2489 6.75 6.02836 6.75 4.41663C6.75 3.96284 6.57812 3.35257 6.29688 2.75795C6.04688 2.19462 5.71875 1.69389 5.40625 1.36528C5.34375 1.44352 5.26562 1.55306 5.17188 1.66259C5.14062 1.72518 5.09375 1.78778 5.04688 1.85037C4.98438 1.94425 4.90625 2.05379 4.85938 2.11638C4.79688 2.21027 4.6875 2.25721 4.5625 2.27286C4.45312 2.27286 4.34375 2.21027 4.26562 2.11638C4.21875 2.05379 4.15625 1.97555 4.09375 1.91296C3.79688 1.52176 3.45312 1.08362 3.15625 0.786308C2.73438 1.19315 2.26562 1.78778 1.89062 2.44499ZM3.60938 0.176039C3.90625 0.457702 4.25 0.880196 4.54688 1.25575L4.5625 1.2401C4.67188 1.06797 4.8125 0.880196 4.9375 0.755012C5.20312 0.520293 5.59375 0.520293 5.85938 0.755012C6.26562 1.16186 6.67188 1.78778 6.96875 2.44499C7.28125 3.08655 7.5 3.80636 7.5 4.41663C7.5 6.43521 5.9375 8 4 8C2.03125 8 0.5 6.41956 0.5 4.41663C0.5 3.63423 0.8125 2.80489 1.23438 2.06944C1.65625 1.33399 2.20312 0.645477 2.70312 0.176039C2.96875 -0.0586797 3.35938 -0.0586797 3.60938 0.176039ZM4.01562 6.4978C3.03125 6.4978 2.25 5.87188 2.23438 4.79218C2.23438 4.32274 2.5 3.90024 3.03125 3.24303C3.14062 3.11785 3.32812 3.11785 3.42188 3.24303C3.6875 3.57164 4.14062 4.16626 4.40625 4.49487C4.5 4.62005 4.6875 4.62005 4.78125 4.49487L5.1875 4.04108C5.28125 3.91589 5.46875 3.93154 5.53125 4.07237C5.92188 4.79218 5.75 5.7154 5.09375 6.16919C4.76562 6.38826 4.42188 6.4978 4.01562 6.4978Z" fill="white"/>
</svg>
