<svg width="6" height="9" viewBox="0 0 6 9" fill="none" xmlns="http://www.w3.org/2000/svg">
<path d="M3.26562 0.740601C4.40625 1.8031 5.26562 3.1156 5.79688 4.58435L5.8125 4.6156C5.9375 4.94373 6 5.28748 6 5.63123C6 7.27185 4.64062 8.59998 3 8.59998C1.34375 8.59998 0 7.27185 0 5.63123C0 5.28748 0.046875 4.94373 0.171875 4.6156L0.1875 4.58435L0.890625 4.83435L0.875 4.8656C0.78125 5.1156 0.75 5.3656 0.75 5.63123C0.75 6.84998 1.75 7.84998 3 7.84998C4.23438 7.84998 5.25 6.84998 5.25 5.63123C5.25 5.3656 5.20312 5.1156 5.10938 4.8656L5.76562 4.63123L5.10938 4.8656L5.09375 4.83435C4.64062 3.59998 3.92188 2.45935 3 1.52185C2.0625 2.45935 1.34375 3.59998 0.890625 4.83435L0.1875 4.58435C0.71875 3.1156 1.59375 1.8031 2.71875 0.740601L2.78125 0.693726C2.82812 0.631226 2.90625 0.599976 3 0.599976C3.07812 0.599976 3.15625 0.631226 3.20312 0.693726L3.26562 0.740601ZM2.95312 3.16248C2.98438 3.13123 3.01562 3.09998 3.0625 3.09998C3.14062 3.09998 3.20312 3.1781 3.20312 3.25623V3.41248C3.20312 3.53748 3.25 3.66248 3.34375 3.7406L4.03125 4.44373C4.32812 4.75623 4.5 5.16248 4.5 5.58435V5.59998C4.5 6.4281 3.82812 7.09998 3 7.09998C2.17188 7.09998 1.5 6.4281 1.5 5.59998V5.4281C1.5 5.14685 1.59375 4.8656 1.78125 4.64685L1.875 4.53748C1.90625 4.50623 1.95312 4.47498 1.98438 4.47498C2.0625 4.47498 2.14062 4.5531 2.14062 4.63123V5.27185C2.14062 5.59998 2.40625 5.84998 2.71875 5.84998C3.04688 5.84998 3.3125 5.59998 3.3125 5.27185V5.2406C3.3125 5.08435 3.25 4.9281 3.14062 4.81873L2.96875 4.64685C2.78125 4.44373 2.67188 4.1781 2.67188 3.89685C2.67188 3.6781 2.73438 3.45935 2.875 3.27185L2.95312 3.16248Z" fill="white"/>
</svg>
