<svg width="8" height="8" viewBox="0 0 8 8" fill="none" xmlns="http://www.w3.org/2000/svg">
<path d="M3.25 0.900024C3.45312 0.900024 3.625 1.0719 3.625 1.27502V2.65002C3.625 3.22815 3.79688 3.77502 4.14062 4.22815L4.4375 4.6344C4.875 5.21252 5.125 5.93127 5.125 6.65002V7.52502C5.125 7.74377 4.95312 7.90002 4.75 7.90002C4.53125 7.90002 4.375 7.74377 4.375 7.52502V6.65002C4.375 6.08752 4.1875 5.54065 3.84375 5.08752L3.54688 4.68127C3.10938 4.10315 2.875 3.3844 2.875 2.65002V1.27502C2.875 1.0719 3.03125 0.900024 3.25 0.900024ZM0.875 1.90002C1.07812 1.90002 1.25 2.0719 1.25 2.27502V2.86877C1.25 3.40002 1.39062 3.90002 1.6875 4.33752L2.17188 5.0719C2.54688 5.61877 2.75 6.27502 2.75 6.9469V7.52502C2.75 7.74377 2.57812 7.90002 2.375 7.90002C2.15625 7.90002 2 7.74377 2 7.52502V6.9469C2 6.41565 1.84375 5.91565 1.54688 5.47815L1.0625 4.74377C0.6875 4.1969 0.5 3.54065 0.5 2.86877V2.27502C0.5 2.0719 0.65625 1.90002 0.875 1.90002ZM6 2.27502V2.86877C6 3.40002 6.14062 3.90002 6.4375 4.33752L6.92188 5.0719C7.29688 5.61877 7.5 6.27502 7.5 6.9469V7.52502C7.5 7.74377 7.32812 7.90002 7.125 7.90002C6.90625 7.90002 6.75 7.74377 6.75 7.52502V6.9469C6.75 6.41565 6.59375 5.91565 6.29688 5.47815L5.8125 4.74377C5.4375 4.1969 5.25 3.54065 5.25 2.86877V2.27502C5.25 2.0719 5.40625 1.90002 5.625 1.90002C5.82812 1.90002 6 2.0719 6 2.27502Z" fill="black"/>
</svg>
