<svg width="8" height="8" viewBox="0 0 8 8" fill="none" xmlns="http://www.w3.org/2000/svg">
<path d="M3.14286 0C3.375 0 3.57143 0.196429 3.57143 0.428571V2C3.57143 2.66071 3.76786 3.28571 4.16071 3.80357L4.5 4.26786C5 4.92857 5.28571 5.75 5.28571 6.57143V7.57143C5.28571 7.82143 5.08929 8 4.85714 8C4.60714 8 4.42857 7.82143 4.42857 7.57143V6.57143C4.42857 5.92857 4.21429 5.30357 3.82143 4.78571L3.48214 4.32143C2.98214 3.66071 2.71429 2.83929 2.71429 2V0.428571C2.71429 0.196429 2.89286 0 3.14286 0ZM0.428571 1.14286C0.660714 1.14286 0.857143 1.33929 0.857143 1.57143V2.25C0.857143 2.85714 1.01786 3.42857 1.35714 3.92857L1.91071 4.76786C2.33929 5.39286 2.57143 6.14286 2.57143 6.91071V7.57143C2.57143 7.82143 2.375 8 2.14286 8C1.89286 8 1.71429 7.82143 1.71429 7.57143V6.91071C1.71429 6.30357 1.53571 5.73214 1.19643 5.23214L0.642857 4.39286C0.214286 3.76786 0 3.01786 0 2.25V1.57143C0 1.33929 0.178571 1.14286 0.428571 1.14286ZM6.28571 1.57143V2.25C6.28571 2.85714 6.44643 3.42857 6.78571 3.92857L7.33929 4.76786C7.76786 5.39286 8 6.14286 8 6.91071V7.57143C8 7.82143 7.80357 8 7.57143 8C7.32143 8 7.14286 7.82143 7.14286 7.57143V6.91071C7.14286 6.30357 6.96429 5.73214 6.625 5.23214L6.07143 4.39286C5.64286 3.76786 5.42857 3.01786 5.42857 2.25V1.57143C5.42857 1.33929 5.60714 1.14286 5.85714 1.14286C6.08929 1.14286 6.28571 1.33929 6.28571 1.57143Z" fill="black"/>
</svg>
