<svg width="8" height="8" viewBox="0 0 8 8" fill="none" xmlns="http://www.w3.org/2000/svg">
<path d="M4.375 0.674988V1.00311L6 0.799988C6.26562 0.799988 6.5 1.03436 6.5 1.29999C6.5 1.58124 6.26562 1.79999 6 1.79999L4.375 1.59686V2.79999H7.25V2.67499C7.25 2.47186 7.40625 2.29999 7.625 2.29999C7.82812 2.29999 8 2.47186 8 2.67499V3.17499V6.42499V6.92499C8 7.14374 7.82812 7.29999 7.625 7.29999C7.40625 7.29999 7.25 7.14374 7.25 6.92499V6.79999H0.75V6.92499C0.75 7.14374 0.578125 7.29999 0.375 7.29999C0.15625 7.29999 0 7.14374 0 6.92499V6.42499V3.17499V2.67499C0 2.47186 0.15625 2.29999 0.375 2.29999C0.578125 2.29999 0.75 2.47186 0.75 2.67499V2.79999H3.625V1.59686L2 1.79999C1.71875 1.79999 1.5 1.58124 1.5 1.29999C1.5 1.03436 1.71875 0.799988 2 0.799988L3.625 1.00311V0.674988C3.625 0.471863 3.78125 0.299988 4 0.299988C4.20312 0.299988 4.375 0.471863 4.375 0.674988ZM0.75 6.04999H7.25V3.54999H4H0.75V6.04999Z" fill="white"/>
</svg>
