<svg width="8" height="8" viewBox="0 0 8 8" fill="none" xmlns="http://www.w3.org/2000/svg">
<path d="M4.375 0.875V1.20312L6 1C6.26562 1 6.5 1.23438 6.5 1.5C6.5 1.78125 6.26562 2 6 2L4.375 1.79688V3H7.25V2.875C7.25 2.67188 7.40625 2.5 7.625 2.5C7.82812 2.5 8 2.67188 8 2.875V3.375V6.625V7.125C8 7.34375 7.82812 7.5 7.625 7.5C7.40625 7.5 7.25 7.34375 7.25 7.125V7H0.75V7.125C0.75 7.34375 0.578125 7.5 0.375 7.5C0.15625 7.5 0 7.34375 0 7.125V6.625V3.375V2.875C0 2.67188 0.15625 2.5 0.375 2.5C0.578125 2.5 0.75 2.67188 0.75 2.875V3H3.625V1.79688L2 2C1.71875 2 1.5 1.78125 1.5 1.5C1.5 1.23438 1.71875 1 2 1L3.625 1.20312V0.875C3.625 0.671875 3.78125 0.5 4 0.5C4.20312 0.5 4.375 0.671875 4.375 0.875ZM0.75 6.25H7.25V3.75H4H0.75V6.25Z" fill="white"/>
</svg>
