<svg width="8" height="8" viewBox="0 0 8 8" fill="none" xmlns="http://www.w3.org/2000/svg">
<path d="M1.11945 1.1075C1.2444 0.964167 1.42489 0.964167 1.54985 1.1075C1.85529 1.39416 2.2718 1.63305 2.66055 1.63305C3.06318 1.63305 3.47969 1.39416 3.77125 1.1075C3.91009 0.964167 4.09058 0.964167 4.21553 1.1075C4.52098 1.39416 4.93749 1.63305 5.32624 1.63305C5.72887 1.63305 6.14538 1.39416 6.43694 1.1075C6.5619 0.964167 6.75627 0.964167 6.88122 1.1075C7.11725 1.34638 7.43658 1.52157 7.74202 1.60119C7.90862 1.64897 8.03358 1.85601 7.99193 2.06304C7.95028 2.27007 7.76979 2.39748 7.5893 2.3497C7.18667 2.25415 6.86734 2.03119 6.65908 1.87193C6.27034 2.17452 5.81217 2.4134 5.32624 2.4134C4.85419 2.4134 4.38214 2.17452 3.99339 1.87193C3.60465 2.17452 3.14648 2.4134 2.66055 2.4134C2.1885 2.4134 1.71645 2.17452 1.3277 1.87193C1.13333 2.03119 0.80012 2.25415 0.411374 2.3497C0.230884 2.39748 0.050395 2.27007 0.00874358 2.06304C-0.0329078 1.85601 0.0781626 1.64897 0.258652 1.60119C0.577979 1.52157 0.869539 1.33046 1.11945 1.1075ZM1.11945 5.69409C1.2444 5.55076 1.42489 5.55076 1.54985 5.69409C1.85529 5.98076 2.2718 6.21964 2.66055 6.21964C3.06318 6.21964 3.47969 5.98076 3.77125 5.69409C3.91009 5.55076 4.09058 5.55076 4.21553 5.69409C4.52098 5.98076 4.93749 6.21964 5.32624 6.21964C5.72887 6.21964 6.14538 5.98076 6.43694 5.69409C6.5619 5.55076 6.75627 5.55076 6.88122 5.69409C7.11725 5.93298 7.43658 6.10816 7.74202 6.18779C7.90862 6.23557 8.03358 6.4426 7.99193 6.64963C7.95028 6.85667 7.76979 6.98407 7.5893 6.9363C7.18667 6.84074 6.86734 6.61778 6.65908 6.45853C6.27034 6.76111 5.81217 7 5.32624 7C4.85419 7 4.38214 6.76111 3.99339 6.45853C3.60465 6.76111 3.14648 7 2.66055 7C2.1885 7 1.71645 6.76111 1.3277 6.45853C1.13333 6.61778 0.80012 6.84074 0.411374 6.9363C0.230884 6.98407 0.050395 6.85667 0.00874358 6.64963C-0.0329078 6.4426 0.0781626 6.23557 0.258652 6.18779C0.564095 6.10816 0.869539 5.93298 1.10556 5.69409H1.11945ZM1.54985 3.4008C1.85529 3.68746 2.2718 3.92634 2.66055 3.92634C3.06318 3.92634 3.47969 3.68746 3.77125 3.4008C3.91009 3.25747 4.09058 3.25747 4.21553 3.4008C4.52098 3.68746 4.93749 3.92634 5.32624 3.92634C5.72887 3.92634 6.14538 3.68746 6.43694 3.4008C6.5619 3.25747 6.75627 3.25747 6.88122 3.4008C7.11725 3.63968 7.43658 3.81486 7.74202 3.89449C7.90862 3.94227 8.03358 4.1493 7.99193 4.35634C7.95028 4.56337 7.76979 4.69078 7.5893 4.643C7.18667 4.54745 6.86734 4.32449 6.65908 4.16523C6.27034 4.46782 5.81217 4.7067 5.32624 4.7067C4.85419 4.7067 4.38214 4.46782 3.99339 4.16523C3.60465 4.46782 3.14648 4.7067 2.66055 4.7067C2.1885 4.7067 1.71645 4.46782 1.3277 4.16523C1.13333 4.32449 0.80012 4.54745 0.411374 4.643C0.230884 4.69078 0.050395 4.56337 0.00874358 4.35634C-0.0329078 4.1493 0.0781626 3.94227 0.258652 3.89449C0.564095 3.81486 0.869539 3.63968 1.10556 3.4008C1.23052 3.27339 1.42489 3.27339 1.54985 3.4008Z" fill="white"/>
</svg>
