<svg width="10" height="7" viewBox="0 0 10 7" fill="none" xmlns="http://www.w3.org/2000/svg">
<path d="M1.75 0.234375C1.89062 0.09375 2.09375 0.09375 2.23438 0.234375C2.57812 0.515625 3.04688 0.75 3.48438 0.75C3.9375 0.75 4.40625 0.515625 4.73438 0.234375C4.89062 0.09375 5.09375 0.09375 5.23438 0.234375C5.57812 0.515625 6.04688 0.75 6.48438 0.75C6.9375 0.75 7.40625 0.515625 7.73438 0.234375C7.875 0.09375 8.09375 0.09375 8.23438 0.234375C8.5 0.46875 8.85938 0.640625 9.20312 0.71875C9.39062 0.765625 9.53125 0.96875 9.48438 1.17188C9.4375 1.375 9.23438 1.5 9.03125 1.45312C8.57812 1.35938 8.21875 1.14062 7.98438 0.984375C7.54688 1.28125 7.03125 1.51562 6.48438 1.51562C5.95312 1.51562 5.42188 1.28125 4.98438 0.984375C4.54688 1.28125 4.03125 1.51562 3.48438 1.51562C2.95312 1.51562 2.42188 1.28125 1.98438 0.984375C1.76562 1.14062 1.39062 1.35938 0.953125 1.45312C0.75 1.5 0.546875 1.375 0.5 1.17188C0.453125 0.96875 0.578125 0.765625 0.78125 0.71875C1.14062 0.640625 1.46875 0.453125 1.75 0.234375ZM1.75 4.73438C1.89062 4.59375 2.09375 4.59375 2.23438 4.73438C2.57812 5.01562 3.04688 5.25 3.48438 5.25C3.9375 5.25 4.40625 5.01562 4.73438 4.73438C4.89062 4.59375 5.09375 4.59375 5.23438 4.73438C5.57812 5.01562 6.04688 5.25 6.48438 5.25C6.9375 5.25 7.40625 5.01562 7.73438 4.73438C7.875 4.59375 8.09375 4.59375 8.23438 4.73438C8.5 4.96875 8.85938 5.14062 9.20312 5.21875C9.39062 5.26562 9.53125 5.46875 9.48438 5.67188C9.4375 5.875 9.23438 6 9.03125 5.95312C8.57812 5.85938 8.21875 5.64062 7.98438 5.48438C7.54688 5.78125 7.03125 6.01562 6.48438 6.01562C5.95312 6.01562 5.42188 5.78125 4.98438 5.48438C4.54688 5.78125 4.03125 6.01562 3.48438 6.01562C2.95312 6.01562 2.42188 5.78125 1.98438 5.48438C1.76562 5.64062 1.39062 5.85938 0.953125 5.95312C0.75 6 0.546875 5.875 0.5 5.67188C0.453125 5.46875 0.578125 5.26562 0.78125 5.21875C1.125 5.14062 1.46875 4.96875 1.73438 4.73438H1.75ZM2.23438 2.48438C2.57812 2.76562 3.04688 3 3.48438 3C3.9375 3 4.40625 2.76562 4.73438 2.48438C4.89062 2.34375 5.09375 2.34375 5.23438 2.48438C5.57812 2.76562 6.04688 3 6.48438 3C6.9375 3 7.40625 2.76562 7.73438 2.48438C7.875 2.34375 8.09375 2.34375 8.23438 2.48438C8.5 2.71875 8.85938 2.89062 9.20312 2.96875C9.39062 3.01562 9.53125 3.21875 9.48438 3.42188C9.4375 3.625 9.23438 3.75 9.03125 3.70312C8.57812 3.60938 8.21875 3.39062 7.98438 3.23438C7.54688 3.53125 7.03125 3.76562 6.48438 3.76562C5.95312 3.76562 5.42188 3.53125 4.98438 3.23438C4.54688 3.53125 4.03125 3.76562 3.48438 3.76562C2.95312 3.76562 2.42188 3.53125 1.98438 3.23438C1.76562 3.39062 1.39062 3.60938 0.953125 3.70312C0.75 3.75 0.546875 3.625 0.5 3.42188C0.453125 3.21875 0.578125 3.01562 0.78125 2.96875C1.125 2.89062 1.46875 2.71875 1.73438 2.48438C1.875 2.35938 2.09375 2.35938 2.23438 2.48438Z" fill="white"/>
</svg>
