<svg width="8" height="8" viewBox="0 0 8 8" fill="none" xmlns="http://www.w3.org/2000/svg">
<path d="M1.39062 6.60938C1.51562 6.73438 1.89062 6.875 2.65625 6.60938C2.85938 6.54688 3.07812 6.45312 3.29688 6.34375C3 6.10938 2.70312 5.85938 2.42188 5.57812C2.14062 5.29688 1.89062 5 1.65625 4.70312C1.54688 4.92188 1.45312 5.14062 1.39062 5.34375C1.125 6.10938 1.26562 6.48438 1.39062 6.60938ZM1.1875 4C0.421875 2.71875 0.25 1.48438 0.859375 0.875C1.46875 0.265625 2.70312 0.4375 4 1.20312C5.28125 0.4375 6.51562 0.265625 7.125 0.875C7.73438 1.48438 7.5625 2.71875 6.79688 4C7.5625 5.29688 7.73438 6.53125 7.125 7.14062C6.51562 7.75 5.28125 7.57812 4 6.8125C2.70312 7.57812 1.46875 7.75 0.859375 7.14062C0.25 6.53125 0.421875 5.29688 1.1875 4ZM1.67188 3.3125C1.89062 3.01562 2.14062 2.71875 2.42188 2.4375C2.71875 2.15625 3 1.90625 3.29688 1.67188C3.07812 1.5625 2.85938 1.46875 2.65625 1.39062C1.89062 1.14062 1.51562 1.28125 1.39062 1.40625C1.26562 1.53125 1.125 1.89062 1.39062 2.65625C1.45312 2.875 1.54688 3.09375 1.67188 3.3125ZM4 2.09375C3.64062 2.34375 3.29688 2.64062 2.95312 2.96875C2.625 3.3125 2.32812 3.65625 2.09375 4C2.32812 4.35938 2.625 4.70312 2.95312 5.04688C3.29688 5.375 3.64062 5.67188 4 5.90625C4.34375 5.67188 4.6875 5.375 5.03125 5.04688C5.35938 4.70312 5.65625 4.35938 5.90625 4C5.65625 3.65625 5.35938 3.3125 5.03125 2.96875C4.6875 2.64062 4.34375 2.34375 4 2.09375ZM6.32812 3.3125C6.4375 3.09375 6.53125 2.875 6.59375 2.67188C6.85938 1.90625 6.71875 1.53125 6.59375 1.40625C6.46875 1.28125 6.09375 1.14062 5.32812 1.40625C5.125 1.46875 4.90625 1.5625 4.6875 1.67188C4.98438 1.90625 5.28125 2.15625 5.5625 2.4375C5.84375 2.71875 6.09375 3.01562 6.32812 3.3125ZM6.32812 4.70312C6.09375 5 5.84375 5.29688 5.5625 5.57812C5.28125 5.85938 4.98438 6.10938 4.6875 6.34375C4.90625 6.45312 5.125 6.54688 5.32812 6.60938C6.09375 6.875 6.46875 6.73438 6.59375 6.60938C6.71875 6.48438 6.85938 6.10938 6.59375 5.34375C6.53125 5.14062 6.4375 4.92188 6.32812 4.70312ZM3.5 4C3.5 3.73438 3.71875 3.5 4 3.5C4.26562 3.5 4.5 3.73438 4.5 4C4.5 4.28125 4.26562 4.5 4 4.5C3.71875 4.5 3.5 4.28125 3.5 4Z" fill="black"/>
</svg>
