<svg width="8" height="8" viewBox="0 0 8 8" fill="none" xmlns="http://www.w3.org/2000/svg">
<path d="M1.02787 6.97213C1.17068 7.11493 1.59909 7.27559 2.47377 6.97213C2.70583 6.90072 2.95574 6.79362 3.20565 6.66867C2.86649 6.40091 2.52733 6.1153 2.20601 5.79399C1.8847 5.47267 1.59909 5.13351 1.33133 4.79435C1.20638 5.04426 1.09928 5.29417 1.02787 5.52623C0.724414 6.40091 0.88507 6.82932 1.02787 6.97213ZM0.795817 3.99107C-0.0788629 2.52733 -0.27522 1.11713 0.420954 0.420954C1.11713 -0.27522 2.52733 -0.0788629 4.00893 0.795817C5.47267 -0.0788629 6.88287 -0.27522 7.57905 0.420954C8.27522 1.11713 8.07886 2.52733 7.20418 3.99107C8.07886 5.47267 8.27522 6.88287 7.57905 7.57905C6.88287 8.27522 5.47267 8.07886 4.00893 7.20418C2.52733 8.07886 1.11713 8.27522 0.420954 7.57905C-0.27522 6.88287 -0.0788629 5.47267 0.795817 3.99107ZM1.34919 3.20565C1.59909 2.86649 1.8847 2.52733 2.20601 2.20601C2.54518 1.8847 2.86649 1.59909 3.20565 1.33133C2.95574 1.20638 2.70583 1.09928 2.47377 1.01002C1.59909 0.724414 1.17068 0.88507 1.02787 1.02787C0.88507 1.17068 0.724414 1.58124 1.02787 2.45592C1.09928 2.70583 1.20638 2.95574 1.34919 3.20565ZM4.00893 1.8133C3.59836 2.09891 3.20565 2.43807 2.81293 2.81293C2.43807 3.20565 2.09891 3.59836 1.83115 3.99107C2.09891 4.40164 2.43807 4.79435 2.81293 5.18707C3.20565 5.56193 3.59836 5.90109 4.00893 6.16885C4.40164 5.90109 4.79435 5.56193 5.18707 5.18707C5.56193 4.79435 5.90109 4.40164 6.1867 3.99107C5.90109 3.59836 5.56193 3.20565 5.18707 2.81293C4.79435 2.43807 4.40164 2.09891 4.00893 1.8133ZM6.66867 3.20565C6.79362 2.95574 6.90072 2.70583 6.97213 2.47377C7.27559 1.59909 7.11493 1.17068 6.97213 1.02787C6.82932 0.88507 6.40091 0.724414 5.52623 1.02787C5.29417 1.09928 5.04426 1.20638 4.79435 1.33133C5.13351 1.59909 5.47267 1.8847 5.79399 2.20601C6.1153 2.52733 6.40091 2.86649 6.66867 3.20565ZM6.66867 4.79435C6.40091 5.13351 6.1153 5.47267 5.79399 5.79399C5.47267 6.1153 5.13351 6.40091 4.79435 6.66867C5.04426 6.79362 5.29417 6.90072 5.52623 6.97213C6.40091 7.27559 6.82932 7.11493 6.97213 6.97213C7.11493 6.82932 7.27559 6.40091 6.97213 5.52623C6.90072 5.29417 6.79362 5.04426 6.66867 4.79435ZM3.43771 3.99107C3.43771 3.68761 3.68761 3.41986 4.00893 3.41986C4.31239 3.41986 4.58014 3.68761 4.58014 3.99107C4.58014 4.31239 4.31239 4.56229 4.00893 4.56229C3.68761 4.56229 3.43771 4.31239 3.43771 3.99107Z" fill="black"/>
</svg>
