<svg width="8" height="8" viewBox="0 0 8 8" fill="none" xmlns="http://www.w3.org/2000/svg">
<path d="M4 7.25C5.23438 7.25 6.25 6.25 6.25 5C6.25 4.8125 6.15625 4.48438 5.98438 4.04688C5.79688 3.64062 5.54688 3.1875 5.26562 2.73438C4.8125 2 4.3125 1.3125 4 0.90625C3.67188 1.3125 3.17188 2 2.71875 2.73438C2.4375 3.1875 2.1875 3.64062 2.01562 4.04688C1.82812 4.48438 1.75 4.79688 1.75 5C1.75 6.25 2.75 7.25 4 7.25ZM1 5C1 3.57812 3.03125 0.90625 3.59375 0.1875C3.6875 0.078125 3.82812 0 3.98438 0H4C4.15625 0 4.29688 0.078125 4.39062 0.1875C4.95312 0.90625 7 3.57812 7 5C7 6.65625 5.65625 8 4 8C2.34375 8 1 6.65625 1 5ZM3.25 4.875C3.25 5.35938 3.64062 5.75 4.125 5.75C4.32812 5.75 4.5 5.92188 4.5 6.125C4.5 6.34375 4.32812 6.5 4.125 6.5C3.21875 6.5 2.5 5.78125 2.5 4.875C2.5 4.67188 2.65625 4.5 2.875 4.5C3.07812 4.5 3.25 4.67188 3.25 4.875Z" fill="black"/>
</svg>
