<svg width="10" height="9" viewBox="0 0 10 9" fill="none" xmlns="http://www.w3.org/2000/svg">
<path d="M8.03125 2.15625C7.95312 1.89062 7.67188 1.73438 7.40625 1.8125L8.3125 5.1875C8.57812 5.10938 8.75 4.84375 8.67188 4.57812L8.03125 2.15625ZM7.21875 1.07812C7.89062 0.90625 8.5625 1.29688 8.75 1.96875L9.39062 4.375C9.57812 5.04688 9.17188 5.73438 8.51562 5.90625L8.26562 5.96875C8 6.04688 7.73438 5.89062 7.65625 5.625L7.23438 4.03125L2 5.39062V8.25H2.6875L3.59375 5.60938L4.45312 5.375L4.07812 6.5H5.42188L4.98438 5.25L5.71875 5.0625L6.8125 8.25H9.125C9.32812 8.25 9.5 8.42188 9.5 8.625C9.5 8.84375 9.32812 9 9.125 9H0.875C0.65625 9 0.5 8.84375 0.5 8.625C0.5 8.42188 0.65625 8.25 0.875 8.25H1.25V3.875C1.25 3.67188 1.40625 3.5 1.625 3.5C1.82812 3.5 2 3.67188 2 3.875V4.60938L4.10938 4.0625L4.39062 3.26562C4.4375 3.10938 4.57812 3 4.75 3C4.90625 3 5.04688 3.10938 5.09375 3.26562L5.26562 3.76562L7.03125 3.3125L6.625 1.75C6.54688 1.48438 6.70312 1.21875 6.96875 1.14062L7.21875 1.07812ZM6.01562 8.25L5.67188 7.25H3.8125L3.46875 8.25H6.01562Z" fill="black"/>
</svg>
