<svg width="10" height="10" viewBox="0 0 10 10" fill="none" xmlns="http://www.w3.org/2000/svg">
<path d="M6.85938 1.3125L7.14062 2.85938L8.6875 3.14062C8.8125 3.15625 8.92188 3.25 8.96875 3.35938C9.01562 3.48438 9 3.60938 8.92188 3.71875L8.03125 5L8.92188 6.29688C9 6.40625 9.01562 6.53125 8.96875 6.65625C8.92188 6.76562 8.8125 6.85938 8.6875 6.875L7.14062 7.15625L6.85938 8.70312C6.84375 8.82812 6.75 8.9375 6.64062 8.98438C6.51562 9.03125 6.39062 9.01562 6.28125 8.9375L5 8.04688L3.70312 8.9375C3.59375 9.01562 3.46875 9.03125 3.34375 8.98438C3.23438 8.92188 3.14062 8.82812 3.125 8.70312L2.84375 7.15625L1.29688 6.875C1.17188 6.85938 1.0625 6.76562 1.01562 6.65625C0.96875 6.53125 0.984375 6.40625 1.0625 6.29688L1.95312 5L1.0625 3.71875C0.984375 3.60938 0.96875 3.48438 1.01562 3.35938C1.07812 3.25 1.17188 3.15625 1.29688 3.14062L2.84375 2.85938L3.125 1.3125C3.14062 1.1875 3.23438 1.07812 3.34375 1.03125C3.46875 0.984375 3.59375 1 3.70312 1.07812L5 1.96875L6.28125 1.07812C6.39062 1 6.51562 0.984375 6.64062 1.03125C6.75 1.07812 6.84375 1.1875 6.85938 1.3125ZM5.20312 2.71875C5.07812 2.8125 4.90625 2.8125 4.78125 2.71875L3.75 2.01562L3.53125 3.25C3.5 3.39062 3.375 3.51562 3.23438 3.54688L2 3.76562L2.71875 4.79688C2.79688 4.92188 2.79688 5.09375 2.71875 5.21875L2 6.25L3.23438 6.46875C3.375 6.5 3.5 6.625 3.53125 6.76562L3.75 8L4.78125 7.28125C4.90625 7.20312 5.07812 7.20312 5.20312 7.28125L6.23438 8L6.45312 6.76562C6.48438 6.625 6.60938 6.5 6.75 6.46875L7.98438 6.25L7.28125 5.21875C7.1875 5.09375 7.1875 4.92188 7.28125 4.79688L7.98438 3.76562L6.75 3.54688C6.60938 3.51562 6.48438 3.39062 6.45312 3.25L6.23438 2.01562L5.20312 2.71875ZM5 6.75C4.35938 6.75 3.79688 6.42188 3.48438 5.875C3.15625 5.34375 3.15625 4.67188 3.48438 4.125C3.79688 3.59375 4.35938 3.25 5 3.25C5.625 3.25 6.1875 3.59375 6.5 4.125C6.82812 4.67188 6.82812 5.34375 6.5 5.875C6.1875 6.42188 5.625 6.75 5 6.75ZM4 5C4 5.35938 4.1875 5.6875 4.5 5.875C4.79688 6.04688 5.1875 6.04688 5.5 5.875C5.79688 5.6875 6 5.35938 6 5C6 4.65625 5.79688 4.32812 5.5 4.14062C5.1875 3.96875 4.79688 3.96875 4.5 4.14062C4.1875 4.32812 4 4.65625 4 5Z" fill="black"/>
</svg>
