<svg width="8" height="8" viewBox="0 0 8 8" fill="none" xmlns="http://www.w3.org/2000/svg">
<path d="M5.86582 0.307392L6.14686 1.85313L7.69261 2.13418C7.81752 2.14979 7.92681 2.24347 7.97365 2.35277C8.02049 2.47768 8.00488 2.60259 7.92681 2.71188L7.03684 3.99219L7.92681 5.28812C8.00488 5.39741 8.02049 5.52232 7.97365 5.64723C7.92681 5.75653 7.81752 5.85021 7.69261 5.86582L6.14686 6.14686L5.86582 7.69261C5.85021 7.81752 5.75653 7.92681 5.64723 7.97365C5.52232 8.02049 5.39741 8.00488 5.28812 7.92681L4.00781 7.03684L2.71188 7.92681C2.60259 8.00488 2.47768 8.02049 2.35277 7.97365C2.24347 7.9112 2.14979 7.81752 2.13418 7.69261L1.85313 6.14686L0.307392 5.86582C0.182484 5.85021 0.0731886 5.75653 0.0263479 5.64723C-0.0204928 5.52232 -0.00487924 5.39741 0.0731886 5.28812L0.963162 3.99219L0.0731886 2.71188C-0.00487924 2.60259 -0.0204928 2.47768 0.0263479 2.35277C0.0888021 2.24347 0.182484 2.14979 0.307392 2.13418L1.85313 1.85313L2.13418 0.307392C2.14979 0.182484 2.24347 0.0731886 2.35277 0.0263479C2.47768 -0.0204928 2.60259 -0.00487924 2.71188 0.0731886L4.00781 0.963162L5.28812 0.0731886C5.39741 -0.00487924 5.52232 -0.0204928 5.64723 0.0263479C5.75653 0.0731886 5.85021 0.182484 5.86582 0.307392ZM4.21078 1.71261C4.08587 1.80629 3.91413 1.80629 3.78922 1.71261L2.75872 1.01L2.54013 2.24347C2.5089 2.384 2.384 2.5089 2.24347 2.54013L1.01 2.75872L1.72823 3.78922C1.80629 3.91413 1.80629 4.08587 1.72823 4.21078L1.01 5.24128L2.24347 5.45987C2.384 5.4911 2.5089 5.616 2.54013 5.75653L2.75872 6.99L3.78922 6.27177C3.91413 6.19371 4.08587 6.19371 4.21078 6.27177L5.24128 6.99L5.45987 5.75653C5.4911 5.616 5.616 5.4911 5.75653 5.45987L6.99 5.24128L6.28739 4.21078C6.19371 4.08587 6.19371 3.91413 6.28739 3.78922L6.99 2.75872L5.75653 2.54013C5.616 2.5089 5.4911 2.384 5.45987 2.24347L5.24128 1.01L4.21078 1.71261ZM4.00781 5.74091C3.36765 5.74091 2.80556 5.41303 2.49329 4.86655C2.16541 4.33569 2.16541 3.66431 2.49329 3.11783C2.80556 2.58697 3.36765 2.24347 4.00781 2.24347C4.63235 2.24347 5.19444 2.58697 5.50671 3.11783C5.83459 3.66431 5.83459 4.33569 5.50671 4.86655C5.19444 5.41303 4.63235 5.74091 4.00781 5.74091ZM3.00854 3.99219C3.00854 4.35131 3.1959 4.67919 3.50817 4.86655C3.80483 5.0383 4.19517 5.0383 4.50744 4.86655C4.8041 4.67919 5.00707 4.35131 5.00707 3.99219C5.00707 3.64869 4.8041 3.32081 4.50744 3.13345C4.19517 2.9617 3.80483 2.9617 3.50817 3.13345C3.1959 3.32081 3.00854 3.64869 3.00854 3.99219Z" fill="black"/>
</svg>
