<svg width="6" height="8" viewBox="0 0 6 8" fill="none" xmlns="http://www.w3.org/2000/svg">
<path d="M1.5 2.89996C1.5 3.11871 1.32812 3.27496 1.125 3.27496C0.90625 3.27496 0.75 3.11871 0.75 2.89996C0.75 1.80621 1.64062 0.899963 2.75 0.899963H3.23438C4.34375 0.899963 5.23438 1.80621 5.23438 2.89996V2.97809C5.23438 3.60309 4.92188 4.19684 4.40625 4.54059L3.59375 5.08746C3.45312 5.18121 3.375 5.33746 3.375 5.49371V5.52496C3.375 5.74371 3.20312 5.89996 3 5.89996C2.78125 5.89996 2.625 5.74371 2.625 5.52496V5.49371C2.625 5.08746 2.82812 4.69684 3.17188 4.46246L3.98438 3.91559C4.3125 3.71246 4.5 3.35309 4.5 2.97809V2.89996C4.5 2.21246 3.9375 1.64996 3.25 1.64996H2.75C2.04688 1.64996 1.5 2.21246 1.5 2.89996ZM3 7.89996C2.71875 7.89996 2.5 7.68121 2.5 7.39996C2.5 7.13434 2.71875 6.89996 3 6.89996C3.26562 6.89996 3.5 7.13434 3.5 7.39996C3.5 7.68121 3.26562 7.89996 3 7.89996Z" fill="black"/>
</svg>
