<svg width="8" height="8" viewBox="0 0 8 8" fill="none" xmlns="http://www.w3.org/2000/svg">
<path d="M2.50781 2.5C2.50781 2.71875 2.33594 2.875 2.13281 2.875C1.91406 2.875 1.75781 2.71875 1.75781 2.5C1.75781 1.40625 2.64844 0.5 3.75781 0.5H4.24219C5.35156 0.5 6.24219 1.40625 6.24219 2.5V2.57812C6.24219 3.20312 5.92969 3.79688 5.41406 4.14062L4.60156 4.6875C4.46094 4.78125 4.38281 4.9375 4.38281 5.09375V5.125C4.38281 5.34375 4.21094 5.5 4.00781 5.5C3.78906 5.5 3.63281 5.34375 3.63281 5.125V5.09375C3.63281 4.6875 3.83594 4.29688 4.17969 4.0625L4.99219 3.51562C5.32031 3.3125 5.50781 2.95312 5.50781 2.57812V2.5C5.50781 1.8125 4.94531 1.25 4.25781 1.25H3.75781C3.05469 1.25 2.50781 1.8125 2.50781 2.5ZM4.00781 7.5C3.72656 7.5 3.50781 7.28125 3.50781 7C3.50781 6.73438 3.72656 6.5 4.00781 6.5C4.27344 6.5 4.50781 6.73438 4.50781 7C4.50781 7.28125 4.27344 7.5 4.00781 7.5Z" fill="black"/>
</svg>
