<svg width="8" height="8" viewBox="0 0 8 8" fill="none" xmlns="http://www.w3.org/2000/svg">
<path d="M4.5 0.375C4.5 0.171875 4.65625 0 4.875 0H5.5625C6.34375 0 7 0.65625 7 1.4375C7 2.23438 6.34375 2.875 5.5625 2.875H0.375C0.15625 2.875 0 2.71875 0 2.5C0 2.29688 0.15625 2.125 0.375 2.125H5.5625C5.9375 2.125 6.25 1.82812 6.25 1.4375C6.25 1.0625 5.9375 0.75 5.5625 0.75H4.875C4.65625 0.75 4.5 0.59375 4.5 0.375ZM5.5 6.125C5.5 5.92188 5.65625 5.75 5.875 5.75H6.5625C6.9375 5.75 7.25 5.45312 7.25 5.0625C7.25 4.6875 6.9375 4.375 6.5625 4.375H0.375C0.15625 4.375 0 4.21875 0 4C0 3.79688 0.15625 3.625 0.375 3.625H6.5625C7.34375 3.625 8 4.28125 8 5.0625C8 5.85938 7.34375 6.5 6.5625 6.5H5.875C5.65625 6.5 5.5 6.34375 5.5 6.125ZM1.875 8C1.65625 8 1.5 7.84375 1.5 7.625C1.5 7.42188 1.65625 7.25 1.875 7.25H2.5625C2.9375 7.25 3.25 6.95312 3.25 6.5625C3.25 6.1875 2.9375 5.875 2.5625 5.875H0.375C0.15625 5.875 0 5.71875 0 5.5C0 5.29688 0.15625 5.125 0.375 5.125H2.5625C3.34375 5.125 4 5.78125 4 6.5625C4 7.35938 3.34375 8 2.5625 8H1.875Z" fill="black"/>
</svg>
