<svg width="330" height="330" viewBox="0 0 330 330" fill="none" xmlns="http://www.w3.org/2000/svg">
<path d="M315 0H34.847C34.844 0 34.84 0 34.837 0H15C6.716 0 0 6.716 0 15V255.22C0 263.504 6.716 270.22 15 270.22H149.988V300H99.994C91.71 300 84.994 306.716 84.994 315C84.994 323.284 91.71 330 99.994 330H229.996C238.28 330 244.996 323.284 244.996 315C244.996 306.716 238.28 300 229.996 300H179.988V270.22H315C323.284 270.22 330 263.504 330 255.22V15C330 6.716 323.284 0 315 0ZM30 180.22V31.371L123.763 125.135L68.678 180.22H30ZM174.422 74.475C174.421 74.477 174.419 74.478 174.418 74.479C174.417 74.48 174.416 74.482 174.414 74.483L144.976 103.922L71.055 30H218.897L174.422 74.475ZM185.024 106.299L258.944 180.22H111.104L185.024 106.299ZM300 178.851L206.237 85.085L261.322 30H300V178.851ZM30 240.22V210.22H300V240.22H30Z" fill="#979797"/>
</svg>
