<svg width="16" height="16" viewBox="0 0 16 16" fill="none" xmlns="http://www.w3.org/2000/svg">
<path d="M0.75 1C1.15625 1 1.5 1.34375 1.5 1.75V12.75C1.5 13.1875 1.8125 13.5 2.25 13.5H15.25C15.6562 13.5 16 13.8438 16 14.25C16 14.6875 15.6562 15 15.25 15H2.25C1 15 0 14 0 12.75V1.75C0 1.34375 0.3125 1 0.75 1ZM5.25 7C5.65625 7 6 7.34375 6 7.75V10.25C6 10.6875 5.65625 11 5.25 11C4.8125 11 4.5 10.6875 4.5 10.25V7.75C4.5 7.34375 4.8125 7 5.25 7ZM9 4.75V10.25C9 10.6875 8.65625 11 8.25 11C7.8125 11 7.5 10.6875 7.5 10.25V4.75C7.5 4.34375 7.8125 4 8.25 4C8.65625 4 9 4.34375 9 4.75ZM11.25 6C11.6562 6 12 6.34375 12 6.75V10.25C12 10.6875 11.6562 11 11.25 11C10.8125 11 10.5 10.6875 10.5 10.25V6.75C10.5 6.34375 10.8125 6 11.25 6ZM15 2.75V10.25C15 10.6875 14.6562 11 14.25 11C13.8125 11 13.5 10.6875 13.5 10.25V2.75C13.5 2.34375 13.8125 2 14.25 2C14.6562 2 15 2.34375 15 2.75Z" fill="black"/>
</svg>
