<?xml version="1.0" encoding="UTF-8"?>
<svg width="619px" height="120px" viewBox="0 0 619 120" version="1.1" xmlns="http://www.w3.org/2000/svg" xmlns:xlink="http://www.w3.org/1999/xlink">
    <!-- Generator: Sketch 52.6 (67491) - http://www.bohemiancoding.com/sketch -->
    <title>Tomorrow Logo White Copy</title>
    <desc>Created with Sketch.</desc>
    <g id="Tomorrow-Logo-White-Copy" stroke="none" stroke-width="1" fill="none" fill-rule="evenodd">
        <g id="Group" transform="translate(116.500000, 29.000000)" fill="#000000">
            <g id="Logo-with-Symbol" transform="translate(112.250000, 0.500000)">
                <path d="M30.8328215,60.2297044 C14.2104736,60.2297044 0.735398187,46.754629 0.735398187,30.1322811 C0.735398187,13.5099332 14.2104736,0.0348577315 30.8328215,0.0348577315 C47.4551695,0.0348577315 60.9302449,13.5099332 60.9302449,30.1322811 C60.9302449,46.754629 47.4551695,60.2297044 30.8328215,60.2297044 Z M30.8328215,39.1999352 C42.1552416,39.1999352 48.9098861,46.0614522 48.9133243,46.0632407 C52.6582352,41.8163162 54.9302449,36.2396268 54.9302449,30.1322811 C54.9302449,16.8236417 44.141461,6.03485773 30.8328215,6.03485773 C17.5241821,6.03485773 6.73539819,16.8236417 6.73539819,30.1322811 C6.73539819,36.2550179 9.01887372,41.8444204 12.7806595,46.0953234 C12.8031775,46.1207692 12.8257484,46.1461671 12.8483722,46.1715168 C12.8530421,46.1767494 19.5104014,39.1999352 30.8328215,39.1999352 Z" id="TomorrowSymbol" fill-rule="nonzero"></path>
                <path d="M105.477526,42.2760394 C103.263881,42.2760394 101.316723,41.8486556 99.6359929,40.9938753 C97.9552627,40.1390949 96.6571573,38.9247822 95.7416375,37.3509009 C94.8261178,35.7770196 94.3683649,33.9318071 94.3683649,31.815208 C94.3683649,29.698609 94.8261178,27.8601804 95.7416375,26.299867 C96.6571573,24.7395536 97.9484306,23.5388087 99.6154963,22.6975963 C101.282562,21.8563838 103.236552,21.4357839 105.477526,21.4357839 C107.7185,21.4357839 109.67249,21.8563838 111.339556,22.6975963 C113.006621,23.5388087 114.297895,24.7395536 115.213415,26.299867 C116.128934,27.8601804 116.586687,29.698609 116.586687,31.815208 C116.586687,33.9318071 116.128934,35.7770196 115.213415,37.3509009 C114.297895,38.9247822 113.006621,40.1390949 111.339556,40.9938753 C109.67249,41.8486556 107.7185,42.2760394 105.477526,42.2760394 Z M105.477526,36.8624574 C108.073776,36.8624574 109.371881,35.1800578 109.371881,31.815208 C109.371881,28.4503583 108.073776,26.7679587 105.477526,26.7679587 C102.881276,26.7679587 101.583171,28.4503583 101.583171,31.815208 C101.583171,35.1800578 102.881276,36.8624574 105.477526,36.8624574 Z M145.650876,21.4357839 C147.864521,21.4357839 149.572555,22.0938193 150.775028,23.4099097 C151.977502,24.7260001 152.57873,26.9443254 152.57873,30.0649522 L152.57873,41.4298192 C152.57873,42.5423905 145.281938,42.5423905 145.281938,41.4298192 L145.281938,29.9021377 C145.281938,28.8167023 145.090638,28.0569089 144.708033,27.6227348 C144.325427,27.1885606 143.765192,26.9714768 143.027311,26.9714768 C142.070798,26.9714768 141.305599,27.3106703 140.731691,27.9890674 C140.157783,28.6674645 139.870833,29.6036385 139.870833,30.7976174 L139.870833,41.4298192 C139.870833,42.5423905 132.574041,42.5423905 132.574041,41.4298192 L132.574041,29.9021377 C132.574041,28.8167023 132.382741,28.0569089 132.000136,27.6227348 C131.617531,27.1885606 131.057296,26.9714768 130.319414,26.9714768 C129.362901,26.9714768 128.604534,27.3106703 128.044291,27.9890674 C127.484047,28.6674645 127.20393,29.6036385 127.20393,30.7976174 L127.20393,41.4298192 C127.20393,42.5423905 119.907138,42.5423905 119.907138,41.4298192 L119.907138,24.7734811 C119.907138,23.7151816 120.269241,22.9079011 120.993458,22.3516155 C121.717675,21.7953298 122.585356,21.5171912 123.596527,21.5171912 C124.55304,21.5171912 125.3524,21.7681943 125.99463,22.2702082 C126.63686,22.7722221 126.971635,23.4980961 126.998964,24.4478521 C128.338082,22.4397966 130.387722,21.4357839 133.147946,21.4357839 C136.072143,21.4357839 138.026134,22.6161772 139.009976,24.9769992 C139.693199,23.8915638 140.608705,23.0300124 141.756521,22.3923191 C142.904337,21.7546258 144.202442,21.4357839 145.650876,21.4357839 Z M166.844369,42.2760394 C164.630724,42.2760394 162.683566,41.8486556 161.002835,40.9938753 C159.322105,40.1390949 158.024,38.9247822 157.10848,37.3509009 C156.19296,35.7770196 155.735207,33.9318071 155.735207,31.815208 C155.735207,29.698609 156.19296,27.8601804 157.10848,26.299867 C158.024,24.7395536 159.315273,23.5388087 160.982339,22.6975963 C162.649405,21.8563838 164.603395,21.4357839 166.844369,21.4357839 C169.085342,21.4357839 171.039332,21.8563838 172.706398,22.6975963 C174.373464,23.5388087 175.664737,24.7395536 176.580257,26.299867 C177.495777,27.8601804 177.95353,29.698609 177.95353,31.815208 C177.95353,33.9318071 177.495777,35.7770196 176.580257,37.3509009 C175.664737,38.9247822 174.373464,40.1390949 172.706398,40.9938753 C171.039332,41.8486556 169.085342,42.2760394 166.844369,42.2760394 Z M166.844369,36.8624574 C169.440618,36.8624574 170.738724,35.1800578 170.738724,31.815208 C170.738724,28.4503583 169.440618,26.7679587 166.844369,26.7679587 C164.248119,26.7679587 162.950013,28.4503583 162.950013,31.815208 C162.950013,35.1800578 164.248119,36.8624574 166.844369,36.8624574 Z M194.063863,21.5171912 C194.993047,21.4357835 195.730918,21.6460835 196.277497,22.1480973 C196.824076,22.6501112 197.097361,23.389553 197.097361,24.3664448 C197.097361,25.4518802 196.844572,26.2388091 196.338987,26.727255 C195.833401,27.215701 194.924727,27.527759 193.612938,27.6634384 L192.383141,27.7855493 C191.016694,27.9483646 190.039699,28.3757484 189.452126,29.0677134 C188.864554,29.7596785 188.570772,30.7026363 188.570772,31.8966153 L188.570772,41.4298192 C188.570772,42.5423905 181.27398,42.5423905 181.27398,41.4298192 L181.27398,24.7734811 C181.27398,23.7423175 181.622419,22.9418209 182.319307,22.3719673 C183.016195,21.8021137 183.856548,21.5171912 184.84039,21.5171912 C185.851561,21.5171912 186.664585,21.7885459 187.279486,22.3312636 C187.894387,22.8739813 188.201833,23.6337747 188.201833,24.6106666 L188.201833,25.3840354 C188.639097,24.1900565 189.356471,23.2674503 190.353977,22.616189 C191.351484,21.9649278 192.3968,21.6121666 193.489958,21.5578948 L194.063863,21.5171912 Z M211.24002,21.5171912 C212.169204,21.4357835 212.907075,21.6460835 213.453654,22.1480973 C214.000233,22.6501112 214.273518,23.389553 214.273518,24.3664448 C214.273518,25.4518802 214.020729,26.2388091 213.515143,26.727255 C213.009558,27.215701 212.100884,27.527759 210.789095,27.6634384 L209.559298,27.7855493 C208.192851,27.9483646 207.215856,28.3757484 206.628283,29.0677134 C206.040711,29.7596785 205.746929,30.7026363 205.746929,31.8966153 L205.746929,41.4298192 C205.746929,42.5423905 198.450137,42.5423905 198.450137,41.4298192 L198.450137,24.7734811 C198.450137,23.7423175 198.798576,22.9418209 199.495464,22.3719673 C200.192352,21.8021137 201.032705,21.5171912 202.016547,21.5171912 C203.027718,21.5171912 203.840742,21.7885459 204.455643,22.3312636 C205.070544,22.8739813 205.37799,23.6337747 205.37799,24.6106666 L205.37799,25.3840354 C205.815254,24.1900565 206.532628,23.2674503 207.530134,22.616189 C208.527641,21.9649278 209.572957,21.6121666 210.666115,21.5578948 L211.24002,21.5171912 Z M225.382679,42.2760394 C223.169034,42.2760394 221.221876,41.8486556 219.541146,40.9938753 C217.860416,40.1390949 216.56231,38.9247822 215.646791,37.3509009 C214.731271,35.7770196 214.273518,33.9318071 214.273518,31.815208 C214.273518,29.698609 214.731271,27.8601804 215.646791,26.299867 C216.56231,24.7395536 217.853584,23.5388087 219.520649,22.6975963 C221.187715,21.8563838 223.141706,21.4357839 225.382679,21.4357839 C227.623653,21.4357839 229.577643,21.8563838 231.244709,22.6975963 C232.911775,23.5388087 234.203048,24.7395536 235.118568,26.299867 C236.034087,27.8601804 236.49184,29.698609 236.49184,31.815208 C236.49184,33.9318071 236.034087,35.7770196 235.118568,37.3509009 C234.203048,38.9247822 232.911775,40.1390949 231.244709,40.9938753 C229.577643,41.8486556 227.623653,42.2760394 225.382679,42.2760394 Z M225.382679,36.8624574 C227.978929,36.8624574 229.277035,35.1800578 229.277035,31.815208 C229.277035,28.4503583 227.978929,26.7679587 225.382679,26.7679587 C222.786429,26.7679587 221.488324,28.4503583 221.488324,31.815208 C221.488324,35.1800578 222.786429,36.8624574 225.382679,36.8624574 Z M266.293907,23.5523724 C266.567197,22.8739752 266.956629,22.365185 267.462214,22.0259865 C267.9678,21.6867879 268.521202,21.5171912 269.122439,21.5171912 C270.024295,21.5171912 270.830486,21.8224653 271.541039,22.4330227 C272.251592,23.0435801 272.606863,23.7830219 272.606863,24.6513702 C272.606863,25.0584085 272.497548,25.5061439 272.278917,25.9945898 L265.033862,41.6858369 C264.733244,42.364234 259.77448,42.364234 259.473862,41.6858369 L254.97978,31.5302827 L250.733862,41.6858369 C250.460573,42.364234 245.451809,42.364234 245.123862,41.6858369 L237.926603,25.9945898 C237.7353,25.5875515 237.63965,25.1533839 237.63965,24.6920738 C237.63965,23.7965896 238.015418,23.0435801 238.766964,22.4330227 C239.51851,21.8224653 240.358862,21.5171912 241.288046,21.5171912 C241.943941,21.5171912 242.538337,21.6867879 243.071251,22.0259865 C243.604166,22.365185 244.007262,22.887543 244.280551,23.593076 L248.174907,32.9956131 L252.151248,23.6337796 C252.424538,22.9553825 252.84813,22.4398084 253.422038,22.0870419 C253.995946,21.7342754 254.610838,21.5578948 255.266733,21.5578948 C255.922627,21.5578948 256.537519,21.7342754 257.111427,22.0870419 C257.685335,22.4398084 258.108928,22.9553825 258.382217,23.6337796 L262.481539,33.0363168 L266.293907,23.5523724 Z M82.9152841,45.6961963 L82.9152841,21.5846691 L74.5955284,21.5846691 C74.5955284,17.8464664 77.6259405,14.8160543 81.3641432,14.8160543 L98.4266931,14.8160543 C98.4266931,18.554257 95.396281,21.5846691 91.6580783,21.5846691 L90.1069374,21.5846691 L90.1069374,38.504543 C90.1069374,42.4763834 86.8871246,45.6961963 82.9152841,45.6961963 Z" id="tomorrow"></path>
            </g>
            <path d="M8.4375001,28.6612013 C9.5041721,28.6612013 10.4458294,28.9195321 11.2625001,29.4362013 C12.0791709,29.9528706 12.7166645,30.6903632 13.1750001,31.6487013 C13.6333357,32.6070394 13.8625001,33.7195283 13.8625001,34.9862013 C13.8625001,36.2528743 13.6333357,37.3736964 13.1750001,38.3487013 C12.7166645,39.3237062 12.0750042,40.0820319 11.2500001,40.6237013 C10.424996,41.1653707 9.48750535,41.4362013 8.4375001,41.4362013 C7.58749585,41.4362013 6.82083685,41.2570364 6.1375001,40.8987013 C5.45416335,40.5403662 4.9291686,40.0445378 4.5625001,39.4112013 L4.5625001,39.6112013 C4.5625001,40.1445373 4.3958351,40.5736997 4.0625001,40.8987013 C3.7291651,41.2237029 3.2791696,41.3862013 2.7125001,41.3862013 C2.1458306,41.3862013 1.69166848,41.2237029 1.3500001,40.8987013 C1.00833173,40.5736997 0.837500101,40.1445373 0.837500101,39.6112013 L0.837500101,25.2112013 C0.837500101,24.6945321 1.01666498,24.2778696 1.3750001,23.9612013 C1.73333523,23.6445331 2.20416385,23.4862013 2.7875001,23.4862013 C3.33750285,23.4862013 3.7791651,23.6361998 4.1125001,23.9362013 C4.4458351,24.2362028 4.6125001,24.6361988 4.6125001,25.1362013 L4.6125001,30.6112013 C4.9791686,29.9945316 5.49999673,29.5153697 6.1750001,29.1737013 C6.85000348,28.8320329 7.6041626,28.6612013 8.4375001,28.6612013 Z M7.3375001,38.5612013 C8.22083785,38.5612013 8.90416435,38.2487044 9.3875001,37.6237013 C9.87083585,36.9986982 10.1125001,36.1195403 10.1125001,34.9862013 C10.1125001,33.8695291 9.87083585,33.0153709 9.3875001,32.4237013 C8.90416435,31.8320317 8.22083785,31.5362013 7.3375001,31.5362013 C6.45416235,31.5362013 5.77083585,31.8403649 5.2875001,32.4487013 C4.80416435,33.0570377 4.5625001,33.9195291 4.5625001,35.0362013 C4.5625001,36.1695403 4.80416435,37.0403649 5.2875001,37.6487013 C5.77083585,38.2570377 6.45416235,38.5612013 7.3375001,38.5612013 Z M26.0875001,28.7112013 C26.6708364,28.7112013 27.1333317,28.8695331 27.4750001,29.1862013 C27.8166685,29.5028696 27.9875001,29.9361986 27.9875001,30.4862013 L27.9875001,39.6612013 C27.9875001,40.1778706 27.8083352,40.5945331 27.4500001,40.9112013 C27.091665,41.2278696 26.6291696,41.3862013 26.0625001,41.3862013 C25.5291641,41.3862013 25.1041684,41.2362028 24.7875001,40.9362013 C24.4708319,40.6361998 24.3125001,40.2362038 24.3125001,39.7362013 L24.3125001,39.4862013 C23.9291649,40.1195378 23.4250032,40.6028663 22.8000001,40.9362013 C22.174997,41.2695363 21.4708374,41.4362013 20.6875001,41.4362013 C19.1374924,41.4362013 17.9833372,41.0070389 17.2250001,40.1487013 C16.466663,39.2903637 16.0875001,37.9945433 16.0875001,36.2612013 L16.0875001,30.4862013 C16.0875001,29.9361986 16.2583317,29.5028696 16.6000001,29.1862013 C16.9416685,28.8695331 17.4041639,28.7112013 17.9875001,28.7112013 C18.5708364,28.7112013 19.0291651,28.8695331 19.3625001,29.1862013 C19.6958351,29.5028696 19.8625001,29.9361986 19.8625001,30.4862013 L19.8625001,36.3362013 C19.8625001,37.0695383 20.0166652,37.6111996 20.3250001,37.9612013 C20.633335,38.3112031 21.1041636,38.4862013 21.7375001,38.4862013 C22.4708371,38.4862013 23.0666645,38.2362038 23.5250001,37.7362013 C23.9833357,37.2361988 24.2125001,36.5778721 24.2125001,35.7612013 L24.2125001,30.4862013 C24.2125001,29.9361986 24.3791651,29.5028696 24.7125001,29.1862013 C25.0458351,28.8695331 25.5041639,28.7112013 26.0875001,28.7112013 Z M32.7875001,41.3862013 C32.2374974,41.3862013 31.7833352,41.2362028 31.4250001,40.9362013 C31.066665,40.6361998 30.8875001,40.1945376 30.8875001,39.6112013 L30.8875001,30.4862013 C30.8875001,29.9028651 31.0708316,29.4612028 31.4375001,29.1612013 C31.8041686,28.8611998 32.2541641,28.7112013 32.7875001,28.7112013 C33.3208361,28.7112013 33.766665,28.8611998 34.1250001,29.1612013 C34.4833352,29.4612028 34.6625001,29.9028651 34.6625001,30.4862013 L34.6625001,39.6112013 C34.6625001,40.1945376 34.4833352,40.6361998 34.1250001,40.9362013 C33.766665,41.2362028 33.3208361,41.3862013 32.7875001,41.3862013 Z M32.7875001,26.7112013 C32.1208301,26.7112013 31.5958354,26.5403697 31.2125001,26.1987013 C30.8291649,25.8570329 30.6375001,25.3945376 30.6375001,24.8112013 C30.6375001,24.2278651 30.8291649,23.7695363 31.2125001,23.4362013 C31.5958354,23.1028663 32.1208301,22.9362013 32.7875001,22.9362013 C33.4375034,22.9362013 33.9583315,23.1070329 34.3500001,23.4487013 C34.7416687,23.7903697 34.9375001,24.2445318 34.9375001,24.8112013 C34.9375001,25.3945376 34.7458354,25.8570329 34.3625001,26.1987013 C33.9791649,26.5403697 33.4541701,26.7112013 32.7875001,26.7112013 Z M39.4625001,41.3862013 C38.9124974,41.3862013 38.4583352,41.2362028 38.1000001,40.9362013 C37.741665,40.6361998 37.5625001,40.1945376 37.5625001,39.6112013 L37.5625001,25.2612013 C37.5625001,24.6778651 37.741665,24.2362028 38.1000001,23.9362013 C38.4583352,23.6361998 38.9124974,23.4862013 39.4625001,23.4862013 C39.9958361,23.4862013 40.441665,23.6361998 40.8000001,23.9362013 C41.1583352,24.2362028 41.3375001,24.6778651 41.3375001,25.2612013 L41.3375001,39.6112013 C41.3375001,40.1945376 41.1583352,40.6361998 40.8000001,40.9362013 C40.441665,41.2362028 39.9958361,41.3862013 39.4625001,41.3862013 Z M51.0625001,38.6362013 C51.5625026,38.6695348 51.9291656,38.7945336 52.1625001,39.0112013 C52.3958346,39.2278691 52.5125001,39.5445326 52.5125001,39.9612013 C52.5125001,40.4445371 52.3208354,40.8112001 51.9375001,41.0612013 C51.5541649,41.3112026 51.0041704,41.4112016 50.2875001,41.3612013 L49.5875001,41.3112013 C46.6708189,41.0778668 45.2125001,39.5528821 45.2125001,36.7362013 L45.2125001,31.7862013 L44.2125001,31.7862013 C43.6624974,31.7862013 43.2458349,31.6653692 42.9625001,31.4237013 C42.6791654,31.1820334 42.5375001,30.8362036 42.5375001,30.3862013 C42.5375001,29.9195323 42.6791654,29.5653692 42.9625001,29.3237013 C43.2458349,29.0820334 43.6624974,28.9612013 44.2125001,28.9612013 L45.2125001,28.9612013 L45.2125001,27.0112013 C45.2125001,26.4611986 45.3833317,26.0278696 45.7250001,25.7112013 C46.0666685,25.3945331 46.5291639,25.2362013 47.1125001,25.2362013 C47.6958364,25.2362013 48.1541651,25.3945331 48.4875001,25.7112013 C48.8208351,26.0278696 48.9875001,26.4611986 48.9875001,27.0112013 L48.9875001,28.9612013 L50.7375001,28.9612013 C51.8708391,28.9612013 52.4375001,29.4361966 52.4375001,30.3862013 C52.4375001,30.8362036 52.2958349,31.1820334 52.0125001,31.4237013 C51.7291654,31.6653692 51.3041696,31.7862013 50.7375001,31.7862013 L48.9875001,31.7862013 L48.9875001,37.0112013 C48.9875001,37.5112038 49.1041656,37.8903667 49.3375001,38.1487013 C49.5708346,38.4070359 49.9124979,38.5528678 50.3625001,38.5862013 L51.0625001,38.6362013 Z M68.4875001,28.6612013 C69.5541721,28.6612013 70.4958294,28.9195321 71.3125001,29.4362013 C72.1291709,29.9528706 72.7666645,30.6903632 73.2250001,31.6487013 C73.6833357,32.6070394 73.9125001,33.7195283 73.9125001,34.9862013 C73.9125001,36.2528743 73.6833357,37.3736964 73.2250001,38.3487013 C72.7666645,39.3237062 72.1250042,40.0820319 71.3000001,40.6237013 C70.474996,41.1653707 69.5375054,41.4362013 68.4875001,41.4362013 C67.6374959,41.4362013 66.8708369,41.2570364 66.1875001,40.8987013 C65.5041634,40.5403662 64.9791686,40.0445378 64.6125001,39.4112013 L64.6125001,39.6112013 C64.6125001,40.1445373 64.4458351,40.5736997 64.1125001,40.8987013 C63.7791651,41.2237029 63.3291696,41.3862013 62.7625001,41.3862013 C62.1958306,41.3862013 61.7416685,41.2237029 61.4000001,40.8987013 C61.0583317,40.5736997 60.8875001,40.1445373 60.8875001,39.6112013 L60.8875001,25.2112013 C60.8875001,24.6945321 61.066665,24.2778696 61.4250001,23.9612013 C61.7833352,23.6445331 62.2541639,23.4862013 62.8375001,23.4862013 C63.3875029,23.4862013 63.8291651,23.6361998 64.1625001,23.9362013 C64.4958351,24.2362028 64.6625001,24.6361988 64.6625001,25.1362013 L64.6625001,30.6112013 C65.0291686,29.9945316 65.5499967,29.5153697 66.2250001,29.1737013 C66.9000035,28.8320329 67.6541626,28.6612013 68.4875001,28.6612013 Z M67.3875001,38.5612013 C68.2708379,38.5612013 68.9541644,38.2487044 69.4375001,37.6237013 C69.9208359,36.9986982 70.1625001,36.1195403 70.1625001,34.9862013 C70.1625001,33.8695291 69.9208359,33.0153709 69.4375001,32.4237013 C68.9541644,31.8320317 68.2708379,31.5362013 67.3875001,31.5362013 C66.5041624,31.5362013 65.8208359,31.8403649 65.3375001,32.4487013 C64.8541644,33.0570377 64.6125001,33.9195291 64.6125001,35.0362013 C64.6125001,36.1695403 64.8541644,37.0403649 65.3375001,37.6487013 C65.8208359,38.2570377 66.5041624,38.5612013 67.3875001,38.5612013 Z M84.5875001,29.7862013 C84.7375009,29.4361996 84.9499987,29.1778688 85.2250001,29.0112013 C85.5000015,28.8445338 85.7958319,28.7612013 86.1125001,28.7612013 C86.5958359,28.7612013 87.0208316,28.9153664 87.3875001,29.2237013 C87.7541686,29.5320362 87.9375001,29.9028658 87.9375001,30.3362013 C87.9375001,30.5695358 87.8791674,30.8028668 87.7625001,31.0362013 L81.0375001,44.8362013 C80.8708326,45.1862031 80.6458349,45.4487004 80.3625001,45.6237013 C80.0791654,45.7987022 79.7791684,45.8862013 79.4625001,45.8862013 C78.9958311,45.8862013 78.5875019,45.7362028 78.2375001,45.4362013 C77.8874984,45.1361998 77.7125001,44.7695368 77.7125001,44.3362013 C77.7125001,44.0695333 77.7708329,43.8195358 77.8875001,43.5862013 L79.5375001,40.1612013 L75.0875001,31.0362013 C74.9874996,30.8028668 74.9375001,30.5778691 74.9375001,30.3612013 C74.9375001,29.9111991 75.1333315,29.5278696 75.5250001,29.2112013 C75.9166687,28.8945331 76.3624976,28.7362013 76.8625001,28.7362013 C77.1958351,28.7362013 77.5041654,28.8237004 77.7875001,28.9987013 C78.0708349,29.1737022 78.2958326,29.4361996 78.4625001,29.7862013 L81.5625001,36.5362013 L84.5875001,29.7862013 Z" id="built-by"></path>
        </g>
    </g>
</svg>