<?xml version="1.0" encoding="UTF-8"?>
<svg width="543px" height="59px" viewBox="0 0 543 59" version="1.1" xmlns="http://www.w3.org/2000/svg" xmlns:xlink="http://www.w3.org/1999/xlink">
    <!-- Generator: Sketch 49.3 (51167) - http://www.bohemiancoding.com/sketch -->
    <title>Group</title>
    <desc>Created with Sketch.</desc>
    <defs></defs>
    <g id="Logos" stroke="none" stroke-width="1" fill="none" fill-rule="evenodd">
        <g id="iPhone-8" transform="translate(-97.000000, -339.000000)" fill="#FFFFFF">
            <g id="Group" transform="translate(98.000000, 339.000000)">
                <text id="built-by" font-family="Radley" font-size="48" font-weight="normal" letter-spacing="1">
                    <tspan x="0" y="49">built</tspan>
                    <tspan x="103.671875" y="49" font-size="24"> </tspan>
                    <tspan x="113.273438" y="49">by</tspan>
                </text>
                <g id="tomorrow_logo_black" transform="translate(181.000000, 0.000000)" fill-rule="nonzero">
                    <path d="M34.5290776,3.0451121 L29.4998423,3.08270718 L28.7867418,3.08270718 L28.7867418,40.1879698 C28.7867418,42.9448745 29.5498769,44.8120244 31.0761697,45.7894737 C32.12706,46.4411048 34.1912777,46.9423539 37.2688847,47.2932314 L37.2688847,48.6466157 C37.2688847,48.8471181 37.243864,49.047617 37.1938216,49.2481194 L12.3478983,49.2481194 L12.2728351,47.2932314 C13.2736829,46.9423539 14.2807709,46.6290732 15.2941295,46.3533824 C16.3074878,46.0776916 17.2144925,45.7142871 18.0151709,45.2631566 C19.8166969,44.2606463 20.7174466,42.5689343 20.7174466,40.1879698 L20.7174466,3.08270718 L15.237832,3.08270718 C12.9859244,3.08270718 11.2594878,3.17042436 10.0584703,3.34586398 C8.85745292,3.52130359 7.88789607,3.95363037 7.14977089,4.64285656 C6.41164553,5.33208274 5.73608353,6.12781403 5.12306408,7.03007491 C4.5100448,7.93233404 3.93456591,8.86590986 3.39661028,9.83082687 C2.85865448,10.7957439 2.30194124,11.6290685 1.72645379,12.330827 L0,12.330827 L0.938290021,0.0751884067 C7.31869493,0.325814679 15.8007531,0.451126941 26.384719,0.451126941 C36.9686848,0.451126941 44.4248893,0.300753627 48.7535562,0 L49.9545676,12.3684203 L48.1530505,12.3684203 C47.5775629,11.6666618 47.0333601,10.8333372 46.5204257,9.8684202 C46.0074911,8.90350319 45.4507779,7.96992912 44.8502692,7.06766824 C43.3990399,4.86214339 41.8977905,3.63408533 40.3464765,3.3834573 C38.9202682,3.15789383 36.9811547,3.0451121 34.5290776,3.0451121 Z M58.4772439,24.0601502 C57.9768201,25.6892306 57.7266118,27.5939738 57.7266118,29.7744358 C57.7266118,31.9548979 57.9768201,34.0726705 58.4772439,36.1278186 C58.9776679,38.1829666 59.7032716,40.0250537 60.6540772,41.6541341 C62.7558576,45.2631759 65.420575,47.0676679 68.6483093,47.0676679 C71.8009799,47.0676679 74.2405099,45.8897354 75.9669724,43.5338338 C77.5683289,41.3533717 78.3689952,38.3960083 78.3689952,34.6616525 C78.3689952,29.7242857 77.3931832,25.5889881 75.4415299,22.2556389 C73.4148131,18.7217855 70.7751165,16.9548869 67.522361,16.9548869 C62.9434823,16.9548869 59.9284734,19.323284 58.4772439,24.0601502 Z M50.2202906,32.1052624 C50.2202906,26.8922031 51.9717481,22.6065321 55.4747154,19.2481201 C58.852577,16.0400832 62.9434811,14.4360901 67.7475507,14.4360901 C72.8768959,14.4360901 77.117925,16.0150204 80.4707652,19.1729317 C83.9987537,22.4812181 85.7627217,26.7794213 85.7627217,32.0676691 C85.7627217,37.3559151 84.0112641,41.7042422 80.5082968,45.1127816 C77.1804777,48.3709424 73.0645527,50 68.1603984,50 C63.256244,50 59.0777669,48.3458795 55.6248419,45.0375932 C52.0217897,41.6039927 50.2202906,37.293259 50.2202906,32.1052624 Z M133.543458,47.3684198 L133.468395,49.2481194 L114.702592,49.2481194 C114.652549,48.9724286 114.627529,48.6466174 114.627529,48.2706754 L114.627529,47.3684198 C114.927783,47.1679173 115.346882,47.0112779 115.884837,46.8984962 C116.422793,46.7857127 116.966996,46.654136 117.517462,46.5037592 C118.868607,46.1278172 119.669273,45.5764443 119.919485,44.849623 C120.469951,43.7719243 120.74518,42.3684283 120.74518,40.6390967 L120.74518,27.556391 C120.74518,24.6240448 120.413654,22.6002555 119.750593,21.4849617 C119.087531,20.3696678 118.355672,19.5927332 117.554994,19.1541351 C116.754315,18.7155369 115.803524,18.4962396 114.702592,18.4962396 C113.601659,18.4962396 112.625847,18.6403485 111.775126,18.9285716 C110.924406,19.2167929 110.123739,19.5989941 109.373104,20.0751874 C108.147065,20.8521342 106.78343,22.0801923 105.282159,23.7593983 L105.282159,40.4135333 C105.282159,43.1955026 105.557388,44.8120262 106.107854,45.2631566 C106.65832,45.7142871 107.208778,46.0463644 107.759245,46.2593973 C108.309711,46.472432 108.878935,46.6541343 109.466933,46.8045111 C110.054931,46.9548879 110.561602,47.1428545 110.986963,47.3684198 L110.9119,49.2481194 L92.4088177,49.2481194 C92.3837965,49.1228054 92.3712861,48.9974932 92.3712861,48.8721791 L92.3712861,47.3684198 C92.6965617,47.1679173 93.1469364,46.9987474 93.7224239,46.8609011 C94.2979113,46.7230565 94.8733902,46.5538848 95.4488779,46.3533824 C96.8500647,45.8521264 97.6507311,45.1127868 97.8509006,44.1353375 C98.1261337,43.1077626 98.2637483,42.0300796 98.2637483,40.9022553 L98.2637483,22.0300737 C97.5131123,20.6766841 95.4488946,19.5614078 92.0710332,18.6842097 L92.183628,17.4060138 L102.654946,14.8496237 L104.944374,14.8496237 L105.282159,20.2631575 C107.959427,17.3308114 110.749248,15.5137871 113.651707,14.8120286 C114.752639,14.5614024 115.966149,14.4360901 117.292273,14.4360901 C122.096342,14.4360901 125.349049,16.4536133 127.05049,20.488721 C128.877037,18.4836985 130.390797,17.1303282 131.591814,16.4285715 C133.768658,15.1503686 135.870407,14.5112785 137.897124,14.5112785 C139.923841,14.5112785 141.59398,14.6929808 142.907593,15.0563905 C144.221206,15.4198003 145.365909,15.9774393 146.341736,16.7293234 C148.393474,18.2832154 149.569452,20.6516126 149.869707,23.8345849 C150.069877,26.0902354 150.16996,28.4586343 150.16996,30.9398483 L150.16996,40.7894735 C150.16996,42.0927375 150.238766,43.1015 150.376383,43.815789 C150.513999,44.530078 150.782973,45.0563881 151.183313,45.3947368 C151.583652,45.7330837 152.040281,46.0087693 152.553217,46.221804 C153.066151,46.4348369 153.591588,46.6228053 154.129543,46.7857127 C154.6675,46.9486218 155.136641,47.1428545 155.536978,47.3684198 L155.461916,49.2481194 L137.409213,49.2481194 C137.35917,48.9724286 137.334151,48.6466174 137.334151,48.2706754 L137.334151,47.3684198 C137.734489,47.1428545 138.222394,46.9548879 138.797882,46.8045111 C139.37337,46.6541343 139.936338,46.4661659 140.486805,46.2406007 C141.86297,45.7393446 142.651127,45.0125356 142.851297,44.0601491 C143.051467,42.9824504 143.15155,41.8922351 143.15155,40.7894735 L143.15155,25.8646614 C143.15155,23.5087598 142.563561,21.6854693 141.387564,20.3947359 C140.211568,19.1040025 138.48513,18.4586462 136.208201,18.4586462 C133.280723,18.4586462 130.390817,20.025046 127.538401,23.1578945 C127.688528,24.7117865 127.763591,27.4937138 127.763591,31.5037587 L127.763591,40.6015034 C127.763591,42.0551442 127.826143,43.1202967 127.951249,43.7969923 C128.076355,44.4736862 128.357839,44.9874658 128.795709,45.338345 C129.233582,45.6892243 129.733997,45.9774421 130.296974,46.2030073 C130.85995,46.4285726 131.435429,46.6228053 132.023427,46.7857127 C132.611426,46.9486218 133.118098,47.1428545 133.543458,47.3684198 Z M169.576802,24.0601502 C169.076377,25.6892306 168.82617,27.5939738 168.82617,29.7744358 C168.82617,31.9548979 169.076377,34.0726705 169.576802,36.1278186 C170.077226,38.1829666 170.802829,40.0250537 171.753635,41.6541341 C173.855416,45.2631759 176.520132,47.0676679 179.747867,47.0676679 C182.900537,47.0676679 185.340068,45.8897354 187.06653,43.5338338 C188.667887,41.3533717 189.468553,38.3960083 189.468553,34.6616525 C189.468553,29.7242857 188.492741,25.5889881 186.541088,22.2556389 C184.51437,18.7217855 181.874674,16.9548869 178.621918,16.9548869 C174.043041,16.9548869 171.02803,19.323284 169.576802,24.0601502 Z M161.319849,32.1052624 C161.319849,26.8922031 163.071306,22.6065321 166.574273,19.2481201 C169.952134,16.0400832 174.043039,14.4360901 178.847109,14.4360901 C183.976453,14.4360901 188.217482,16.0150204 191.570323,19.1729317 C195.098311,22.4812181 196.86228,26.7794213 196.86228,32.0676691 C196.86228,37.3559151 195.110823,41.7042422 191.607854,45.1127816 C188.280036,48.3709424 184.164109,50 179.259956,50 C174.355801,50 170.177325,48.3458795 166.7244,45.0375932 C163.121347,41.6039927 161.319849,37.293259 161.319849,32.1052624 Z M209.063053,22.0676688 C208.362459,20.8897171 206.398324,19.8621597 203.170591,18.9849616 L203.245654,17.6691723 L213.22906,14.8120286 L215.368363,14.8120286 L215.968869,21.7293236 C218.045628,17.9448422 220.335033,15.6892267 222.837152,14.9624054 C223.687873,14.7368402 224.544836,14.6240602 225.408067,14.6240602 C226.271298,14.6240602 227.028178,14.7493708 227.67873,14.9999988 C228.329281,15.2506268 228.892249,15.576438 229.367652,15.9774428 C230.368499,16.8295781 230.868917,17.756886 230.868917,18.7593981 C230.868917,19.536345 230.66875,20.2882168 230.268411,21.0150363 C229.517774,22.4937416 228.685832,23.2330812 227.772559,23.2330812 C226.859285,23.2330812 226.177467,23.0325823 225.727085,22.6315774 C225.276705,22.2305744 224.888883,21.7919814 224.563607,21.3157882 C224.238331,20.8395967 223.906805,20.4010038 223.569019,19.999999 C223.231232,19.5989941 222.737072,19.3984952 222.08652,19.3984952 C221.435969,19.3984952 220.829214,19.5801975 220.266238,19.943609 C219.703261,20.3070187 219.184078,20.7769388 218.708675,21.3533833 C218.233272,21.929826 217.782899,22.5814501 217.357538,23.3082696 C216.932178,24.0350909 216.506824,24.7493694 216.081463,25.4511278 L216.081463,39.4360892 C216.081463,41.7669281 216.187802,43.3333279 216.400482,44.1353375 C216.613163,44.9373472 216.975964,45.4949845 217.488898,45.8082704 C218.001833,46.1215545 218.602333,46.3596468 219.290416,46.5225559 C219.978498,46.6854632 220.697847,46.8170416 221.448484,46.9172928 C222.199118,47.017544 222.862171,47.1679173 223.437657,47.3684198 L223.400126,48.5338339 L223.400126,49.2481194 L203.283185,49.2481194 C203.258164,49.1478682 203.245654,48.9974932 203.245654,48.7969925 L203.245654,47.4812015 C203.245654,47.3558875 203.258164,47.2681703 203.283185,47.2180447 C204.133907,46.9674167 204.915806,46.7669178 205.628912,46.6165409 C206.342016,46.4661641 206.94877,46.2155396 207.449194,45.8646604 C208.525105,45.1378409 209.063053,43.5714393 209.063053,41.1654121 L209.063053,22.0676688 Z M240.780262,22.0676688 C240.079668,20.8897171 238.115535,19.8621597 234.887799,18.9849616 L234.962863,17.6691723 L244.946271,14.8120286 L247.085572,14.8120286 L247.686077,21.7293236 C249.762837,17.9448422 252.052242,15.6892267 254.554362,14.9624054 C255.405081,14.7368402 256.262045,14.6240602 257.125276,14.6240602 C257.988507,14.6240602 258.745387,14.7493708 259.395938,14.9999988 C260.04649,15.2506268 260.609458,15.576438 261.084861,15.9774428 C262.085708,16.8295781 262.586125,17.756886 262.586125,18.7593981 C262.586125,19.536345 262.385959,20.2882168 261.985619,21.0150363 C261.234983,22.4937416 260.403041,23.2330812 259.489768,23.2330812 C258.576494,23.2330812 257.894676,23.0325823 257.444296,22.6315774 C256.993914,22.2305744 256.606091,21.7919814 256.280815,21.3157882 C255.95554,20.8395967 255.624013,20.4010038 255.286228,19.999999 C254.948442,19.5989941 254.454281,19.3984952 253.803729,19.3984952 C253.153179,19.3984952 252.546423,19.5801975 251.983446,19.943609 C251.42047,20.3070187 250.901287,20.7769388 250.425884,21.3533833 C249.950483,21.929826 249.500108,22.5814501 249.074747,23.3082696 C248.649386,24.0350909 248.224033,24.7493694 247.798672,25.4511278 L247.798672,39.4360892 C247.798672,41.7669281 247.905011,43.3333279 248.11769,44.1353375 C248.330371,44.9373472 248.693173,45.4949845 249.206107,45.8082704 C249.719043,46.1215545 250.319542,46.3596468 251.007624,46.5225559 C251.695707,46.6854632 252.415056,46.8170416 253.165692,46.9172928 C253.916327,47.017544 254.57938,47.1679173 255.154868,47.3684198 L255.117335,48.5338339 L255.117335,49.2481194 L235.000394,49.2481194 C234.975373,49.1478682 234.962863,48.9974932 234.962863,48.7969925 L234.962863,47.4812015 C234.962863,47.3558875 234.975373,47.2681703 235.000394,47.2180447 C235.851115,46.9674167 236.633017,46.7669178 237.34612,46.6165409 C238.059224,46.4661641 238.665979,46.2155396 239.166403,45.8646604 C240.242313,45.1378409 240.780262,43.5714393 240.780262,41.1654121 L240.780262,22.0676688 Z M275.800252,24.0601502 C275.299829,25.6892306 275.04962,27.5939738 275.04962,29.7744358 C275.04962,31.9548979 275.299829,34.0726705 275.800252,36.1278186 C276.300676,38.1829666 277.026279,40.0250537 277.977085,41.6541341 C280.078866,45.2631759 282.743582,47.0676679 285.971318,47.0676679 C289.123987,47.0676679 291.563518,45.8897354 293.289981,43.5338338 C294.891337,41.3533717 295.692003,38.3960083 295.692003,34.6616525 C295.692003,29.7242857 294.716192,25.5889881 292.764539,22.2556389 C290.737822,18.7217855 288.098124,16.9548869 284.84537,16.9548869 C280.266491,16.9548869 277.251482,19.323284 275.800252,24.0601502 Z M267.543299,32.1052624 C267.543299,26.8922031 269.294756,22.6065321 272.797723,19.2481201 C276.175586,16.0400832 280.266489,14.4360901 285.070559,14.4360901 C290.199905,14.4360901 294.440934,16.0150204 297.793773,19.1729317 C301.321761,22.4812181 303.08573,26.7794213 303.08573,32.0676691 C303.08573,37.3559151 301.334273,41.7042422 297.831304,45.1127816 C294.503486,48.3709424 290.387561,50 285.483406,50 C280.579252,50 276.400775,48.3458795 272.947851,45.0375932 C269.344797,41.6039927 267.543299,37.293259 267.543299,32.1052624 Z M318.852007,20.6766911 C318.852007,21.4035124 318.927069,21.9172919 319.077196,22.2180438 L326.020542,40.1127814 L332.888827,23.383458 C331.712831,19.4736644 329.611082,17.4310783 326.583517,17.2556387 L326.658581,15.4511275 L343.247551,15.4511275 C343.297592,16.1027603 343.322613,16.7042571 343.322613,17.2556387 C342.84721,17.4812039 342.359304,17.6691723 341.858881,17.8195474 C341.358457,17.9699242 340.895572,18.1453621 340.470212,18.3458645 C339.494384,18.7969949 339.006478,19.4736784 339.006478,20.3759392 C339.006478,21.0025093 339.231666,21.8796934 339.682048,23.0075177 L345.799699,39.8120295 L351.654631,23.9849618 C352.130032,22.7318234 352.367731,21.7230609 352.367731,20.9586463 C352.367731,20.1942317 352.267648,19.6240622 352.067478,19.2481201 C351.867308,18.8721781 351.573313,18.5839602 351.185485,18.3834578 C350.797657,18.1829554 350.322261,18.0200498 349.759285,17.8947358 C349.196306,17.7694218 348.552021,17.5939857 347.826406,17.3684205 C347.776363,17.1177924 347.751344,16.8170441 347.751344,16.4661648 C347.751344,16.1403484 347.776363,15.8020067 347.826406,15.4511275 L361,15.4511275 L361,17.4436089 C359.273538,17.6691741 357.609652,18.7969809 356.008296,20.8270662 C355.557914,21.3784478 355.245155,21.9047579 355.070007,22.406014 L344.936472,49.7744348 C344.66124,49.9248116 344.285927,50 343.810524,50 C343.335121,50 342.947298,49.9248116 342.647045,49.7744348 L334.127369,26.8421037 L325.082253,49.7744348 C324.781998,49.9248116 324.37541,50 323.862476,50 C323.349542,50 322.967973,49.9248116 322.717761,49.7744348 L312.246444,22.9699244 C311.54585,21.21553 310.957861,20.0375958 310.482458,19.4360903 C309.606717,18.333327 308.468268,17.6190485 307.067082,17.2932321 L307.142146,15.4511275 L322.605166,15.4511275 C322.630188,15.7769439 322.642699,16.0902228 322.642699,16.3909764 L322.642699,17.2556387 C320.115558,18.0576484 318.852007,19.1979875 318.852007,20.6766911 Z" id="Tomorrow"></path>
                </g>
            </g>
        </g>
    </g>
</svg>