<?xml version="1.0" encoding="UTF-8"?>
<svg width="716px" height="140px" viewBox="0 0 716 140" version="1.1" xmlns="http://www.w3.org/2000/svg" xmlns:xlink="http://www.w3.org/1999/xlink">
    <!-- Generator: Sketch 49.3 (51167) - http://www.bohemiancoding.com/sketch -->
    <title>electricityMap site logo</title>
    <desc>Created with Sketch.</desc>
    <defs>
        <path d="M60.842,1.553 L9.694,48.423 C8.469,49.544 8.656,51.1 10.106,51.902 L18.063,56.306 C19.516,57.109 19.998,58.91 19.147,60.331 L0.918,90.76 C0.068,92.18 0.45,92.515 1.775,91.507 L56.743,49.654 C58.079,48.637 57.899,47.313 56.367,46.677 L45.885,42.329 C44.356,41.693 43.693,39.961 44.412,38.46 L61.753,2.242 C62.181,1.349 62.21,0.878 61.907,0.878 C61.7,0.878 61.338,1.098 60.842,1.553 Z" id="path-1"></path>
    </defs>
    <g id="electricityMap-site-logo" stroke="none" stroke-width="1" fill="none" fill-rule="evenodd">
        <path d="M208.8,73.5 C208.8,72.2039935 208.614002,70.9980056 208.242,69.882 C207.869998,68.7659944 207.324004,67.7940041 206.604,66.966 C205.883996,66.1379959 204.990005,65.4900023 203.922,65.022 C202.853995,64.5539977 201.624007,64.32 200.232,64.32 C197.423986,64.32 195.216008,65.123992 193.608,66.732 C191.999992,68.340008 190.980002,70.5959855 190.548,73.5 L208.8,73.5 Z M190.332,78.252 C190.428,80.3400104 190.751997,82.1459924 191.304,83.67 C191.856003,85.1940076 192.593995,86.459995 193.518,87.468 C194.442005,88.476005 195.545994,89.2259975 196.83,89.718 C198.114006,90.2100025 199.547992,90.456 201.132,90.456 C202.644008,90.456 203.951994,90.2820017 205.056,89.934 C206.160006,89.5859983 207.119996,89.2020021 207.936,88.782 C208.752004,88.3619979 209.447997,87.9780017 210.024,87.63 C210.600003,87.2819983 211.127998,87.108 211.608,87.108 C212.232003,87.108 212.711998,87.3479976 213.048,87.828 L215.244,90.672 C214.331995,91.7520054 213.300006,92.6639963 212.148,93.408 C210.995994,94.1520037 209.772006,94.7579977 208.476,95.226 C207.179994,95.6940023 205.848007,96.029999 204.48,96.234 C203.111993,96.438001 201.780006,96.54 200.484,96.54 C197.939987,96.54 195.582011,96.1140043 193.41,95.262 C191.237989,94.4099957 189.354008,93.1560083 187.758,91.5 C186.161992,89.8439917 184.914005,87.7920122 184.014,85.344 C183.113995,82.8959878 182.664,80.076016 182.664,76.884 C182.664,74.3399873 183.065996,71.964011 183.87,69.756 C184.674004,67.547989 185.825993,65.6280082 187.326,63.996 C188.826008,62.3639918 190.649989,61.0740047 192.798,60.126 C194.946011,59.1779953 197.375986,58.704 200.088,58.704 C202.344011,58.704 204.43199,59.0699963 206.352,59.802 C208.27201,60.5340037 209.927993,61.6079929 211.32,63.024 C212.712007,64.4400071 213.797996,66.1739897 214.578,68.226 C215.358004,70.2780103 215.748,72.6119869 215.748,75.228 C215.748,76.428006 215.616001,77.231998 215.352,77.64 C215.087999,78.048002 214.608003,78.252 213.912,78.252 L190.332,78.252 Z M233.872,42.72 L233.872,96 L226.132,96 L226.132,42.72 L233.872,42.72 Z M270.572,73.5 C270.572,72.2039935 270.386002,70.9980056 270.014,69.882 C269.641998,68.7659944 269.096004,67.7940041 268.376,66.966 C267.655996,66.1379959 266.762005,65.4900023 265.694,65.022 C264.625995,64.5539977 263.396007,64.32 262.004,64.32 C259.195986,64.32 256.988008,65.123992 255.38,66.732 C253.771992,68.340008 252.752002,70.5959855 252.32,73.5 L270.572,73.5 Z M252.104,78.252 C252.2,80.3400104 252.523997,82.1459924 253.076,83.67 C253.628003,85.1940076 254.365995,86.459995 255.29,87.468 C256.214005,88.476005 257.317994,89.2259975 258.602,89.718 C259.886006,90.2100025 261.319992,90.456 262.904,90.456 C264.416007,90.456 265.723994,90.2820017 266.828,89.934 C267.932005,89.5859983 268.891996,89.2020021 269.708,88.782 C270.524004,88.3619979 271.219997,87.9780017 271.796,87.63 C272.372003,87.2819983 272.899998,87.108 273.38,87.108 C274.004003,87.108 274.483998,87.3479976 274.82,87.828 L277.016,90.672 C276.103995,91.7520054 275.072006,92.6639963 273.92,93.408 C272.767994,94.1520037 271.544006,94.7579977 270.248,95.226 C268.951993,95.6940023 267.620007,96.029999 266.252,96.234 C264.883993,96.438001 263.552006,96.54 262.256,96.54 C259.711987,96.54 257.354011,96.1140043 255.182,95.262 C253.009989,94.4099957 251.126008,93.1560083 249.53,91.5 C247.933992,89.8439917 246.686004,87.7920122 245.786,85.344 C244.885995,82.8959878 244.436,80.076016 244.436,76.884 C244.436,74.3399873 244.837996,71.964011 245.642,69.756 C246.446004,67.547989 247.597992,65.6280082 249.098,63.996 C250.598007,62.3639918 252.421989,61.0740047 254.57,60.126 C256.718011,59.1779953 259.147986,58.704 261.86,58.704 C264.116011,58.704 266.20399,59.0699963 268.124,59.802 C270.04401,60.5340037 271.699993,61.6079929 273.092,63.024 C274.484007,64.4400071 275.569996,66.1739897 276.35,68.226 C277.130004,70.2780103 277.52,72.6119869 277.52,75.228 C277.52,76.428006 277.388001,77.231998 277.124,77.64 C276.859999,78.048002 276.380003,78.252 275.684,78.252 L252.104,78.252 Z M313.716,66.48 C313.475999,66.7920016 313.248001,67.0319992 313.032,67.2 C312.815999,67.3680008 312.504002,67.452 312.096,67.452 C311.687998,67.452 311.262002,67.3080014 310.818,67.02 C310.373998,66.7319986 309.846003,66.4140017 309.234,66.066 C308.621997,65.7179983 307.884004,65.4000014 307.02,65.112 C306.155996,64.8239986 305.076006,64.68 303.78,64.68 C302.099991,64.68 300.630006,64.979997 299.37,65.58 C298.109994,66.180003 297.054004,67.0379944 296.202,68.154 C295.349996,69.2700056 294.714002,70.625992 294.294,72.222 C293.873998,73.818008 293.664,75.61199 293.664,77.604 C293.664,79.6680103 293.891998,81.503992 294.348,83.112 C294.804002,84.720008 295.457996,86.0759945 296.31,87.18 C297.162004,88.2840055 298.193994,89.1239971 299.406,89.7 C300.618006,90.2760029 301.979992,90.564 303.492,90.564 C304.980007,90.564 306.191995,90.3840018 307.128,90.024 C308.064005,89.6639982 308.843997,89.2680022 309.468,88.836 C310.092003,88.4039978 310.625998,88.0080018 311.07,87.648 C311.514002,87.2879982 311.987997,87.108 312.492,87.108 C313.116003,87.108 313.595998,87.3479976 313.932,87.828 L316.128,90.672 C315.239995,91.7520054 314.256005,92.6639963 313.176,93.408 C312.095994,94.1520037 310.956006,94.7579977 309.756,95.226 C308.555994,95.6940023 307.308006,96.029999 306.012,96.234 C304.715993,96.438001 303.408006,96.54 302.088,96.54 C299.807988,96.54 297.67801,96.1140043 295.698,95.262 C293.71799,94.4099957 291.990007,93.1740081 290.514,91.554 C289.037993,89.9339919 287.874004,87.9540117 287.022,85.614 C286.169996,83.2739883 285.744,80.604015 285.744,77.604 C285.744,74.8919864 286.127996,72.3780116 286.896,70.062 C287.664004,67.7459884 288.785993,65.7480084 290.262,64.068 C291.738007,62.3879916 293.567989,61.0740047 295.752,60.126 C297.936011,59.1779953 300.455986,58.704 303.312,58.704 C305.976013,58.704 308.32199,59.1359957 310.35,60 C312.37801,60.8640043 314.183992,62.0879921 315.768,63.672 L313.716,66.48 Z M337.132,96.576 C334.083985,96.576 331.738008,95.7180086 330.094,94.002 C328.449992,92.2859914 327.628,89.8680156 327.628,86.748 L327.628,65.364 L323.596,65.364 C323.163998,65.364 322.792001,65.2260014 322.48,64.95 C322.167998,64.6739986 322.012,64.2600028 322.012,63.708 L322.012,60.576 L327.952,59.712 L329.644,49.092 C329.764,48.683998 329.967998,48.3540013 330.256,48.102 C330.544001,47.8499987 330.927997,47.724 331.408,47.724 L335.368,47.724 L335.368,59.784 L345.556,59.784 L345.556,65.364 L335.368,65.364 L335.368,86.208 C335.368,87.5280066 335.691997,88.5359965 336.34,89.232 C336.988003,89.9280035 337.851994,90.276 338.932,90.276 C339.532003,90.276 340.047998,90.1980008 340.48,90.042 C340.912002,89.8859992 341.283998,89.7180009 341.596,89.538 C341.908001,89.3579991 342.177999,89.1900008 342.406,89.034 C342.634001,88.8779992 342.855999,88.8 343.072,88.8 C343.504002,88.8 343.851999,89.0399976 344.116,89.52 L346.42,93.3 C345.219994,94.3560053 343.804008,95.1659972 342.172,95.73 C340.539992,96.2940028 338.860008,96.576 337.132,96.576 Z M362.024,66.084 C363.176006,63.7559884 364.567992,61.9260067 366.2,60.594 C367.832008,59.2619933 369.787988,58.596 372.068,58.596 C372.860004,58.596 373.603996,58.6859991 374.3,58.866 C374.996003,59.0460009 375.619997,59.3159982 376.172,59.676 L375.632,65.508 C375.535999,65.916002 375.386001,66.1979992 375.182,66.354 C374.977999,66.5100008 374.708001,66.588 374.372,66.588 C374.011998,66.588 373.496003,66.5220007 372.824,66.39 C372.151996,66.2579993 371.444004,66.192 370.7,66.192 C369.619994,66.192 368.666004,66.3479984 367.838,66.66 C367.009996,66.9720016 366.266003,67.427997 365.606,68.028 C364.945997,68.628003 364.364002,69.3599957 363.86,70.224 C363.355997,71.0880043 362.888002,72.0719945 362.456,73.176 L362.456,96 L354.716,96 L354.716,59.28 L359.216,59.28 C360.032004,59.28 360.595998,59.4299985 360.908,59.73 C361.220001,60.0300015 361.435999,60.5519963 361.556,61.296 L362.024,66.084 Z M392.388,59.28 L392.388,96 L384.648,96 L384.648,59.28 L392.388,59.28 Z M393.684,48.192 C393.684,48.8880035 393.546001,49.5479969 393.27,50.172 C392.993998,50.7960031 392.616002,51.3419977 392.136,51.81 C391.655997,52.2780023 391.098003,52.6499986 390.462,52.926 C389.825997,53.2020014 389.148003,53.34 388.428,53.34 C387.731996,53.34 387.078003,53.2020014 386.466,52.926 C385.853997,52.6499986 385.320002,52.2780023 384.864,51.81 C384.407997,51.3419977 384.042001,50.7960031 383.766,50.172 C383.489998,49.5479969 383.352,48.8880035 383.352,48.192 C383.352,47.4719964 383.489998,46.8000031 383.766,46.176 C384.042001,45.5519969 384.407997,45.0060023 384.864,44.538 C385.320002,44.0699977 385.853997,43.6980014 386.466,43.422 C387.078003,43.1459986 387.731996,43.008 388.428,43.008 C389.148003,43.008 389.825997,43.1459986 390.462,43.422 C391.098003,43.6980014 391.655997,44.0699977 392.136,44.538 C392.616002,45.0060023 392.993998,45.5519969 393.27,46.176 C393.546001,46.8000031 393.684,47.4719964 393.684,48.192 Z M431.14,66.48 C430.899999,66.7920016 430.672001,67.0319992 430.456,67.2 C430.239999,67.3680008 429.928002,67.452 429.52,67.452 C429.111998,67.452 428.686002,67.3080014 428.242,67.02 C427.797998,66.7319986 427.270003,66.4140017 426.658,66.066 C426.045997,65.7179983 425.308004,65.4000014 424.444,65.112 C423.579995,64.8239986 422.500006,64.68 421.204,64.68 C419.523991,64.68 418.054006,64.979997 416.794,65.58 C415.533993,66.180003 414.478004,67.0379944 413.626,68.154 C412.773995,69.2700056 412.138002,70.625992 411.718,72.222 C411.297998,73.818008 411.088,75.61199 411.088,77.604 C411.088,79.6680103 411.315997,81.503992 411.772,83.112 C412.228002,84.720008 412.881995,86.0759945 413.734,87.18 C414.586004,88.2840055 415.617994,89.1239971 416.83,89.7 C418.042006,90.2760029 419.403992,90.564 420.916,90.564 C422.404007,90.564 423.615995,90.3840018 424.552,90.024 C425.488004,89.6639982 426.267997,89.2680022 426.892,88.836 C427.516003,88.4039978 428.049998,88.0080018 428.494,87.648 C428.938002,87.2879982 429.411997,87.108 429.916,87.108 C430.540003,87.108 431.019998,87.3479976 431.356,87.828 L433.552,90.672 C432.663995,91.7520054 431.680005,92.6639963 430.6,93.408 C429.519994,94.1520037 428.380006,94.7579977 427.18,95.226 C425.979994,95.6940023 424.732006,96.029999 423.436,96.234 C422.139993,96.438001 420.832006,96.54 419.512,96.54 C417.231988,96.54 415.10201,96.1140043 413.122,95.262 C411.14199,94.4099957 409.414007,93.1740081 407.938,91.554 C406.461992,89.9339919 405.298004,87.9540117 404.446,85.614 C403.593995,83.2739883 403.168,80.604015 403.168,77.604 C403.168,74.8919864 403.551996,72.3780116 404.32,70.062 C405.088004,67.7459884 406.209992,65.7480084 407.686,64.068 C409.162007,62.3879916 410.991989,61.0740047 413.176,60.126 C415.360011,59.1779953 417.879985,58.704 420.736,58.704 C423.400013,58.704 425.74599,59.1359957 427.774,60 C429.80201,60.8640043 431.607992,62.0879921 433.192,63.672 L431.14,66.48 Z M450.848,59.28 L450.848,96 L443.108,96 L443.108,59.28 L450.848,59.28 Z M452.144,48.192 C452.144,48.8880035 452.006001,49.5479969 451.73,50.172 C451.453998,50.7960031 451.076002,51.3419977 450.596,51.81 C450.115997,52.2780023 449.558003,52.6499986 448.922,52.926 C448.285997,53.2020014 447.608003,53.34 446.888,53.34 C446.191996,53.34 445.538003,53.2020014 444.926,52.926 C444.313997,52.6499986 443.780002,52.2780023 443.324,51.81 C442.867997,51.3419977 442.502001,50.7960031 442.226,50.172 C441.949998,49.5479969 441.812,48.8880035 441.812,48.192 C441.812,47.4719964 441.949998,46.8000031 442.226,46.176 C442.502001,45.5519969 442.867997,45.0060023 443.324,44.538 C443.780002,44.0699977 444.313997,43.6980014 444.926,43.422 C445.538003,43.1459986 446.191996,43.008 446.888,43.008 C447.608003,43.008 448.285997,43.1459986 448.922,43.422 C449.558003,43.6980014 450.115997,44.0699977 450.596,44.538 C451.076002,45.0060023 451.453998,45.5519969 451.73,46.176 C452.006001,46.8000031 452.144,47.4719964 452.144,48.192 Z M475.416,96.576 C472.367984,96.576 470.022008,95.7180086 468.378,94.002 C466.733991,92.2859914 465.912,89.8680156 465.912,86.748 L465.912,65.364 L461.88,65.364 C461.447997,65.364 461.076001,65.2260014 460.764,64.95 C460.451998,64.6739986 460.296,64.2600028 460.296,63.708 L460.296,60.576 L466.236,59.712 L467.928,49.092 C468.048,48.683998 468.251998,48.3540013 468.54,48.102 C468.828001,47.8499987 469.211997,47.724 469.692,47.724 L473.652,47.724 L473.652,59.784 L483.84,59.784 L483.84,65.364 L473.652,65.364 L473.652,86.208 C473.652,87.5280066 473.975996,88.5359965 474.624,89.232 C475.272003,89.9280035 476.135994,90.276 477.216,90.276 C477.816003,90.276 478.331997,90.1980008 478.764,90.042 C479.196002,89.8859992 479.567998,89.7180009 479.88,89.538 C480.192001,89.3579991 480.461999,89.1900008 480.69,89.034 C480.918001,88.8779992 481.139999,88.8 481.356,88.8 C481.788002,88.8 482.135998,89.0399976 482.4,89.52 L484.704,93.3 C483.503994,94.3560053 482.088008,95.1659972 480.456,95.73 C478.823991,96.2940028 477.144008,96.576 475.416,96.576 Z M525.58,59.28 L505.348,106.44 C505.083998,106.992003 504.766001,107.423998 504.394,107.736 C504.021998,108.048002 503.452003,108.204 502.684,108.204 L496.96,108.204 L503.728,93.516 L488.752,59.28 L495.484,59.28 C496.132003,59.28 496.629998,59.4299985 496.978,59.73 C497.326001,60.0300015 497.583999,60.383998 497.752,60.792 L506.5,81.636 C506.716001,82.236003 506.913999,82.8299971 507.094,83.418 C507.274001,84.0060029 507.447999,84.6119969 507.616,85.236 C507.808001,84.6119969 507.999999,84.000003 508.192,83.4 C508.384001,82.799997 508.599998,82.200003 508.84,81.6 L517.228,60.792 C517.396,60.3599978 517.677998,60.0000014 518.074,59.712 C518.470002,59.4239986 518.907997,59.28 519.388,59.28 L525.58,59.28 Z M589.496,44.16 L589.496,96 L582.08,96 L582.08,60.468 C582.08,59.8919971 582.097999,59.2620034 582.134,58.578 C582.17,57.8939966 582.223999,57.2040035 582.296,56.508 L565.628,87.288 C564.979996,88.5600064 563.984006,89.196 562.64,89.196 L561.452,89.196 C560.083993,89.196 559.088003,88.5600064 558.464,87.288 L541.544,56.436 C541.616,57.1320035 541.669999,57.8279965 541.706,58.524 C541.742,59.2200035 541.76,59.867997 541.76,60.468 L541.76,96 L534.344,96 L534.344,44.16 L540.644,44.16 C541.388003,44.16 541.963998,44.2259993 542.372,44.358 C542.780002,44.4900007 543.151998,44.8919966 543.488,45.564 L560.12,75.696 C560.480001,76.3920035 560.821998,77.1059963 561.146,77.838 C561.470001,78.5700037 561.763998,79.3199962 562.028,80.088 C562.316001,79.3199962 562.621998,78.5580038 562.946,77.802 C563.270001,77.0459962 563.611998,76.3200035 563.972,75.624 L580.352,45.564 C580.688001,44.8919966 581.059998,44.4900007 581.468,44.358 C581.876002,44.2259993 582.451996,44.16 583.196,44.16 L589.496,44.16 Z M622.02,79.944 C619.259986,80.0400005 616.932009,80.2619983 615.036,80.61 C613.13999,80.9580017 611.604005,81.4019973 610.428,81.942 C609.251994,82.4820027 608.406002,83.1239963 607.89,83.868 C607.373997,84.6120037 607.116,85.4279956 607.116,86.316 C607.116,87.1800043 607.253998,87.9179969 607.53,88.53 C607.806001,89.1420031 608.189997,89.645998 608.682,90.042 C609.174002,90.438002 609.749996,90.7259991 610.41,90.906 C611.070003,91.0860009 611.795996,91.176 612.588,91.176 C614.60401,91.176 616.337992,90.7980038 617.79,90.042 C619.242007,89.2859962 620.651993,88.1880072 622.02,86.748 L622.02,79.944 Z M601.5,64.392 C605.65202,60.5279807 610.595971,58.596 616.332,58.596 C618.44401,58.596 620.321991,58.9379966 621.966,59.622 C623.610008,60.3060034 624.989994,61.2719938 626.106,62.52 C627.222005,63.7680062 628.073997,65.2499914 628.662,66.966 C629.250002,68.6820086 629.544,70.5839896 629.544,72.672 L629.544,96 L626.088,96 C625.343996,96 624.780001,95.8860011 624.396,95.658 C624.011998,95.4299989 623.688001,94.9680035 623.424,94.272 L622.668,91.284 C621.731995,92.1240042 620.808004,92.8739967 619.896,93.534 C618.983995,94.1940033 618.042004,94.7519977 617.07,95.208 C616.097995,95.6640023 615.054005,96.0059989 613.938,96.234 C612.821994,96.4620011 611.592006,96.576 610.248,96.576 C608.759992,96.576 607.374006,96.372002 606.09,95.964 C604.805993,95.555998 603.696004,94.9380041 602.76,94.11 C601.823995,93.2819959 601.086002,92.2560061 600.546,91.032 C600.005997,89.8079939 599.736,88.3680083 599.736,86.712 C599.736,85.2959929 600.113996,83.9160067 600.87,82.572 C601.626003,81.2279933 602.873991,80.0220053 604.614,78.954 C606.354008,77.8859947 608.645985,77.0040035 611.49,76.308 C614.334014,75.6119965 617.843979,75.2160005 622.02,75.12 L622.02,72.672 C622.02,70.0319868 621.456005,68.0640065 620.328,66.768 C619.199994,65.4719935 617.54401,64.824 615.36,64.824 C613.871992,64.824 612.624005,65.0099981 611.616,65.382 C610.607995,65.7540019 609.732003,66.1559978 608.988,66.588 C608.243996,67.0200022 607.584002,67.4219981 607.008,67.794 C606.431997,68.1660019 605.820003,68.352 605.172,68.352 C604.643997,68.352 604.194001,68.2140014 603.822,67.938 C603.449998,67.6619986 603.144001,67.320002 602.904,66.912 L601.5,64.392 Z M649.36,86.784 C650.440005,88.176007 651.621993,89.1539972 652.906,89.718 C654.190006,90.2820028 655.611992,90.564 657.172,90.564 C660.196015,90.564 662.553991,89.460011 664.246,87.252 C665.938008,85.043989 666.784,81.7560218 666.784,77.388 C666.784,75.1319887 666.592001,73.206008 666.208,71.61 C665.823998,70.013992 665.272003,68.712005 664.552,67.704 C663.831996,66.695995 662.956005,65.9640023 661.924,65.508 C660.891994,65.0519977 659.728006,64.824 658.432,64.824 C656.46399,64.824 654.766007,65.2499957 653.338,66.102 C651.909992,66.9540043 650.584006,68.1719921 649.36,69.756 L649.36,86.784 Z M648.964,64.608 C650.500007,62.807991 652.24599,61.3560055 654.202,60.252 C656.158009,59.1479945 658.431987,58.596 661.024,58.596 C663.08801,58.596 664.959991,59.0099959 666.64,59.838 C668.320008,60.6660041 669.759994,61.8719921 670.96,63.456 C672.160006,65.0400079 673.089996,67.0019883 673.75,69.342 C674.410003,71.6820117 674.74,74.3639849 674.74,77.388 C674.74,80.1000136 674.374003,82.6259883 673.642,84.966 C672.909996,87.3060117 671.860006,89.3339914 670.492,91.05 C669.123993,92.7660086 667.468009,94.1099951 665.524,95.082 C663.57999,96.0540049 661.384012,96.54 658.936,96.54 C656.775989,96.54 654.946007,96.1920035 653.446,95.496 C651.945992,94.7999965 650.584006,93.8400061 649.36,92.616 L649.36,108.204 L641.62,108.204 L641.62,59.28 L646.3,59.28 C647.356005,59.28 648.027998,59.7719951 648.316,60.756 L648.964,64.608 Z" id="electricityMap" fill="#000000"></path>
        <g id="Page-1" transform="translate(37.000000, 22.000000)">
            <polygon id="Fill-1" fill="#000000" points="10.2897 12.0421 -0.0003 95.7421 16.3997 89.7441 21.6787 79.1631 9.5577 83.6601 17.5717 18.4731 34.0597 14.3241 50.5457 19.9761 57.5487 13.9121 34.4097 5.9721"></polygon>
            <polygon id="Fill-2" fill="#000000" points="88.3197 15.9508 100.4307 19.9698 107.5527 83.8638 85.2917 74.9328 60.0417 85.5598 51.9187 82.1068 44.3347 87.5898 60.0267 94.2578 85.3647 83.5948 116.9997 96.2848 107.8257 13.9818 91.3007 8.4978"></polygon>
            <g id="Group-5" transform="translate(24.000000, 0.029000)">
                <mask id="mask-2" fill="white">
                    <use xlink:href="#path-1"></use>
                </mask>
                <g id="Clip-4"></g>
                <polygon id="Fill-3" fill="#000000" mask="url(#mask-2)" points="-20.2183 11.7337 66.0207 -5.0293 82.7887 81.2367 -3.4493 97.9997"></polygon>
            </g>
        </g>
    </g>
</svg>