<?xml version="1.0" encoding="UTF-8"?>
<svg width="638px" height="97px" viewBox="0 0 638 97" version="1.1" xmlns="http://www.w3.org/2000/svg" xmlns:xlink="http://www.w3.org/1999/xlink">
    <!-- Generator: Sketch 50.2 (55047) - http://www.bohemiancoding.com/sketch -->
    <title>electricitymap</title>
    <desc>Created with Sketch.</desc>
    <defs>
        <path d="M84.842,1.582 L33.694,48.452 C32.469,49.573 32.656,51.129 34.106,51.931 L42.063,56.335 C43.516,57.138 43.998,58.939 43.147,60.36 L24.918,90.789 C24.068,92.209 24.45,92.544 25.775,91.536 L80.743,49.683 C82.079,48.666 81.899,47.342 80.367,46.706 L69.885,42.358 C68.356,41.722 67.693,39.99 68.412,38.489 L85.753,2.271 C86.181,1.378 86.21,0.907 85.907,0.907 C85.7,0.907 85.338,1.127 84.842,1.582 Z" id="path-1"></path>
    </defs>
    <g id="Symbols" stroke="none" stroke-width="1" fill="none" fill-rule="evenodd">
        <g id="electricityMap-Logo-smallpadding" transform="translate(-37.000000, -22.000000)">
            <g id="electricitymap" transform="translate(37.000000, 22.000000)">
                <path d="M171.8,51.5 C171.8,50.2039935 171.614002,48.9980056 171.242,47.882 C170.869998,46.7659944 170.324004,45.7940041 169.604,44.966 C168.883996,44.1379959 167.990005,43.4900023 166.922,43.022 C165.853995,42.5539977 164.624007,42.32 163.232,42.32 C160.423986,42.32 158.216008,43.123992 156.608,44.732 C154.999992,46.340008 153.980002,48.5959855 153.548,51.5 L171.8,51.5 Z M153.332,56.252 C153.428,58.3400104 153.751997,60.1459924 154.304,61.67 C154.856003,63.1940076 155.593995,64.459995 156.518,65.468 C157.442005,66.476005 158.545994,67.2259975 159.83,67.718 C161.114006,68.2100025 162.547992,68.456 164.132,68.456 C165.644008,68.456 166.951994,68.2820017 168.056,67.934 C169.160006,67.5859983 170.119996,67.2020021 170.936,66.782 C171.752004,66.3619979 172.447997,65.9780017 173.024,65.63 C173.600003,65.2819983 174.127998,65.108 174.608,65.108 C175.232003,65.108 175.711998,65.3479976 176.048,65.828 L178.244,68.672 C177.331995,69.7520054 176.300006,70.6639963 175.148,71.408 C173.995994,72.1520037 172.772006,72.7579977 171.476,73.226 C170.179994,73.6940023 168.848007,74.029999 167.48,74.234 C166.111993,74.438001 164.780006,74.54 163.484,74.54 C160.939987,74.54 158.582011,74.1140043 156.41,73.262 C154.237989,72.4099957 152.354008,71.1560083 150.758,69.5 C149.161992,67.8439917 147.914005,65.7920122 147.014,63.344 C146.113995,60.8959878 145.664,58.076016 145.664,54.884 C145.664,52.3399873 146.065996,49.964011 146.87,47.756 C147.674004,45.547989 148.825993,43.6280082 150.326,41.996 C151.826008,40.3639918 153.649989,39.0740047 155.798,38.126 C157.946011,37.1779953 160.375986,36.704 163.088,36.704 C165.344011,36.704 167.43199,37.0699963 169.352,37.802 C171.27201,38.5340037 172.927993,39.6079929 174.32,41.024 C175.712007,42.4400071 176.797996,44.1739897 177.578,46.226 C178.358004,48.2780103 178.748,50.6119869 178.748,53.228 C178.748,54.428006 178.616001,55.231998 178.352,55.64 C178.087999,56.048002 177.608003,56.252 176.912,56.252 L153.332,56.252 Z M196.872,20.72 L196.872,74 L189.132,74 L189.132,20.72 L196.872,20.72 Z M233.572,51.5 C233.572,50.2039935 233.386002,48.9980056 233.014,47.882 C232.641998,46.7659944 232.096004,45.7940041 231.376,44.966 C230.655996,44.1379959 229.762005,43.4900023 228.694,43.022 C227.625995,42.5539977 226.396007,42.32 225.004,42.32 C222.195986,42.32 219.988008,43.123992 218.38,44.732 C216.771992,46.340008 215.752002,48.5959855 215.32,51.5 L233.572,51.5 Z M215.104,56.252 C215.2,58.3400104 215.523997,60.1459924 216.076,61.67 C216.628003,63.1940076 217.365995,64.459995 218.29,65.468 C219.214005,66.476005 220.317994,67.2259975 221.602,67.718 C222.886006,68.2100025 224.319992,68.456 225.904,68.456 C227.416007,68.456 228.723994,68.2820017 229.828,67.934 C230.932005,67.5859983 231.891996,67.2020021 232.708,66.782 C233.524004,66.3619979 234.219997,65.9780017 234.796,65.63 C235.372003,65.2819983 235.899998,65.108 236.38,65.108 C237.004003,65.108 237.483998,65.3479976 237.82,65.828 L240.016,68.672 C239.103995,69.7520054 238.072006,70.6639963 236.92,71.408 C235.767994,72.1520037 234.544006,72.7579977 233.248,73.226 C231.951993,73.6940023 230.620007,74.029999 229.252,74.234 C227.883993,74.438001 226.552006,74.54 225.256,74.54 C222.711987,74.54 220.354011,74.1140043 218.182,73.262 C216.009989,72.4099957 214.126008,71.1560083 212.53,69.5 C210.933992,67.8439917 209.686004,65.7920122 208.786,63.344 C207.885995,60.8959878 207.436,58.076016 207.436,54.884 C207.436,52.3399873 207.837996,49.964011 208.642,47.756 C209.446004,45.547989 210.597992,43.6280082 212.098,41.996 C213.598007,40.3639918 215.421989,39.0740047 217.57,38.126 C219.718011,37.1779953 222.147986,36.704 224.86,36.704 C227.116011,36.704 229.20399,37.0699963 231.124,37.802 C233.04401,38.5340037 234.699993,39.6079929 236.092,41.024 C237.484007,42.4400071 238.569996,44.1739897 239.35,46.226 C240.130004,48.2780103 240.52,50.6119869 240.52,53.228 C240.52,54.428006 240.388001,55.231998 240.124,55.64 C239.859999,56.048002 239.380003,56.252 238.684,56.252 L215.104,56.252 Z M276.716,44.48 C276.475999,44.7920016 276.248001,45.0319992 276.032,45.2 C275.815999,45.3680008 275.504002,45.452 275.096,45.452 C274.687998,45.452 274.262002,45.3080014 273.818,45.02 C273.373998,44.7319986 272.846003,44.4140017 272.234,44.066 C271.621997,43.7179983 270.884004,43.4000014 270.02,43.112 C269.155996,42.8239986 268.076006,42.68 266.78,42.68 C265.099991,42.68 263.630006,42.979997 262.37,43.58 C261.109994,44.180003 260.054004,45.0379944 259.202,46.154 C258.349996,47.2700056 257.714002,48.625992 257.294,50.222 C256.873998,51.818008 256.664,53.61199 256.664,55.604 C256.664,57.6680103 256.891998,59.503992 257.348,61.112 C257.804002,62.720008 258.457996,64.0759945 259.31,65.18 C260.162004,66.2840055 261.193994,67.1239971 262.406,67.7 C263.618006,68.2760029 264.979992,68.564 266.492,68.564 C267.980007,68.564 269.191995,68.3840018 270.128,68.024 C271.064005,67.6639982 271.843997,67.2680022 272.468,66.836 C273.092003,66.4039978 273.625998,66.0080018 274.07,65.648 C274.514002,65.2879982 274.987997,65.108 275.492,65.108 C276.116003,65.108 276.595998,65.3479976 276.932,65.828 L279.128,68.672 C278.239995,69.7520054 277.256005,70.6639963 276.176,71.408 C275.095994,72.1520037 273.956006,72.7579977 272.756,73.226 C271.555994,73.6940023 270.308006,74.029999 269.012,74.234 C267.715993,74.438001 266.408006,74.54 265.088,74.54 C262.807988,74.54 260.67801,74.1140043 258.698,73.262 C256.71799,72.4099957 254.990007,71.1740081 253.514,69.554 C252.037993,67.9339919 250.874004,65.9540117 250.022,63.614 C249.169996,61.2739883 248.744,58.604015 248.744,55.604 C248.744,52.8919864 249.127996,50.3780116 249.896,48.062 C250.664004,45.7459884 251.785993,43.7480084 253.262,42.068 C254.738007,40.3879916 256.567989,39.0740047 258.752,38.126 C260.936011,37.1779953 263.455986,36.704 266.312,36.704 C268.976013,36.704 271.32199,37.1359957 273.35,38 C275.37801,38.8640043 277.183992,40.0879921 278.768,41.672 L276.716,44.48 Z M300.132,74.576 C297.083985,74.576 294.738008,73.7180086 293.094,72.002 C291.449992,70.2859914 290.628,67.8680156 290.628,64.748 L290.628,43.364 L286.596,43.364 C286.163998,43.364 285.792001,43.2260014 285.48,42.95 C285.167998,42.6739986 285.012,42.2600028 285.012,41.708 L285.012,38.576 L290.952,37.712 L292.644,27.092 C292.764,26.683998 292.967998,26.3540013 293.256,26.102 C293.544001,25.8499987 293.927997,25.724 294.408,25.724 L298.368,25.724 L298.368,37.784 L308.556,37.784 L308.556,43.364 L298.368,43.364 L298.368,64.208 C298.368,65.5280066 298.691997,66.5359965 299.34,67.232 C299.988003,67.9280035 300.851994,68.276 301.932,68.276 C302.532003,68.276 303.047998,68.1980008 303.48,68.042 C303.912002,67.8859992 304.283998,67.7180009 304.596,67.538 C304.908001,67.3579991 305.177999,67.1900008 305.406,67.034 C305.634001,66.8779992 305.855999,66.8 306.072,66.8 C306.504002,66.8 306.851999,67.0399976 307.116,67.52 L309.42,71.3 C308.219994,72.3560053 306.804008,73.1659972 305.172,73.73 C303.539992,74.2940028 301.860008,74.576 300.132,74.576 Z M325.024,44.084 C326.176006,41.7559884 327.567992,39.9260067 329.2,38.594 C330.832008,37.2619933 332.787988,36.596 335.068,36.596 C335.860004,36.596 336.603996,36.6859991 337.3,36.866 C337.996003,37.0460009 338.619997,37.3159982 339.172,37.676 L338.632,43.508 C338.535999,43.916002 338.386001,44.1979992 338.182,44.354 C337.977999,44.5100008 337.708001,44.588 337.372,44.588 C337.011998,44.588 336.496003,44.5220007 335.824,44.39 C335.151996,44.2579993 334.444004,44.192 333.7,44.192 C332.619994,44.192 331.666004,44.3479984 330.838,44.66 C330.009996,44.9720016 329.266003,45.427997 328.606,46.028 C327.945997,46.628003 327.364002,47.3599957 326.86,48.224 C326.355997,49.0880043 325.888002,50.0719945 325.456,51.176 L325.456,74 L317.716,74 L317.716,37.28 L322.216,37.28 C323.032004,37.28 323.595998,37.4299985 323.908,37.73 C324.220001,38.0300015 324.435999,38.5519963 324.556,39.296 L325.024,44.084 Z M355.388,37.28 L355.388,74 L347.648,74 L347.648,37.28 L355.388,37.28 Z M356.684,26.192 C356.684,26.8880035 356.546001,27.5479969 356.27,28.172 C355.993998,28.7960031 355.616002,29.3419977 355.136,29.81 C354.655997,30.2780023 354.098003,30.6499986 353.462,30.926 C352.825997,31.2020014 352.148003,31.34 351.428,31.34 C350.731996,31.34 350.078003,31.2020014 349.466,30.926 C348.853997,30.6499986 348.320002,30.2780023 347.864,29.81 C347.407997,29.3419977 347.042001,28.7960031 346.766,28.172 C346.489998,27.5479969 346.352,26.8880035 346.352,26.192 C346.352,25.4719964 346.489998,24.8000031 346.766,24.176 C347.042001,23.5519969 347.407997,23.0060023 347.864,22.538 C348.320002,22.0699977 348.853997,21.6980014 349.466,21.422 C350.078003,21.1459986 350.731996,21.008 351.428,21.008 C352.148003,21.008 352.825997,21.1459986 353.462,21.422 C354.098003,21.6980014 354.655997,22.0699977 355.136,22.538 C355.616002,23.0060023 355.993998,23.5519969 356.27,24.176 C356.546001,24.8000031 356.684,25.4719964 356.684,26.192 Z M394.14,44.48 C393.899999,44.7920016 393.672001,45.0319992 393.456,45.2 C393.239999,45.3680008 392.928002,45.452 392.52,45.452 C392.111998,45.452 391.686002,45.3080014 391.242,45.02 C390.797998,44.7319986 390.270003,44.4140017 389.658,44.066 C389.045997,43.7179983 388.308004,43.4000014 387.444,43.112 C386.579995,42.8239986 385.500006,42.68 384.204,42.68 C382.523991,42.68 381.054006,42.979997 379.794,43.58 C378.533993,44.180003 377.478004,45.0379944 376.626,46.154 C375.773995,47.2700056 375.138002,48.625992 374.718,50.222 C374.297998,51.818008 374.088,53.61199 374.088,55.604 C374.088,57.6680103 374.315997,59.503992 374.772,61.112 C375.228002,62.720008 375.881995,64.0759945 376.734,65.18 C377.586004,66.2840055 378.617994,67.1239971 379.83,67.7 C381.042006,68.2760029 382.403992,68.564 383.916,68.564 C385.404007,68.564 386.615995,68.3840018 387.552,68.024 C388.488004,67.6639982 389.267997,67.2680022 389.892,66.836 C390.516003,66.4039978 391.049998,66.0080018 391.494,65.648 C391.938002,65.2879982 392.411997,65.108 392.916,65.108 C393.540003,65.108 394.019998,65.3479976 394.356,65.828 L396.552,68.672 C395.663995,69.7520054 394.680005,70.6639963 393.6,71.408 C392.519994,72.1520037 391.380006,72.7579977 390.18,73.226 C388.979994,73.6940023 387.732006,74.029999 386.436,74.234 C385.139993,74.438001 383.832006,74.54 382.512,74.54 C380.231988,74.54 378.10201,74.1140043 376.122,73.262 C374.14199,72.4099957 372.414007,71.1740081 370.938,69.554 C369.461992,67.9339919 368.298004,65.9540117 367.446,63.614 C366.593995,61.2739883 366.168,58.604015 366.168,55.604 C366.168,52.8919864 366.551996,50.3780116 367.32,48.062 C368.088004,45.7459884 369.209992,43.7480084 370.686,42.068 C372.162007,40.3879916 373.991989,39.0740047 376.176,38.126 C378.360011,37.1779953 380.879985,36.704 383.736,36.704 C386.400013,36.704 388.74599,37.1359957 390.774,38 C392.80201,38.8640043 394.607992,40.0879921 396.192,41.672 L394.14,44.48 Z M413.848,37.28 L413.848,74 L406.108,74 L406.108,37.28 L413.848,37.28 Z M415.144,26.192 C415.144,26.8880035 415.006001,27.5479969 414.73,28.172 C414.453998,28.7960031 414.076002,29.3419977 413.596,29.81 C413.115997,30.2780023 412.558003,30.6499986 411.922,30.926 C411.285997,31.2020014 410.608003,31.34 409.888,31.34 C409.191996,31.34 408.538003,31.2020014 407.926,30.926 C407.313997,30.6499986 406.780002,30.2780023 406.324,29.81 C405.867997,29.3419977 405.502001,28.7960031 405.226,28.172 C404.949998,27.5479969 404.812,26.8880035 404.812,26.192 C404.812,25.4719964 404.949998,24.8000031 405.226,24.176 C405.502001,23.5519969 405.867997,23.0060023 406.324,22.538 C406.780002,22.0699977 407.313997,21.6980014 407.926,21.422 C408.538003,21.1459986 409.191996,21.008 409.888,21.008 C410.608003,21.008 411.285997,21.1459986 411.922,21.422 C412.558003,21.6980014 413.115997,22.0699977 413.596,22.538 C414.076002,23.0060023 414.453998,23.5519969 414.73,24.176 C415.006001,24.8000031 415.144,25.4719964 415.144,26.192 Z M438.416,74.576 C435.367984,74.576 433.022008,73.7180086 431.378,72.002 C429.733991,70.2859914 428.912,67.8680156 428.912,64.748 L428.912,43.364 L424.88,43.364 C424.447997,43.364 424.076001,43.2260014 423.764,42.95 C423.451998,42.6739986 423.296,42.2600028 423.296,41.708 L423.296,38.576 L429.236,37.712 L430.928,27.092 C431.048,26.683998 431.251998,26.3540013 431.54,26.102 C431.828001,25.8499987 432.211997,25.724 432.692,25.724 L436.652,25.724 L436.652,37.784 L446.84,37.784 L446.84,43.364 L436.652,43.364 L436.652,64.208 C436.652,65.5280066 436.975996,66.5359965 437.624,67.232 C438.272003,67.9280035 439.135994,68.276 440.216,68.276 C440.816003,68.276 441.331997,68.1980008 441.764,68.042 C442.196002,67.8859992 442.567998,67.7180009 442.88,67.538 C443.192001,67.3579991 443.461999,67.1900008 443.69,67.034 C443.918001,66.8779992 444.139999,66.8 444.356,66.8 C444.788002,66.8 445.135998,67.0399976 445.4,67.52 L447.704,71.3 C446.503994,72.3560053 445.088008,73.1659972 443.456,73.73 C441.823991,74.2940028 440.144008,74.576 438.416,74.576 Z M488.58,37.28 L468.348,84.44 C468.083998,84.9920028 467.766001,85.4239984 467.394,85.736 C467.021998,86.0480016 466.452003,86.204 465.684,86.204 L459.96,86.204 L466.728,71.516 L451.752,37.28 L458.484,37.28 C459.132003,37.28 459.629998,37.4299985 459.978,37.73 C460.326001,38.0300015 460.583999,38.383998 460.752,38.792 L469.5,59.636 C469.716001,60.236003 469.913999,60.8299971 470.094,61.418 C470.274001,62.0060029 470.447999,62.6119969 470.616,63.236 C470.808001,62.6119969 470.999999,62.000003 471.192,61.4 C471.384001,60.799997 471.599998,60.200003 471.84,59.6 L480.228,38.792 C480.396,38.3599978 480.677998,38.0000014 481.074,37.712 C481.470002,37.4239986 481.907997,37.28 482.388,37.28 L488.58,37.28 Z M552.496,22.16 L552.496,74 L545.08,74 L545.08,38.468 C545.08,37.8919971 545.097999,37.2620034 545.134,36.578 C545.17,35.8939966 545.223999,35.2040035 545.296,34.508 L528.628,65.288 C527.979996,66.5600064 526.984006,67.196 525.64,67.196 L524.452,67.196 C523.083993,67.196 522.088003,66.5600064 521.464,65.288 L504.544,34.436 C504.616,35.1320035 504.669999,35.8279965 504.706,36.524 C504.742,37.2200035 504.76,37.867997 504.76,38.468 L504.76,74 L497.344,74 L497.344,22.16 L503.644,22.16 C504.388003,22.16 504.963998,22.2259993 505.372,22.358 C505.780002,22.4900007 506.151998,22.8919966 506.488,23.564 L523.12,53.696 C523.480001,54.3920035 523.821998,55.1059963 524.146,55.838 C524.470001,56.5700037 524.763998,57.3199962 525.028,58.088 C525.316001,57.3199962 525.621998,56.5580038 525.946,55.802 C526.270001,55.0459962 526.611998,54.3200035 526.972,53.624 L543.352,23.564 C543.688001,22.8919966 544.059998,22.4900007 544.468,22.358 C544.876002,22.2259993 545.451996,22.16 546.196,22.16 L552.496,22.16 Z M585.02,57.944 C582.259986,58.0400005 579.932009,58.2619983 578.036,58.61 C576.13999,58.9580017 574.604005,59.4019973 573.428,59.942 C572.251994,60.4820027 571.406002,61.1239963 570.89,61.868 C570.373997,62.6120037 570.116,63.4279956 570.116,64.316 C570.116,65.1800043 570.253998,65.9179969 570.53,66.53 C570.806001,67.1420031 571.189997,67.645998 571.682,68.042 C572.174002,68.438002 572.749996,68.7259991 573.41,68.906 C574.070003,69.0860009 574.795996,69.176 575.588,69.176 C577.60401,69.176 579.337992,68.7980038 580.79,68.042 C582.242007,67.2859962 583.651993,66.1880072 585.02,64.748 L585.02,57.944 Z M564.5,42.392 C568.65202,38.5279807 573.595971,36.596 579.332,36.596 C581.44401,36.596 583.321991,36.9379966 584.966,37.622 C586.610008,38.3060034 587.989994,39.2719938 589.106,40.52 C590.222005,41.7680062 591.073997,43.2499914 591.662,44.966 C592.250002,46.6820086 592.544,48.5839896 592.544,50.672 L592.544,74 L589.088,74 C588.343996,74 587.780001,73.8860011 587.396,73.658 C587.011998,73.4299989 586.688001,72.9680035 586.424,72.272 L585.668,69.284 C584.731995,70.1240042 583.808004,70.8739967 582.896,71.534 C581.983995,72.1940033 581.042004,72.7519977 580.07,73.208 C579.097995,73.6640023 578.054005,74.0059989 576.938,74.234 C575.821994,74.4620011 574.592006,74.576 573.248,74.576 C571.759992,74.576 570.374006,74.372002 569.09,73.964 C567.805993,73.555998 566.696004,72.9380041 565.76,72.11 C564.823995,71.2819959 564.086002,70.2560061 563.546,69.032 C563.005997,67.8079939 562.736,66.3680083 562.736,64.712 C562.736,63.2959929 563.113996,61.9160067 563.87,60.572 C564.626003,59.2279933 565.873991,58.0220053 567.614,56.954 C569.354008,55.8859947 571.645985,55.0040035 574.49,54.308 C577.334014,53.6119965 580.843979,53.2160005 585.02,53.12 L585.02,50.672 C585.02,48.0319868 584.456005,46.0640065 583.328,44.768 C582.199994,43.4719935 580.54401,42.824 578.36,42.824 C576.871992,42.824 575.624005,43.0099981 574.616,43.382 C573.607995,43.7540019 572.732003,44.1559978 571.988,44.588 C571.243996,45.0200022 570.584002,45.4219981 570.008,45.794 C569.431997,46.1660019 568.820003,46.352 568.172,46.352 C567.643997,46.352 567.194001,46.2140014 566.822,45.938 C566.449998,45.6619986 566.144001,45.320002 565.904,44.912 L564.5,42.392 Z M612.36,64.784 C613.440005,66.176007 614.621993,67.1539972 615.906,67.718 C617.190006,68.2820028 618.611992,68.564 620.172,68.564 C623.196015,68.564 625.553991,67.460011 627.246,65.252 C628.938008,63.043989 629.784,59.7560218 629.784,55.388 C629.784,53.1319887 629.592001,51.206008 629.208,49.61 C628.823998,48.013992 628.272003,46.712005 627.552,45.704 C626.831996,44.695995 625.956005,43.9640023 624.924,43.508 C623.891994,43.0519977 622.728006,42.824 621.432,42.824 C619.46399,42.824 617.766007,43.2499957 616.338,44.102 C614.909992,44.9540043 613.584006,46.1719921 612.36,47.756 L612.36,64.784 Z M611.964,42.608 C613.500007,40.807991 615.24599,39.3560055 617.202,38.252 C619.158009,37.1479945 621.431987,36.596 624.024,36.596 C626.08801,36.596 627.959991,37.0099959 629.64,37.838 C631.320008,38.6660041 632.759994,39.8719921 633.96,41.456 C635.160006,43.0400079 636.089996,45.0019883 636.75,47.342 C637.410003,49.6820117 637.74,52.3639849 637.74,55.388 C637.74,58.1000136 637.374003,60.6259883 636.642,62.966 C635.909996,65.3060117 634.860006,67.3339914 633.492,69.05 C632.123993,70.7660086 630.468009,72.1099951 628.524,73.082 C626.57999,74.0540049 624.384012,74.54 621.936,74.54 C619.775989,74.54 617.946007,74.1920035 616.446,73.496 C614.945992,72.7999965 613.584006,71.8400061 612.36,70.616 L612.36,86.204 L604.62,86.204 L604.62,37.28 L609.3,37.28 C610.356005,37.28 611.027998,37.7719951 611.316,38.756 L611.964,42.608 Z" id="electricityMap" fill="#FFFFFF"></path>
                <g id="signet">
                    <polygon id="Fill-1" fill="#FFFFFF" points="10.2897 12.0421 -0.0003 95.7421 16.3997 89.7441 21.6787 79.1631 9.5577 83.6601 17.5717 18.4731 34.0597 14.3241 50.5457 19.9761 57.5487 13.9121 34.4097 5.9721"></polygon>
                    <polygon id="Fill-2" fill="#FFFFFF" points="88.3197 15.9508 100.4307 19.9698 107.5527 83.8638 85.2917 74.9328 60.0417 85.5598 51.9187 82.1068 44.3347 87.5898 60.0267 94.2578 85.3647 83.5948 116.9997 96.2848 107.8257 13.9818 91.3007 8.4978"></polygon>
                    <mask id="mask-2" fill="white">
                        <use xlink:href="#path-1"></use>
                    </mask>
                    <use id="Clip-4" fill="#FFFFFF" xlink:href="#path-1"></use>
                </g>
            </g>
        </g>
    </g>
</svg>
