<svg width="692" height="150" xmlns="http://www.w3.org/2000/svg"><circle cx="107.661" cy="108" r="4" style="opacity:.3"><animate attributeName="opacity" from="1" to=".3" dur="0.8s" repeatCount="indefinite" begin="0s"/></circle><circle cx="74.916" cy="108" r="4" style="opacity:.3"><animate attributeName="opacity" from="1" to=".3" dur="0.8s" repeatCount="indefinite" begin="0.1s"/></circle><circle cx="42.171" cy="108" r="4" style="opacity:.3"><animate attributeName="opacity" from="1" to=".3" dur="0.8s" repeatCount="indefinite" begin="0.2s"/></circle><circle cx="42.171" cy="75" r="4" style="opacity:.3"><animate attributeName="opacity" from="1" to=".3" dur="0.8s" repeatCount="indefinite" begin="0.3s"/></circle><circle cx="42.171" cy="42" r="4" style="opacity:.3"><animate attributeName="opacity" from="1" to=".3" dur="0.8s" repeatCount="indefinite" begin="0.4s"/></circle><circle cx="74.916" cy="42" r="4" style="opacity:.3"><animate attributeName="opacity" from="1" to=".3" dur="0.8s" repeatCount="indefinite" begin="0.5s"/></circle><circle cx="107.661" cy="42" r="4" style="opacity:.3"><animate attributeName="opacity" from="1" to=".3" dur="0.8s" repeatCount="indefinite" begin="0.6s"/></circle><circle cx="107.661" cy="75" r="4" style="opacity:.3"><animate attributeName="opacity" from="1" to=".3" dur="0.8s" repeatCount="indefinite" begin="0.7s"/></circle><path d="M92.645 69.478H77.123V56.434a1.51 1.51 0 0 0-1.938-1.448c-.302.09-.567.27-.76.52L55.99 78.082a1.51 1.51 0 0 0 1.197 2.438h15.521v13.045a1.511 1.511 0 0 0 1.939 1.448c.301-.09.567-.271.76-.52l18.435-22.577a1.512 1.512 0 0 0-1.197-2.439ZM170.703 88.821v6.318H146.31V54.917h24.109v6.325h-17.487v10.454h16.054v6.234h-16.054v10.863l17.771.028ZM201.054 88.821v6.318h-22.961V54.917h6.602V88.82h16.359ZM230.574 88.821v6.318h-24.4V54.917h24.11v6.325h-17.508v10.454h16.075v6.234h-16.075v10.863l17.798.028ZM234.92 75.028c0-11.66 8.781-20.86 21.009-20.86a19.787 19.787 0 0 1 9.933 2.484 19.811 19.811 0 0 1 7.367 7.118l-5.744 3.332c-2.124-3.97-6.484-6.498-11.535-6.498-8.664 0-14.408 6.152-14.408 14.424 0 8.271 5.744 14.423 14.408 14.423 5.051 0 9.473-2.528 11.535-6.49l5.744 3.276c-3.328 5.86-9.875 9.65-17.3 9.65-12.228 0-21.009-9.193-21.009-20.86ZM306.003 61.242h-11.308v33.897h-6.601V61.242h-11.363v-6.325h29.272v6.325ZM325.537 80.487h-7.805v14.652h-6.602V54.916h16.068a12.86 12.86 0 0 1 9.15 3.774 12.885 12.885 0 0 1 3.77 9.16 12.69 12.69 0 0 1-2.208 7.042 12.663 12.663 0 0 1-5.75 4.618l9.12 15.629h-7.252l-8.491-14.652Zm-7.805-5.917h9.466a6.506 6.506 0 0 0 6.318-6.72c0-3.796-2.816-6.726-6.318-6.726h-9.466V74.57ZM354.048 54.916V95.14h-6.602V54.917h6.602ZM360.989 75.028c0-11.66 8.781-20.86 21.009-20.86a19.787 19.787 0 0 1 9.933 2.484 19.819 19.819 0 0 1 7.367 7.118l-5.744 3.332c-2.124-3.97-6.484-6.498-11.535-6.498-8.671 0-14.408 6.152-14.408 14.424 0 8.271 5.737 14.423 14.408 14.423 5.051 0 9.473-2.528 11.535-6.49l5.744 3.276c-3.329 5.86-9.875 9.65-17.3 9.65-12.228 0-21.009-9.193-21.009-20.86ZM412.224 54.916V95.14h-6.601V54.917h6.601ZM446.554 61.242h-11.286v33.897h-6.595V61.242h-11.397v-6.325h29.278v6.325ZM470.601 79.17V95.14H464V79.171l-14.006-24.248h7.522l9.812 17.819 9.757-17.819h7.522l-14.006 24.248ZM545.158 95.14h-6.602V66.464l-12.221 20.23h-.803L513.305 66.41v28.73h-6.602V54.915h7.114l12.117 20.091 12.165-20.09h7.059v40.222ZM577.184 87.04h-17.107l-2.809 8.1h-7.176l14.58-40.224h7.917l14.532 40.223h-7.128l-2.809-8.098Zm-2.18-6.234-6.374-18.158-6.373 18.158h12.747ZM620.136 68.135a13.081 13.081 0 0 1-3.865 9.432 13.049 13.049 0 0 1-9.456 3.785h-8.235V95.14h-6.574V54.917h14.809a13.007 13.007 0 0 1 9.467 3.774 13.04 13.04 0 0 1 3.854 9.444Zm-6.602 0c0-4.08-2.816-7.011-6.719-7.011h-8.235v14.022h8.235c3.903 0 6.719-2.986 6.719-7.011ZM623.776 86.008l5.681-3.332c1.44 4.073 4.54 6.775 9.993 6.775 5.224 0 7.459-2.355 7.459-5.285 0-3.561-3.155-4.767-9.127-6.61-6.228-1.89-12.338-4.156-12.338-11.777 0-7.412 6.138-11.61 12.912-11.61a14.915 14.915 0 0 1 14.006 8.875l-5.57 3.213c-1.433-3.214-3.924-5.653-8.436-5.653-3.847 0-6.311 1.954-6.311 5.002s2.235 4.427 8.09 6.235c6.657 2.127 13.376 4.198 13.376 12.186 0 7.35-5.854 11.832-14.234 11.832-7.924.028-13.377-3.879-15.501-9.85Z"/></svg>