<?xml version="1.0" encoding="UTF-8"?>
<svg width="117px" height="97px" viewBox="0 0 117 97" version="1.1" xmlns="http://www.w3.org/2000/svg" xmlns:xlink="http://www.w3.org/1999/xlink">
    <!-- Generator: Sketch 52.2 (67145) - http://www.bohemiancoding.com/sketch -->
    <title>electricitymap-icon</title>
    <desc>Created with Sketch.</desc>
    <g id="Page-1" stroke="none" stroke-width="1" fill="none" fill-rule="evenodd">
        <g id="electricitymap-icon" fill="#000000">
            <g id="signet">
                <polygon id="Fill-1" points="10.2897 12.0421 -0.0003 95.7421 16.3997 89.7441 21.6787 79.1631 9.5577 83.6601 17.5717 18.4731 34.0597 14.3241 50.5457 19.9761 57.5487 13.9121 34.4097 5.9721"></polygon>
                <polygon id="Fill-2" points="88.3197 15.9508 100.4307 19.9698 107.5527 83.8638 85.2917 74.9328 60.0417 85.5598 51.9187 82.1068 44.3347 87.5898 60.0267 94.2578 85.3647 83.5948 116.9997 96.2848 107.8257 13.9818 91.3007 8.4978"></polygon>
                <g id="Clip-4" transform="translate(24.000000, 0.000000)">
                    <path d="M60.842,1.582 L9.694,48.452 C8.469,49.573 8.656,51.129 10.106,51.931 L18.063,56.335 C19.516,57.138 19.998,58.939 19.147,60.36 L0.918,90.789 C0.068,92.209 0.45,92.544 1.775,91.536 L56.743,49.683 C58.079,48.666 57.899,47.342 56.367,46.706 L45.885,42.358 C44.356,41.722 43.693,39.99 44.412,38.489 L61.753,2.271 C62.181,1.378 62.21,0.907 61.907,0.907 C61.7,0.907 61.338,1.127 60.842,1.582 Z" id="path-1"></path>
                </g>
            </g>
        </g>
    </g>
</svg>