<svg width="40" height="40" viewBox="0 0 40 40" fill="none" xmlns="http://www.w3.org/2000/svg">
<path d="M28.2911 17.4207H21.0323V10.9232C21.0324 10.7665 20.9865 10.6137 20.9011 10.4861C20.8157 10.3585 20.6951 10.2626 20.5561 10.2116C20.4171 10.1607 20.2666 10.1573 20.1257 10.202C19.9848 10.2467 19.8605 10.3372 19.7702 10.4609L11.149 21.7063C11.0676 21.8177 11.0173 21.9512 11.0037 22.0917C10.9901 22.2321 11.0139 22.3738 11.0723 22.5005C11.1307 22.6272 11.2214 22.7338 11.334 22.8082C11.4466 22.8825 11.5765 22.9216 11.7089 22.9209H18.9677V29.4184C18.9676 29.5751 19.0135 29.7279 19.0989 29.8555C19.1843 29.9831 19.3049 30.0791 19.4439 30.13C19.5829 30.1809 19.7334 30.1843 19.8743 30.1396C20.0152 30.0949 20.1395 30.0044 20.2298 29.8807L28.851 18.6353C28.9324 18.5239 28.9827 18.3904 28.9963 18.2499C29.0099 18.1095 28.9861 17.9678 28.9277 17.8411C28.8693 17.7144 28.7786 17.6078 28.666 17.5334C28.5535 17.4591 28.4235 17.42 28.2911 17.4207Z" fill="black"/>
<path d="M38 40C39.1046 40 40 39.1046 40 38C40 36.8954 39.1046 36 38 36C36.8954 36 36 36.8954 36 38C36 39.1046 36.8954 40 38 40Z" fill="black"/>
<path d="M20 40C21.1046 40 22 39.1046 22 38C22 36.8954 21.1046 36 20 36C18.8954 36 18 36.8954 18 38C18 39.1046 18.8954 40 20 40Z" fill="black"/>
<path d="M2 40C3.10457 40 4 39.1046 4 38C4 36.8954 3.10457 36 2 36C0.89543 36 0 36.8954 0 38C0 39.1046 0.89543 40 2 40Z" fill="black"/>
<path d="M38 22C39.1046 22 40 21.1046 40 20C40 18.8954 39.1046 18 38 18C36.8954 18 36 18.8954 36 20C36 21.1046 36.8954 22 38 22Z" fill="black"/>
<path d="M2 22C3.10457 22 4 21.1046 4 20C4 18.8954 3.10457 18 2 18C0.89543 18 0 18.8954 0 20C0 21.1046 0.89543 22 2 22Z" fill="black"/>
<path d="M38 4C39.1046 4 40 3.10457 40 2C40 0.89543 39.1046 0 38 0C36.8954 0 36 0.89543 36 2C36 3.10457 36.8954 4 38 4Z" fill="black"/>
<path d="M20 4C21.1046 4 22 3.10457 22 2C22 0.89543 21.1046 0 20 0C18.8954 0 18 0.89543 18 2C18 3.10457 18.8954 4 20 4Z" fill="black"/>
<path d="M2 4C3.10457 4 4 3.10457 4 2C4 0.89543 3.10457 0 2 0C0.89543 0 0 0.89543 0 2C0 3.10457 0.89543 4 2 4Z" fill="black"/>
</svg>
