<svg width="77" height="76" viewBox="0 0 77 76" fill="none" xmlns="http://www.w3.org/2000/svg">
<path d="M44 10.3445C44 8.89668 44.7824 7.56188 46.0456 6.85447L54.5456 2.09447C55.7598 1.4145 57.2402 1.4145 58.4544 2.09447L66.9544 6.85447C68.2176 7.56188 69 8.89668 69 10.3445V45.6555C69 47.1033 68.2176 48.4381 66.9544 49.1455L58.4544 53.9055C57.2402 54.5855 55.7598 54.5855 54.5456 53.9055L46.0456 49.1455C44.7824 48.4381 44 47.1033 44 45.6555V10.3445Z" fill="#FAFAFA" stroke="#CCCCCC" stroke-linecap="round" stroke-dasharray="4 4"/>
<path d="M56.5 17L56.5 52" stroke="#EAEAEA" stroke-linecap="round"/>
<path d="M26 30.3445C26 28.8967 26.7824 27.5619 28.0456 26.8545L36.5456 22.0945C37.7598 21.4145 39.2402 21.4145 40.4544 22.0945L48.9544 26.8545C50.2176 27.5619 51 28.8967 51 30.3445V55.6555C51 57.1033 50.2176 58.4381 48.9544 59.1455L40.4544 63.9055C39.2402 64.5855 37.7598 64.5855 36.5456 63.9055L28.0456 59.1455C26.7824 58.4381 26 57.1033 26 55.6555V30.3445Z" fill="#FAFAFA" stroke="#CCCCCC" stroke-linecap="round" stroke-dasharray="4 4"/>
<path d="M38.5 37L38.5 62" stroke="#EAEAEA" stroke-linecap="round"/>
<path d="M8 52.3445C8 50.8967 8.78236 49.5619 10.0456 48.8545L18.5456 44.0945C19.7598 43.4145 21.2402 43.4145 22.4544 44.0945L30.9544 48.8545C32.2176 49.5619 33 50.8967 33 52.3445V65.6555C33 67.1033 32.2176 68.4381 30.9544 69.1455L22.4544 73.9055C21.2402 74.5855 19.7598 74.5855 18.5456 73.9055L10.0456 69.1455C8.78236 68.4381 8 67.1033 8 65.6555L8 52.3445Z" fill="#FAFAFA" stroke="#CCCCCC" stroke-linecap="round" stroke-dasharray="4 4"/>
<path d="M20.5 59L20.5 72" stroke="#EAEAEA" stroke-linecap="round"/>
<path d="M30.4598 51.8706L20.9921 57.2219C20.6867 57.3945 20.3133 57.3945 20.0079 57.2219L10.5402 51.8706C9.86297 51.4878 9.86297 50.5122 10.5402 50.1294L20.0079 44.7781C20.3133 44.6055 20.6867 44.6055 20.9921 44.7781L30.4598 50.1294C31.137 50.5122 31.137 51.4878 30.4598 51.8706Z" fill="#EAEAEA"/>
<path d="M66.4598 9.87056L56.9921 15.2219C56.6867 15.3945 56.3133 15.3945 56.0079 15.2219L46.5402 9.87056C45.863 9.48777 45.863 8.51223 46.5402 8.12944L56.0079 2.77812C56.3133 2.60554 56.6867 2.60554 56.9921 2.77812L66.4598 8.12944C67.137 8.51223 67.137 9.48777 66.4598 9.87056Z" fill="#EAEAEA"/>
<path d="M48.4598 29.8706L38.9921 35.2219C38.6867 35.3945 38.3133 35.3945 38.0079 35.2219L28.5402 29.8706C27.863 29.4878 27.863 28.5122 28.5402 28.1294L38.0079 22.7781C38.3133 22.6055 38.6867 22.6055 38.9921 22.7781L48.4598 28.1294C49.137 28.5122 49.137 29.4878 48.4598 29.8706Z" fill="#EAEAEA"/>
</svg>
