<svg width="16" height="16" viewBox="0 0 16 16" fill="none" xmlns="http://www.w3.org/2000/svg">
<path d="M1.65625 2C2.01172 2 2.3125 2.29464 2.3125 2.64286V12.0714C2.3125 12.4464 2.58594 12.7143 2.96875 12.7143H14.3438C14.6992 12.7143 15 13.0089 15 13.3571C15 13.7321 14.6992 14 14.3438 14H2.96875C1.875 14 1 13.1429 1 12.0714V2.64286C1 2.29464 1.27344 2 1.65625 2ZM11.2812 4.14286C10.8984 4.14286 10.625 3.875 10.625 3.5C10.625 3.15179 10.8984 2.85714 11.2812 2.85714H13.4688C13.6328 2.85714 13.7969 2.9375 13.9336 3.04464C14.043 3.17857 14.125 3.33929 14.125 3.5V5.64286C14.125 6.01786 13.8242 6.28571 13.4688 6.28571C13.0859 6.28571 12.8125 6.01786 12.8125 5.64286V5.05357L9.33984 8.45536C9.06641 8.72321 8.65625 8.72321 8.41016 8.45536L6.6875 6.76786L4.96484 8.45536C4.69141 8.72321 4.28125 8.72321 4.03516 8.45536C3.76172 8.21429 3.76172 7.8125 4.03516 7.57143L6.22266 5.42857C6.46875 5.16071 6.87891 5.16071 7.15234 5.42857L8.875 7.11607L11.8828 4.14286H11.2812ZM11.2812 11.4286C10.8984 11.4286 10.625 11.1607 10.625 10.7857C10.625 10.4375 10.8984 10.1429 11.2812 10.1429H11.8828L10.5977 8.88393L11.5273 7.97321L12.8125 9.23214V8.64286C12.8125 8.29464 13.0859 8 13.4688 8C13.8242 8 14.125 8.29464 14.125 8.64286V10.7857C14.125 10.9732 14.043 11.1339 13.9336 11.2411C13.7969 11.375 13.6328 11.4286 13.4688 11.4286H11.2812Z" fill="#F59E0B"/>
</svg>
