<svg width="16" height="16" viewBox="0 0 16 16" fill="none" xmlns="http://www.w3.org/2000/svg">
<path d="M8.75 11H8V8M8 5H8.0075M14.75 8C14.75 8.88642 14.5754 9.76417 14.2362 10.5831C13.897 11.4021 13.3998 12.1462 12.773 12.773C12.1462 13.3998 11.4021 13.897 10.5831 14.2362C9.76417 14.5754 8.88642 14.75 8 14.75C7.11358 14.75 6.23583 14.5754 5.41689 14.2362C4.59794 13.897 3.85382 13.3998 3.22703 12.773C2.60023 12.1462 2.10303 11.4021 1.76381 10.5831C1.42459 9.76417 1.25 8.88642 1.25 8C1.25 6.20979 1.96116 4.4929 3.22703 3.22703C4.4929 1.96116 6.20979 1.25 8 1.25C9.79021 1.25 11.5071 1.96116 12.773 3.22703C14.0388 4.4929 14.75 6.20979 14.75 8Z" stroke="black" stroke-width="1.5" stroke-linecap="round" stroke-linejoin="round"/>
</svg>
