<svg xmlns="http://www.w3.org/2000/svg">
<symbol id="view_list" viewBox="0 0 24 24"><path fill="none" d="M0 0H24V24H0z"/><path d="M3,14h4v-4H3V14z M3,19h4v-4H3V19z M3,9h4V5H3V9z M8,14h13v-4H8V14z M8,19h13v-4H8V19z M8,5v4h13V5H8z"/></symbol>
<symbol id="info" viewBox="0 0 24 24"><path fill="none" d="M0 0h24v24H0z"/><path d="M12 2C6.48 2 2 6.48 2 12s4.48 10 10 10 10-4.48 10-10S17.52 2 12 2zm1 15h-2v-6h2v6zm0-8h-2V7h2v2z"/></symbol>
<symbol id="arrow_right" viewBox="0 0 24 24"><path fill="none" d="M0 0h24v24H0V0z"/><path d="M10 17l5-5-5-5v10z"/></symbol>
<symbol id="arrow_left" viewBox="0 0 24 24"><path fill="none" d="M24 0v24H0V0h24z" opacity=".9"/><path d="M14 7l-5 5 5 5V7z"/></symbol>
<symbol id="expand_more" viewBox="0 0 24 24"><path fill="none" d="M24 24H0V0h24v24z" opacity=".9"/><path d="M16.59 8.59L12 13.17 7.41 8.59 6 10l6 6 6-6-1.41-1.41z"/></symbol>
<symbol id="expand_less" viewBox="0 0 24 24"><path fill="none" d="M0 0h24v24H0V0z"/><path d="M12 8l-6 6 1.41 1.41L12 10.83l4.59 4.58L18 14l-6-6z"/></symbol>
<symbol id="error" viewBox="0 0 24 24"><path d="M12 2C6.48 2 2 6.48 2 12s4.48 10 10 10 10-4.48 10-10S17.52 2 12 2zm1 15h-2v-2h2v2zm0-4h-2V7h2v6z"/></symbol>
<symbol id="lock" viewBox="0 0 24 24"><path fill="none" d="M0 0h24v24H0z"/><path d="M18 8h-1V6c0-2.76-2.24-5-5-5S7 3.24 7 6v2H6c-1.1 0-2 .9-2 2v10c0 1.1.9 2 2 2h12c1.1 0 2-.9 2-2V10c0-1.1-.9-2-2-2zm-6 9c-1.1 0-2-.9-2-2s.9-2 2-2 2 .9 2 2-.9 2-2 2zm3.1-9H8.9V6c0-1.71 1.39-3.1 3.1-3.1 1.71 0 3.1 1.39 3.1 3.1v2z"/></symbol>
<symbol id="file_download" viewBox="0 0 24 24"><path fill="none" d="M0 0H24V24H0z"/><path d="M18,15v3H6v-3H4v3c0,1.1,0.9,2,2,2h12c1.1,0,2-0.9,2-2v-3H18z M17,11l-1.41-1.41L13,12.17V4h-2v8.17L8.41,9.59L7,11l5,5 L17,11z"/></symbol>
<symbol id="call_made" viewBox="0 0 24 24"><path fill="none" d="M0 0h24v24H0V0z"/><path d="M9 5v2h6.59L4 18.59 5.41 20 17 8.41V15h2V5H9z"/></symbol>
<symbol id="call_received" viewBox="0 0 24 24"><path fill="none" d="M0 0h24v24H0V0z"/><path d="M20 5.41L18.59 4 7 15.59V9H5v10h10v-2H8.41L20 5.41z"/></symbol>
<symbol id="check" viewBox="0 0 24 24"><path fill="none" d="M0 0h24v24H0V0z"/><path d="M9 16.17L4.83 12l-1.42 1.41L9 19 21 7l-1.41-1.41L9 16.17z"/></symbol>
<symbol id="close" viewBox="0 0 24 24"><path fill="none" d="M0 0h24v24H0V0z"/><path d="M19 6.41L17.59 5 12 10.59 6.41 5 5 6.41 10.59 12 5 17.59 6.41 19 12 13.41 17.59 19 19 17.59 13.41 12 19 6.41z"/></symbol>
<symbol id="arrow_forward" viewBox="0 0 24 24"><path fill="none" d="M0 0h24v24H0V0z"/><path d="M12 4l-1.41 1.41L16.17 11H4v2h12.17l-5.58 5.59L12 20l8-8-8-8z"/></symbol>
<symbol id="arrow_back" viewBox="0 0 24 24"><path fill="none" d="M0 0h24v24H0V0z"/><path d="M20 11H7.83l5.59-5.59L12 4l-8 8 8 8 1.41-1.41L7.83 13H20v-2z"/></symbol>
<symbol id="comment" viewBox="0 0 24 24"><path d="M7.61032 10.6993C6.91651 10.6993 6.35597 11.237 6.35597 11.877C6.35597 12.5814 6.91651 13.123 7.61032 13.123C8.30413 13.123 8.82938 12.5833 8.82938 11.9111C8.82938 11.2389 8.30805 10.6993 7.61032 10.6993ZM12.0005 10.6652C11.3048 10.6652 10.7815 11.2048 10.7815 11.877C10.7815 12.5492 11.34 13.0548 12.0005 13.0548C12.661 13.0548 13.2196 12.5151 13.2196 11.877C13.2196 11.2389 12.6983 10.6652 12.0005 10.6652ZM16.3907 10.6993C15.695 10.6993 15.1717 11.2389 15.1717 11.9111C15.1717 12.5833 15.7302 13.123 16.3907 13.123C17.0865 13.123 17.6447 12.5833 17.6447 11.9111C17.6451 11.237 17.0885 10.6993 16.3907 10.6993ZM12.0005 4C6.45789 4 2.00105 7.52649 2.00105 11.877C2.00105 13.6804 2.78148 15.3327 4.07503 16.6601C3.49215 18.1559 2.277 19.42 2.2574 19.4341C1.99775 19.6992 1.9292 20.0873 2.07615 20.4187C2.19382 20.7804 2.52944 21 2.90653 21C5.31683 21 7.18306 20.0248 8.35901 19.2485C9.49066 19.5893 10.7172 19.7881 12.0005 19.7881C17.5432 19.7881 22 16.2613 22 11.9452C22 7.62912 17.5432 4 12.0005 4ZM12.0005 17.9704C10.952 17.9704 9.91831 17.8142 8.92895 17.5114L8.03719 17.2416L7.27321 17.7621C6.71464 18.1453 5.94557 18.5718 5.01971 18.8603C5.30875 18.4013 5.58298 17.8852 5.79857 17.336L6.21486 16.2757L5.40659 15.4474C4.7022 14.7173 3.84964 13.5092 3.84964 11.9111C3.84964 8.56906 7.50448 5.85186 11.9676 5.85186C16.4307 5.85186 20.0856 8.56906 20.0856 11.9111C20.0856 15.2532 16.5005 17.9704 12.0005 17.9704Z" /></symbol>
<symbol id="low-vision" viewBox="0 0 24 24"><path d="M6.18049 6.26162C7.7033 5.04873 9.6558 4.12518 12.0002 4.12518C14.7777 4.12518 17.0017 5.42033 18.6208 6.95877C20.2295 8.48455 21.3055 10.281 21.8142 11.5678C21.9277 11.8455 21.9277 12.1549 21.8142 12.4326C21.3536 13.5681 20.4289 15.1678 19.0677 16.5951L22.6839 19.492C23.0414 19.7803 23.1067 20.3111 22.8249 20.6767C22.543 21.0424 22.0239 21.1092 21.6664 20.8209L1.31629 4.50803C0.957689 4.22045 0.894818 3.69029 1.1759 3.32347C1.45702 2.95672 1.9754 2.89242 2.33427 3.1799L6.18049 6.26162ZM8.66924 8.25604L11.7733 10.7451C11.9177 10.4463 12.0002 10.1088 12.0002 9.71854C12.0002 9.34588 11.8661 8.96619 11.7114 8.63924C11.8077 8.62869 11.9039 8.59354 12.0002 8.59354C13.8221 8.59354 15.3002 10.1053 15.3002 11.9685C15.3002 12.4818 15.2005 12.9388 14.9942 13.3537L16.3521 14.4154C16.7336 13.6982 16.9502 12.8756 16.9502 11.9685C16.9502 9.20526 14.733 6.90604 12.0002 6.90604C10.718 6.90604 9.5458 7.4369 8.66924 8.25604ZM14.5302 19.5025L2.87877 10.1615C3.15205 9.68338 3.47793 9.18065 3.8564 8.67791L16.3383 18.7326C15.7746 19.0455 15.173 19.3056 14.5302 19.5025ZM2.18474 12.4326C2.09124 12.2041 2.07508 11.9474 2.1373 11.7119L12.3164 19.8681C12.2099 19.8717 12.1067 19.8752 12.0002 19.8752C9.22268 19.8752 6.99861 18.5814 5.37955 17.0416C3.77149 15.4842 2.69624 13.6877 2.18474 12.4326Z" /></symbol>
<symbol id="dark-mode" viewBox="0 0 24 24"><path d="M12 21Q8.25 21 5.625 18.375Q3 15.75 3 12Q3 8.25 5.625 5.625Q8.25 3 12 3Q12.35 3 12.688 3.025Q13.025 3.05 13.35 3.1Q12.325 3.825 11.713 4.987Q11.1 6.15 11.1 7.5Q11.1 9.75 12.675 11.325Q14.25 12.9 16.5 12.9Q17.875 12.9 19.025 12.287Q20.175 11.675 20.9 10.65Q20.95 10.975 20.975 11.312Q21 11.65 21 12Q21 15.75 18.375 18.375Q15.75 21 12 21ZM12 19Q14.2 19 15.95 17.788Q17.7 16.575 18.5 14.625Q18 14.75 17.5 14.825Q17 14.9 16.5 14.9Q13.425 14.9 11.262 12.738Q9.1 10.575 9.1 7.5Q9.1 7 9.175 6.5Q9.25 6 9.375 5.5Q7.425 6.3 6.213 8.05Q5 9.8 5 12Q5 14.9 7.05 16.95Q9.1 19 12 19ZM11.75 12.25Q11.75 12.25 11.75 12.25Q11.75 12.25 11.75 12.25Q11.75 12.25 11.75 12.25Q11.75 12.25 11.75 12.25Q11.75 12.25 11.75 12.25Q11.75 12.25 11.75 12.25Q11.75 12.25 11.75 12.25Q11.75 12.25 11.75 12.25Q11.75 12.25 11.75 12.25Q11.75 12.25 11.75 12.25Q11.75 12.25 11.75 12.25Q11.75 12.25 11.75 12.25Z"/></symbol>
<symbol id="sun" viewBox="0 0 24 24"><path d="M12 5Q11.575 5 11.288 4.712Q11 4.425 11 4V2Q11 1.575 11.288 1.287Q11.575 1 12 1Q12.425 1 12.713 1.287Q13 1.575 13 2V4Q13 4.425 12.713 4.712Q12.425 5 12 5ZM16.95 7.05Q16.675 6.775 16.675 6.362Q16.675 5.95 16.95 5.65L18.35 4.225Q18.65 3.925 19.062 3.925Q19.475 3.925 19.775 4.225Q20.05 4.5 20.05 4.925Q20.05 5.35 19.775 5.625L18.35 7.05Q18.075 7.325 17.65 7.325Q17.225 7.325 16.95 7.05ZM20 13Q19.575 13 19.288 12.712Q19 12.425 19 12Q19 11.575 19.288 11.287Q19.575 11 20 11H22Q22.425 11 22.712 11.287Q23 11.575 23 12Q23 12.425 22.712 12.712Q22.425 13 22 13ZM12 23Q11.575 23 11.288 22.712Q11 22.425 11 22V20Q11 19.575 11.288 19.288Q11.575 19 12 19Q12.425 19 12.713 19.288Q13 19.575 13 20V22Q13 22.425 12.713 22.712Q12.425 23 12 23ZM5.65 7.05 4.225 5.65Q3.925 5.35 3.925 4.925Q3.925 4.5 4.225 4.225Q4.5 3.95 4.925 3.95Q5.35 3.95 5.625 4.225L7.05 5.65Q7.325 5.925 7.325 6.35Q7.325 6.775 7.05 7.05Q6.75 7.325 6.35 7.325Q5.95 7.325 5.65 7.05ZM18.35 19.775 16.95 18.35Q16.675 18.05 16.675 17.638Q16.675 17.225 16.95 16.95Q17.225 16.675 17.638 16.675Q18.05 16.675 18.35 16.95L19.775 18.35Q20.075 18.625 20.062 19.05Q20.05 19.475 19.775 19.775Q19.475 20.075 19.05 20.075Q18.625 20.075 18.35 19.775ZM2 13Q1.575 13 1.288 12.712Q1 12.425 1 12Q1 11.575 1.288 11.287Q1.575 11 2 11H4Q4.425 11 4.713 11.287Q5 11.575 5 12Q5 12.425 4.713 12.712Q4.425 13 4 13ZM4.225 19.775Q3.95 19.5 3.95 19.075Q3.95 18.65 4.225 18.375L5.65 16.95Q5.925 16.675 6.338 16.675Q6.75 16.675 7.05 16.95Q7.35 17.25 7.35 17.663Q7.35 18.075 7.05 18.375L5.65 19.775Q5.35 20.075 4.925 20.075Q4.5 20.075 4.225 19.775ZM12 18Q9.5 18 7.75 16.25Q6 14.5 6 12Q6 9.5 7.75 7.75Q9.5 6 12 6Q14.5 6 16.25 7.75Q18 9.5 18 12Q18 14.5 16.25 16.25Q14.5 18 12 18ZM12 16Q13.65 16 14.825 14.825Q16 13.65 16 12Q16 10.35 14.825 9.175Q13.65 8 12 8Q10.35 8 9.175 9.175Q8 10.35 8 12Q8 13.65 9.175 14.825Q10.35 16 12 16Z"/></symbol>
<symbol id="wind" viewBox="0 0 24 24"><path d="M11.5 20Q10.25 20 9.375 19.125Q8.5 18.25 8.5 17H10.5Q10.5 17.425 10.788 17.712Q11.075 18 11.5 18Q11.925 18 12.213 17.712Q12.5 17.425 12.5 17Q12.5 16.575 12.213 16.288Q11.925 16 11.5 16H2V14H11.5Q12.75 14 13.625 14.875Q14.5 15.75 14.5 17Q14.5 18.25 13.625 19.125Q12.75 20 11.5 20ZM2 10V8H15.5Q16.15 8 16.575 7.575Q17 7.15 17 6.5Q17 5.85 16.575 5.425Q16.15 5 15.5 5Q14.85 5 14.425 5.425Q14 5.85 14 6.5H12Q12 5.025 13.012 4.012Q14.025 3 15.5 3Q16.975 3 17.988 4.012Q19 5.025 19 6.5Q19 7.975 17.988 8.987Q16.975 10 15.5 10ZM18.5 18V16Q19.15 16 19.575 15.575Q20 15.15 20 14.5Q20 13.85 19.575 13.425Q19.15 13 18.5 13H2V11H18.5Q19.975 11 20.988 12.012Q22 13.025 22 14.5Q22 15.975 20.988 16.988Q19.975 18 18.5 18Z"/></symbol>
<symbol id="language" viewBox="0 0 24 24"><path d="M11.9 22 16.45 10H18.55L23.1 22H21L19.95 18.95H15.1L14 22ZM15.7 17.2H19.3L17.55 12.25H17.45ZM4 19 2.6 17.6 7.65 12.55Q6.7 11.5 5.988 10.375Q5.275 9.25 4.75 8H6.85Q7.3 8.9 7.813 9.625Q8.325 10.35 9.05 11.15Q10.15 9.95 10.875 8.688Q11.6 7.425 12.1 6H1V4H8V2H10V4H17V6H14.1Q13.575 7.775 12.675 9.45Q11.775 11.125 10.45 12.6L12.85 15.05L12.1 17.1L9 14Z"/></symbol>
<symbol id="sliders" viewBox="0 0 24 24"><path d="M2 18.8333C2 18.1327 2.55977 17.5667 3.25 17.5667H5.38516C5.86719 16.4465 6.96875 15.6667 8.25 15.6667C9.53125 15.6667 10.5977 16.4465 11.1133 17.5667H20.75C21.4414 17.5667 22 18.1327 22 18.8333C22 19.534 21.4414 20.1 20.75 20.1H11.1133C10.5977 21.2202 9.53125 22 8.25 22C6.96875 22 5.86719 21.2202 5.38516 20.1H3.25C2.55977 20.1 2 19.534 2 18.8333ZM9.5 18.8333C9.5 18.1327 8.94141 17.5667 8.25 17.5667C7.55859 17.5667 7 18.1327 7 18.8333C7 19.534 7.55859 20.1 8.25 20.1C8.94141 20.1 9.5 19.534 9.5 18.8333ZM15.75 9.33333C17.0312 9.33333 18.0977 10.1131 18.6133 11.2333H20.75C21.4414 11.2333 22 11.7994 22 12.5C22 13.2006 21.4414 13.7667 20.75 13.7667H18.6133C18.0977 14.8869 17.0312 15.6667 15.75 15.6667C14.4688 15.6667 13.3672 14.8869 12.8867 13.7667H3.25C2.55977 13.7667 2 13.2006 2 12.5C2 11.7994 2.55977 11.2333 3.25 11.2333H12.8867C13.3672 10.1131 14.4688 9.33333 15.75 9.33333ZM17 12.5C17 11.7994 16.4414 11.2333 15.75 11.2333C15.0586 11.2333 14.5 11.7994 14.5 12.5C14.5 13.2006 15.0586 13.7667 15.75 13.7667C16.4414 13.7667 17 13.2006 17 12.5ZM20.75 4.9C21.4414 4.9 22 5.46723 22 6.16667C22 6.86729 21.4414 7.43333 20.75 7.43333H12.3633C11.8477 8.55354 10.7812 9.33333 9.5 9.33333C8.21875 9.33333 7.11719 8.55354 6.63672 7.43333H3.25C2.55977 7.43333 2 6.86729 2 6.16667C2 5.46723 2.55977 4.9 3.25 4.9H6.63672C7.11719 3.78177 8.21875 3 9.5 3C10.7812 3 11.8477 3.78177 12.3633 4.9H20.75ZM8.25 6.16667C8.25 6.86729 8.80859 7.43333 9.5 7.43333C10.1914 7.43333 10.75 6.86729 10.75 6.16667C10.75 5.46723 10.1914 4.9 9.5 4.9C8.80859 4.9 8.25 5.46723 8.25 6.16667Z"/></symbol>

<symbol id="slack" viewBox="0 0 24 24"><path d="M6.21972 14.6433C6.21972 15.8057 5.28023 16.7452 4.11781 16.7452C2.95539 16.7452 2.0159 15.8057 2.0159 14.6433C2.0159 13.4809 2.95539 12.5414 4.11781 12.5414H6.21972V14.6433ZM7.27068 14.6433C7.27068 13.4809 8.21017 12.5414 9.37259 12.5414C10.535 12.5414 11.4745 13.4809 11.4745 14.6433V19.8981C11.4745 21.0605 10.535 22 9.37259 22C8.21017 22 7.27068 21.0605 7.27068 19.8981V14.6433Z" fill="#E01E5A"/><path d="M9.37261 6.20382C8.21019 6.20382 7.2707 5.26433 7.2707 4.10191C7.2707 2.93949 8.21019 2 9.37261 2C10.535 2 11.4745 2.93949 11.4745 4.10191V6.20382H9.37261ZM9.37261 7.2707C10.535 7.2707 11.4745 8.21019 11.4745 9.37261C11.4745 10.535 10.535 11.4745 9.37261 11.4745H4.10191C2.93949 11.4745 2 10.535 2 9.37261C2 8.21019 2.93949 7.2707 4.10191 7.2707H9.37261Z" fill="#36C5F0"/><path d="M17.7962 9.37261C17.7962 8.21019 18.7356 7.2707 19.8981 7.2707C21.0605 7.2707 22 8.21019 22 9.37261C22 10.535 21.0605 11.4745 19.8981 11.4745H17.7962V9.37261ZM16.7452 9.37261C16.7452 10.535 15.8057 11.4745 14.6433 11.4745C13.4809 11.4745 12.5414 10.535 12.5414 9.37261V4.10191C12.5414 2.93949 13.4809 2 14.6433 2C15.8057 2 16.7452 2.93949 16.7452 4.10191V9.37261V9.37261Z" fill="#2EB67D"/><path d="M14.6433 17.7962C15.8057 17.7962 16.7452 18.7357 16.7452 19.8981C16.7452 21.0605 15.8057 22 14.6433 22C13.4809 22 12.5414 21.0605 12.5414 19.8981V17.7962H14.6433ZM14.6433 16.7452C13.4809 16.7452 12.5414 15.8057 12.5414 14.6433C12.5414 13.4809 13.4809 12.5414 14.6433 12.5414H19.914C21.0764 12.5414 22.0159 13.4809 22.0159 14.6433C22.0159 15.8057 21.0764 16.7452 19.914 16.7452H14.6433Z" fill="#ECB22E"/></symbol>
<symbol id="twitter" viewBox="0 0 24 24"><path d="M20.9442 7.98749C20.9569 8.16248 20.9569 8.33751 20.9569 8.5125C20.9569 13.85 16.8326 20 9.29444 20C6.97209 20 4.81473 19.3375 3 18.1875C3.32996 18.225 3.64719 18.2375 3.98985 18.2375C5.90607 18.2375 7.67006 17.6 9.0787 16.5125C7.27666 16.475 5.7665 15.3125 5.24618 13.7125C5.50001 13.75 5.7538 13.775 6.02032 13.775C6.38833 13.775 6.75638 13.725 7.099 13.6375C5.22083 13.2625 3.81215 11.6375 3.81215 9.67499V9.62501C4.35782 9.92501 4.99239 10.1125 5.66493 10.1375C4.56087 9.41247 3.83754 8.17498 3.83754 6.77497C3.83754 6.02499 4.04055 5.33749 4.3959 4.73748C6.41369 7.18748 9.44671 8.78745 12.8477 8.96248C12.7843 8.66248 12.7462 8.35001 12.7462 8.03751C12.7462 5.81248 14.5736 4 16.8452 4C18.0254 4 19.0914 4.4875 19.8401 5.275C20.7665 5.10001 21.6548 4.76249 22.4416 4.3C22.137 5.23752 21.4898 6.02502 20.6396 6.52499C21.4645 6.43753 22.264 6.21248 23 5.90001C22.4417 6.69998 21.7437 7.41245 20.9442 7.98749Z"/></symbol>
<symbol id="github" viewBox="0 0 24 24"><path d="M12.0479 2.00001C9.6626 1.99753 7.35436 2.86279 5.53687 4.44074C3.71938 6.01869 2.51144 8.20617 2.12952 10.6112C1.7476 13.0162 2.21666 15.4815 3.45265 17.5654C4.68864 19.6492 6.61076 21.2154 8.87457 21.9831C9.37984 22.0776 9.55853 21.7566 9.55853 21.4859C9.55853 21.2153 9.55853 20.5985 9.55853 19.7425C6.75488 20.3656 6.16334 18.3642 6.16334 18.3642C5.97734 17.7438 5.5822 17.2109 5.04803 16.8599C4.14224 16.2305 5.12198 16.2305 5.12198 16.2305C5.4395 16.2763 5.74265 16.3953 6.00847 16.5785C6.2743 16.7617 6.49583 17.0043 6.65629 17.2879C6.79262 17.5404 6.97644 17.7629 7.19718 17.9427C7.41792 18.1225 7.67124 18.256 7.94261 18.3355C8.21397 18.415 8.49804 18.439 8.77852 18.4061C9.05899 18.3733 9.33035 18.2841 9.57702 18.1439C9.61569 17.6261 9.83423 17.1395 10.1932 16.7718C7.96261 16.5137 5.62109 15.6326 5.62109 11.7367C5.60577 10.7189 5.97421 9.73416 6.65012 8.98624C6.34909 8.10133 6.38427 7.13324 6.74871 6.27357C6.74871 6.27357 7.59289 5.99663 9.50924 7.32465C11.1548 6.86315 12.8918 6.86315 14.5373 7.32465C16.4537 5.99663 17.2917 6.27357 17.2917 6.27357C17.6612 7.12414 17.7052 8.08529 17.4149 8.96736C18.0908 9.71528 18.4593 10.7001 18.444 11.7178C18.444 15.6578 16.0963 16.52 13.8595 16.7529C14.0994 16.9992 14.2846 17.2952 14.4026 17.621C14.5206 17.9468 14.5687 18.2947 14.5435 18.6411C14.5435 20.0132 14.5435 21.1209 14.5435 21.4545C14.5435 21.788 14.7222 22.0461 15.2336 21.9454C17.4717 21.1573 19.365 19.5867 20.5792 17.511C21.7933 15.4353 22.2502 12.988 21.869 10.6016C21.4878 8.21511 20.2932 6.04306 18.4961 4.46912C16.699 2.89518 14.4151 2.02064 12.0479 2.00001V2.00001Z" /></symbol>

<symbol id="electricitymaps" viewBox="0 0 800 800"><path d="M 538.65,355.32 H 417.29 V 249.76 c 0,-11.66 -14.27,-16.71 -21.15,-7.48 L 252,425 c -6,8 -0.47,19.71 9.34,19.71 h 121.37 v 105.53 c 0,11.66 14.27,16.71 21.15,7.48 L 548,375 c 6,-8 0.46,-19.68 -9.35,-19.68 z M 172.76,143.97 a 28.790001,29.83 0 0 1 -28.79,29.83 28.790001,29.83 0 0 1 -28.79,-29.83 28.790001,29.83 0 0 1 28.79,-29.83 28.790001,29.83 0 0 1 28.79,29.83 z m 256.03,0 A 28.790001,29.83 0 0 1 400,173.8 28.790001,29.83 0 0 1 371.21,143.97 28.790001,29.83 0 0 1 400,114.14 a 28.790001,29.83 0 0 1 28.79,29.83 z m 256.03003,0 a 28.790001,29.83 0 0 1 -28.79,29.83 28.790001,29.83 0 0 1 -28.79,-29.83 28.790001,29.83 0 0 1 28.79,-29.83 28.790001,29.83 0 0 1 28.79,29.83 z M 172.76,400 A 28.790001,29.83 0 0 1 143.97,429.83 28.790001,29.83 0 0 1 115.18,400 28.790001,29.83 0 0 1 143.97,370.17 28.790001,29.83 0 0 1 172.76,400 Z m 512.06003,0 a 28.790001,29.83 0 0 1 -28.79,29.83 28.790001,29.83 0 0 1 -28.79,-29.83 28.790001,29.83 0 0 1 28.79,-29.83 28.790001,29.83 0 0 1 28.79,29.83 z M 172.76,656.03003 a 28.790001,29.83 0 0 1 -28.79,29.83 28.790001,29.83 0 0 1 -28.79,-29.83 28.790001,29.83 0 0 1 28.79,-29.83 28.790001,29.83 0 0 1 28.79,29.83 z m 256.03,0 a 28.790001,29.83 0 0 1 -28.79,29.83 28.790001,29.83 0 0 1 -28.79,-29.83 28.790001,29.83 0 0 1 28.79,-29.83 28.790001,29.83 0 0 1 28.79,29.83 z m 256.03003,0 a 28.790001,29.83 0 0 1 -28.79,29.83 28.790001,29.83 0 0 1 -28.79,-29.83 28.790001,29.83 0 0 1 28.79,-29.83 28.790001,29.83 0 0 1 28.79,29.83 z" /></symbol>
</svg>