<svg xmlns="http://www.w3.org/2000/svg">
<symbol id="view_list" viewBox="0 0 24 24"><path fill="none" d="M0 0H24V24H0z"/><path d="M3,14h4v-4H3V14z M3,19h4v-4H3V19z M3,9h4V5H3V9z M8,14h13v-4H8V14z M8,19h13v-4H8V19z M8,5v4h13V5H8z"/></symbol>
<symbol id="info" viewBox="0 0 24 24"><path fill="none" d="M0 0h24v24H0z"/><path d="M12 2C6.48 2 2 6.48 2 12s4.48 10 10 10 10-4.48 10-10S17.52 2 12 2zm1 15h-2v-6h2v6zm0-8h-2V7h2v2z"/></symbol>
<symbol id="arrow_right" viewBox="0 0 24 24"><path fill="none" d="M0 0h24v24H0V0z"/><path d="M10 17l5-5-5-5v10z"/></symbol>
<symbol id="arrow_left" viewBox="0 0 24 24"><path fill="none" d="M24 0v24H0V0h24z" opacity=".9"/><path d="M14 7l-5 5 5 5V7z"/></symbol>
<symbol id="expand_more" viewBox="0 0 24 24"><path fill="none" d="M24 24H0V0h24v24z" opacity=".9"/><path d="M16.59 8.59L12 13.17 7.41 8.59 6 10l6 6 6-6-1.41-1.41z"/></symbol>
<symbol id="expand_less" viewBox="0 0 24 24"><path fill="none" d="M0 0h24v24H0V0z"/><path d="M12 8l-6 6 1.41 1.41L12 10.83l4.59 4.58L18 14l-6-6z"/></symbol>
<symbol id="error" viewBox="0 0 24 24"><path d="M12 2C6.48 2 2 6.48 2 12s4.48 10 10 10 10-4.48 10-10S17.52 2 12 2zm1 15h-2v-2h2v2zm0-4h-2V7h2v6z"/></symbol>
<symbol id="lock" viewBox="0 0 24 24"><path fill="none" d="M0 0h24v24H0z"/><path d="M18 8h-1V6c0-2.76-2.24-5-5-5S7 3.24 7 6v2H6c-1.1 0-2 .9-2 2v10c0 1.1.9 2 2 2h12c1.1 0 2-.9 2-2V10c0-1.1-.9-2-2-2zm-6 9c-1.1 0-2-.9-2-2s.9-2 2-2 2 .9 2 2-.9 2-2 2zm3.1-9H8.9V6c0-1.71 1.39-3.1 3.1-3.1 1.71 0 3.1 1.39 3.1 3.1v2z"/></symbol>
<symbol id="file_download" viewBox="0 0 24 24"><path fill="none" d="M0 0H24V24H0z"/><path d="M18,15v3H6v-3H4v3c0,1.1,0.9,2,2,2h12c1.1,0,2-0.9,2-2v-3H18z M17,11l-1.41-1.41L13,12.17V4h-2v8.17L8.41,9.59L7,11l5,5 L17,11z"/></symbol>
<symbol id="call_made" viewBox="0 0 24 24"><path fill="none" d="M0 0h24v24H0V0z"/><path d="M9 5v2h6.59L4 18.59 5.41 20 17 8.41V15h2V5H9z"/></symbol>
<symbol id="call_received" viewBox="0 0 24 24"><path fill="none" d="M0 0h24v24H0V0z"/><path d="M20 5.41L18.59 4 7 15.59V9H5v10h10v-2H8.41L20 5.41z"/></symbol>
<symbol id="check" viewBox="0 0 24 24"><path fill="none" d="M0 0h24v24H0V0z"/><path d="M9 16.17L4.83 12l-1.42 1.41L9 19 21 7l-1.41-1.41L9 16.17z"/></symbol>
<symbol id="close" viewBox="0 0 24 24"><path fill="none" d="M0 0h24v24H0V0z"/><path d="M19 6.41L17.59 5 12 10.59 6.41 5 5 6.41 10.59 12 5 17.59 6.41 19 12 13.41 17.59 19 19 17.59 13.41 12 19 6.41z"/></symbol>
<symbol id="arrow_forward" viewBox="0 0 24 24"><path fill="none" d="M0 0h24v24H0V0z"/><path d="M12 4l-1.41 1.41L16.17 11H4v2h12.17l-5.58 5.59L12 20l8-8-8-8z"/></symbol>
<symbol id="arrow_back" viewBox="0 0 24 24"><path fill="none" d="M0 0h24v24H0V0z"/><path d="M20 11H7.83l5.59-5.59L12 4l-8 8 8 8 1.41-1.41L7.83 13H20v-2z"/></symbol>
<symbol id="electricitymap" viewBox="0 -10 117 117"><path d="M10.29 12.042 0 95.742l16.4-5.998 5.279-10.581L9.558 83.66l8.014-65.187 16.488-4.149 16.486 5.652 7.003-6.064-23.139-7.94zm78.03 3.909 12.111 4.019 7.122 63.894-22.261-8.931-25.25 10.627-8.123-3.453-7.584 5.483 15.692 6.668 25.338-10.663L117 96.285l-9.174-82.303-16.525-5.484z"/><path d="m84.842 1.582-51.148 46.87c-1.225 1.121-1.038 2.677.412 3.479l7.957 4.404a2.875 2.875 0 0 1 1.084 4.025L24.918 90.789c-.85 1.42-.468 1.755.857.747l54.968-41.853c1.336-1.017 1.156-2.341-.376-2.977l-10.482-4.348a2.823 2.823 0 0 1-1.473-3.869L85.753 2.271c.428-.893.457-1.364.154-1.364-.207 0-.569.22-1.065.675Z"/></symbol>
</svg>