<svg xmlns="http://www.w3.org/2000/svg">
<symbol id="view_list" viewBox="0 0 24 24"><path fill="none" d="M0 0H24V24H0z"/><path d="M3,14h4v-4H3V14z M3,19h4v-4H3V19z M3,9h4V5H3V9z M8,14h13v-4H8V14z M8,19h13v-4H8V19z M8,5v4h13V5H8z"/></symbol>
<symbol id="info" viewBox="0 0 24 24"><path fill="none" d="M0 0h24v24H0z"/><path d="M12 2C6.48 2 2 6.48 2 12s4.48 10 10 10 10-4.48 10-10S17.52 2 12 2zm1 15h-2v-6h2v6zm0-8h-2V7h2v2z"/></symbol>
<symbol id="arrow_right" viewBox="0 0 24 24"><path fill="none" d="M0 0h24v24H0V0z"/><path d="M10 17l5-5-5-5v10z"/></symbol>
<symbol id="arrow_left" viewBox="0 0 24 24"><path fill="none" d="M24 0v24H0V0h24z" opacity=".9"/><path d="M14 7l-5 5 5 5V7z"/></symbol>
<symbol id="expand_more" viewBox="0 0 24 24"><path fill="none" d="M24 24H0V0h24v24z" opacity=".9"/><path d="M16.59 8.59L12 13.17 7.41 8.59 6 10l6 6 6-6-1.41-1.41z"/></symbol>
<symbol id="expand_less" viewBox="0 0 24 24"><path fill="none" d="M0 0h24v24H0V0z"/><path d="M12 8l-6 6 1.41 1.41L12 10.83l4.59 4.58L18 14l-6-6z"/></symbol>
<symbol id="error" viewBox="0 0 24 24"><path d="M12 2C6.48 2 2 6.48 2 12s4.48 10 10 10 10-4.48 10-10S17.52 2 12 2zm1 15h-2v-2h2v2zm0-4h-2V7h2v6z"/></symbol>
<symbol id="lock" viewBox="0 0 24 24"><path fill="none" d="M0 0h24v24H0z"/><path d="M18 8h-1V6c0-2.76-2.24-5-5-5S7 3.24 7 6v2H6c-1.1 0-2 .9-2 2v10c0 1.1.9 2 2 2h12c1.1 0 2-.9 2-2V10c0-1.1-.9-2-2-2zm-6 9c-1.1 0-2-.9-2-2s.9-2 2-2 2 .9 2 2-.9 2-2 2zm3.1-9H8.9V6c0-1.71 1.39-3.1 3.1-3.1 1.71 0 3.1 1.39 3.1 3.1v2z"/></symbol>
<symbol id="file_download" viewBox="0 0 24 24"><path fill="none" d="M0 0H24V24H0z"/><path d="M18,15v3H6v-3H4v3c0,1.1,0.9,2,2,2h12c1.1,0,2-0.9,2-2v-3H18z M17,11l-1.41-1.41L13,12.17V4h-2v8.17L8.41,9.59L7,11l5,5 L17,11z"/></symbol>
<symbol id="call_made" viewBox="0 0 24 24"><path fill="none" d="M0 0h24v24H0V0z"/><path d="M9 5v2h6.59L4 18.59 5.41 20 17 8.41V15h2V5H9z"/></symbol>
<symbol id="call_received" viewBox="0 0 24 24"><path fill="none" d="M0 0h24v24H0V0z"/><path d="M20 5.41L18.59 4 7 15.59V9H5v10h10v-2H8.41L20 5.41z"/></symbol>
<symbol id="check" viewBox="0 0 24 24"><path fill="none" d="M0 0h24v24H0V0z"/><path d="M9 16.17L4.83 12l-1.42 1.41L9 19 21 7l-1.41-1.41L9 16.17z"/></symbol>
<symbol id="close" viewBox="0 0 24 24"><path fill="none" d="M0 0h24v24H0V0z"/><path d="M19 6.41L17.59 5 12 10.59 6.41 5 5 6.41 10.59 12 5 17.59 6.41 19 12 13.41 17.59 19 19 17.59 13.41 12 19 6.41z"/></symbol>
<symbol id="arrow_forward" viewBox="0 0 24 24"><path fill="none" d="M0 0h24v24H0V0z"/><path d="M12 4l-1.41 1.41L16.17 11H4v2h12.17l-5.58 5.59L12 20l8-8-8-8z"/></symbol>
<symbol id="arrow_back" viewBox="0 0 24 24"><path fill="none" d="M0 0h24v24H0V0z"/><path d="M20 11H7.83l5.59-5.59L12 4l-8 8 8 8 1.41-1.41L7.83 13H20v-2z"/></symbol>
<symbol id="comment" viewBox="0 0 24 24"><path d="M7.61032 10.6993C6.91651 10.6993 6.35597 11.237 6.35597 11.877C6.35597 12.5814 6.91651 13.123 7.61032 13.123C8.30413 13.123 8.82938 12.5833 8.82938 11.9111C8.82938 11.2389 8.30805 10.6993 7.61032 10.6993ZM12.0005 10.6652C11.3048 10.6652 10.7815 11.2048 10.7815 11.877C10.7815 12.5492 11.34 13.0548 12.0005 13.0548C12.661 13.0548 13.2196 12.5151 13.2196 11.877C13.2196 11.2389 12.6983 10.6652 12.0005 10.6652ZM16.3907 10.6993C15.695 10.6993 15.1717 11.2389 15.1717 11.9111C15.1717 12.5833 15.7302 13.123 16.3907 13.123C17.0865 13.123 17.6447 12.5833 17.6447 11.9111C17.6451 11.237 17.0885 10.6993 16.3907 10.6993ZM12.0005 4C6.45789 4 2.00105 7.52649 2.00105 11.877C2.00105 13.6804 2.78148 15.3327 4.07503 16.6601C3.49215 18.1559 2.277 19.42 2.2574 19.4341C1.99775 19.6992 1.9292 20.0873 2.07615 20.4187C2.19382 20.7804 2.52944 21 2.90653 21C5.31683 21 7.18306 20.0248 8.35901 19.2485C9.49066 19.5893 10.7172 19.7881 12.0005 19.7881C17.5432 19.7881 22 16.2613 22 11.9452C22 7.62912 17.5432 4 12.0005 4ZM12.0005 17.9704C10.952 17.9704 9.91831 17.8142 8.92895 17.5114L8.03719 17.2416L7.27321 17.7621C6.71464 18.1453 5.94557 18.5718 5.01971 18.8603C5.30875 18.4013 5.58298 17.8852 5.79857 17.336L6.21486 16.2757L5.40659 15.4474C4.7022 14.7173 3.84964 13.5092 3.84964 11.9111C3.84964 8.56906 7.50448 5.85186 11.9676 5.85186C16.4307 5.85186 20.0856 8.56906 20.0856 11.9111C20.0856 15.2532 16.5005 17.9704 12.0005 17.9704Z" /></symbol>
<symbol id="slack" viewBox="0 0 24 24"><path d="M6.21972 14.6433C6.21972 15.8057 5.28023 16.7452 4.11781 16.7452C2.95539 16.7452 2.0159 15.8057 2.0159 14.6433C2.0159 13.4809 2.95539 12.5414 4.11781 12.5414H6.21972V14.6433ZM7.27068 14.6433C7.27068 13.4809 8.21017 12.5414 9.37259 12.5414C10.535 12.5414 11.4745 13.4809 11.4745 14.6433V19.8981C11.4745 21.0605 10.535 22 9.37259 22C8.21017 22 7.27068 21.0605 7.27068 19.8981V14.6433Z" fill="#E01E5A"/><path d="M9.37261 6.20382C8.21019 6.20382 7.2707 5.26433 7.2707 4.10191C7.2707 2.93949 8.21019 2 9.37261 2C10.535 2 11.4745 2.93949 11.4745 4.10191V6.20382H9.37261ZM9.37261 7.2707C10.535 7.2707 11.4745 8.21019 11.4745 9.37261C11.4745 10.535 10.535 11.4745 9.37261 11.4745H4.10191C2.93949 11.4745 2 10.535 2 9.37261C2 8.21019 2.93949 7.2707 4.10191 7.2707H9.37261Z" fill="#36C5F0"/><path d="M17.7962 9.37261C17.7962 8.21019 18.7356 7.2707 19.8981 7.2707C21.0605 7.2707 22 8.21019 22 9.37261C22 10.535 21.0605 11.4745 19.8981 11.4745H17.7962V9.37261ZM16.7452 9.37261C16.7452 10.535 15.8057 11.4745 14.6433 11.4745C13.4809 11.4745 12.5414 10.535 12.5414 9.37261V4.10191C12.5414 2.93949 13.4809 2 14.6433 2C15.8057 2 16.7452 2.93949 16.7452 4.10191V9.37261V9.37261Z" fill="#2EB67D"/><path d="M14.6433 17.7962C15.8057 17.7962 16.7452 18.7357 16.7452 19.8981C16.7452 21.0605 15.8057 22 14.6433 22C13.4809 22 12.5414 21.0605 12.5414 19.8981V17.7962H14.6433ZM14.6433 16.7452C13.4809 16.7452 12.5414 15.8057 12.5414 14.6433C12.5414 13.4809 13.4809 12.5414 14.6433 12.5414H19.914C21.0764 12.5414 22.0159 13.4809 22.0159 14.6433C22.0159 15.8057 21.0764 16.7452 19.914 16.7452H14.6433Z" fill="#ECB22E"/></symbol>
<symbol id="twitter" viewBox="0 0 24 24"><path d="M20.9442 7.98749C20.9569 8.16248 20.9569 8.33751 20.9569 8.5125C20.9569 13.85 16.8326 20 9.29444 20C6.97209 20 4.81473 19.3375 3 18.1875C3.32996 18.225 3.64719 18.2375 3.98985 18.2375C5.90607 18.2375 7.67006 17.6 9.0787 16.5125C7.27666 16.475 5.7665 15.3125 5.24618 13.7125C5.50001 13.75 5.7538 13.775 6.02032 13.775C6.38833 13.775 6.75638 13.725 7.099 13.6375C5.22083 13.2625 3.81215 11.6375 3.81215 9.67499V9.62501C4.35782 9.92501 4.99239 10.1125 5.66493 10.1375C4.56087 9.41247 3.83754 8.17498 3.83754 6.77497C3.83754 6.02499 4.04055 5.33749 4.3959 4.73748C6.41369 7.18748 9.44671 8.78745 12.8477 8.96248C12.7843 8.66248 12.7462 8.35001 12.7462 8.03751C12.7462 5.81248 14.5736 4 16.8452 4C18.0254 4 19.0914 4.4875 19.8401 5.275C20.7665 5.10001 21.6548 4.76249 22.4416 4.3C22.137 5.23752 21.4898 6.02502 20.6396 6.52499C21.4645 6.43753 22.264 6.21248 23 5.90001C22.4417 6.69998 21.7437 7.41245 20.9442 7.98749Z"/></symbol>
<symbol id="github" viewBox="0 0 24 24"><path d="M12.0479 2.00001C9.6626 1.99753 7.35436 2.86279 5.53687 4.44074C3.71938 6.01869 2.51144 8.20617 2.12952 10.6112C1.7476 13.0162 2.21666 15.4815 3.45265 17.5654C4.68864 19.6492 6.61076 21.2154 8.87457 21.9831C9.37984 22.0776 9.55853 21.7566 9.55853 21.4859C9.55853 21.2153 9.55853 20.5985 9.55853 19.7425C6.75488 20.3656 6.16334 18.3642 6.16334 18.3642C5.97734 17.7438 5.5822 17.2109 5.04803 16.8599C4.14224 16.2305 5.12198 16.2305 5.12198 16.2305C5.4395 16.2763 5.74265 16.3953 6.00847 16.5785C6.2743 16.7617 6.49583 17.0043 6.65629 17.2879C6.79262 17.5404 6.97644 17.7629 7.19718 17.9427C7.41792 18.1225 7.67124 18.256 7.94261 18.3355C8.21397 18.415 8.49804 18.439 8.77852 18.4061C9.05899 18.3733 9.33035 18.2841 9.57702 18.1439C9.61569 17.6261 9.83423 17.1395 10.1932 16.7718C7.96261 16.5137 5.62109 15.6326 5.62109 11.7367C5.60577 10.7189 5.97421 9.73416 6.65012 8.98624C6.34909 8.10133 6.38427 7.13324 6.74871 6.27357C6.74871 6.27357 7.59289 5.99663 9.50924 7.32465C11.1548 6.86315 12.8918 6.86315 14.5373 7.32465C16.4537 5.99663 17.2917 6.27357 17.2917 6.27357C17.6612 7.12414 17.7052 8.08529 17.4149 8.96736C18.0908 9.71528 18.4593 10.7001 18.444 11.7178C18.444 15.6578 16.0963 16.52 13.8595 16.7529C14.0994 16.9992 14.2846 17.2952 14.4026 17.621C14.5206 17.9468 14.5687 18.2947 14.5435 18.6411C14.5435 20.0132 14.5435 21.1209 14.5435 21.4545C14.5435 21.788 14.7222 22.0461 15.2336 21.9454C17.4717 21.1573 19.365 19.5867 20.5792 17.511C21.7933 15.4353 22.2502 12.988 21.869 10.6016C21.4878 8.21511 20.2932 6.04306 18.4961 4.46912C16.699 2.89518 14.4151 2.02064 12.0479 2.00001V2.00001Z" /></symbol>

<symbol id="electricitymap" viewBox="0 -10 117 117"><path d="M10.29 12.042 0 95.742l16.4-5.998 5.279-10.581L9.558 83.66l8.014-65.187 16.488-4.149 16.486 5.652 7.003-6.064-23.139-7.94zm78.03 3.909 12.111 4.019 7.122 63.894-22.261-8.931-25.25 10.627-8.123-3.453-7.584 5.483 15.692 6.668 25.338-10.663L117 96.285l-9.174-82.303-16.525-5.484z"/><path d="m84.842 1.582-51.148 46.87c-1.225 1.121-1.038 2.677.412 3.479l7.957 4.404a2.875 2.875 0 0 1 1.084 4.025L24.918 90.789c-.85 1.42-.468 1.755.857.747l54.968-41.853c1.336-1.017 1.156-2.341-.376-2.977l-10.482-4.348a2.823 2.823 0 0 1-1.473-3.869L85.753 2.271c.428-.893.457-1.364.154-1.364-.207 0-.569.22-1.065.675Z"/></symbol>
</svg>
