<svg width="88px" height="88px" viewBox="0 0 88 88" version="1.1" xmlns="http://www.w3.org/2000/svg" xmlns:xlink="http://www.w3.org/1999/xlink">
    <g transform="translate(0.000000,88.000000) scale(0.100000,-0.100000)"
       fill="#000000" stroke="none">
        <path d="M290 775 l0 -35 -130 0 -130 0 0 -40 0 -40 205 0 205 0 -15 -37 c-19
-46 -84 -143 -96 -143 -5 0 -25 25 -45 55 -34 51 -40 55 -75 55 -22 0 -39 -2
-39 -5 0 -14 46 -94 73 -129 l30 -38 -92 -91 -92 -91 31 -30 30 -31 90 90 90
89 55 -54 c30 -29 58 -50 62 -46 5 4 13 22 19 39 11 30 10 34 -33 79 l-45 46
34 46 c20 25 50 79 69 121 l34 75 53 0 52 0 0 40 0 40 -130 0 -130 0 0 35 c0
34 -1 35 -40 35 -39 0 -40 -1 -40 -35z"/>
        <path d="M595 503 c-39 -100 -155 -416 -155 -423 0 -6 18 -10 39 -10 39 0 40
1 59 53 l20 52 84 3 84 3 18 -56 19 -55 44 0 c23 0 43 1 43 3 0 1 -37 101 -83
222 l-83 220 -41 3 c-31 2 -42 -1 -48 -15z m89 -220 c7 -22 5 -23 -43 -23
l-50 0 13 38 c8 20 19 51 26 67 l12 30 18 -45 c9 -25 21 -55 24 -67z"/>
    </g>
</svg>
