<svg width="150" height="150" xmlns="http://www.w3.org/2000/svg" fill="white"><circle cx="107.661" cy="108" r="4" style="opacity:.3"><animate attributeName="opacity" from="1" to=".3" dur="0.8s" repeatCount="indefinite" begin="0s"/></circle><circle cx="74.916" cy="108" r="4" style="opacity:.3"><animate attributeName="opacity" from="1" to=".3" dur="0.8s" repeatCount="indefinite" begin="0.1s"/></circle><circle cx="42.171" cy="108" r="4" style="opacity:.3"><animate attributeName="opacity" from="1" to=".3" dur="0.8s" repeatCount="indefinite" begin="0.2s"/></circle><circle cx="42.171" cy="75" r="4" style="opacity:.3"><animate attributeName="opacity" from="1" to=".3" dur="0.8s" repeatCount="indefinite" begin="0.3s"/></circle><circle cx="42.171" cy="42" r="4" style="opacity:.3"><animate attributeName="opacity" from="1" to=".3" dur="0.8s" repeatCount="indefinite" begin="0.4s"/></circle><circle cx="74.916" cy="42" r="4" style="opacity:.3"><animate attributeName="opacity" from="1" to=".3" dur="0.8s" repeatCount="indefinite" begin="0.5s"/></circle><circle cx="107.661" cy="42" r="4" style="opacity:.3"><animate attributeName="opacity" from="1" to=".3" dur="0.8s" repeatCount="indefinite" begin="0.6s"/></circle><circle cx="107.661" cy="75" r="4" style="opacity:.3"><animate attributeName="opacity" from="1" to=".3" dur="0.8s" repeatCount="indefinite" begin="0.7s"/></circle><path d="M92.645 69.478H77.123V56.434a1.51 1.51 0 0 0-1.938-1.448c-.302.09-.567.27-.76.52L55.99 78.082a1.51 1.51 0 0 0 1.197 2.438h15.521v13.045a1.511 1.511 0 0 0 1.939 1.448c.301-.09.567-.271.76-.52l18.435-22.577a1.512 1.512 0 0 0-1.197-2.439Z"/></svg>