<svg>
  <symbol xmlns="http://www.w3.org/2000/svg" id="view_list" viewBox="0 0 24 24"><path fill="none" d="M0 0H24V24H0z"/><path d="M3,14h4v-4H3V14z M3,19h4v-4H3V19z M3,9h4V5H3V9z M8,14h13v-4H8V14z M8,19h13v-4H8V19z M8,5v4h13V5H8z"/></symbol>
  <symbol xmlns="http://www.w3.org/2000/svg" id="info" viewBox="0 0 24 24"><path fill="none" d="M0 0h24v24H0z"/><path d="M12 2C6.48 2 2 6.48 2 12s4.48 10 10 10 10-4.48 10-10S17.52 2 12 2zm1 15h-2v-6h2v6zm0-8h-2V7h2v2z"/></symbol>
  <symbol xmlns="http://www.w3.org/2000/svg" id="arrow_right" viewBox="0 0 24 24"><path fill="none" d="M0 0h24v24H0V0z"/><path d="M10 17l5-5-5-5v10z"/></symbol>
  <symbol xmlns="http://www.w3.org/2000/svg" id="arrow_left" viewBox="0 0 24 24"><path fill="none" d="M24 0v24H0V0h24z" opacity=".9"/><path d="M14 7l-5 5 5 5V7z"/></symbol>
  <symbol xmlns="http://www.w3.org/2000/svg" id="expand_more" viewBox="0 0 24 24"><path fill="none" d="M24 24H0V0h24v24z" opacity=".9"/><path d="M16.59 8.59L12 13.17 7.41 8.59 6 10l6 6 6-6-1.41-1.41z"/></symbol>
  <symbol xmlns="http://www.w3.org/2000/svg" id="expand_less" viewBox="0 0 24 24"><path fill="none" d="M0 0h24v24H0V0z"/><path d="M12 8l-6 6 1.41 1.41L12 10.83l4.59 4.58L18 14l-6-6z"/></symbol>
  <symbol xmlns="http://www.w3.org/2000/svg" id="error" viewBox="0 0 24 24"><path d="M12 2C6.48 2 2 6.48 2 12s4.48 10 10 10 10-4.48 10-10S17.52 2 12 2zm1 15h-2v-2h2v2zm0-4h-2V7h2v6z"/></symbol>
  <symbol xmlns="http://www.w3.org/2000/svg" id="lock" viewBox="0 0 24 24"><path fill="none" d="M0 0h24v24H0z"/><path d="M18 8h-1V6c0-2.76-2.24-5-5-5S7 3.24 7 6v2H6c-1.1 0-2 .9-2 2v10c0 1.1.9 2 2 2h12c1.1 0 2-.9 2-2V10c0-1.1-.9-2-2-2zm-6 9c-1.1 0-2-.9-2-2s.9-2 2-2 2 .9 2 2-.9 2-2 2zm3.1-9H8.9V6c0-1.71 1.39-3.1 3.1-3.1 1.71 0 3.1 1.39 3.1 3.1v2z"/></symbol>
  <symbol xmlns="http://www.w3.org/2000/svg" id="file_download" viewBox="0 0 24 24"><path fill="none" d="M0 0H24V24H0z"/><path d="M18,15v3H6v-3H4v3c0,1.1,0.9,2,2,2h12c1.1,0,2-0.9,2-2v-3H18z M17,11l-1.41-1.41L13,12.17V4h-2v8.17L8.41,9.59L7,11l5,5 L17,11z"/></symbol>
  <symbol xmlns="http://www.w3.org/2000/svg" id="call_made" viewBox="0 0 24 24"><path fill="none" d="M0 0h24v24H0V0z"/><path d="M9 5v2h6.59L4 18.59 5.41 20 17 8.41V15h2V5H9z"/></symbol>
  <symbol xmlns="http://www.w3.org/2000/svg" id="call_received" viewBox="0 0 24 24"><path fill="none" d="M0 0h24v24H0V0z"/><path d="M20 5.41L18.59 4 7 15.59V9H5v10h10v-2H8.41L20 5.41z"/></symbol>
  <symbol xmlns="http://www.w3.org/2000/svg" id="check" viewBox="0 0 24 24"><path fill="none" d="M0 0h24v24H0V0z"/><path d="M9 16.17L4.83 12l-1.42 1.41L9 19 21 7l-1.41-1.41L9 16.17z"/></symbol>
  <symbol xmlns="http://www.w3.org/2000/svg" id="close" viewBox="0 0 24 24"><path fill="none" d="M0 0h24v24H0V0z"/><path d="M19 6.41L17.59 5 12 10.59 6.41 5 5 6.41 10.59 12 5 17.59 6.41 19 12 13.41 17.59 19 19 17.59 13.41 12 19 6.41z"/></symbol>
  <symbol xmlns="http://www.w3.org/2000/svg" id="arrow_forward" viewBox="0 0 24 24"><path fill="none" d="M0 0h24v24H0V0z"/><path d="M12 4l-1.41 1.41L16.17 11H4v2h12.17l-5.58 5.59L12 20l8-8-8-8z"/></symbol>
  <symbol xmlns="http://www.w3.org/2000/svg" id="arrow_back" viewBox="0 0 24 24"><path fill="none" d="M0 0h24v24H0V0z"/><path d="M20 11H7.83l5.59-5.59L12 4l-8 8 8 8 1.41-1.41L7.83 13H20v-2z"/></symbol>
  <symbol xmlns="http://www.w3.org/2000/svg" id="insights" viewBox="0 0 24 24"><path fill="none" d="M0 0H24V24H0z"/><path d="M21,8c-1.45,0-2.26,1.44-1.93,2.51l-3.55,3.56c-0.3-0.09-0.74-0.09-1.04,0l-2.55-2.55C12.27,10.45,11.46,9,10,9 c-1.45,0-2.27,1.44-1.93,2.52l-4.56,4.55C2.44,15.74,1,16.55,1,18c0,1.1,0.9,2,2,2c1.45,0,2.26-1.44,1.93-2.51l4.55-4.56 c0.3,0.09,0.74,0.09,1.04,0l2.55,2.55C12.73,16.55,13.54,18,15,18c1.45,0,2.27-1.44,1.93-2.52l3.56-3.55 C21.56,12.26,23,11.45,23,10C23,8.9,22.1,8,21,8z"/><path d="M15 9 16 7 18 6 16 5 15 3 14 5 12 6 14 7zM4 11 4 9 6 9 4 8 4 6 3 8 1 9 3 9z"/></symbol>
  <symbol xmlns="http://www.w3.org/2000/svg" id="api" viewBox="0 0 24 24"><path fill="none" d="M0 0H24V24H0z"/><path d="M14,12l-2,2l-2-2l2-2L14,12z M12,6l2.12,2.12l2.5-2.5L12,1L7.38,5.62l2.5,2.5L12,6z M6,12l2.12-2.12l-2.5-2.5L1,12 l4.62,4.62l2.5-2.5L6,12z M18,12l-2.12,2.12l2.5,2.5L23,12l-4.62-4.62l-2.5,2.5L18,12z M12,18l-2.12-2.12l-2.5,2.5L12,23l4.62-4.62 l-2.5-2.5L12,18z"/></symbol>
</svg>