<svg width="16" height="16" viewBox="0 0 16 16" fill="none" xmlns="http://www.w3.org/2000/svg">
<path fill-rule="evenodd" clip-rule="evenodd" d="M8.00009 4.2414e-06C6.09899 -0.00197725 4.25934 0.690383 2.81081 1.95301C1.36228 3.21563 0.399559 4.96599 0.0951703 6.89041C-0.209219 8.81483 0.164622 10.7875 1.1497 12.4549C2.13478 14.1224 3.6667 15.3756 5.47093 15.9899C5.87363 16.0655 6.01605 15.8086 6.01605 15.5921C6.01605 15.3755 6.01605 14.882 6.01605 14.197C3.78155 14.6956 3.3101 13.0941 3.3101 13.0941C3.16186 12.5978 2.84693 12.1713 2.42121 11.8905C1.69929 11.3868 2.48014 11.3868 2.48014 11.3868C2.7332 11.4235 2.97481 11.5187 3.18668 11.6653C3.39854 11.8119 3.57509 12.006 3.70298 12.2329C3.81164 12.435 3.95814 12.613 4.13406 12.7569C4.30999 12.9007 4.51189 13.0075 4.72817 13.0712C4.94445 13.1348 5.17085 13.154 5.39439 13.1277C5.61792 13.1014 5.83419 13.0301 6.03079 12.9178C6.06161 12.5035 6.23578 12.1142 6.52188 11.82C4.74411 11.6135 2.87793 10.9084 2.87793 7.791C2.86572 6.97664 3.15937 6.18865 3.69807 5.59018C3.45814 4.88211 3.48618 4.10747 3.77664 3.41958C3.77664 3.41958 4.44945 3.19799 5.97677 4.26063C7.28829 3.89135 8.67261 3.89135 9.98413 4.26063C11.5114 3.19799 12.1793 3.41958 12.1793 3.41958C12.4738 4.10019 12.5089 4.86927 12.2776 5.57507C12.8163 6.17354 13.1099 6.96153 13.0977 7.77589C13.0977 10.9286 11.2266 11.6185 9.44392 11.8049C9.63508 12.0019 9.78268 12.2388 9.87673 12.4995C9.97079 12.7602 10.0091 13.0385 9.98904 13.3157C9.98904 14.4136 9.98904 15.3 9.98904 15.5669C9.98904 15.8338 10.1315 16.0403 10.5391 15.9597C12.3228 15.3291 13.8317 14.0724 14.7994 12.4114C15.7671 10.7505 16.1312 8.79228 15.8274 6.88272C15.5236 4.97315 14.5715 3.23514 13.1392 1.97572C11.707 0.716297 9.88673 0.0165175 8.00009 4.2414e-06Z" fill="white"/>
</svg>
