<svg width="16" height="16" viewBox="0 0 16 16" fill="none" xmlns="http://www.w3.org/2000/svg">
<path d="M0.84375 7.25C0.40625 7.25 0.0625 6.875 0.125 6.4375C0.34375 5.40625 0.75 4.4375 1.3125 3.59375C1.5625 3.21875 2.09375 3.1875 2.40625 3.5C2.6875 3.78125 2.6875 4.21875 2.5 4.53125C2.09375 5.15625 1.8125 5.84375 1.625 6.59375C1.5625 6.96875 1.25 7.25 0.84375 7.25ZM4.5 2.53125C4.1875 2.71875 3.75 2.71875 3.46875 2.4375C3.15625 2.125 3.1875 1.59375 3.5625 1.34375C4.40625 0.78125 5.375 0.375 6.40625 0.15625C6.84375 0.09375 7.25 0.4375 7.25 0.875C7.25 1.28125 6.9375 1.59375 6.5625 1.65625C5.8125 1.84375 5.125 2.125 4.5 2.53125ZM8.75 15.1562C8.75 14.75 9.03125 14.4375 9.40625 14.375C10.1562 14.1875 10.8438 13.9062 11.4688 13.5C11.7812 13.3125 12.2188 13.3125 12.5 13.5938C12.8125 13.9062 12.7812 14.4375 12.4062 14.6875C11.5625 15.25 10.5938 15.6562 9.5625 15.875C9.125 15.9375 8.75 15.5938 8.75 15.1562ZM13.4688 11.5C13.875 10.875 14.1562 10.1875 14.3438 9.4375C14.4062 9.0625 14.7188 8.75 15.125 8.75C15.5625 8.75 15.9062 9.15625 15.8438 9.59375C15.625 10.625 15.2188 11.5938 14.6562 12.4375C14.4062 12.8125 13.875 12.8438 13.5625 12.5312C13.2812 12.25 13.2812 11.8125 13.4688 11.5ZM3.46875 13.5938C3.75 13.3125 4.1875 13.2812 4.5 13.5C5.125 13.9062 5.8125 14.1875 6.5625 14.3438C6.9375 14.4375 7.25 14.75 7.25 15.1562C7.25 15.5938 6.84375 15.9375 6.40625 15.8438C5.375 15.6562 4.40625 15.25 3.5625 14.6562C3.1875 14.4375 3.15625 13.9062 3.46875 13.5938ZM1.3125 12.4375C0.75 11.5938 0.34375 10.625 0.15625 9.59375C0.0625 9.15625 0.40625 8.75 0.84375 8.75C1.25 8.75 1.5625 9.0625 1.65625 9.4375C1.8125 10.1875 2.09375 10.875 2.5 11.5C2.71875 11.8125 2.6875 12.25 2.40625 12.5312C2.09375 12.8438 1.5625 12.8125 1.3125 12.4375ZM12.5 2.4375C12.2188 2.71875 11.7812 2.71875 11.4688 2.53125C10.8438 2.125 10.1562 1.84375 9.40625 1.65625C9.03125 1.59375 8.75 1.28125 8.75 0.875C8.75 0.4375 9.125 0.09375 9.5625 0.15625C10.5938 0.375 11.5625 0.78125 12.4062 1.34375C12.7812 1.59375 12.8125 2.125 12.5 2.4375ZM13.4688 4.53125C13.2812 4.1875 13.2812 3.78125 13.5625 3.5C13.875 3.1875 14.4062 3.21875 14.6562 3.5625C15.2188 4.4375 15.625 5.40625 15.8438 6.4375C15.9062 6.875 15.5625 7.25 15.125 7.25C14.7188 7.25 14.4062 6.96875 14.3438 6.59375C14.1562 5.84375 13.875 5.15625 13.4688 4.53125Z" fill="black"/>
</svg>
