<?xml version="1.0" encoding="UTF-8"?>
<svg width="163px" height="24px" viewBox="0 0 163 24" version="1.1" xmlns="http://www.w3.org/2000/svg" xmlns:xlink="http://www.w3.org/1999/xlink">
    <!-- Generator: Sketch 42 (36781) - http://www.bohemiancoding.com/sketch -->
    <title>Untitled 2</title>
    <desc>Created with Sketch.</desc>
    <defs></defs>
    <g id="Page-1" stroke="none" stroke-width="1" fill="none" fill-rule="evenodd">
        <g id="tomorrow_logo_open_source" fill-rule="nonzero" fill="#FFFFFF">
            <g id="Page-1">
                <g id="Artboard-3">
                    <g id="Group">
                        <path d="M16.171875,1.4238281 L13.8164062,1.4414062 L13.4824219,1.4414062 L13.4824219,18.7910156 C13.4824219,20.0800846 13.8398402,20.9531227 14.5546875,21.4101562 C15.0468775,21.7148453 16.0136647,21.9492179 17.4550781,22.1132812 L17.4550781,22.7460938 C17.4550781,22.8398442 17.4433595,22.9335933 17.4199219,23.0273438 L5.78320312,23.0273438 L5.74804688,22.1132812 C6.21679922,21.9492179 6.68847419,21.802735 7.16308594,21.6738281 C7.63769769,21.5449212 8.06249812,21.3750011 8.4375,21.1640625 C9.28125422,20.6953102 9.703125,19.9043024 9.703125,18.7910156 L9.703125,1.4414062 L7.13671875,1.4414062 C6.08202598,1.4414062 5.27344031,1.4824215 4.7109375,1.5644531 C4.14843469,1.6464848 3.69433767,1.8486312 3.34863281,2.1708984 C3.00292796,2.4931657 2.68652487,2.8652323 2.39941406,3.2871094 C2.11230325,3.7089865 1.8427747,4.1455056 1.59082031,4.5966797 C1.33886593,5.0478538 1.07812635,5.4374984 0.80859375,5.765625 L0,5.765625 L0.439453125,0.0351562 C3.42774932,0.1523443 7.40036584,0.2109375 12.3574219,0.2109375 C17.3144779,0.2109375 20.8066305,0.1406257 22.8339844,0 L23.3964844,5.7832031 L22.5527344,5.7832031 C22.2832018,5.4550765 22.0283215,5.0654319 21.7880859,4.6142578 C21.5478504,4.1630837 21.2871108,3.7265646 21.0058594,3.3046875 C20.3261685,2.2734323 19.6230505,1.6992193 18.8964844,1.5820312 C18.2285123,1.476562 17.3203182,1.4238281 16.171875,1.4238281 L16.171875,1.4238281 Z M26.4066964,11.25 C26.1723203,12.0117226 26.0551339,12.9023387 26.0551339,13.921875 C26.0551339,14.9414113 26.1723203,15.9316358 26.4066964,16.8925781 C26.6410726,17.8535204 26.9809129,18.7148399 27.4262277,19.4765625 C28.4106076,21.1640709 29.658642,22.0078125 31.1703683,22.0078125 C32.6469382,22.0078125 33.7895049,21.4570368 34.5981027,20.3554688 C35.3481064,19.3359324 35.7231027,17.9531337 35.7231027,16.2070312 C35.7231027,13.898426 35.266076,11.9648515 34.3520089,10.40625 C33.4027854,8.753898 32.1664697,7.9277344 30.6430245,7.9277344 C28.4984826,7.9277344 27.0863873,9.0351452 26.4066964,11.25 L26.4066964,11.25 Z M22.5395089,15.0117188 C22.5395089,12.5742066 23.3598132,10.5703204 25.0004464,9 C26.5824856,7.4999925 28.498482,6.75 30.7484933,6.75 C33.1508491,6.75 35.1371573,7.4882739 36.7074777,8.9648438 C38.3598297,10.5117265 39.1859933,12.521472 39.1859933,14.9941406 C39.1859933,17.4668092 38.365689,19.499992 36.7250558,21.09375 C35.1664543,22.6171951 33.2387392,23.3789062 30.9418527,23.3789062 C28.6449662,23.3789062 26.6879545,22.6054765 25.0707589,21.0585938 C23.3832505,19.453117 22.5395089,17.4375121 22.5395089,15.0117188 L22.5395089,15.0117188 Z M60.5829241,22.1484375 L60.5477678,23.0273438 L51.7587053,23.0273438 C51.7352677,22.8984369 51.7235491,22.7460946 51.7235491,22.5703125 L51.7235491,22.1484375 C51.8641748,22.054687 52.0604619,21.9814456 52.3124163,21.9287109 C52.5643707,21.8759763 52.8192509,21.8144535 53.0770647,21.7441406 C53.7098804,21.5683585 54.0848766,21.3105486 54.2020647,20.9707031 C54.4598785,20.4667944 54.5887835,19.8105509 54.5887835,19.0019531 L54.5887835,12.8847656 C54.5887835,11.513665 54.4335116,10.5673854 54.1229632,10.0458984 C53.8124147,9.5244115 53.4696447,9.1611338 53.0946428,8.9560547 C52.719641,8.7509755 52.2743329,8.6484375 51.7587053,8.6484375 C51.2430778,8.6484375 50.7860511,8.7158196 50.3876116,8.8505859 C49.9891721,8.9853522 49.6141759,9.1640614 49.2626116,9.3867188 C48.68839,9.7500018 48.0497245,10.3242148 47.346596,11.109375 L47.346596,18.8964844 C47.346596,20.1972721 47.4755009,20.9531239 47.7333147,21.1640625 C47.9911285,21.3750011 48.2489384,21.5302729 48.5067522,21.6298828 C48.764566,21.7294927 49.0311649,21.8144528 49.3065569,21.8847656 C49.5819489,21.9550785 49.8192512,22.0429682 50.018471,22.1484375 L49.9833147,23.0273438 L41.3172991,23.0273438 C41.3055803,22.9687497 41.299721,22.9101565 41.299721,22.8515625 L41.299721,22.1484375 C41.4520655,22.054687 41.6630009,21.9755863 41.9325335,21.9111328 C42.2020661,21.8466794 42.4715946,21.7675786 42.7411272,21.6738281 C43.3973805,21.439452 43.7723768,21.0937523 43.8661272,20.6367188 C43.9950341,20.1562476 44.0594866,19.6523464 44.0594866,19.125 L44.0594866,10.3007812 C43.7079223,9.6679656 42.7411351,9.1464864 41.159096,8.7363281 L41.2118303,8.1386719 L46.1161272,6.9433594 L47.1883928,6.9433594 L47.346596,9.4746094 C48.6005085,8.1035088 49.9071361,7.2539079 51.2665178,6.9257812 C51.7821454,6.8085932 52.3504991,6.75 52.971596,6.75 C55.2216072,6.75 56.7450295,7.6933499 57.5419085,9.5800781 C58.3973815,8.6425734 59.1063588,8.0097673 59.6688616,7.6816406 C60.6883979,7.0839814 61.6727631,6.7851562 62.6219866,6.7851562 C63.5712101,6.7851562 64.3534288,6.8701163 64.9686663,7.0400391 C65.5839037,7.2099618 66.1200312,7.4707014 66.5770647,7.8222656 C67.538007,8.5488318 68.0887828,9.6562426 68.2294085,11.1445312 C68.3231589,12.199224 68.3700335,13.3066348 68.3700335,14.4667969 L68.3700335,19.0722656 C68.3700335,19.6816437 68.4022597,20.1533186 68.4667132,20.4873047 C68.5311666,20.8212907 68.6571419,21.067382 68.8446428,21.2255859 C69.0321438,21.3837899 69.2460088,21.5126948 69.4862444,21.6123047 C69.72648,21.7119146 69.9725713,21.7998043 70.2245257,21.8759766 C70.47648,21.9521488 70.6962044,22.0429682 70.8837053,22.1484375 L70.8485491,23.0273438 L62.393471,23.0273438 C62.3700334,22.8984369 62.3583147,22.7460946 62.3583147,22.5703125 L62.3583147,22.1484375 C62.5458157,22.0429682 62.774329,21.9550785 63.0438616,21.8847656 C63.3133942,21.8144528 63.5770634,21.726563 63.8348772,21.6210938 C64.4794117,21.3867176 64.8485486,21.0468772 64.9422991,20.6015625 C65.0360496,20.0976537 65.0829241,19.5878932 65.0829241,19.0722656 L65.0829241,12.09375 C65.0829241,10.992182 64.8075362,10.1396515 64.2567522,9.5361328 C63.7059682,8.9326142 62.8973826,8.6308594 61.830971,8.6308594 C60.4598704,8.6308594 59.1063683,9.3632739 57.7704241,10.828125 C57.8407369,11.5546911 57.8758928,12.8554594 57.8758928,14.7304688 L57.8758928,18.984375 C57.8758928,19.6640659 57.9051894,20.1621078 57.9637835,20.4785156 C58.0223775,20.7949235 58.1542121,21.0351554 58.3592913,21.1992188 C58.5643704,21.3632821 58.7987431,21.4980463 59.0624163,21.6035156 C59.3260895,21.7089849 59.595618,21.7998043 59.87101,21.8759766 C60.146402,21.9521488 60.3837044,22.0429682 60.5829241,22.1484375 L60.5829241,22.1484375 Z M76.4779018,11.25 C76.2435256,12.0117226 76.1263393,12.9023387 76.1263393,13.921875 C76.1263393,14.9414113 76.2435256,15.9316358 76.4779018,16.8925781 C76.7122779,17.8535204 77.0521183,18.7148399 77.497433,19.4765625 C78.4818129,21.1640709 79.7298473,22.0078125 81.2415736,22.0078125 C82.7181435,22.0078125 83.8607102,21.4570368 84.669308,20.3554688 C85.4193118,19.3359324 85.794308,17.9531337 85.794308,16.2070312 C85.794308,13.898426 85.3372813,11.9648515 84.4232143,10.40625 C83.4739908,8.753898 82.237675,7.9277344 80.7142299,7.9277344 C78.5696879,7.9277344 77.1575927,9.0351452 76.4779018,11.25 L76.4779018,11.25 Z M72.6107143,15.0117188 C72.6107143,12.5742066 73.4310186,10.5703204 75.0716518,9 C76.6536909,7.4999925 78.5696874,6.75 80.8196986,6.75 C83.2220544,6.75 85.2083627,7.4882739 86.778683,8.9648438 C88.431035,10.5117265 89.2571986,12.521472 89.2571986,14.9941406 C89.2571986,17.4668092 88.4368943,19.499992 86.7962611,21.09375 C85.2376596,22.6171951 83.3099445,23.3789062 81.013058,23.3789062 C78.7161715,23.3789062 76.7591599,22.6054765 75.1419643,21.0585938 C73.4544558,19.453117 72.6107143,17.4375121 72.6107143,15.0117188 L72.6107143,15.0117188 Z M93.9900669,10.3183594 C93.6619403,9.7675754 92.7420276,9.2871114 91.2303013,8.8769531 L91.2654576,8.2617188 L95.9412388,6.9257812 L96.9431919,6.9257812 L97.2244419,10.1601562 C98.1971031,8.3906162 99.269358,7.3359392 100.441239,6.9960938 C100.839678,6.8906245 101.241041,6.8378906 101.64534,6.8378906 C102.049639,6.8378906 102.404128,6.8964838 102.708817,7.0136719 C103.013506,7.13086 103.277175,7.2832022 103.499833,7.4707031 C103.968585,7.8691426 104.202958,8.302732 104.202958,8.7714844 C104.202958,9.1347674 104.109209,9.4863264 103.921708,9.8261719 C103.570143,10.5175816 103.180499,10.8632812 102.752762,10.8632812 C102.325026,10.8632812 102.005693,10.7695322 101.794754,10.5820312 C101.583816,10.3945303 101.402177,10.1894542 101.249833,9.9667969 C101.097488,9.7441395 100.942216,9.5390634 100.784012,9.3515625 C100.625808,9.1640616 100.394365,9.0703125 100.089676,9.0703125 C99.7849873,9.0703125 99.5008105,9.1552726 99.2371373,9.3251953 C98.9734641,9.495118 98.7303024,9.7148424 98.5076451,9.984375 C98.2849877,10.2539076 98.0740523,10.5585921 97.8748326,10.8984375 C97.6756128,11.2382829 97.4763961,11.572264 97.2771763,11.9003906 L97.2771763,18.4394531 C97.2771763,19.5293023 97.3269805,20.2617169 97.4265904,20.6367188 C97.5262003,21.0117206 97.6961204,21.2724602 97.936356,21.4189453 C98.1765916,21.5654304 98.4578388,21.6767574 98.780106,21.7529297 C99.1023732,21.8291019 99.4392839,21.8906248 99.7908482,21.9375 C100.142412,21.9843752 100.452956,22.054687 100.722489,22.1484375 L100.704911,22.6933594 L100.704911,23.0273438 L91.2830357,23.0273438 C91.2713169,22.9804685 91.2654576,22.9101567 91.2654576,22.8164062 L91.2654576,22.2011719 C91.2654576,22.1425778 91.2713169,22.1015626 91.2830357,22.078125 C91.6814752,21.9609369 92.0476825,21.8671879 92.3816685,21.796875 C92.7156546,21.7265621 92.9998314,21.6093758 93.2342076,21.4453125 C93.7381163,21.1054671 93.9900669,20.3730525 93.9900669,19.2480469 L93.9900669,10.3183594 Z M107.86356,10.3183594 C107.535434,9.7675754 106.615521,9.2871114 105.103795,8.8769531 L105.138951,8.2617188 L109.814732,6.9257812 L110.816685,6.9257812 L111.097935,10.1601562 C112.070596,8.3906162 113.142851,7.3359392 114.314732,6.9960938 C114.713172,6.8906245 115.114535,6.8378906 115.518834,6.8378906 C115.923133,6.8378906 116.277621,6.8964838 116.58231,7.0136719 C116.886999,7.13086 117.150669,7.2832022 117.373326,7.4707031 C117.842078,7.8691426 118.076451,8.302732 118.076451,8.7714844 C118.076451,9.1347674 117.982702,9.4863264 117.795201,9.8261719 C117.443637,10.5175816 117.053992,10.8632812 116.626256,10.8632812 C116.198519,10.8632812 115.879186,10.7695322 115.668248,10.5820312 C115.457309,10.3945303 115.27567,10.1894542 115.123326,9.9667969 C114.970981,9.7441395 114.815709,9.5390634 114.657506,9.3515625 C114.499302,9.1640616 114.267859,9.0703125 113.96317,9.0703125 C113.658481,9.0703125 113.374304,9.1552726 113.110631,9.3251953 C112.846957,9.495118 112.603796,9.7148424 112.381138,9.984375 C112.158481,10.2539076 111.947546,10.5585921 111.748326,10.8984375 C111.549106,11.2382829 111.349889,11.572264 111.15067,11.9003906 L111.15067,18.4394531 C111.15067,19.5293023 111.200474,20.2617169 111.300084,20.6367188 C111.399694,21.0117206 111.569614,21.2724602 111.809849,21.4189453 C112.050085,21.5654304 112.331332,21.6767574 112.653599,21.7529297 C112.975867,21.8291019 113.312777,21.8906248 113.664341,21.9375 C114.015906,21.9843752 114.32645,22.054687 114.595982,22.1484375 L114.578404,22.6933594 L114.578404,23.0273438 L105.156529,23.0273438 C105.14481,22.9804685 105.138951,22.9101567 105.138951,22.8164062 L105.138951,22.2011719 C105.138951,22.1425778 105.14481,22.1015626 105.156529,22.078125 C105.554968,21.9609369 105.921176,21.8671879 106.255162,21.796875 C106.589148,21.7265621 106.873325,21.6093758 107.107701,21.4453125 C107.61161,21.1054671 107.86356,20.3730525 107.86356,19.2480469 L107.86356,10.3183594 Z M123.283929,11.25 C123.049552,12.0117226 122.932366,12.9023387 122.932366,13.921875 C122.932366,14.9414113 123.049552,15.9316358 123.283929,16.8925781 C123.518305,17.8535204 123.858145,18.7148399 124.30346,19.4765625 C125.28784,21.1640709 126.535874,22.0078125 128.0476,22.0078125 C129.52417,22.0078125 130.666737,21.4570368 131.475335,20.3554688 C132.225339,19.3359324 132.600335,17.9531337 132.600335,16.2070312 C132.600335,13.898426 132.143308,11.9648515 131.229241,10.40625 C130.280018,8.753898 129.043702,7.9277344 127.520257,7.9277344 C125.375715,7.9277344 123.963619,9.0351452 123.283929,11.25 L123.283929,11.25 Z M119.416741,15.0117188 C119.416741,12.5742066 120.237045,10.5703204 121.877679,9 C123.459718,7.4999925 125.375714,6.75 127.625725,6.75 C130.028081,6.75 132.014389,7.4882739 133.58471,8.9648438 C135.237062,10.5117265 136.063225,12.521472 136.063225,14.9941406 C136.063225,17.4668092 135.242921,19.499992 133.602288,21.09375 C132.043686,22.6171951 130.115971,23.3789062 127.819085,23.3789062 C125.522198,23.3789062 123.565187,22.6054765 121.947991,21.0585938 C120.260483,19.453117 119.416741,17.4375121 119.416741,15.0117188 L119.416741,15.0117188 Z M142.466016,9.6679688 C142.466016,10.0078142 142.501171,10.2480462 142.571484,10.3886719 L145.823437,18.7558594 L149.040234,10.9335938 C148.48945,9.1054596 147.505085,8.150391 146.087109,8.0683594 L146.122266,7.2246094 L153.891797,7.2246094 C153.915234,7.5292984 153.926953,7.8105456 153.926953,8.0683594 C153.704296,8.1738287 153.475782,8.2617184 153.241406,8.3320312 C153.00703,8.4023441 152.790235,8.4843745 152.591016,8.578125 C152.133982,8.7890636 151.905469,9.1054666 151.905469,9.5273438 C151.905469,9.820314 152.010936,10.2304661 152.221875,10.7578125 L155.087109,18.6152344 L157.829297,11.2148438 C158.051954,10.6289033 158.163281,10.1572283 158.163281,9.7998047 C158.163281,9.442381 158.116407,9.1757821 158.022656,9 C157.928906,8.8242179 157.791212,8.6894536 157.60957,8.5957031 C157.427929,8.5019527 157.205275,8.4257815 156.941602,8.3671875 C156.677928,8.3085935 156.376174,8.226563 156.036328,8.1210938 C156.01289,8.0039057 156.001172,7.8632821 156.001172,7.6992188 C156.001172,7.5468742 156.01289,7.3886727 156.036328,7.2246094 L162.20625,7.2246094 L162.20625,8.15625 C161.397652,8.2617193 160.618363,8.7890578 159.868359,9.7382812 C159.657421,9.996095 159.510938,10.2421863 159.428906,10.4765625 L154.682812,23.2734375 C154.553906,23.3437504 154.378126,23.3789062 154.155469,23.3789062 C153.932811,23.3789062 153.751173,23.3437504 153.610547,23.2734375 L149.620312,12.5507812 L145.383984,23.2734375 C145.243359,23.3437504 145.052931,23.3789062 144.812695,23.3789062 C144.57246,23.3789062 144.393751,23.3437504 144.276562,23.2734375 L139.372266,10.7402344 C139.044139,9.9199178 138.768751,9.369142 138.546094,9.0878906 C138.135935,8.572263 137.602738,8.238282 136.946484,8.0859375 L136.981641,7.2246094 L144.223828,7.2246094 C144.235547,7.3769539 144.241406,7.5234368 144.241406,7.6640625 L144.241406,8.0683594 C143.057807,8.4433612 142.466016,8.976559 142.466016,9.6679688 L142.466016,9.6679688 Z" id="Tomorrow"></path>
                    </g>
                </g>
            </g>
        </g>
    </g>
</svg>