<svg width="14" height="12" viewBox="0 0 14 12" fill="none" xmlns="http://www.w3.org/2000/svg">
<path d="M14 1.6582C13.4849 1.88686 12.9313 2.04086 12.3503 2.11028C12.9436 1.75503 13.3992 1.19211 13.6132 0.521279C13.0585 0.850279 12.4437 1.08945 11.7892 1.21836C11.2659 0.660113 10.5187 0.311279 9.69267 0.311279C7.83825 0.311279 6.47558 2.04145 6.89442 3.83753C4.508 3.71795 2.39167 2.57461 0.97475 0.836863C0.22225 2.12778 0.5845 3.81653 1.86317 4.6717C1.393 4.65653 0.949667 4.52761 0.562917 4.31236C0.531417 5.64295 1.48517 6.88778 2.8665 7.16486C2.46225 7.27453 2.0195 7.3002 1.56917 7.21386C1.93433 8.35486 2.99483 9.18495 4.2525 9.20828C3.045 10.155 1.52367 10.5779 0 10.3983C1.27108 11.2132 2.78133 11.6886 4.403 11.6886C9.73583 11.6886 12.7487 7.1847 12.5667 3.14511C13.1279 2.7397 13.615 2.23395 14 1.6582Z" fill="white"/>
</svg>
