<svg width="12" height="12" viewBox="0 0 12 12" fill="none" xmlns="http://www.w3.org/2000/svg">
<path d="M5.8125 1.99219L1.17188 9.60938C1.125 9.67969 1.125 9.72656 1.125 9.79688C1.125 9.98438 1.26562 10.125 1.45312 10.125H10.5234C10.7109 10.125 10.875 9.98438 10.875 9.79688C10.875 9.72656 10.8516 9.67969 10.8047 9.60938L6.16406 1.99219C6.14062 1.92188 6.07031 1.875 6 1.875C5.90625 1.875 5.85938 1.92188 5.8125 1.99219ZM4.85156 1.40625C5.08594 1.00781 5.53125 0.75 6 0.75C6.44531 0.75 6.89062 1.00781 7.125 1.40625L11.7656 9.02344C11.9062 9.25781 12 9.51562 12 9.79688C12 10.5938 11.3438 11.25 10.5234 11.25H1.45312C0.65625 11.25 0 10.5938 0 9.79688C0 9.51562 0.0703125 9.25781 0.210938 9.02344L4.85156 1.40625ZM6.75 8.625C6.75 9.04688 6.39844 9.375 6 9.375C5.57812 9.375 5.25 9.04688 5.25 8.625C5.25 8.22656 5.57812 7.875 6 7.875C6.39844 7.875 6.75 8.22656 6.75 8.625ZM6.5625 4.3125V6.5625C6.5625 6.89062 6.30469 7.125 6 7.125C5.67188 7.125 5.4375 6.89062 5.4375 6.5625V4.3125C5.4375 4.00781 5.67188 3.75 6 3.75C6.30469 3.75 6.5625 4.00781 6.5625 4.3125Z" fill="#B45309"/>
</svg>
