<?xml version="1.0" encoding="UTF-8" standalone="no"?>
<!-- Created with Inkscape (http://www.inkscape.org/) -->

<svg
   width="512"
   height="512"
   viewBox="0 0 135.46667 135.46667"
   version="1.1"
   id="svg830"
   inkscape:version="1.1 (c4e8f9e, 2021-05-24)"
   sodipodi:docname="drawing.svg"
   xmlns:inkscape="http://www.inkscape.org/namespaces/inkscape"
   xmlns:sodipodi="http://sodipodi.sourceforge.net/DTD/sodipodi-0.dtd"
   xmlns="http://www.w3.org/2000/svg"
   xmlns:svg="http://www.w3.org/2000/svg">
  <sodipodi:namedview
     id="namedview832"
     pagecolor="#ffffff"
     bordercolor="#666666"
     borderopacity="1.0"
     inkscape:pageshadow="2"
     inkscape:pageopacity="0.0"
     inkscape:pagecheckerboard="0"
     inkscape:document-units="mm"
     showgrid="false"
     inkscape:zoom="0.55678311"
     inkscape:cx="212.82973"
     inkscape:cy="561.25984"
     inkscape:window-width="1312"
     inkscape:window-height="1003"
     inkscape:window-x="0"
     inkscape:window-y="25"
     inkscape:window-maximized="0"
     inkscape:current-layer="layer1"
     width="170mm"
     units="px" />
  <defs
     id="defs827" />
  <g
     inkscape:label="Layer 1"
     inkscape:groupmode="layer"
     id="layer1">
    <path
       d="m 121.16126,93.51025 -8.99584,-5.19642 A 23.688146,23.688146 0 0 1 117.7058,84.0805 5.8208333,5.8208333 0 0 0 112.07546,73.891395 35.353625,35.353625 0 0 0 101.87578,82.38452 L 78.56334,68.903999 101.87049,55.447291 a 35.311292,35.311292 0 0 0 10.19968,8.493125 5.8208333,5.8208333 0 1 0 5.63034,-10.189104 23.743708,23.743708 0 0 1 -5.54038,-4.233334 l 8.99583,-5.196416 a 5.8208333,5.8208333 0 1 0 -5.81554,-10.077979 l -8.99583,5.19377 a 23.743708,23.743708 0 0 1 -0.90488,-6.918854 5.8208333,5.8208333 0 0 0 -5.7097,-5.947833 H 99.62153 A 5.8208333,5.8208333 0 0 0 93.8007,32.28302 35.350979,35.350979 0 0 0 96.04965,45.356083 L 72.74251,58.820728 v -26.91077 a 35.321875,35.321875 0 0 0 12.45394,-4.58523 5.8212548,5.8212548 0 0 0 -6.00869,-9.972145 23.696083,23.696083 0 0 1 -6.44525,2.674937 v -8.802687 a 5.820835,5.820835 0 0 0 -11.64167,0 v 8.802687 a 23.696083,23.696083 0 0 1 -6.44525,-2.674937 5.8212548,5.8212548 0 1 0 -6.00869,9.972145 35.321875,35.321875 0 0 0 12.45394,4.58523 v 26.91077 L 37.793696,45.356083 a 35.350979,35.350979 0 0 0 2.25425,-13.078355 5.8208333,5.8208333 0 0 0 -5.820833,-5.712354 h -0.113771 a 5.8208333,5.8208333 0 0 0 -5.712354,5.929313 23.743708,23.743708 0 0 1 -0.902229,6.929437 l -8.995834,-5.180541 a 5.8208333,5.8208333 0 1 0 -5.820833,10.080625 l 8.995833,5.196416 a 23.743708,23.743708 0 0 1 -5.540375,4.233334 5.8208333,5.8208333 0 1 0 5.630334,10.189104 35.353625,35.353625 0 0 0 10.199687,-8.493125 L 55.28001,68.903999 31.972863,82.36071 a 35.353625,35.353625 0 0 0 -10.199688,-8.493127 5.8208333,5.8208333 0 1 0 -5.630333,10.189107 23.743708,23.743708 0 0 1 5.540375,4.23333 l -9.001125,5.22023 a 5.8208333,5.8208333 0 1 0 5.820833,10.08063 l 8.995834,-5.19378 a 23.743708,23.743708 0 0 1 0.904875,6.91886 5.8208333,5.8208333 0 0 0 5.709708,5.92138 h 0.108479 a 5.8208333,5.8208333 0 0 0 5.820833,-5.71236 35.350979,35.350979 0 0 0 -2.248958,-13.07306 L 61.10084,78.98727 v 26.91077 a 35.321875,35.321875 0 0 0 -12.45394,4.58523 5.821257,5.821257 0 1 0 6.00869,9.97215 23.696083,23.696083 0 0 1 6.44525,-2.67494 v 8.80269 a 5.820835,5.820835 0 0 0 11.64167,0 v -8.80269 a 23.696083,23.696083 0 0 1 6.44525,2.67494 5.821257,5.821257 0 0 0 6.00869,-9.97215 35.321875,35.321875 0 0 0 -12.45394,-4.58523 V 78.98727 l 23.30714,13.46465 a 35.350979,35.350979 0 0 0 -2.25425,13.07835 5.8208333,5.8208333 0 0 0 5.82084,5.71236 h 0.11377 a 5.8208333,5.8208333 0 0 0 5.71235,-5.92931 23.743708,23.743708 0 0 1 0.90223,-6.92945 l 8.99583,5.19378 a 5.8208333,5.8208333 0 1 0 5.82084,-10.0674 z"
       id="path893"
       style="fill:#cccccc;stroke-width:0.264583" />
  </g>
</svg>
